<svg width="96" height="126" viewBox="0 0 96 126" fill="none" xmlns="http://www.w3.org/2000/svg">
<ellipse cx="48" cy="47.7904" rx="48" ry="47.7904" fill="#50398C"/>
<ellipse cx="48" cy="47.7901" rx="38" ry="37.8341" fill="white"/>
<path d="M65 125.948L89.5 71.6855L76.5 81.6419L61.5 90.6026L65 125.948Z" fill="#50398C"/>
<g clip-path="url(#clip0_10788_37667)">
<path d="M76.9804 53.5056L76.4877 51.5611C76.4701 51.4028 76.4437 51.306 76.3909 51.2708C76.3469 51.2356 76.2326 51.2268 76.0654 51.262C75.9598 51.2796 75.9862 51.2884 75.8806 51.2884C75.4759 51.2884 75.2207 51.1916 75.1151 51.0068C75.0096 50.8221 74.9568 50.5405 74.9568 50.171C74.9568 50.171 74.948 47.9186 74.9568 47.1883C74.9744 46.282 74.7368 45.5341 74.3849 44.8039C74.0329 44.0736 73.6106 43.6249 72.9683 43.097C72.326 42.569 71.4286 42.2787 70.6367 42.0939C69.8712 41.9091 68.1907 42.0499 67.5484 42.0411C66.2022 42.0235 65.6039 42.0323 64.6713 41.874C64.6009 41.8564 64.5305 41.8564 64.4513 41.8652C64.3721 41.874 64.3105 41.9531 64.2665 42.0939L63.6066 44.3287C63.5627 44.5047 63.5802 44.6191 63.633 44.6631C63.6946 44.7071 63.7474 44.7511 63.809 44.7775C64.0378 44.8479 64.1874 44.9095 64.3457 44.9446C64.5041 44.9798 64.6625 45.0062 64.8208 45.0326C64.9792 45.059 65.3664 45.1206 65.5335 45.1294C65.9471 45.1558 68.1731 45.2614 68.9474 45.323C69.7216 45.3846 70.1968 45.5078 70.5047 45.9653C70.6455 46.1852 70.6895 46.3348 70.7159 46.6868H68.1643C66.7301 46.6868 65.5775 47.0387 64.7153 47.7514C63.853 48.4641 63.4219 49.5023 63.4219 50.8837C63.4219 51.4468 63.5187 51.9747 63.7034 52.4586C63.8882 52.9425 64.2049 53.3649 64.6537 53.7168C65.1024 54.0687 65.6919 54.3415 66.4222 54.5351C67.1525 54.7286 68.0675 54.8254 69.1409 54.8254C70.188 54.8254 71.1382 54.5702 71.9301 54.2359C72.1852 54.4207 72.4668 54.5527 72.7923 54.623C73.2147 54.7198 73.681 54.7726 74.1913 54.7726C75.4847 54.7726 76.8924 53.9104 76.9364 53.84C77.0068 53.7872 77.0068 53.6728 76.9804 53.5056ZM70.7071 51.262C70.5223 51.3588 70.2759 51.4204 69.9768 51.4468C69.6776 51.482 69.4665 51.4908 69.3609 51.4908C68.9122 51.4908 68.5514 51.4028 68.2787 51.2356C68.0059 51.0596 67.8739 50.7869 67.8739 50.4173C67.8739 50.1534 67.9179 49.9334 68.0147 49.775C68.1115 49.6079 68.2259 49.4847 68.3667 49.3967C68.5074 49.3087 68.657 49.2559 68.833 49.2207C69.0002 49.1855 69.1761 49.1767 69.3433 49.1767H70.7159V51.262H70.7071Z" fill="#0097B9"/>
<path d="M64.1808 37.0528C64.1368 37.044 63.6265 37 63.4241 37C62.1572 37 61.1629 37.2376 60.4502 37.7127C59.7288 38.1878 59.1921 38.9621 58.8313 40.0179L57.9603 42.5255C57.9515 42.5431 57.9427 42.5607 57.9427 42.5783L57.098 44.9451C56.8956 45.5698 56.6053 45.9833 56.3149 46.1857C56.0246 46.388 55.6814 46.4936 55.2943 46.4936H54.6608V42.6751C54.6608 42.4991 54.6256 42.3935 54.564 42.3583C54.5024 42.3231 54.388 42.2967 54.2385 42.2967H50.8598C50.7191 42.2967 50.6135 42.3143 50.5431 42.3583C50.4727 42.3935 50.4375 42.4991 50.4375 42.6751V54.21C50.4375 54.3859 50.4727 54.4915 50.5431 54.5267C50.6135 54.5619 50.7191 54.5883 50.8598 54.5883H54.2385C54.3968 54.5883 54.5024 54.5707 54.564 54.5267C54.6256 54.4915 54.6608 54.3859 54.6608 54.21V49.7051H55.5319C56.0158 49.7051 56.3941 49.7843 56.6669 49.9515C56.9396 50.1186 57.1332 50.4266 57.2916 50.8753C57.5819 51.6936 57.5115 52.5558 57.7139 53.1893C58.0658 54.3067 58.4354 54.5003 58.5234 54.5267C58.6113 54.5619 58.6817 54.5707 58.7433 54.5707H62.3067C62.4915 54.5707 62.5971 54.5179 62.6147 54.4211C62.6323 54.3155 62.5443 54.1836 62.4563 54.0428C62.4563 54.0428 62.0604 53.5501 61.8316 52.8022C61.638 52.1775 61.5325 50.7873 61.4005 50.1802C61.3389 49.9251 61.2597 49.5995 61.1629 49.3708C61.0661 49.142 60.9518 48.9396 60.8022 48.7461C60.6526 48.5613 60.459 48.3941 60.2127 48.2533C59.9663 48.1126 59.6672 48.007 59.3064 47.9278V47.8574C59.8255 47.6726 60.2127 47.3911 60.4942 47.0127C60.767 46.6344 60.9694 46.2121 61.0925 45.7194C61.0925 45.7194 61.9812 42.6047 61.99 42.6047L62.2803 41.76C62.4563 41.2409 62.7203 40.9154 63.0106 40.7658C63.2746 40.6338 63.1426 40.6954 63.3714 40.5898C63.4153 40.5722 63.5649 40.5282 63.6441 40.2555C63.7321 39.9299 64.216 38.0734 64.392 37.2992C64.4008 37.1936 64.3216 37.1056 64.1808 37.0528Z" fill="#4F388C"/>
<path d="M33.0338 42.3048H29.4264C29.1097 42.3048 28.9073 42.3488 28.8193 42.4368C28.7226 42.5248 28.6434 42.692 28.5642 42.9383L27.5523 46.6865L26.5317 50.6459L26.5229 50.6723H26.3909L25.6519 47.7511L24.6224 43.8798C24.5432 43.651 24.4553 43.4311 24.3673 43.2199C24.2793 43.0087 24.1561 42.824 23.9977 42.6656C23.8394 42.5072 23.6458 42.384 23.4082 42.296C23.1707 42.2081 22.8539 42.1641 22.4668 42.1641C21.9917 42.1641 21.5077 42.2169 21.0062 42.3224C20.5047 42.428 19.9768 42.6216 19.4049 42.8943C19.2729 42.9735 19.1673 43.0615 19.0706 43.1407C18.9826 43.2199 18.9738 43.4047 19.0618 43.6774L19.4577 45.2699C19.5193 45.5163 19.5897 45.6571 19.6513 45.7011C19.7128 45.7451 19.8448 45.7451 20.0472 45.7099C20.3375 45.6747 20.5223 45.6835 20.6015 45.7187C20.6719 45.7627 20.7687 45.9386 20.8831 46.2466L22.4228 50.4963L23.2675 52.8367C23.4082 53.2238 23.549 53.5054 23.6898 53.655C23.8306 53.8133 24.1121 53.8925 24.5344 53.8925H25.4055L25.0536 54.922C24.8776 55.4411 24.6488 55.7666 24.3585 55.9162C24.0945 56.0482 23.725 56.1274 23.2499 56.1361C23.2059 56.1361 23.0211 56.1186 22.9507 56.4529C22.8803 56.7872 22.4756 58.5821 22.3084 59.3564C22.282 59.4796 22.37 59.6028 22.4932 59.6204C22.5372 59.6292 22.59 59.6292 22.634 59.638C23.0915 59.682 23.5138 59.7084 23.9273 59.7084C25.1943 59.7084 26.1886 59.4708 26.9013 58.9957C27.6227 58.5206 28.1594 57.7463 28.5202 56.6905V56.7169L33.3506 42.7448C33.465 42.4544 33.3594 42.3048 33.0338 42.3048Z" fill="#E99500"/>
<path d="M44.1025 48.6137L43.381 50.4878L42.0436 53.7257C41.8764 54.0952 41.7269 54.3416 41.4981 54.4559C41.2605 54.5703 41.1462 54.5703 40.8382 54.5703H39.712C39.3512 54.5703 39.0961 54.5087 38.9377 54.3856C38.7793 54.2624 38.6738 54.0424 38.621 53.7345L38.0667 50.3294L37.8027 48.6401H37.7059L36.1574 54.1128C36.1134 54.3504 36.043 54.4911 35.955 54.5351C35.867 54.5791 35.7087 54.6055 35.4711 54.6055H32.0749C31.8989 54.6055 31.7669 54.5791 31.6701 54.5351C31.5733 54.4911 31.5469 54.3504 31.5909 54.1128L35.5591 42.4811C35.6559 42.2524 36.1926 42.2964 36.9932 42.2964L38.0755 42.3228C38.4186 42.3228 38.8761 42.3843 39.1489 42.4987C39.4216 42.6131 39.6064 42.9123 39.6944 43.3962L40.6094 48.7281H40.7942L43.1082 43.5985C43.4074 43.1322 43.5657 42.7979 43.8913 42.6043C44.2168 42.4107 44.6392 42.314 45.1495 42.314H46.9004C47.4459 42.314 47.833 42.4195 48.0706 42.6395C48.3082 42.8595 48.5105 43.273 48.3962 43.8801L48.3786 54.104C48.3346 54.3416 48.2642 54.4823 48.1762 54.5263C48.0882 54.5703 47.9298 54.5967 47.7187 54.5967H44.8415C44.6392 54.5967 44.5072 54.6143 44.4104 54.5703C44.3136 54.5263 44.1641 54.3768 44.1641 54.104L44.1816 48.6049H44.1025V48.6137Z" fill="#DF3376"/>
</g>
<defs>
<clipPath id="clip0_10788_37667">
<rect width="58" height="22.7266" fill="white" transform="translate(19 37)"/>
</clipPath>
</defs>
</svg>
