<svg width="706" height="385" viewBox="0 0 706 385" fill="none" xmlns="http://www.w3.org/2000/svg">
<path d="M155.353 205.487C175.797 228.487 201.681 237.387 214.471 265.287C223.233 284.387 219.104 307.087 225.55 327.087C234.412 354.487 263.519 372.987 292.524 372.987C321.529 373.087 349.226 356.787 366.347 333.587C371.987 325.987 376.922 317.387 384.777 312.187C396.158 304.687 410.761 305.687 424.358 304.487C457.794 301.487 489.519 282.887 508.252 255.187C508.252 255.187 556.695 198.387 522.452 117.187C512.482 93.5873 496.267 71.8874 474.009 58.9874C451.752 46.0874 412.977 45.7874 390.014 57.4874C365.642 69.8874 349.427 97.0873 322.637 103.087C307.127 106.587 291.114 102.087 275.503 99.0873C253.649 94.9874 231.29 92.3873 209.133 95.1873C183.149 98.4873 156.863 111.387 144.677 140.587C140.447 150.787 139.037 161.987 140.648 172.887C142.26 182.587 146.087 194.987 155.353 205.487Z" fill="white"/>
<path d="M388.503 15.2084C382.863 8.20837 374.101 4.40837 365.339 2.20837C353.254 -0.791632 340.262 -0.991632 328.478 3.20837C316.795 7.40837 306.422 16.3084 302.091 27.9084C297.761 39.5084 300.178 53.7084 309.141 62.3084C314.177 67.1084 321.227 69.7084 328.176 69.7084C332.305 70.1084 336.535 69.7084 340.362 68.2084C349.024 64.9084 355.268 57.4084 363.526 53.3084C372.49 48.9084 384.072 48.1084 390.115 40.2084C395.755 33.0084 394.143 22.2084 388.503 15.2084Z" fill="white"/>
<path d="M169.71 280.7C168.803 278.8 167.897 276.9 167.292 274.8C165.48 268.3 166.789 260.8 163.264 255C158.833 247.7 147.855 246.4 140.402 250.6C132.949 254.8 128.719 263.2 126.906 271.5C125.799 276.6 125.496 282.1 127.209 287C129.223 292.8 133.956 297.2 139.093 300.6C144.733 304.4 151.38 307.2 158.228 306.9C161.25 306.8 164.372 306 166.99 304.6C169.105 303.7 171.019 302.3 172.328 300.4C173.235 299.3 174.04 298.1 174.645 296.7C177.162 291.2 174.947 283.7 169.71 280.7Z" fill="white"/>
<g filter="url(#filter0_d_3786_41473)">
<path d="M379.733 264.264C379.733 264.264 376.156 254.608 380.776 237.945C382.081 225.742 390.326 218.505 398.808 212.094C416.511 199.326 432.554 195.374 443.958 195.249C453.03 195.15 459.165 197.472 460.865 199.705C464.701 204.746 461.257 210.781 457.488 221.769C455.704 232.687 454.67 240.27 452.376 242.052C450.081 243.834 435.59 240.945 435.59 240.945C435.59 240.945 441.999 250.271 442.137 254.173C442.275 258.076 434.803 264.203 418.723 267.54C402.644 270.876 380.595 266.339 380.595 266.339" fill="#DF3577"/>
<path d="M434.277 222.756C434.277 222.756 393.97 242.689 375.097 273.75C371.494 279.434 369.356 284.312 366.709 291.086" stroke="#DF3577" stroke-width="2.6979" stroke-miterlimit="10" stroke-linecap="round"/>
<path d="M438.81 218.254C438.81 218.254 400.754 234.798 380.998 265.456" stroke="#F8F7FB" stroke-width="2.6979" stroke-miterlimit="10" stroke-linecap="round"/>
<path d="M401.434 227.525C401.938 228.073 402.792 228.108 403.34 227.604C403.888 227.099 403.923 226.246 403.419 225.697L401.434 227.525ZM386.464 223.628C387.356 223.597 390.414 223.752 393.664 224.371C395.28 224.679 396.901 225.094 398.299 225.638C399.72 226.19 400.794 226.83 401.434 227.525L403.419 225.697C402.374 224.562 400.857 223.737 399.276 223.123C397.673 222.5 395.881 222.047 394.169 221.721C390.762 221.072 387.499 220.892 386.369 220.932L386.464 223.628Z" fill="#F8F7FB"/>
<path d="M414.173 215.601C414.677 216.149 415.531 216.184 416.079 215.679C416.627 215.175 416.662 214.321 416.158 213.773L414.173 215.601ZM397.294 210.654C397.666 210.641 398.721 210.721 400.235 210.937C401.711 211.147 403.532 211.472 405.391 211.91C407.255 212.349 409.128 212.895 410.721 213.542C412.35 214.203 413.537 214.91 414.173 215.601L416.158 213.773C415.108 212.633 413.466 211.744 411.735 211.042C409.969 210.325 407.952 209.741 406.01 209.284C404.063 208.825 402.162 208.486 400.615 208.266C399.106 208.051 397.837 207.935 397.198 207.958L397.294 210.654Z" fill="#F8F7FB"/>
<path d="M358.855 295.047C358.855 295.047 366.821 297.735 377.724 289.401C388.627 281.066 397.063 291.435 397.063 291.435" stroke="#DF3577" stroke-width="2.6979" stroke-miterlimit="10" stroke-linecap="round"/>
</g>
<path d="M539.962 55.4653C539.41 55.4445 538.98 54.9802 539.001 54.4283C539.021 53.8764 539.486 53.4459 540.038 53.4667L539.962 55.4653ZM591.561 83.7939L592.534 83.5629L591.561 83.7939ZM609.005 156.699C608.453 156.714 607.994 156.278 607.979 155.726L607.738 146.729C607.723 146.177 608.159 145.718 608.711 145.703C609.263 145.688 609.722 146.124 609.737 146.676L609.951 154.673L617.948 154.459C618.501 154.444 618.96 154.88 618.975 155.432C618.99 155.984 618.554 156.443 618.002 156.458L609.005 156.699ZM540.038 53.4667C547.631 53.7532 559.337 55.5772 569.836 60.1361C580.317 64.6874 589.804 72.0628 592.534 83.5629L590.589 84.025C588.071 73.4213 579.276 66.4158 569.039 61.9706C558.82 57.533 547.369 55.7448 539.962 55.4653L540.038 53.4667ZM592.534 83.5629C594.193 90.5498 593.746 95.282 591.903 98.0947C589.983 101.027 586.765 101.586 583.76 100.709C580.784 99.8388 577.855 97.5437 576.069 94.487C574.266 91.4034 573.6 87.4933 575.264 83.4494L577.113 84.2104C575.718 87.6008 576.264 90.857 577.795 93.4777C579.343 96.1253 581.87 98.0726 584.321 98.7889C586.745 99.4972 588.928 98.9871 590.23 96.9988C591.611 94.8913 592.21 90.853 590.589 84.025L592.534 83.5629ZM575.264 83.4494C576.949 79.3524 580.45 77.0504 584.721 76.2146C588.963 75.3844 594.015 75.9802 599.046 77.6697C609.087 81.0421 619.426 88.9093 623.463 99.392L621.596 100.111C617.831 90.3341 608.058 82.8063 598.409 79.5657C593.594 77.9487 588.906 77.4334 585.105 78.1774C581.332 78.9158 578.486 80.8732 577.113 84.2104L575.264 83.4494ZM623.463 99.392C627.486 109.839 625.767 122.253 622.248 132.874C618.729 143.497 613.328 152.564 609.704 156.387L608.253 155.012C611.613 151.466 616.889 142.689 620.35 132.245C623.811 121.799 625.375 109.923 621.596 100.111L623.463 99.392Z" fill="#50398C"/>
<g filter="url(#filter1_d_3786_41473)">
<path d="M345.885 100.163L262.03 94.7825L331.164 151.178L414.551 157.273L345.885 100.163Z" fill="#50398C"/>
<path d="M262.03 94.7827L261.614 96.6367L330.452 154.811L414.157 159.03L414.551 157.274L331.164 151.178L262.03 94.7827Z" fill="#311E63"/>
<path d="M282.355 145.356L279.248 153.268C279.248 153.268 306.526 187.466 356.317 184.797L358.444 178.51C315.496 176.257 292.463 156.949 282.355 145.356Z" fill="#311E63"/>
<path d="M371.364 210.923C367.837 206.545 365.852 200.771 365.592 195.076C365.582 194.664 364.975 194.63 364.887 195.02C364.812 194.901 364.639 194.76 364.421 194.813C364.39 194.499 364.021 194.314 363.76 194.563C359.444 199.641 360.32 206.704 361.002 212.801C361.088 213.333 361.642 213.15 361.534 212.715C360.979 207.877 360.437 202.528 362.463 198.064C360.64 203.906 361.235 210.394 363.773 215.985C364 216.343 364.478 216.04 364.251 215.682C361.896 210.644 361.463 204.808 362.861 199.485C362.477 201.654 362.289 203.866 362.534 205.971C362.907 209.334 364.007 212.655 365.075 215.662C365.28 216.118 365.758 215.815 365.553 215.359C364.485 212.352 363.656 209.194 363.239 206.026C363.036 204.649 363.027 203.314 363.139 201.905C363.152 206.417 364.379 210.996 366.562 214.97C366.768 215.426 367.343 215.146 367.018 214.765C364.51 210.411 363.609 205.29 363.901 200.333C364.065 205.084 365.369 209.783 367.464 214.148C367.669 214.604 368.05 214.279 367.845 213.823C365.803 209.676 364.792 205.042 364.606 200.389C365.16 205.228 366.322 210.1 369.211 214.13C369.535 214.51 370.013 214.207 369.688 213.827C367.655 211.014 366.652 207.714 365.965 204.383C366.838 207.346 368.047 210.179 369.615 212.785C369.82 213.241 370.244 212.722 370.039 212.266C368.72 209.92 367.738 207.445 366.972 204.917C367.923 207.077 369.21 209.108 370.638 210.965C371.157 211.389 371.689 211.303 371.364 210.923Z" fill="#F0C64B"/>
<path d="M377.737 146.865C376.538 144.444 374.48 142.65 372.401 140.954C368.221 137.66 363.268 135.524 358.51 133.432C351.694 130.469 344.66 127.559 339.714 121.736C339.563 121.497 339.248 121.529 339.107 121.702C338.966 121.875 338.824 122.048 338.976 122.287C342.426 127.468 347.723 130.808 353.174 133.465C358.602 136.22 364.336 138.531 369.275 142.098C369.448 142.239 369.643 142.283 369.719 142.402L369.892 142.544C370.163 142.707 370.412 142.968 370.683 143.131C371.647 143.86 372.491 144.664 373.314 145.566C374.31 146.609 375.067 147.804 375.585 149.15C376.081 150.593 376.045 152.122 375.695 153.684C375.345 155.245 374.702 156.74 374.059 158.236C373.416 159.732 372.849 161.347 372.206 162.842C370.975 166.05 369.743 169.259 368.608 172.489C366.186 179.632 364.306 187.101 363.934 194.704C363.9 195.311 364.822 195.313 364.931 194.825C365.997 187.788 368.136 180.991 370.666 174.282C371.919 170.977 373.271 167.693 374.622 164.409C375.93 161.32 377.335 158.253 378.35 155.099C379.158 152.41 379.087 149.525 377.737 146.865Z" fill="#F0C64B"/>
<path d="M363.368 195.397C363.466 195.419 363.585 195.343 363.683 195.365C363.78 195.387 363.78 195.387 363.683 195.365L363.78 195.387L363.878 195.409C364.095 195.355 364.29 195.399 364.485 195.443L364.583 195.465C364.68 195.487 364.778 195.508 364.876 195.53C364.973 195.552 365.071 195.574 365.168 195.596L365.266 195.618L365.363 195.64C365.266 195.618 365.266 195.618 365.363 195.64C365.461 195.662 365.656 195.705 365.754 195.727C365.873 195.652 365.993 195.576 366.015 195.478C366.156 195.305 366.048 194.871 365.853 194.827C365.019 194.435 364.021 194.314 363.033 194.605C362.816 194.659 362.631 195.027 362.685 195.244C362.88 195.288 363.151 195.451 363.368 195.397Z" fill="#D8A32B"/>
<path d="M363.49 194.4C363.587 194.422 363.707 194.346 363.804 194.368C363.902 194.39 363.902 194.39 363.804 194.368L363.902 194.39L364 194.411C364.217 194.358 364.412 194.401 364.607 194.445L364.704 194.467C364.802 194.489 364.9 194.511 364.997 194.533C365.095 194.555 365.192 194.577 365.29 194.598L365.387 194.62L365.485 194.642C365.387 194.62 365.387 194.62 365.485 194.642C365.583 194.664 365.778 194.708 365.875 194.73C365.995 194.654 366.114 194.578 366.136 194.481C366.277 194.307 366.17 193.873 365.975 193.83C365.14 193.438 364.143 193.316 363.155 193.607C362.938 193.661 362.753 194.029 362.807 194.246C363.002 194.29 363.273 194.453 363.49 194.4Z" fill="#D8A32B"/>
<path d="M365.314 159.759L366.426 156.627L330.452 154.811L291.934 122.294L289.755 127.441L328.545 159.2L365.314 159.759Z" fill="#0C0C5B"/>
<path d="M328.545 159.2L289.755 127.441L282.355 145.356C292.463 156.949 315.496 176.258 358.52 178.63L365.314 159.759L328.545 159.2Z" fill="#50398C"/>
</g>
<g clip-path="url(#clip0_3786_41473)">
<path d="M216 114L226.8 124.8" stroke="#DF3577" stroke-width="2.1457" stroke-miterlimit="10"/>
<path d="M227 114L216.2 124.8" stroke="#DF3577" stroke-width="2.1457" stroke-miterlimit="10"/>
<path d="M522 254.7L532.7 265.5" stroke="#DF3577" stroke-width="2.1457" stroke-miterlimit="10"/>
<path d="M533 254.7L522.2 265.5" stroke="#DF3577" stroke-width="2.1457" stroke-miterlimit="10"/>
<path d="M130.6 217.1L140.2 226.6" stroke="#0097B9" stroke-width="1.9001" stroke-miterlimit="10"/>
<path d="M140.3 217.1L130.8 226.6" stroke="#0097B9" stroke-width="1.9001" stroke-miterlimit="10"/>
<path d="M125.6 138.3C125.6 142.6 122.1 146.1 117.8 146.1C113.5 146.1 110 142.6 110 138.3C110 134 113.5 130.5 117.8 130.5C122.1 130.5 125.6 134 125.6 138.3Z" stroke="#DF3577" stroke-width="2.1457" stroke-miterlimit="10"/>
<path d="M429.6 132.4C433.908 132.4 437.4 128.908 437.4 124.6C437.4 120.292 433.908 116.8 429.6 116.8C425.292 116.8 421.8 120.292 421.8 124.6C421.8 128.908 425.292 132.4 429.6 132.4Z" stroke="#DF3577" stroke-width="2.1457" stroke-miterlimit="10"/>
<path d="M465 113.7C465 114.8 464.1 115.7 463 115.7C461.9 115.7 461 114.8 461 113.7C461 112.6 461.9 111.7 463 111.7C464.2 111.8 465 112.7 465 113.7Z" stroke="#0097B9" stroke-width="1.9001" stroke-miterlimit="10"/>
<path d="M236 58C236 59.1 235.1 60 234 60C232.9 60 232 59.1 232 58C232 56.9 232.9 56 234 56C235.1 56 236 56.9 236 58Z" stroke="#0097B9" stroke-width="1.9001" stroke-miterlimit="10"/>
</g>
<g filter="url(#filter2_d_3786_41473)">
<path d="M298.006 234.006C302.568 237.364 302.499 245.157 297.928 251.341C293.357 257.525 287.984 256.958 282.884 254.426C275.442 250.672 276.729 245.307 281.384 239.069C285.954 232.885 293.389 230.565 298.006 234.006Z" fill="white"/>
<path d="M205.35 224.029C205.35 224.029 230.519 229.752 260.921 249.603C260.921 249.603 276.59 260.893 282.898 262.165C282.898 262.165 277.508 260.655 278.698 252.016C279.555 245.62 282.955 239.837 288.215 236.186C291.181 234.143 294.666 232.716 298.144 234.036C298.144 234.036 262.746 223.386 236.35 211.546C225.731 206.753 218.805 201.591 214.395 197.181C214.395 197.181 212.626 196.66 210.098 196.989C200.543 198.062 195.143 208.479 199.055 217.265C199.323 218.045 199.783 218.939 200.327 219.777C200.327 219.777 202.529 223.355 205.35 224.029Z" fill="white"/>
<path d="M282.898 262.165C282.898 262.165 294.696 265.835 303.424 246.584C303.424 246.584 308.679 234.473 297.099 226.728C297.099 226.728 282.909 225.802 269.481 221.64C256.052 217.478 238.517 211.212 220.241 199.945L217.411 199.993C217.411 199.993 223.844 206.785 241.563 213.886C259.227 220.902 290.408 231.665 290.408 231.665L295.022 233.082C297.675 233.864 299.811 236.054 300.388 238.779C301.227 242.645 300.182 248.568 290.916 255.414L278.834 250.021C278.918 249.967 276.202 258.642 282.898 262.165Z" fill="#BDDDF4"/>
<path d="M278.798 224.059C278.798 224.059 249.814 217.234 219.091 196.519C219.091 196.519 214.678 194.494 212.163 193.742C212.302 193.771 244.044 219.547 278.798 224.059Z" fill="white"/>
<path d="M243.628 239.485C242.991 230.601 248.046 221.123 255.73 216.614C258.524 215.041 256.346 211.685 253.553 213.259C244.389 218.608 238.465 228.769 239.193 239.263C239.248 239.347 243.894 242.65 243.628 239.485Z" fill="#DF3577"/>
</g>
<defs>
<filter id="filter0_d_3786_41473" x="299" y="193" width="177.958" height="211.459" filterUnits="userSpaceOnUse" color-interpolation-filters="sRGB">
<feFlood flood-opacity="0" result="BackgroundImageFix"/>
<feColorMatrix in="SourceAlpha" type="matrix" values="0 0 0 0 0 0 0 0 0 0 0 0 0 0 0 0 0 0 127 0" result="hardAlpha"/>
<feOffset dx="-18" dy="52"/>
<feGaussianBlur stdDeviation="12.5"/>
<feComposite in2="hardAlpha" operator="out"/>
<feColorMatrix type="matrix" values="0 0 0 0 0.313726 0 0 0 0 0.223529 0 0 0 0 0.54902 0 0 0 0.2 0"/>
<feBlend mode="normal" in2="BackgroundImageFix" result="effect1_dropShadow_3786_41473"/>
<feBlend mode="normal" in="SourceGraphic" in2="effect1_dropShadow_3786_41473" result="shape"/>
</filter>
<filter id="filter1_d_3786_41473" x="209" y="82" width="222.458" height="188.113" filterUnits="userSpaceOnUse" color-interpolation-filters="sRGB">
<feFlood flood-opacity="0" result="BackgroundImageFix"/>
<feColorMatrix in="SourceAlpha" type="matrix" values="0 0 0 0 0 0 0 0 0 0 0 0 0 0 0 0 0 0 127 0" result="hardAlpha"/>
<feOffset dx="-12" dy="26"/>
<feGaussianBlur stdDeviation="10"/>
<feComposite in2="hardAlpha" operator="out"/>
<feColorMatrix type="matrix" values="0 0 0 0 0.313726 0 0 0 0 0.223529 0 0 0 0 0.54902 0 0 0 0.2 0"/>
<feBlend mode="normal" in2="BackgroundImageFix" result="effect1_dropShadow_3786_41473"/>
<feBlend mode="normal" in="SourceGraphic" in2="effect1_dropShadow_3786_41473" result="shape"/>
</filter>
<filter id="filter2_d_3786_41473" x="164.1" y="161.1" width="176.145" height="182.214" filterUnits="userSpaceOnUse" color-interpolation-filters="sRGB">
<feFlood flood-opacity="0" result="BackgroundImageFix"/>
<feColorMatrix in="SourceAlpha" type="matrix" values="0 0 0 0 0 0 0 0 0 0 0 0 0 0 0 0 0 0 127 0" result="hardAlpha"/>
<feOffset dy="25"/>
<feGaussianBlur stdDeviation="13.95"/>
<feComposite in2="hardAlpha" operator="out"/>
<feColorMatrix type="matrix" values="0 0 0 0 0.394682 0 0 0 0 0.293264 0 0 0 0 0.683333 0 0 0 0.25 0"/>
<feBlend mode="normal" in2="BackgroundImageFix" result="effect1_dropShadow_3786_41473"/>
<feBlend mode="normal" in="SourceGraphic" in2="effect1_dropShadow_3786_41473" result="shape"/>
</filter>
<clipPath id="clip0_3786_41473">
<rect width="424.7" height="221.2" fill="white" transform="translate(109 45)"/>
</clipPath>
</defs>
</svg>
