<svg width="185" height="50" viewBox="0 0 185 50" fill="none" xmlns="http://www.w3.org/2000/svg">
<g style="mix-blend-mode:multiply">
<mask id="mask0_3065_24059" style="mask-type:alpha" maskUnits="userSpaceOnUse" x="2" y="7" width="181" height="37">
<g clip-path="url(#clip0_3065_24059)">
<path d="M171.311 15.1362C173.312 15.1362 175.267 15.6524 177.173 16.6849C179.08 17.7068 180.566 19.1764 181.63 21.0939C182.694 23.0007 183.226 24.9919 183.226 27.0673C183.226 29.1217 182.699 31.0971 181.646 32.9934C180.603 34.8898 179.133 36.3647 177.237 37.4182C175.351 38.4612 173.376 38.9827 171.311 38.9827C169.246 38.9827 167.265 38.4612 165.369 37.4182C163.483 36.3647 162.013 34.8898 160.96 32.9934C159.906 31.0971 159.379 29.1217 159.379 27.0673C159.379 24.9919 159.911 23.0007 160.976 21.0939C162.05 19.1764 163.541 17.7068 165.448 16.6849C167.355 15.6524 169.309 15.1362 171.311 15.1362ZM171.311 17.1115C169.635 17.1115 168.003 17.5435 166.412 18.4074C164.831 19.2607 163.594 20.4881 162.698 22.0894C161.803 23.6803 161.355 25.3396 161.355 27.0673C161.355 28.7846 161.792 30.4333 162.666 32.0136C163.551 33.5834 164.784 34.8107 166.364 35.6957C167.945 36.5701 169.593 37.0073 171.311 37.0073C173.028 37.0073 174.677 36.5701 176.257 35.6957C177.837 34.8107 179.065 33.5834 179.939 32.0136C180.813 30.4333 181.251 28.7846 181.251 27.0673C181.251 25.3396 180.803 23.6803 179.907 22.0894C179.022 20.4881 177.785 19.2607 176.194 18.4074C174.603 17.5435 172.975 17.1115 171.311 17.1115ZM166.08 33.6571V20.8252H170.489C171.995 20.8252 173.086 20.9464 173.76 21.1887C174.434 21.4204 174.972 21.8313 175.372 22.4213C175.772 23.0113 175.972 23.6381 175.972 24.3018C175.972 25.2395 175.635 26.056 174.961 26.7513C174.297 27.4466 173.412 27.8364 172.306 27.9207C172.759 28.1103 173.123 28.3368 173.397 28.6002C173.913 29.1059 174.545 29.954 175.293 31.1445L176.857 33.6571H174.329L173.191 31.6344C172.296 30.0435 171.574 29.048 171.026 28.6476C170.647 28.3526 170.094 28.2051 169.367 28.2051H168.15V33.6571H166.08ZM168.15 26.4352H170.663C171.864 26.4352 172.68 26.2561 173.112 25.8979C173.555 25.5397 173.776 25.0656 173.776 24.4757C173.776 24.0964 173.67 23.7593 173.46 23.4643C173.249 23.1588 172.954 22.9323 172.575 22.7848C172.206 22.6373 171.516 22.5635 170.505 22.5635H168.15V26.4352Z" fill="#2D2C34"/>
<path fill-rule="evenodd" clip-rule="evenodd" d="M103.164 37.0117V30.6282C102.689 30.5521 102.326 30.1489 102.326 29.6641H104.504V37.0117H103.164H103.164ZM86.5756 37.0117V30.6282C86.1008 30.5521 85.7377 30.1489 85.7377 29.6641H86.5756H87.916V32.7633L92.1048 32.7631L92.1051 29.6641H93.4455V37.0117H92.1051V33.7437H88.9214C88.3685 33.7437 87.916 33.308 87.916 32.7688V37.0117H86.5756ZM95.6239 37.0117V30.6282C95.149 30.5521 94.786 30.1435 94.786 29.6641H95.6239H96.9643V33.0466C96.9866 32.5291 97.4278 32.1097 97.9697 32.1097H101.488V32.1151C101.857 32.1151 102.159 32.4039 102.159 32.7688C102.159 32.7906 102.159 32.8178 102.153 32.8395L101.656 36.0313C101.656 36.576 101.204 37.0117 100.651 37.0117H96.9643H95.6239ZM45.5234 37.0117V30.6282C45.0486 30.5521 44.6855 30.1489 44.6855 29.6641H46.8639H47.5286L50.1312 33.308L52.3933 30.3179C52.667 29.9639 53.0803 29.7241 53.5494 29.6697L53.5662 29.6641H54.4041V37.0117H53.0636V31.1294L50.215 34.8385V35.051L50.1312 34.942L50.0475 35.051V34.8221L46.8639 30.3832V37.0117H45.5233H45.5234ZM55.9122 37.0117L57.677 30.5575C57.3252 30.3995 57.0851 30.0619 57.0851 29.6641H59.0957H59.9336H61.4417L63.4524 37.0117H61.9443L61.2293 34.528C61.1009 34.9257 60.7211 35.2143 60.2685 35.2143H57.9395L57.4202 37.0117H55.9121H55.9122ZM64.7928 37.0117V30.6282C64.3181 30.5521 63.955 30.1489 63.955 29.6641H66.1332V36.0313H69.3168V29.6641H70.6574V36.0313H73.841V29.6641H75.1815V37.0117H64.7928ZM77.3598 37.0117V30.6282C76.8851 30.5521 76.5221 30.1489 76.5221 29.6641H78.7003V35.5465L81.7164 31.6249V31.6467L82.7218 30.3178C82.9955 29.9638 83.4087 29.7186 83.8835 29.6697L83.8946 29.6641H84.3973V37.0116H83.0569V31.565L80.3759 35.0509V35.0291L79.3705 36.3582C79.0969 36.7122 78.6835 36.9518 78.2144 37.0063L78.1976 37.0117H77.3597H77.3598ZM100.316 36.0313L100.801 33.0955H96.9644V36.0313H100.316ZM61.1457 34.2339L60.1571 30.8081H59.2074L58.2188 34.2339H61.1456H61.1457Z" fill="#2D2C34"/>
<path fill-rule="evenodd" clip-rule="evenodd" d="M117.889 25.7774V16.1352C117.172 16.0202 116.624 15.4113 116.624 14.679H119.914V19.3602H126.241V14.679H128.266V25.7774H126.241V20.8411H121.432C120.605 20.8411 119.939 20.2077 119.914 19.4096V25.7773H117.889L117.889 25.7774ZM131.556 25.7774V16.1352C130.839 16.0202 130.291 15.4113 130.291 14.679H133.581V19.7798C133.623 18.9983 134.29 18.3731 135.1 18.3731H140.415V18.3812C140.971 18.3812 141.427 18.8173 141.427 19.3602C141.427 19.4015 141.427 19.4344 141.419 19.4755L140.668 24.2965C140.668 25.1193 139.984 25.7774 139.149 25.7774H133.581H131.556L131.556 25.7774ZM142.945 25.7774V16.1352C142.228 16.0202 141.68 15.4113 141.68 14.679H144.97V25.7774H142.945ZM45.5039 25.7774V16.1352C44.7866 16.0202 44.2383 15.4113 44.2383 14.6709H47.5284V19.3602H47.79C48.3721 19.3602 48.8952 19.0806 49.2159 18.6445L51.2658 16.0695C51.5695 15.6665 51.9493 15.3372 52.3965 15.107C52.4553 15.0741 52.523 15.041 52.4049 15.0986C52.523 15.041 52.6241 14.9917 52.5821 15.0081C52.6495 14.9752 52.7169 14.9505 52.6072 15C52.6833 14.9671 52.7423 14.9423 52.776 14.9342C52.7676 14.9342 52.7676 14.9342 52.7676 14.9342C52.7844 14.926 52.793 14.9176 52.7844 14.926C52.7844 14.926 52.776 14.926 52.776 14.9342C52.793 14.926 52.8098 14.9176 52.8267 14.9094C52.8434 14.9013 52.8351 14.9094 52.8181 14.9094C52.8434 14.9013 52.8605 14.8929 52.8434 14.9013H52.8518C52.8858 14.8847 52.8858 14.8847 52.8518 14.9013C52.8688 14.8929 52.8858 14.8847 52.8518 14.9013L52.8351 14.9094C52.9785 14.8518 52.9785 14.8518 52.9616 14.86C52.9785 14.8518 53.0039 14.8437 53.0207 14.8437C53.029 14.8355 53.029 14.8355 53.029 14.8355C53.0377 14.8355 53.029 14.8355 53.0207 14.8437C53.029 14.8355 53.0377 14.8355 53.0207 14.8355C53.0377 14.8355 53.046 14.8355 53.029 14.8355H53.0377C53.0544 14.8355 53.046 14.8355 53.029 14.8355H53.0377C53.046 14.8355 53.046 14.8355 53.046 14.8355C53.0544 14.8355 53.0544 14.8355 53.046 14.8355H53.0544C53.0881 14.8189 53.1051 14.8189 53.0544 14.8355C53.1642 14.8024 53.1809 14.7943 53.1809 14.7943C53.1979 14.7861 53.2232 14.7861 53.24 14.7779C53.2486 14.7779 53.2486 14.7779 53.2486 14.7779H53.2653C53.3834 14.7448 53.4426 14.7366 53.4172 14.7448C53.4341 14.7366 53.4595 14.7366 53.4679 14.7285C53.4762 14.7285 53.4846 14.7285 53.4762 14.7285H53.4846H53.4932C53.5184 14.7203 53.5184 14.7203 53.4932 14.7285C53.4932 14.7285 53.4932 14.7285 53.4846 14.7285C53.5099 14.7285 53.5016 14.7285 53.4762 14.7285C53.5691 14.7203 53.6113 14.7119 53.6365 14.7037C53.6281 14.7119 53.6198 14.7119 53.6198 14.7119C53.6451 14.7037 53.6535 14.7037 53.6365 14.7037C53.7293 14.6956 53.797 14.6874 53.6872 14.7037C53.8053 14.6874 53.8644 14.679 53.8307 14.6874C53.8644 14.6874 53.8897 14.679 53.9065 14.679C53.9065 14.679 53.9065 14.679 53.9148 14.679C53.9148 14.679 53.9148 14.679 53.9065 14.679C53.9148 14.679 53.9235 14.679 53.9235 14.679H53.9318C53.9402 14.679 53.9402 14.679 53.9402 14.679H53.9488C53.9572 14.679 53.9655 14.679 53.9402 14.679C53.9572 14.679 53.9655 14.679 53.9488 14.679H53.9402C54.0837 14.6709 54.092 14.6709 54.109 14.6709H56.1338C56.1338 14.7203 56.1338 14.7614 56.0748 15.0823C56.0915 15.0165 56.0915 15.0165 56.0748 15.0823H56.0831C56.0831 15.0741 56.0831 15.0741 56.0831 15.0823H56.0748C56.0831 15.0823 56.0831 15.0823 56.0748 15.0904C56.0748 15.0904 56.0748 15.0986 56.0748 15.107C56.0831 15.0823 56.0831 15.0904 56.0748 15.107C56.0831 15.0741 56.0831 15.0904 56.0748 15.107V15.1233L56.0662 15.1562C56.0662 15.1399 56.0748 15.1233 56.0748 15.1233C56.0748 15.107 56.0662 15.1562 56.0494 15.2056C56.0662 15.1562 56.0494 15.1974 56.0071 15.3127C56.0324 15.2467 56.0157 15.2961 55.9904 15.3537C55.9904 15.3619 55.9734 15.3947 55.8469 15.6088C55.8722 15.5676 55.8638 15.5841 55.8552 15.6004C55.8806 15.5676 55.8892 15.5512 55.8552 15.6004V15.6088C55.8806 15.5594 55.8722 15.5759 55.8469 15.6088V15.617C55.8385 15.617 55.8385 15.6252 55.8385 15.6333V15.6252C55.8385 15.6333 55.8215 15.6499 55.8132 15.6581C55.8132 15.6581 55.8132 15.6665 55.7457 15.7404V15.7485C55.7541 15.7404 55.7541 15.7404 55.7541 15.7404C55.7541 15.7404 55.7541 15.7404 55.7457 15.7404H55.7541C55.7541 15.7404 55.7541 15.7404 55.7457 15.7485V15.7569C55.7457 15.7569 55.7457 15.7569 55.7373 15.7569C55.7373 15.7651 55.7204 15.7814 55.712 15.7898C55.7373 15.7651 55.7033 15.8061 55.6275 15.8803C55.695 15.8227 55.6529 15.8556 55.6106 15.9051C55.5939 15.9132 55.5515 15.9461 55.501 15.9955C55.5768 15.9379 55.5348 15.9708 55.4841 16.0118C55.4674 16.0284 55.442 16.0531 55.0792 16.2504C55.1636 16.2094 55.155 16.2175 55.0876 16.2504H55.0792L55.0708 16.2588C55.0959 16.2423 55.0959 16.2423 55.0708 16.2588C55.0876 16.2504 55.1046 16.2341 55.0708 16.2588C55.0792 16.2588 55.0792 16.2504 55.0792 16.2588C55.0876 16.2504 55.0792 16.2588 55.0708 16.2588H55.0622C55.0622 16.2588 55.0622 16.2588 55.0539 16.2669H55.0455C55.0539 16.2669 55.0455 16.2669 54.9104 16.3164C54.9274 16.308 54.9441 16.308 54.919 16.3164H54.9274C54.9274 16.308 54.9274 16.308 54.9274 16.308C54.9274 16.308 54.919 16.3164 54.9104 16.3164C54.9104 16.3164 54.9104 16.3164 54.902 16.3164C54.902 16.3164 54.8936 16.3246 54.885 16.3246C54.7922 16.3656 54.5983 16.3985 54.3873 16.3985H54.1089C53.5183 16.3985 52.9952 16.6783 52.6748 17.1142L50.9199 19.3602H51.0718C51.0885 19.3602 51.0971 19.3602 51.232 19.3686H51.2236C51.2236 19.3686 51.2236 19.3686 51.232 19.3686H51.249C51.2403 19.3686 51.232 19.3686 51.2236 19.3686C51.232 19.3686 51.232 19.3686 51.2403 19.3686H51.249C51.249 19.3686 51.249 19.3686 51.2574 19.3686H51.2657C51.2657 19.3686 51.2657 19.3686 51.2574 19.3686C51.2657 19.3686 51.2657 19.3686 51.2827 19.3686H51.2657C51.291 19.3686 51.3164 19.3686 51.3501 19.3768C51.3164 19.3686 51.3755 19.3768 51.4936 19.385C51.3839 19.3768 51.4599 19.385 51.5611 19.3931C51.4936 19.385 51.5527 19.3931 51.7129 19.4178C51.6876 19.4178 51.6708 19.4097 51.6622 19.4097H51.6708C51.6792 19.4178 51.7213 19.4178 51.7637 19.4262C51.755 19.4262 51.7637 19.4262 51.8985 19.4591C51.8902 19.4591 51.8902 19.4591 51.9069 19.4591C51.8985 19.4591 51.8985 19.4591 51.8902 19.4591H51.8985C51.8731 19.4591 51.8648 19.4507 51.8902 19.4591C51.8902 19.4591 51.8985 19.4591 51.9069 19.4591H51.9155V19.4673H51.9322H51.9409C51.9492 19.4673 51.9576 19.4755 51.966 19.4755C51.9576 19.4755 51.9576 19.4755 51.9492 19.4673C51.966 19.4755 51.9829 19.4755 51.9996 19.4836C52.0083 19.4836 52.042 19.492 52.1348 19.5249H52.1432C52.1515 19.5249 52.1515 19.5249 52.1515 19.5249L52.1601 19.533C52.1769 19.533 52.2022 19.5412 52.2192 19.5496C52.1855 19.5412 52.2192 19.5496 52.3204 19.5825C52.3287 19.5907 52.3457 19.5907 52.3541 19.5988C52.3373 19.5907 52.3287 19.5907 52.3204 19.5825C52.3373 19.5907 52.3711 19.6072 52.4132 19.6235C52.4048 19.6154 52.3965 19.6154 52.3878 19.6154C52.3878 19.6072 52.3964 19.6154 52.4132 19.6235C52.4385 19.6317 52.4976 19.6564 52.5734 19.6893C52.4638 19.6401 52.5313 19.6648 52.5988 19.6977C52.5566 19.6811 52.6578 19.7306 52.776 19.7882C52.6578 19.7306 52.7253 19.7635 52.7843 19.7964C53.2316 20.0267 53.6113 20.3558 53.9148 20.7506L54.1089 21.0881L56.3868 25.7774H54.1089L52.253 21.7957C51.9239 21.3677 51.4093 21.0881 50.8188 21.0881C50.8102 21.0881 49.0302 21.0881 49.0132 21.0881C48.8107 21.0881 48.6167 21.0552 48.524 21.0139C48.4648 20.9976 48.4058 20.981 48.5155 21.0058C48.3975 20.9729 48.3468 20.9482 48.3637 20.9563C48.3551 20.9563 48.3551 20.9482 48.3468 20.9482C48.3383 20.9482 48.3383 20.9482 48.3468 20.9482C48.33 20.9482 48.33 20.94 48.3383 20.9482C48.33 20.9482 48.3214 20.94 48.3214 20.94H48.313C48.3214 20.94 48.3214 20.94 48.3214 20.94C48.313 20.94 48.313 20.94 48.313 20.94H48.3214H48.33C48.3214 20.94 48.3214 20.94 48.33 20.94L48.3383 20.9482H48.3468C48.313 20.9316 48.33 20.94 48.3551 20.9482C48.06 20.8082 47.9586 20.7425 47.9249 20.7014C47.8744 20.6602 47.8321 20.6191 47.9081 20.6849C47.7983 20.5944 47.773 20.5615 47.8067 20.5944C47.7562 20.545 47.714 20.5039 47.7816 20.5696C47.7055 20.4957 47.6718 20.4545 47.6972 20.4792C47.6886 20.471 47.6718 20.4545 47.6718 20.4463C47.6635 20.4381 47.6635 20.4463 47.6718 20.4463H47.6635V20.4381L47.6718 20.4463C47.6635 20.4381 47.6635 20.4381 47.6635 20.4381H47.6549V20.4297C47.6465 20.4297 47.6465 20.4297 47.6465 20.4297H47.6549L47.6465 20.4216C47.6382 20.4134 47.6382 20.4134 47.6465 20.4216L47.6382 20.4134C47.6128 20.3806 47.6128 20.3722 47.6382 20.4052C47.6297 20.3968 47.6297 20.3968 47.6297 20.4052L47.5958 20.3477C47.5874 20.3393 47.579 20.3229 47.5707 20.3229C47.5707 20.3148 47.5707 20.3148 47.5707 20.3148C47.5621 20.3064 47.5621 20.3064 47.5621 20.2982H47.5537C47.5453 20.2817 47.5453 20.2817 47.5537 20.2982C47.5537 20.29 47.5537 20.29 47.5537 20.29C47.5453 20.2735 47.5453 20.2735 47.5453 20.29L47.5284 20.2488V25.7774H45.5038H45.5039ZM57.1462 25.7774L59.8122 16.0284C59.2889 15.7898 58.9177 15.2714 58.9177 14.6709H61.9549V14.679H63.2204V14.6709H65.4983L68.5354 25.7774H66.2576L65.1776 22.0258C64.9836 22.6265 64.4099 23.0624 63.7267 23.0624H60.2086L59.424 25.7774H57.1461H57.1462ZM70.8133 25.7774V16.1352C70.0961 16.0202 69.5478 15.4031 69.5478 14.6709H78.4062C79.2413 14.679 79.9248 15.3372 79.9248 16.1599V16.3985L79.3174 20.3477L79.1655 21.3348C79.0473 22.0424 78.3978 22.569 77.6469 22.569H74.1035C73.4286 22.569 72.8802 22.0587 72.8381 21.4088V25.7774H70.8133V25.7774ZM82.4556 25.7774V16.1352C81.7387 16.0202 81.1903 15.4031 81.1903 14.6709H84.4804V19.7798C84.5225 18.9983 85.189 18.3731 85.999 18.3731H91.3141C91.8708 18.3731 92.3264 18.8173 92.3264 19.3602C92.3264 19.4015 92.3264 19.4344 92.3181 19.4755L91.5671 24.2965C91.5671 25.1193 90.8839 25.7774 90.0485 25.7774H82.4556V25.7774ZM94.3429 25.7774V16.1352C93.6256 16.0118 93.0856 15.4031 93.0856 14.6709H101.952V14.679H103.716C103.716 15.6252 102.923 16.3985 101.952 16.3985H96.629V19.3602H102.205C102.205 20.183 101.531 20.8411 100.687 20.8411H97.8946C97.363 20.8411 96.899 20.5778 96.629 20.183V24.0498H101.952C102.923 24.058 103.716 24.8313 103.716 25.7774H94.3429V25.7774ZM106.247 25.7774V16.1352C105.53 16.0202 104.981 15.4031 104.981 14.6709H113.84C114.675 14.679 115.358 15.3372 115.358 16.1599V16.3985L114.751 20.3477L114.599 21.3348C114.481 22.0424 113.831 22.569 113.08 22.569H109.537C108.862 22.569 108.314 22.0587 108.271 21.4088V25.7774H106.247V25.7774ZM148.514 25.7774V16.1352C147.797 16.0202 147.248 15.4113 147.248 14.6709H155.862V14.679H157.625C157.625 15.6252 156.832 16.3985 155.862 16.3985H150.538V19.3602H156.106C156.106 20.183 155.423 20.8411 154.588 20.8411H150.538V24.0498H155.862C156.832 24.058 157.625 24.8313 157.625 25.7774H148.514V25.7774ZM138.643 24.2965L139.377 19.862H133.581V24.2965H138.643H138.643ZM89.5425 24.2965L90.2764 19.8539H84.4805V24.2965H89.5426H89.5425ZM65.0512 21.5815L63.5579 16.3985H62.1237L60.6304 21.5815H65.0511H65.0512ZM77.1407 21.3348L77.9 16.3985V16.1517H72.8382V21.3348H77.1407ZM112.574 21.3348L113.333 16.3985V16.1517H108.271V21.3348H112.574ZM48.3385 20.9481H48.3469C48.3385 20.9481 48.3385 20.9481 48.3385 20.9481ZM48.3301 20.9399C48.3301 20.9481 48.3385 20.9481 48.3385 20.9481L48.3301 20.9399ZM48.3469 20.9481C48.3385 20.9481 48.3385 20.9481 48.3469 20.9481V20.9481ZM48.3301 20.9481V20.9399C48.3301 20.9399 48.3301 20.9481 48.3385 20.9481H48.3301ZM47.6636 20.4381C47.655 20.4297 47.655 20.4381 47.6636 20.4381V20.4381ZM47.655 20.4297C47.655 20.4381 47.655 20.4381 47.655 20.4381V20.4297ZM47.655 20.4381V20.4297C47.6466 20.4215 47.655 20.4215 47.655 20.4381ZM47.655 20.4297C47.6466 20.4215 47.6466 20.4215 47.655 20.4297V20.4297ZM47.655 20.4297C47.6466 20.4215 47.6466 20.4297 47.655 20.4297V20.4297ZM47.655 20.4297C47.6466 20.4297 47.6466 20.4297 47.655 20.4297C47.6466 20.4215 47.6466 20.4215 47.655 20.4297ZM47.6383 20.4134H47.6466V20.4215L47.6383 20.4134ZM47.6466 20.4215C47.6383 20.4052 47.6383 20.4134 47.6383 20.4134L47.6466 20.4215ZM47.6299 20.4052H47.6383V20.4134C47.6383 20.4134 47.6383 20.4134 47.6466 20.4215C47.6383 20.4134 47.6383 20.4052 47.6299 20.4052ZM47.5622 20.2982C47.5622 20.3063 47.5622 20.3063 47.5708 20.3147C47.5708 20.3147 47.5708 20.3147 47.5708 20.3228C47.5708 20.3147 47.5622 20.3063 47.5622 20.2982ZM47.5622 20.3063C47.5622 20.2982 47.5622 20.2982 47.5622 20.2982V20.3063ZM47.5622 20.2982C47.5539 20.29 47.5539 20.2982 47.5622 20.2982V20.2982ZM47.5539 20.2982C47.5539 20.29 47.5539 20.29 47.5539 20.29V20.2982ZM47.5539 20.2982C47.5539 20.29 47.5539 20.29 47.5539 20.2982V20.2982ZM47.5454 20.29C47.5539 20.29 47.5539 20.29 47.5539 20.29H47.5454ZM52.3205 19.5824C52.3035 19.5824 52.3035 19.5824 52.3205 19.5824V19.5824ZM52.1517 19.533C52.1517 19.5248 52.1517 19.5248 52.1603 19.533C52.1517 19.533 52.1517 19.533 52.1517 19.533ZM52.1603 19.533C52.1517 19.533 52.1517 19.533 52.1517 19.533C52.1433 19.5248 52.1517 19.5248 52.1603 19.533ZM52.1517 19.533C52.1349 19.5248 52.1433 19.5248 52.1517 19.5248V19.533C52.1517 19.533 52.1517 19.533 52.1603 19.533H52.1517C52.1517 19.5248 52.1517 19.5248 52.1517 19.5248V19.533ZM52.1517 19.533L52.1433 19.5248H52.1517V19.533ZM52.1349 19.5248C52.1096 19.5167 52.1096 19.5167 52.1517 19.5248H52.1349ZM52.1433 19.5248H52.1517C52.1433 19.5248 52.1433 19.5248 52.1433 19.5248ZM52.1433 19.5248C52.1349 19.5248 52.1349 19.5248 52.1433 19.5248V19.5248ZM51.907 19.459L51.9156 19.4672C51.9156 19.4672 51.907 19.4672 51.907 19.459ZM51.9156 19.4672C51.9156 19.4672 51.907 19.4672 51.907 19.459L51.9156 19.4672ZM51.8903 19.459C51.8986 19.459 51.907 19.459 51.907 19.459H51.8986H51.8903ZM51.2238 19.3686C51.2068 19.3686 51.19 19.3686 51.2321 19.3686H51.2405C51.2321 19.3686 51.2238 19.3686 51.2238 19.3686ZM51.2321 19.3686H51.2238C51.1984 19.3686 51.19 19.3686 51.2321 19.3686ZM54.9105 16.3164C54.9105 16.3164 54.902 16.3164 54.8937 16.3245C54.902 16.3164 54.902 16.3164 54.9105 16.3164ZM54.902 16.3164H54.9105C54.902 16.3164 54.902 16.3164 54.902 16.3164ZM54.902 16.3164C54.9105 16.3164 54.9191 16.3164 54.902 16.3164V16.3164ZM54.902 16.3164C54.9358 16.308 54.9441 16.308 54.902 16.3164V16.3164ZM54.902 16.3164C54.9191 16.3164 54.9274 16.3164 54.902 16.3164V16.3164ZM54.902 16.3164H54.9105C54.9105 16.3164 54.9191 16.3164 54.902 16.3164ZM54.9191 16.3164H54.9105C54.9191 16.3164 54.9191 16.3164 54.9191 16.3164ZM54.9191 16.3164C54.9274 16.308 54.9274 16.308 54.9105 16.3164H54.9191ZM54.9105 16.3164C54.9191 16.3164 54.9191 16.3164 54.9105 16.3164V16.3164ZM54.9274 16.308C54.9274 16.308 54.9274 16.308 54.9274 16.3164H54.9191L54.9274 16.308ZM55.0623 16.2669V16.2587L55.0539 16.2669C55.0623 16.2587 55.0623 16.2587 55.0539 16.2669H55.0623ZM55.0539 16.2669C55.0623 16.2587 55.0623 16.2587 55.0623 16.2669H55.0539ZM55.0623 16.2587C55.0623 16.2587 55.0623 16.2587 55.0539 16.2587C55.0709 16.2587 55.0792 16.2503 55.0623 16.2587ZM55.0623 16.2587C55.0877 16.2503 55.096 16.2503 55.0623 16.2587V16.2587ZM55.0623 16.2587C55.0709 16.2587 55.0792 16.2587 55.0623 16.2587V16.2587ZM55.0623 16.2587C55.0792 16.2503 55.0877 16.2503 55.0623 16.2587C55.0792 16.2503 55.096 16.2503 55.0623 16.2587ZM55.0709 16.2587C55.0792 16.2503 55.0792 16.2503 55.0623 16.2587C55.0709 16.2587 55.0792 16.2503 55.0623 16.2587H55.0709ZM55.0623 16.2587C55.0709 16.2587 55.0709 16.2587 55.0709 16.2587H55.0623ZM55.0709 16.2587C55.0792 16.2503 55.0877 16.2503 55.0709 16.2587V16.2587ZM55.0709 16.2587C55.1046 16.2422 55.1214 16.2341 55.0709 16.2587C55.155 16.2093 55.2311 16.1683 55.0709 16.2587C55.13 16.2257 55.1046 16.2422 55.0709 16.2587C55.0792 16.2503 55.0792 16.2503 55.0709 16.2587ZM55.0792 16.2503C55.1214 16.2341 55.1046 16.2422 55.0709 16.2587L55.0792 16.2503ZM55.6106 15.905C55.6193 15.8884 55.6192 15.8884 55.6023 15.905C55.6023 15.905 55.6023 15.905 55.6106 15.905ZM55.7374 15.7569C55.7458 15.7485 55.7458 15.7485 55.7374 15.7569V15.7569ZM55.7458 15.7569V15.7485C55.7458 15.7485 55.7458 15.7485 55.7458 15.7569H55.7374C55.7458 15.7485 55.7458 15.7485 55.7458 15.7569ZM55.7458 15.7485C55.7542 15.7403 55.7542 15.7403 55.7458 15.7485V15.7485ZM55.7542 15.7403V15.7485H55.7458C55.7542 15.7403 55.7625 15.7321 55.7542 15.7403ZM55.7542 15.7403C55.7625 15.7321 55.7625 15.7321 55.7458 15.7485C55.7458 15.7403 55.7542 15.7403 55.7542 15.7403ZM55.7458 15.7485C55.7542 15.7403 55.7625 15.7321 55.7542 15.7403C55.7625 15.7321 55.7625 15.7321 55.7458 15.7485ZM55.8469 15.617C55.8469 15.6088 55.8469 15.617 55.8385 15.6251C55.8469 15.617 55.8469 15.617 55.8469 15.617ZM55.8469 15.6088C55.8469 15.617 55.8469 15.617 55.8469 15.617V15.6088ZM55.8469 15.6088H55.8553C55.8553 15.6004 55.8553 15.6004 55.8553 15.6004L55.8469 15.6088ZM55.8469 15.6088C55.8553 15.6004 55.8553 15.6088 55.8469 15.6088V15.6088ZM55.8469 15.6088C55.8553 15.6088 55.8553 15.6088 55.8469 15.6088V15.6088ZM55.8553 15.6088C55.8553 15.6004 55.8553 15.6004 55.8553 15.6088V15.6088ZM56.0748 15.1069C55.9821 15.0575 55.9904 15.0656 56.0748 15.1069V15.1069ZM56.0748 15.0904C56.0832 15.074 56.0832 15.0822 56.0748 15.0904C56.0832 15.0822 56.0748 15.0904 56.0748 15.1069C56.0748 15.0985 56.0748 15.0985 56.0748 15.0904ZM56.0748 15.0904C56.0832 15.074 56.0832 15.074 56.0748 15.0904C56.0832 15.074 56.0748 15.0904 56.0748 15.1069C56.0748 15.0985 56.0748 15.0904 56.0748 15.0904ZM56.0748 15.0904V15.0822C56.0832 15.0822 56.0748 15.0822 56.0748 15.0904ZM56.0748 15.0904C56.0832 15.074 56.0832 15.074 56.0748 15.0904V15.0904ZM56.0748 15.0904C56.0832 15.0822 56.0832 15.0822 56.0748 15.0904V15.0904ZM56.0748 15.0822C56.0832 15.0409 56.0832 15.0575 56.0748 15.0904C56.0832 15.0575 56.0916 15.0246 56.0748 15.0822ZM56.0748 15.0904L56.0832 15.0822H56.0748V15.0904ZM56.0748 15.0822C56.0832 15.0656 56.0832 15.074 56.0748 15.0904V15.0822ZM56.0748 15.0822C56.0832 15.074 56.0832 15.074 56.0748 15.0904C56.0832 15.074 56.0832 15.0656 56.0748 15.0822ZM56.0748 15.0822C56.0832 15.074 56.0832 15.074 56.0748 15.0822V15.0822ZM56.0748 15.0822C56.0832 15.0656 56.0832 15.074 56.0748 15.0822V15.0822ZM52.8268 14.9094C52.8351 14.9094 52.8435 14.9012 52.8268 14.9094V14.9094ZM52.8351 14.9094C52.8519 14.9012 52.8689 14.8928 52.8519 14.9012L52.8268 14.9094H52.8351ZM53.0291 14.8354H53.0377C53.0291 14.8354 53.0291 14.8354 53.0291 14.8354ZM53.0377 14.8354C53.0461 14.8354 53.0544 14.8354 53.0544 14.8354C53.0461 14.8354 53.0461 14.8354 53.0377 14.8354ZM53.0461 14.8354H53.0377C53.0377 14.8354 53.0377 14.8354 53.0461 14.8354ZM53.0377 14.8354C53.0461 14.8354 53.0461 14.8354 53.0461 14.8354H53.0377ZM53.2487 14.7778H53.24C53.24 14.7778 53.24 14.7778 53.2487 14.7778ZM53.2654 14.7778H53.2487C53.2654 14.7778 53.2654 14.7778 53.2654 14.7778H53.2487C53.2824 14.7695 53.2738 14.7695 53.2654 14.7778C53.2654 14.7778 53.2654 14.7778 53.2487 14.7778C53.257 14.7778 53.257 14.7778 53.2654 14.7778ZM53.4679 14.7284H53.4847C53.4847 14.7284 53.4847 14.7284 53.4763 14.7284H53.4679ZM53.4763 14.7284H53.4847C53.4763 14.7284 53.4763 14.7284 53.4679 14.7284H53.4763ZM53.4933 14.7284C53.4933 14.7284 53.4933 14.7284 53.4847 14.7284H53.4933ZM53.9149 14.679C53.9066 14.679 53.9066 14.679 53.9066 14.679H53.8981C53.9066 14.679 53.9066 14.679 53.9149 14.679ZM53.9319 14.679H53.9403C53.9403 14.679 53.9403 14.679 53.9319 14.679ZM53.9488 14.679C53.9573 14.679 53.9573 14.679 53.9488 14.679C53.9488 14.679 53.9488 14.679 53.9403 14.679C53.9656 14.679 53.974 14.679 53.9488 14.679ZM53.9488 14.679C53.9488 14.679 53.9488 14.679 53.9573 14.679C53.9488 14.679 53.9488 14.679 53.9403 14.679H53.9488ZM53.9488 14.679C53.974 14.679 53.9656 14.679 53.9573 14.679C53.9573 14.679 53.9656 14.679 53.9488 14.679Z" fill="#2D2C34"/>
<path fill-rule="evenodd" clip-rule="evenodd" d="M23.2358 9.93077C24.2224 10.0971 25.1795 10.3479 26.0982 10.6766L27.6066 9.33042C28.9832 9.9029 30.2735 10.6343 31.4536 11.501L31.0119 13.4495C31.7696 14.0674 32.4698 14.7501 33.1034 15.4889L35.1013 15.0583C35.9902 16.2091 36.74 17.4673 37.3272 18.8096L35.9468 20.2806C36.2839 21.1764 36.541 22.1099 36.7116 23.072L38.6606 23.6727C38.7485 24.3832 38.7946 25.1063 38.7946 25.8399C38.7946 26.5736 38.7484 27.2967 38.6606 28.0073L36.7116 28.6079C36.541 29.5701 36.2838 30.5034 35.9468 31.3993L37.3272 32.8702C36.7401 34.2127 35.99 35.4707 35.1012 36.6216L33.1033 36.191C32.4696 36.9299 31.7695 37.6125 31.0119 38.2305L31.4535 40.1788C30.2735 41.0456 28.9831 41.777 27.6066 42.3495L26.0982 41.0034C25.1796 41.3321 24.2224 41.5828 23.2358 41.7491L22.6198 43.6497C21.8911 43.7354 21.1496 43.7805 20.3973 43.7805C19.6449 43.7805 18.9035 43.7355 18.1749 43.6498L17.5589 41.7491C16.5723 41.5828 15.6152 41.3319 14.6965 41.0034L13.188 42.3495C11.8115 41.7771 10.5212 41.0455 9.34119 40.1788L9.78269 38.2305C9.02509 37.6126 8.3251 36.9297 7.6914 36.191L5.6934 36.6217C4.8044 35.4709 4.05456 34.2125 3.46751 32.8702L4.84785 31.3993C4.51074 30.5034 4.25368 29.5701 4.08314 28.6079L2.13414 28.0073C2.04626 27.2966 2 26.5735 2 25.8399C2 25.1062 2.04619 24.3832 2.13407 23.6727L4.08314 23.072C4.25368 22.1099 4.51087 21.1766 4.84785 20.2806L3.46751 18.8096C4.05443 17.4673 4.8046 16.2091 5.69327 15.0583L7.69133 15.489C8.32497 14.7501 9.02522 14.0673 9.78282 13.4494L9.34119 11.501C10.5212 10.6341 11.8115 9.90296 13.188 9.33042L14.6965 10.6766C15.6151 10.3479 16.5723 10.0971 17.5589 9.93077L18.1749 8.0301C18.9035 7.94446 19.645 7.89941 20.3973 7.89941C21.1496 7.89941 21.8912 7.94452 22.6198 8.03022L23.2358 9.93077Z" fill="#312A24"/>
<path fill-rule="evenodd" clip-rule="evenodd" d="M20.2805 13.4521L31.461 19.747L31.5644 32.1607L20.1428 32.5679L9.30664 31.9844L13.7823 23.1673L20.2805 13.4521Z" fill="url(#paint0_linear_3065_24059)"/>
<path fill-rule="evenodd" clip-rule="evenodd" d="M9.2041 19.5708L9.29877 25.0768L14.0714 20.7878L20.2813 13.4521L9.2041 19.5708Z" fill="url(#paint1_linear_3065_24059)"/>
<path fill-rule="evenodd" clip-rule="evenodd" d="M9.29883 25.0768L9.30751 31.9844L20.2814 13.4521L9.29883 25.0768Z" fill="url(#paint2_linear_3065_24059)"/>
<path fill-rule="evenodd" clip-rule="evenodd" d="M25.9017 16.544L20.3115 13.3965L31.5953 32.1094L28.8669 22.8684L25.9017 16.544Z" fill="url(#paint3_linear_3065_24059)"/>
<path fill-rule="evenodd" clip-rule="evenodd" d="M31.4917 19.6925L25.9014 16.5449L31.595 32.1103L31.4917 19.6925Z" fill="url(#paint4_linear_3065_24059)"/>
<path fill-rule="evenodd" clip-rule="evenodd" d="M31.5956 32.1607L9.33789 31.9844L19.5543 34.6801L25.4545 35.6103L31.5956 32.1607Z" fill="url(#paint5_linear_3065_24059)"/>
<path fill-rule="evenodd" clip-rule="evenodd" d="M9.33789 31.9844L25.4545 35.6103L20.5184 38.2794L9.33789 31.9844Z" fill="url(#paint6_linear_3065_24059)"/>
<path d="M46.6901 7.00098H47.312V8.70983C47.4418 8.56597 47.5834 8.45896 47.7379 8.38878C47.8924 8.3174 48.0578 8.28177 48.2359 8.28177C48.6714 8.28177 49.0159 8.45896 49.2708 8.81328C49.5257 9.16658 49.653 9.61302 49.653 10.1493C49.653 10.7096 49.5161 11.1619 49.2413 11.5071C48.9674 11.8511 48.6264 12.0237 48.2183 12.0237C48.0849 12.0237 47.948 12.0042 47.8099 11.9639C47.6719 11.9225 47.5055 11.8132 47.312 11.6325V13.3148H46.6901V11.6325C46.5663 11.7637 46.4281 11.8615 46.277 11.926C46.1261 11.9914 45.9633 12.0237 45.7874 12.0237C45.4028 12.0237 45.0664 11.8592 44.7786 11.53C44.4905 11.201 44.3467 10.7293 44.3467 10.116C44.3467 9.59692 44.4765 9.16206 44.7372 8.80978C44.9968 8.45769 45.3474 8.28177 45.7874 8.28177C45.9727 8.28177 46.1391 8.3174 46.2889 8.38878C46.4388 8.45896 46.572 8.56597 46.6901 8.70983V7.00098ZM47.3084 10.1665C47.3084 10.7062 47.3852 11.0686 47.5374 11.2539C47.6895 11.4391 47.8795 11.5323 48.1072 11.5323C48.3611 11.5323 48.5769 11.4172 48.7562 11.1895C48.9344 10.9616 49.0241 10.6071 49.0241 10.1263C49.0241 9.67174 48.9415 9.33333 48.7763 9.11129C48.6111 8.88918 48.3999 8.77765 48.1427 8.77765C47.8655 8.77765 47.6577 8.89376 47.5185 9.12516C47.3792 9.35636 47.3084 9.70387 47.3084 10.1665ZM44.9792 10.0985C44.9792 10.6048 45.0664 10.9685 45.24 11.1918C45.4146 11.4139 45.6306 11.5255 45.8878 11.5255C46.158 11.5255 46.3599 11.4149 46.4932 11.1928C46.6265 10.972 46.6937 10.6394 46.6937 10.1964C46.6937 9.72455 46.6229 9.37144 46.4825 9.13546C46.3421 8.89847 46.1296 8.78096 45.8465 8.78096C45.5905 8.78096 45.3827 8.89605 45.2212 9.12617C45.0595 9.35636 44.9792 9.6809 44.9792 10.0985ZM50.3799 8.36327H51.0016V11.0938L52.7268 8.36327H53.397V11.9431H52.7752V9.22988L51.0501 11.9431H50.3799V8.36327ZM54.3375 8.36327H54.9604V9.85351H56.6855V8.36327H57.3074V11.9431H56.6855V10.3551H54.9604V11.9431H54.3375V8.36327ZM60.6396 11.5012C60.4084 11.6922 60.1864 11.8268 59.9742 11.9062C59.7606 11.9844 59.5316 12.0236 59.2874 12.0236C58.8838 12.0236 58.5746 11.9281 58.3575 11.7359C58.1416 11.5438 58.0329 11.2975 58.0329 10.9995C58.0329 10.8235 58.0731 10.6635 58.1559 10.5184C58.2372 10.3736 58.3445 10.2573 58.4767 10.1699C58.6101 10.0824 58.7588 10.0157 58.925 9.97077C59.0466 9.93972 59.2307 9.90867 59.4773 9.87992C59.9801 9.82113 60.3505 9.75222 60.5877 9.67047C60.5901 9.58763 60.5912 9.5347 60.5912 9.51275C60.5912 9.26538 60.5322 9.09048 60.4142 8.99034C60.2562 8.85228 60.0189 8.78439 59.7063 8.78439C59.4136 8.78439 59.1977 8.83389 59.0573 8.93403C58.918 9.03418 58.8153 9.21137 58.748 9.46554L58.1403 9.38397C58.1959 9.13088 58.2868 8.92474 58.413 8.7695C58.5392 8.61299 58.7234 8.49217 58.9628 8.40813C59.2024 8.32408 59.4796 8.28164 59.7959 8.28164C60.1098 8.28164 60.3634 8.31848 60.5593 8.38968C60.7552 8.46233 60.8991 8.55198 60.9925 8.66128C61.0844 8.77052 61.1481 8.90757 61.1859 9.07439C61.206 9.17803 61.2167 9.36432 61.2167 9.63363V10.4425C61.2167 11.0075 61.2296 11.3644 61.2568 11.5127C61.2827 11.6622 61.3357 11.806 61.4136 11.9431H60.7635C60.6998 11.8176 60.6574 11.6703 60.6396 11.5012ZM60.5877 10.1457C60.3611 10.2365 60.0225 10.3125 59.5718 10.3759C59.3157 10.4114 59.1339 10.4518 59.029 10.4967C58.9227 10.5416 58.8401 10.6071 58.7835 10.6946C58.7257 10.7809 58.6962 10.8763 58.6962 10.9822C58.6962 11.1445 58.7599 11.2791 58.8849 11.3873C59.0101 11.4943 59.1941 11.5484 59.4361 11.5484C59.6756 11.5484 59.8892 11.4977 60.0756 11.3954C60.262 11.2929 60.4001 11.1526 60.4874 10.9752C60.5546 10.8384 60.5877 10.6358 60.5877 10.369V10.1457ZM62.1843 8.36327H62.8072V9.85351H64.5324V8.36327H65.1543V11.9431H64.5324V10.3551H62.8072V11.9431H62.1843V8.36327ZM68.4864 10.6312L69.0976 10.7095C69.0317 11.1203 68.8605 11.4426 68.5844 11.675C68.3093 11.9075 67.9708 12.0236 67.5697 12.0236C67.0681 12.0236 66.6634 11.8636 66.359 11.5438C66.0534 11.2238 65.8999 10.7647 65.8999 10.1664C65.8999 9.77977 65.966 9.44155 66.0969 9.15156C66.2291 8.86157 66.4287 8.64404 66.6976 8.49898C66.9654 8.35411 67.2581 8.28164 67.5731 8.28164C67.9719 8.28164 68.2988 8.38058 68.5513 8.57724C68.8049 8.77402 68.9679 9.05263 69.0399 9.41502L68.4346 9.50594C68.3766 9.26538 68.2752 9.08469 68.129 8.96279C67.9825 8.84191 67.8057 8.78089 67.5979 8.78089C67.284 8.78089 67.0291 8.89032 66.8332 9.11014C66.6375 9.32875 66.5394 9.67505 66.5394 10.1492C66.5394 10.6302 66.6339 10.98 66.8238 11.1986C67.0127 11.4161 67.2592 11.5254 67.5638 11.5254C67.808 11.5254 68.0109 11.4517 68.175 11.3056C68.3388 11.1594 68.4428 10.9351 68.4864 10.6312ZM69.4774 10.1525C69.4774 9.48978 69.6663 8.99842 70.0449 8.67967C70.3601 8.41512 70.7447 8.28164 71.1991 8.28164C71.7041 8.28164 72.1171 8.44267 72.4369 8.76601C72.7579 9.08826 72.9171 9.53343 72.9171 10.102C72.9171 10.5634 72.8463 10.9258 72.7048 11.1895C72.5631 11.454 72.3567 11.6589 72.0863 11.805C71.815 11.9511 71.52 12.0236 71.1991 12.0236C70.6857 12.0236 70.2704 11.8636 69.953 11.5415C69.6355 11.2205 69.4774 10.7579 69.4774 10.1525ZM70.1171 10.1525C70.1171 10.6118 70.2196 10.9546 70.425 11.1824C70.6303 11.4115 70.8888 11.5254 71.1991 11.5254C71.5081 11.5254 71.7654 11.4103 71.9708 11.1814C72.1748 10.9523 72.2775 10.6025 72.2775 10.1331C72.2775 9.68994 72.1748 9.35401 71.9683 9.12611C71.762 8.8984 71.5058 8.78439 71.1991 8.78439C70.8888 8.78439 70.6303 8.8984 70.425 9.12509C70.2196 9.35172 70.1171 9.69465 70.1171 10.1525ZM73.6499 8.36327H75.0846C75.4374 8.36327 75.6995 8.39203 75.8716 8.44853C76.0427 8.50604 76.1902 8.61076 76.3142 8.76378C76.4368 8.91692 76.4995 9.09971 76.4995 9.31386C76.4995 9.48405 76.4629 9.63369 76.3897 9.76037C76.3178 9.88679 76.208 9.9938 76.0629 10.0791C76.2363 10.1354 76.3791 10.2401 76.4935 10.3943C76.6079 10.5485 76.6646 10.7302 76.6646 10.942C76.6423 11.2814 76.5171 11.5335 76.2917 11.6969C76.0652 11.8614 75.7371 11.9431 75.3065 11.9431H73.6499V8.36334V8.36327ZM74.2728 9.86961H74.9361C75.2014 9.86961 75.3832 9.85701 75.4824 9.82927C75.5815 9.8028 75.67 9.74752 75.749 9.66595C75.8269 9.5842 75.8657 9.48526 75.8657 9.37144C75.8657 9.18267 75.7973 9.05021 75.6605 8.97672C75.5236 8.90184 75.2888 8.865 74.9573 8.865H74.2728V9.86961ZM74.2728 11.4437H75.0917C75.4446 11.4437 75.6864 11.4046 75.8173 11.324C75.9495 11.2446 76.0181 11.1065 76.0251 10.9121C76.0251 10.7971 75.9873 10.6911 75.9107 10.5934C75.8351 10.4955 75.736 10.4334 75.6144 10.4082C75.4917 10.3817 75.2958 10.369 75.0256 10.369H74.2728V11.4437ZM77.0977 10.1526C77.0977 9.48984 77.2866 8.99848 77.6652 8.67973C77.9804 8.41519 78.365 8.28171 78.8195 8.28171C79.3244 8.28171 79.7374 8.44274 80.0572 8.76607C80.3782 9.08832 80.5374 9.53349 80.5374 10.1021C80.5374 10.5634 80.4667 10.9259 80.3251 11.1895C80.1834 11.4541 79.9771 11.6589 79.7066 11.8051C79.4354 11.9512 79.1404 12.0236 78.8195 12.0236C78.3061 12.0236 77.8907 11.8637 77.5733 11.5416C77.2558 11.2206 77.0977 10.758 77.0977 10.1526ZM77.7374 10.1526C77.7374 10.6118 77.84 10.9546 78.0453 11.1825C78.2506 11.4116 78.5092 11.5255 78.8195 11.5255C79.1285 11.5255 79.3858 11.4104 79.5911 11.1815C79.7952 10.9523 79.8979 10.6025 79.8979 10.1331C79.8979 9.69 79.7952 9.35407 79.5887 9.12617C79.3823 8.89847 79.1262 8.78446 78.8195 8.78446C78.5092 8.78446 78.2506 8.89847 78.0453 9.12516C77.84 9.35178 77.7374 9.69471 77.7374 10.1526ZM81.0247 10.4599V9.84995H82.9373V10.4599H81.0247ZM83.6277 8.36334H86.5257V11.9431H85.9026V8.86507H84.2507V11.9431H83.6277V8.36334H83.6277ZM87.4591 13.3147V8.36334H88.0254V8.82823C88.1587 8.64646 88.3098 8.50948 88.4786 8.41862C88.6461 8.32771 88.8502 8.28177 89.0899 8.28177C89.4037 8.28177 89.6799 8.36104 89.9193 8.51756C90.16 8.67521 90.3406 8.89732 90.462 9.18382C90.5849 9.47044 90.6462 9.78442 90.6462 10.1263C90.6462 10.4921 90.579 10.8224 90.4433 11.1159C90.3088 11.4092 90.1129 11.6336 89.8556 11.7902C89.5984 11.9455 89.3282 12.0237 89.045 12.0237C88.8373 12.0237 88.652 11.9811 88.4868 11.896C88.3217 11.8109 88.1872 11.7027 88.0808 11.5727V13.3148H87.4591V13.3147ZM88.0218 10.1733C88.0218 10.6337 88.1175 10.9744 88.3086 11.1952C88.4998 11.415 88.7322 11.5255 89.0037 11.5255C89.2798 11.5255 89.5169 11.4116 89.714 11.1825C89.911 10.9547 90.0102 10.6015 90.0102 10.1228C90.0102 9.66602 89.9134 9.32538 89.7211 9.09748C89.5287 8.87086 89.2987 8.75697 89.0319 8.75697C88.7664 8.75697 88.5316 8.87766 88.3275 9.11943C88.1235 9.36094 88.0218 9.71322 88.0218 10.1733ZM91.1641 10.1527C91.1641 9.48991 91.3529 8.99855 91.7316 8.6798C92.0468 8.41525 92.4314 8.28177 92.8858 8.28177C93.3907 8.28177 93.8038 8.4428 94.1236 8.76613C94.4445 9.08838 94.6037 9.53355 94.6037 10.1022C94.6037 10.5635 94.533 10.9259 94.3915 11.1896C94.2497 11.4541 94.0434 11.659 93.773 11.8051C93.5017 11.9512 93.2067 12.0237 92.8858 12.0237C92.3724 12.0237 91.957 11.8637 91.6397 11.5416C91.3222 11.2206 91.1641 10.758 91.1641 10.1527ZM91.8038 10.1527C91.8038 10.6119 91.9063 10.9547 92.1117 11.1825C92.317 11.4116 92.5755 11.5255 92.8858 11.5255C93.1948 11.5255 93.4521 11.4104 93.6575 11.1815C93.8615 10.9524 93.9642 10.6026 93.9642 10.1332C93.9642 9.69006 93.8615 9.35414 93.655 9.12624C93.4487 8.89853 93.1925 8.78452 92.8858 8.78452C92.5755 8.78452 92.317 8.89853 92.1117 9.12522C91.9063 9.35185 91.8038 9.69477 91.8038 10.1527ZM95.3506 8.3634H96.3182L97.2835 11.2287L98.3549 8.3634H99.2506V11.9432H98.6287V9.06071L97.5431 11.9432H96.9861L95.9595 8.92264V11.9432H95.3506V8.3634ZM103.695 8.3634H104.318V11.9432H103.695V8.3634ZM100.215 8.3634H100.837V9.76151H101.626C102.139 9.76151 102.535 9.85943 102.813 10.0538C103.09 10.2483 103.229 10.5163 103.229 10.8581C103.229 11.1561 103.114 11.4128 102.881 11.6245C102.65 11.8375 102.279 11.9433 101.771 11.9433H100.215V8.36346V8.3634ZM100.837 11.4438H101.49C101.884 11.4438 102.166 11.3966 102.334 11.3022C102.503 11.2078 102.586 11.0606 102.586 10.8616C102.586 10.7063 102.524 10.5681 102.4 10.4462C102.275 10.3253 102 10.2644 101.574 10.2644H100.837V11.4438ZM105.311 8.3634H105.933V11.4403H107.351V8.3634H107.973V11.4403H109.394V8.3634H110.012V11.9432H105.311V8.3634H105.311ZM111.273 8.3634H114.164V11.9432H113.544V8.86513H111.896V10.6487C111.896 11.0641 111.882 11.339 111.855 11.4714C111.826 11.6037 111.751 11.7199 111.626 11.819C111.502 11.918 111.321 11.9674 111.087 11.9674C110.941 11.9674 110.774 11.9581 110.585 11.9397V11.4346H110.859C110.987 11.4346 111.08 11.4208 111.135 11.3955C111.19 11.369 111.227 11.3287 111.246 11.2724C111.265 11.2159 111.273 11.0329 111.273 10.7222V8.3634H111.273ZM117.613 10.7901L118.256 10.8673C118.155 11.2343 117.967 11.5187 117.693 11.7211C117.418 11.9225 117.068 12.0237 116.642 12.0237C116.105 12.0237 115.679 11.8627 115.365 11.5404C115.05 11.2184 114.893 10.7661 114.893 10.1838C114.893 9.58076 115.053 9.11364 115.37 8.78102C115.688 8.44859 116.1 8.28177 116.608 8.28177C117.099 8.28177 117.5 8.44509 117.81 8.77065C118.122 9.0964 118.277 9.5555 118.277 10.1458C118.277 10.1826 118.276 10.2366 118.274 10.3081H115.536C115.559 10.7015 115.673 11.0031 115.878 11.2114C116.084 11.4208 116.339 11.5255 116.646 11.5255C116.873 11.5255 117.068 11.4667 117.23 11.3494C117.391 11.2332 117.519 11.0468 117.613 10.7901H117.613ZM115.571 9.80866H117.62C117.593 9.50829 117.514 9.28167 117.385 9.13203C117.187 8.89853 116.93 8.78102 116.615 8.78102C116.329 8.78102 116.089 8.87435 115.894 9.06064C115.699 9.24712 115.592 9.49691 115.57 9.80866H115.571ZM119.041 8.36334H119.664V9.85358H121.389V8.36334H122.011V11.9431H121.389V10.3552H119.664V11.9431H119.041V8.36334ZM122.95 8.36334H123.573V9.85358H125.298V8.36334H125.92V11.9431H125.298V10.3552H123.573V11.9431H122.95V8.36334ZM129.252 11.5012C129.021 11.6923 128.799 11.8268 128.587 11.9063C128.373 11.9845 128.144 12.0236 127.9 12.0236C127.497 12.0236 127.187 11.9282 126.97 11.7359C126.754 11.5438 126.646 11.2976 126.646 10.9996C126.646 10.8236 126.686 10.6636 126.769 10.5185C126.85 10.3736 126.957 10.2573 127.089 10.17C127.223 10.0824 127.372 10.0158 127.538 9.97083C127.659 9.93979 127.843 9.90874 128.09 9.87998C128.593 9.82119 128.963 9.75229 129.2 9.67053C129.203 9.5877 129.204 9.53476 129.204 9.51281C129.204 9.26544 129.145 9.09055 129.027 8.9904C128.869 8.85234 128.632 8.78446 128.319 8.78446C128.026 8.78446 127.81 8.83395 127.67 8.9341C127.531 9.03424 127.428 9.21143 127.361 9.4656L126.753 9.38404C126.809 9.13095 126.899 8.92481 127.026 8.76957C127.152 8.61306 127.336 8.49224 127.576 8.40819C127.815 8.32414 128.092 8.28171 128.409 8.28171C128.722 8.28171 128.976 8.31854 129.172 8.38974C129.368 8.4624 129.512 8.55204 129.605 8.66135C129.697 8.77059 129.761 8.90763 129.799 9.07445C129.819 9.17809 129.829 9.36438 129.829 9.63369V10.4425C129.829 11.0076 129.842 11.3644 129.869 11.5128C129.895 11.6622 129.948 11.8061 130.026 11.9431H129.376C129.312 11.8177 129.27 11.6703 129.252 11.5012ZM129.2 10.1457C128.974 10.2366 128.635 10.3126 128.184 10.3759C127.928 10.4115 127.747 10.4519 127.642 10.4967C127.535 10.5417 127.453 10.6071 127.396 10.6947C127.338 10.7809 127.309 10.8764 127.309 10.9823C127.309 11.1446 127.373 11.2792 127.498 11.3874C127.623 11.4944 127.807 11.5484 128.049 11.5484C128.288 11.5484 128.502 11.4977 128.688 11.3955C128.875 11.293 129.013 11.1527 129.1 10.9753C129.167 10.8385 129.2 10.6359 129.2 10.369V10.1457ZM133.684 8.36334V11.9431H133.065V10.5473H132.706C132.487 10.5473 132.324 10.575 132.216 10.6303C132.109 10.6853 131.953 10.8627 131.748 11.1607L131.205 11.9431H130.435L131.105 10.9788C131.31 10.6843 131.514 10.5185 131.717 10.4806C131.362 10.4322 131.099 10.308 130.927 10.1054C130.756 9.90416 130.669 9.67053 130.669 9.40809C130.669 9.09742 130.781 8.84655 131.007 8.65327C131.231 8.45991 131.557 8.36327 131.983 8.36327H133.684V8.36334ZM133.065 8.86507H132.18C131.809 8.86507 131.57 8.9215 131.462 9.0343C131.356 9.1459 131.302 9.27817 131.302 9.42781C131.302 9.64184 131.381 9.79829 131.539 9.89843C131.697 9.99845 131.976 10.0492 132.377 10.0492H133.065V8.86507ZM136.598 8.36334H138.71V8.86507H137.221V11.9431H136.598V8.36334H136.598ZM139.177 13.3147V8.36334H139.743V8.82823C139.877 8.64646 140.028 8.50948 140.197 8.41862C140.364 8.32771 140.568 8.28177 140.808 8.28177C141.122 8.28177 141.398 8.36104 141.637 8.51756C141.878 8.67521 142.059 8.89732 142.18 9.18382C142.303 9.47044 142.364 9.78442 142.364 10.1263C142.364 10.4921 142.297 10.8224 142.161 11.1159C142.027 11.4092 141.831 11.6336 141.574 11.7902C141.316 11.9455 141.046 12.0237 140.763 12.0237C140.555 12.0237 140.37 11.9811 140.205 11.896C140.04 11.8109 139.905 11.7027 139.799 11.5727V13.3148H139.177V13.3147ZM139.74 10.1733C139.74 10.6337 139.835 10.9744 140.027 11.1952C140.218 11.415 140.45 11.5255 140.722 11.5255C140.998 11.5255 141.235 11.4116 141.432 11.1825C141.629 10.9547 141.728 10.6015 141.728 10.1228C141.728 9.66602 141.631 9.32538 141.439 9.09748C141.247 8.87086 141.017 8.75697 140.75 8.75697C140.484 8.75697 140.25 8.87766 140.045 9.11943C139.841 9.36094 139.74 9.71322 139.74 10.1733ZM143.007 13.3216L142.938 12.752C143.075 12.7878 143.193 12.8062 143.294 12.8062C143.432 12.8062 143.543 12.783 143.625 12.7383C143.709 12.6934 143.777 12.6313 143.83 12.5495C143.87 12.4897 143.932 12.3389 144.02 12.0986C144.031 12.064 144.05 12.0155 144.075 11.95L142.683 8.36334H143.353L144.118 10.4357C144.216 10.6992 144.305 10.9753 144.383 11.2653C144.455 10.9869 144.54 10.7153 144.639 10.4496L145.424 8.36334H146.046L144.65 12.0042C144.5 12.3977 144.383 12.668 144.3 12.8166C144.19 13.0167 144.063 13.1629 143.921 13.256C143.777 13.3493 143.607 13.3965 143.408 13.3965C143.288 13.3965 143.155 13.371 143.007 13.3216ZM146.578 8.36334H149.476V11.9431H148.853V8.86507H147.201V11.9431H146.578V8.36334H146.578ZM150.412 8.36334H153.309V11.9431H152.686V8.86507H151.034V11.9431H150.411V8.36334H150.412ZM156.638 11.5012C156.407 11.6923 156.185 11.8268 155.973 11.9063C155.759 11.9845 155.53 12.0236 155.286 12.0236C154.882 12.0236 154.573 11.9282 154.356 11.7359C154.14 11.5438 154.031 11.2976 154.031 10.9996C154.031 10.8236 154.072 10.6636 154.154 10.5185C154.236 10.3736 154.343 10.2573 154.475 10.17C154.609 10.0824 154.757 10.0158 154.924 9.97083C155.045 9.93979 155.229 9.90874 155.476 9.87998C155.979 9.82119 156.349 9.75229 156.586 9.67053C156.589 9.5877 156.59 9.53476 156.59 9.51281C156.59 9.26544 156.531 9.09055 156.413 8.9904C156.255 8.85234 156.017 8.78446 155.705 8.78446C155.412 8.78446 155.196 8.83395 155.056 8.9341C154.917 9.03424 154.814 9.21143 154.747 9.4656L154.139 9.38404C154.194 9.13095 154.285 8.92481 154.412 8.76957C154.538 8.61306 154.722 8.49224 154.961 8.40819C155.201 8.32414 155.478 8.28171 155.794 8.28171C156.108 8.28171 156.362 8.31854 156.558 8.38974C156.754 8.4624 156.898 8.55204 156.991 8.66135C157.083 8.77059 157.147 8.90763 157.184 9.07445C157.205 9.17809 157.215 9.36438 157.215 9.63369V10.4425C157.215 11.0076 157.228 11.3644 157.255 11.5128C157.281 11.6622 157.334 11.8061 157.412 11.9431H156.762C156.698 11.8177 156.656 11.6703 156.638 11.5012ZM156.586 10.1457C156.36 10.2366 156.021 10.3126 155.57 10.3759C155.314 10.4115 155.132 10.4519 155.028 10.4967C154.921 10.5417 154.839 10.6071 154.782 10.6947C154.724 10.7809 154.695 10.8764 154.695 10.9823C154.695 11.1446 154.758 11.2792 154.883 11.3874C155.009 11.4944 155.193 11.5484 155.435 11.5484C155.674 11.5484 155.888 11.4977 156.074 11.3955C156.26 11.293 156.399 11.1527 156.486 10.9753C156.553 10.8385 156.586 10.6359 156.586 10.369V10.1457Z" fill="#2D2C34"/>
</g>
</mask>
<g mask="url(#mask0_3065_24059)">
<rect x="-14" y="-20" width="205" height="98" fill="#C3C3C4"/>
</g>
</g>
<defs>
<linearGradient id="paint0_linear_3065_24059" x1="23.4834" y1="22.7607" x2="9.23167" y2="32.5152" gradientUnits="userSpaceOnUse">
<stop stop-color="#FEF4DC"/>
<stop offset="1" stop-color="#E8AB18"/>
</linearGradient>
<linearGradient id="paint1_linear_3065_24059" x1="15.4263" y1="18.6006" x2="9.63359" y2="25.0545" gradientUnits="userSpaceOnUse">
<stop stop-color="#DCA817"/>
<stop offset="1" stop-color="#69502A"/>
</linearGradient>
<linearGradient id="paint2_linear_3065_24059" x1="11.5223" y1="27.611" x2="19.5479" y2="13.7883" gradientUnits="userSpaceOnUse">
<stop stop-color="#986F1A"/>
<stop offset="1" stop-color="#7F573D"/>
</linearGradient>
<linearGradient id="paint3_linear_3065_24059" x1="23.2266" y1="18.162" x2="25.7348" y2="16.8763" gradientUnits="userSpaceOnUse">
<stop stop-color="#FEEC88"/>
<stop offset="1" stop-color="#E5B10F"/>
</linearGradient>
<linearGradient id="paint4_linear_3065_24059" x1="30.6591" y1="20.082" x2="28.4699" y2="20.8289" gradientUnits="userSpaceOnUse">
<stop stop-color="#D8990F"/>
<stop offset="1" stop-color="#FFDE17"/>
</linearGradient>
<linearGradient id="paint5_linear_3065_24059" x1="25.4392" y1="32.1081" x2="25.0754" y2="37.0842" gradientUnits="userSpaceOnUse">
<stop stop-color="#7A612D"/>
<stop offset="1" stop-color="#E7B73D"/>
</linearGradient>
<linearGradient id="paint6_linear_3065_24059" x1="25.4577" y1="35.6374" x2="20.4733" y2="38.4439" gradientUnits="userSpaceOnUse">
<stop stop-color="#A27C18"/>
<stop offset="1" stop-color="#755B35"/>
</linearGradient>
<clipPath id="clip0_3065_24059">
<rect width="181" height="36.7808" fill="white" transform="translate(2 7)"/>
</clipPath>
</defs>
</svg>
