<svg width="32" height="32" viewBox="0 0 32 32" fill="none" xmlns="http://www.w3.org/2000/svg">
<g clip-path="url(#clip0_432_63530)">
<path d="M10.3625 31.2339C10.3057 31.219 10.2185 31.1891 10.1957 31.1667C10.0668 31.0213 9.93416 30.8721 9.83939 30.7267C9.74461 30.5738 9.81664 30.5663 10.2261 30.6633L10.2564 30.6857L10.2374 30.6633C10.1806 30.5514 10.3663 30.4656 10.0289 30.3239C9.90383 30.2717 9.92658 30.2157 9.95311 30.171C10.0517 29.9994 9.95311 29.7719 10.1502 29.6265C10.2261 29.5705 10.2071 29.4587 10.1768 29.3654C10.1351 29.2312 10.1502 29.1081 10.2829 29.041C10.6279 28.8657 10.4649 28.5226 10.5976 28.2764C10.6317 28.213 10.5786 28.1459 10.7606 28.1683C10.7871 28.1683 10.9349 28.2018 10.8326 28.1534C10.4421 27.9669 10.6696 27.9147 10.7492 27.8289C10.7719 27.8028 10.7719 27.7729 10.7113 27.7394C10.3739 27.538 10.6127 27.4746 10.7606 27.4448C10.9008 27.4149 10.9577 27.3963 10.897 27.2881C10.7189 26.986 10.7757 26.766 11.0335 26.5721C11.2079 26.4378 11.1814 26.1842 11.2648 25.9903C11.4429 25.5838 11.4998 25.1362 11.8144 24.7782C11.9016 24.6812 11.8561 24.5283 11.8903 24.4053C11.9092 24.3419 11.9509 24.2635 12.1556 24.3419C12.3414 24.4164 12.2201 24.4575 12.2087 24.5097C12.2049 24.5283 12.2163 24.5507 12.2238 24.5917C12.4589 24.6178 12.6674 24.6439 12.493 24.45C12.4816 24.4388 12.474 24.4276 12.4703 24.4164C12.4096 24.2673 12.1784 24.1069 12.1139 23.9726C12.0533 23.8384 12.2504 23.7563 12.1404 23.6034C12.1935 23.596 12.2238 23.581 12.2542 23.5885C12.8531 23.734 13.0882 23.6295 12.7015 23.3163C12.2807 22.9731 12.3717 22.7345 12.4968 22.5629C12.6257 22.3876 12.6674 22.2012 12.6674 21.9923C12.6674 21.9811 12.6522 21.9662 12.656 21.9587C12.7394 21.8767 12.7015 21.7499 12.7697 21.6641C12.8493 21.5634 13.1488 21.7201 13.3384 21.7275C13.4673 21.7312 13.4673 21.6902 13.471 21.6417L13.5014 21.6343H13.4635C12.91 21.5448 12.9365 21.5336 12.9365 21.2874C12.9403 20.7541 13.2663 20.3364 13.4256 19.8591C13.5544 19.4675 13.6947 19.0833 13.8729 18.7104C14.0548 18.3263 14.2899 17.957 14.3354 17.5319C14.3695 17.2335 14.6386 17.0284 14.6311 16.7226C14.6311 16.6965 14.6803 16.6853 14.7107 16.6666C14.9419 16.7599 14.995 16.868 14.9192 16.9128C14.6576 17.0657 14.7486 17.3417 14.6955 17.5692C14.6652 17.6997 14.6045 17.8228 14.559 17.9421C15.1542 17.9347 14.7941 17.5393 14.904 17.3305C15.139 16.8718 15.2603 16.372 15.4423 15.8909C15.465 15.8275 15.5484 15.7902 15.6015 15.738C15.647 15.6933 15.738 15.6597 15.7304 15.6038C15.6622 15.1301 15.8593 14.7497 16.064 14.373C16.1095 14.2873 16.0792 14.1716 16.0223 14.056C15.6735 13.8957 15.6963 13.7577 15.7342 13.6346C15.7911 13.4444 15.8403 13.2542 15.9541 13.0901C16.299 12.5904 16.4014 12.0011 16.5871 11.4417C16.7047 11.0874 16.9852 10.8002 16.9776 10.4012C16.9776 10.3117 17.0686 10.2781 17.2392 10.3452C17.4136 10.4161 17.3036 10.4683 17.3188 10.528C17.3226 10.5466 17.3377 10.569 17.3719 10.651C17.5917 10.3564 17.6296 10.0357 17.6941 9.7336C17.7623 9.42405 17.9443 9.15553 17.876 8.79377C17.6751 9.07721 17.7396 9.47253 17.4022 9.71495C17.2354 9.48745 17.3226 9.14434 17.4932 8.80496C17.6296 8.53644 17.6258 8.20825 17.7509 7.936C17.8685 7.67494 17.7434 7.30945 18.13 7.15654C18.0656 7.64137 17.9102 8.09264 17.8685 8.59238C18.1224 8.62595 17.9936 8.49915 18.0125 8.44321C18.4257 7.23859 18.8238 6.02279 19.3128 4.84429C19.6009 4.15807 19.7677 3.42336 20.1013 2.75579C20.2757 2.40895 20.4917 2.08076 20.6927 1.74511C20.723 1.6929 20.7685 1.63696 20.9277 1.70409C21.068 1.76376 21.121 1.85327 21.0907 1.90548C20.9467 2.15535 21.0111 2.48354 20.8974 2.7446C20.651 3.30029 20.3401 3.82987 20.2036 4.42659C20.0482 5.09416 19.6691 5.66849 19.5099 6.32861C19.3166 7.12671 18.9602 7.85768 18.8124 8.66697C18.6456 9.57323 18.3196 10.4198 18.0542 11.2888C17.3984 13.4966 16.3673 15.5627 15.6622 17.7482C15.5181 18.2032 15.4309 18.6768 15.2641 19.1281C14.8775 20.1686 14.4301 21.1942 14.1496 22.272C13.979 22.9247 13.8426 23.5885 13.5582 24.2001C13.2929 24.7707 13.0237 25.3339 12.8418 25.9343C12.6105 26.6951 12.3603 27.4522 12.2201 28.2391C12.1442 28.6755 11.9395 29.0745 11.9395 29.5258C11.9395 30.0554 11.5946 30.4805 11.6742 31.0288C11.6893 31.1332 11.6818 31.2413 11.5529 31.2936C11.2155 31.4278 11.0487 31.6329 10.9615 31.8753C10.9501 31.9089 10.8819 31.9276 10.7416 31.894C10.5066 31.4539 10.9274 31.1667 10.7113 30.7267C10.7265 30.9318 10.3815 31.0027 10.4421 31.2264C10.4459 31.2413 10.3929 31.2563 10.3701 31.2525L10.3625 31.2339ZM17.2619 10.7405V10.7182L17.2354 10.7256L17.2619 10.7368V10.7405ZM16.5682 12.7694C16.7198 12.6649 16.7388 12.5195 16.6819 12.3405C16.9586 12.1354 17.2771 11.1844 17.152 10.8711C16.989 11.2813 16.8298 11.6729 16.6743 12.0608C16.6402 12.1428 16.6288 12.2323 16.6781 12.3368C16.5947 12.4636 16.4924 12.5829 16.5682 12.7656V12.7694ZM16.1626 13.7166C16.3559 13.5376 16.4279 13.3176 16.3862 13.0528C16.2043 13.2356 16.0943 13.4444 16.1626 13.7166ZM16.0109 14.0411C16.1588 14.0262 16.1777 13.9665 16.064 13.8509C15.9427 13.8845 16.064 13.9926 16.0109 14.0411ZM14.4112 18.4456C14.415 18.3225 14.6614 18.3076 14.5894 18.151C14.3998 18.192 14.396 18.3151 14.4112 18.4456ZM14.1761 19.0311L14.2178 19.0423L14.2937 18.8335L14.2558 18.8148L14.1761 19.0311ZM13.9942 19.5793L13.9866 19.557L13.9639 19.5682L13.9942 19.5793ZM13.7137 20.2805C13.8009 20.2544 13.8122 20.2022 13.7933 20.135C13.6833 20.135 13.5772 20.1388 13.6227 20.2245C13.6341 20.2432 13.7099 20.2805 13.7137 20.2805ZM13.5886 21.2762L13.5961 21.2651L13.5544 21.2576L13.5886 21.2762ZM13.2967 22.0371C13.3232 22.0333 13.3763 22.0296 13.3725 22.0221C13.3497 21.9923 13.3194 21.9475 13.2777 21.9289C13.2171 21.9028 13.1564 21.914 13.1678 21.9513C13.1754 21.9848 13.2284 22.0184 13.2967 22.0408V22.0371ZM13.2512 22.3652C13.2512 22.3652 13.2815 22.3652 13.2891 22.3615C13.2967 22.3541 13.3042 22.3466 13.2967 22.3354C13.2739 22.3093 13.2512 22.3093 13.2436 22.3354C13.2436 22.3429 13.2512 22.3541 13.255 22.3652H13.2512ZM13.1488 23.0179C13.1412 22.9209 13.145 22.8836 13.1374 22.8426C13.1299 22.8053 13.1867 22.768 13.0503 22.727C13.0123 22.7158 12.9669 22.7084 12.9327 22.7084C12.8304 22.7084 12.8759 22.7568 12.9289 22.8053C12.9782 22.8501 13.0237 22.8948 13.1526 23.0142L13.1488 23.0179ZM12.7508 23.9913C12.7735 23.9913 12.8001 23.9726 12.7925 23.954C12.7849 23.9279 12.7925 23.8906 12.7091 23.8719C12.6901 23.8682 12.6825 23.8981 12.6636 23.9167C12.6712 23.9428 12.6446 23.9764 12.747 23.9876L12.7508 23.9913ZM12.2466 25.0132C12.2921 25.0318 12.3224 25.0318 12.3035 25.0057C12.2921 24.9871 12.2504 24.9684 12.2163 24.9535C12.167 24.9311 12.1367 24.9348 12.1556 24.9535C12.1746 24.9721 12.2163 24.9908 12.2466 25.0094V25.0132ZM12.1139 25.3376C12.1442 25.3451 12.1821 25.3413 12.2087 25.3376C12.2428 25.3302 12.2352 25.3115 12.1897 25.2929C12.1594 25.2929 12.1215 25.2929 12.095 25.2966C12.057 25.3041 12.0684 25.3302 12.1139 25.3413V25.3376ZM11.8448 26.4266C11.8144 26.3259 11.7235 26.229 11.6059 26.1171C11.6388 26.2339 11.7184 26.3371 11.8448 26.4266ZM11.4695 27.3217C11.4695 27.3217 11.4846 27.3105 11.4922 27.3068C11.4808 27.2956 11.4695 27.2807 11.4543 27.2769C11.4012 27.2583 11.3823 27.2695 11.4164 27.2993C11.424 27.3068 11.4505 27.318 11.4695 27.3217ZM11.424 27.5827C11.4467 27.5716 11.4884 27.5678 11.4846 27.5529C11.4733 27.5231 11.4543 27.4783 11.4126 27.4597C11.3254 27.4224 11.3254 27.4597 11.3254 27.4895C11.3254 27.5193 11.3557 27.5566 11.424 27.5865V27.5827ZM11.2685 28.5934V28.5748L11.242 28.5822L11.2685 28.5934ZM11.1245 29.0372V29.0186L11.098 29.0298L11.1245 29.041V29.0372ZM10.9729 29.5146L10.9198 29.3953L10.8857 29.3729L10.9046 29.3953C10.9501 29.4363 10.8516 29.4624 10.9691 29.5146H10.9729ZM10.2981 29.8241V29.8055L10.2715 29.8167L10.2981 29.8279V29.8241ZM10.7947 30.0927L10.8516 30.0516H10.8857L10.844 30.0442C10.8326 30.0628 10.7265 30.0405 10.7947 30.0927ZM10.7947 30.4693L10.7871 30.447L10.7682 30.4582L10.7947 30.4656V30.4693Z" fill="#070707"/>
<path d="M15.7758 14.0374C15.3891 14.2425 15.4573 14.6192 15.427 14.9549C15.8705 14.7721 15.7075 14.3619 15.7758 14.0374Z" fill="#070707"/>
<path d="M15.0517 16.469C15.0214 16.2788 15.2299 16.1707 15.0442 15.9171C14.9721 15.9879 14.8887 16.0513 14.8319 16.1296C14.7788 16.2005 14.7485 16.2825 14.7333 16.3683C14.7257 16.4056 14.8015 16.4616 14.8925 16.4951C15.0025 16.5361 15.0593 16.5063 15.0517 16.469Z" fill="#070707"/>
<path d="M18.3232 6.50391C18.1337 6.58968 17.9972 6.69784 18.2284 6.94025C18.3687 6.83583 18.4862 6.72767 18.3232 6.50391Z" fill="#070707"/>
<path d="M17.3869 10.032C17.3907 9.97228 17.5916 9.94991 17.3528 9.84548C17.1822 9.77089 17.0874 9.81565 17.114 9.90888C17.1405 9.9872 16.9623 10.0506 17.2315 10.1476C17.4665 10.2296 17.3717 10.0954 17.3831 10.0357L17.3869 10.032Z" fill="#070707"/>
<path d="M12.5991 23.5064C12.6029 23.4468 12.5346 23.3871 12.4247 23.3461C12.2693 23.2864 12.1783 23.3051 12.1631 23.3722C12.1518 23.4244 12.2048 23.4841 12.3261 23.5288C12.4891 23.5885 12.5498 23.5512 12.5953 23.5027L12.5991 23.5064Z" fill="#070707"/>
<path d="M15.5219 15.242C15.5446 15.1898 15.4726 15.1338 15.3778 15.0854C15.3172 15.0555 15.2527 15.0481 15.2376 15.0779C15.2072 15.1301 15.23 15.1898 15.3513 15.2569C15.4536 15.2905 15.5067 15.2793 15.5219 15.242Z" fill="#070707"/>
<path d="M15.2413 15.4769C15.1124 15.5142 15.0707 15.5664 15.1844 15.7193C15.2451 15.6373 15.4119 15.641 15.2413 15.4769Z" fill="#070707"/>
<path d="M21.3257 0.56662C21.3864 0.56662 21.4773 0.574079 21.5039 0.588997C21.6669 0.682233 21.8337 0.779199 21.9588 0.876165C22.0915 0.980589 22.0194 0.999236 21.6024 0.999236L21.5683 0.988048L21.5911 1.00297C21.6745 1.08128 21.519 1.18571 21.8792 1.23419C22.0156 1.25284 22.0043 1.30132 21.9929 1.34235C21.9398 1.49525 22.0953 1.66308 21.9398 1.81226C21.8792 1.87193 21.9322 1.95771 21.9815 2.02857C22.0573 2.12926 22.0763 2.22996 21.9664 2.30827C21.6821 2.51339 21.9285 2.75954 21.8678 2.97958C21.8526 3.03552 21.9209 3.08027 21.7389 3.09519C21.7124 3.09519 21.5607 3.10265 21.6745 3.12129C22.099 3.19215 21.8943 3.28166 21.8413 3.36371C21.8261 3.38981 21.8337 3.41219 21.9019 3.42711C22.281 3.52035 22.0687 3.62104 21.936 3.67325C21.8072 3.72547 21.7579 3.75157 21.8489 3.82616C22.1028 4.03128 22.1066 4.21775 21.9133 4.4266C21.7844 4.56832 21.8792 4.76598 21.8489 4.93754C21.7882 5.29556 21.864 5.66478 21.6631 6.01535C21.61 6.11231 21.6934 6.2242 21.6934 6.32862C21.6934 6.38456 21.6745 6.45542 21.4584 6.43305C21.2575 6.4144 21.3636 6.35473 21.3598 6.30998C21.3598 6.29506 21.3409 6.28014 21.3219 6.24658C21.0869 6.27641 20.8822 6.29879 21.102 6.41813C21.1134 6.42559 21.1286 6.43305 21.1362 6.44051C21.2385 6.54493 21.5039 6.62325 21.6024 6.72021C21.701 6.81345 21.5342 6.92161 21.6858 7.01857C21.6366 7.03722 21.6138 7.05587 21.5797 7.05587C20.9618 7.06705 20.7722 7.20131 21.2309 7.36914C21.7351 7.55188 21.7162 7.757 21.6441 7.9211C21.5721 8.08892 21.5835 8.24556 21.6517 8.40966C21.6517 8.41712 21.6745 8.4283 21.6707 8.43203C21.6176 8.51408 21.6896 8.60732 21.6517 8.68937C21.6062 8.78633 21.2726 8.73039 21.0907 8.76768C20.9656 8.79379 20.9807 8.82363 20.9883 8.86465L20.9618 8.87584L20.9997 8.86838C21.5532 8.81244 21.5304 8.82736 21.6062 9.02129C21.7655 9.44271 21.5759 9.8455 21.5721 10.2595C21.5721 10.5951 21.557 10.9345 21.5039 11.2664C21.447 11.6095 21.3447 11.9564 21.4394 12.3032C21.5039 12.5456 21.3105 12.7694 21.4167 13.0118C21.4243 13.0304 21.3788 13.0528 21.356 13.0752C21.1058 13.0603 21.0224 12.9857 21.0793 12.9335C21.2802 12.747 21.102 12.5531 21.0793 12.3629C21.0679 12.251 21.0869 12.1391 21.0907 12.0384C20.5296 12.1876 20.9959 12.4114 20.9618 12.6016C20.886 13.0193 20.9315 13.4407 20.9201 13.8621C20.9201 13.9181 20.8518 13.9703 20.8177 14.0225C20.7874 14.0672 20.7154 14.1157 20.7419 14.1605C20.9618 14.5148 20.9011 14.8616 20.8367 15.2084C20.8215 15.2868 20.8936 15.3688 20.9845 15.4471C21.3712 15.4844 21.3902 15.5963 21.3977 15.7007C21.4091 15.8611 21.4281 16.0252 21.375 16.1818C21.2196 16.6592 21.3295 17.144 21.3485 17.6289C21.3636 17.9309 21.1968 18.233 21.3485 18.5388C21.3826 18.606 21.3068 18.6582 21.1248 18.6545C20.939 18.647 21.0186 18.5761 20.9845 18.5351C20.9732 18.5202 20.9504 18.5053 20.8898 18.4568C20.7874 18.744 20.867 19.005 20.9163 19.2549C20.9656 19.5122 20.886 19.7733 21.0831 20.0306C21.1665 19.7584 20.9694 19.4675 21.193 19.1878C21.4281 19.3183 21.4698 19.6055 21.4319 19.915C21.4015 20.1612 21.5266 20.411 21.5115 20.6534C21.4963 20.8884 21.7465 21.1308 21.4432 21.3583C21.3257 20.9667 21.3068 20.5789 21.1627 20.1798C20.9125 20.2246 21.0793 20.288 21.0831 20.3364C21.1362 21.3807 21.2158 22.4249 21.212 23.4692C21.212 24.0771 21.3295 24.6887 21.2878 25.2966C21.2651 25.6136 21.193 25.9306 21.14 26.2476C21.1324 26.2961 21.1134 26.352 20.939 26.352C20.7874 26.352 20.7002 26.2998 20.7078 26.2476C20.7457 26.0127 20.5524 25.7852 20.56 25.5502C20.5675 25.0505 20.6471 24.5507 20.5486 24.0547C20.4386 23.499 20.5675 22.9433 20.469 22.3914C20.3477 21.7238 20.4083 21.0562 20.2529 20.3887C20.0747 19.639 20.0861 18.8931 20.0216 18.1435C19.8624 16.2415 20.143 14.3581 20.1126 12.4598C20.105 12.0645 20.033 11.6692 20.052 11.2739C20.0937 10.3564 20.2074 9.44271 20.1543 8.52154C20.1202 7.96212 20.0633 7.4027 20.1543 6.85448C20.2415 6.34354 20.3439 5.83261 20.3515 5.31794C20.359 4.66156 20.3969 4.00144 20.3173 3.34133C20.2756 2.97585 20.3666 2.61409 20.2491 2.2486C20.1126 1.81972 20.3325 1.41321 20.1164 0.984319C20.0747 0.902271 20.0558 0.812764 20.1657 0.749363C20.4576 0.577808 20.5675 0.383877 20.5903 0.171298C20.5903 0.141462 20.6547 0.115356 20.7988 0.115356C21.1362 0.42863 20.8064 0.734445 21.1248 1.05145C21.0566 0.891082 21.375 0.768011 21.2575 0.600185C21.2499 0.588997 21.2954 0.56662 21.3181 0.56662H21.3257ZM20.9466 18.3412L20.958 18.3561L20.9769 18.3412H20.9466ZM20.8935 16.5809C20.7874 16.7002 20.8215 16.8233 20.9352 16.9426C20.7495 17.1739 20.776 17.9981 21.0035 18.2069C21.0149 17.8452 21.0262 17.4983 21.0376 17.1552C21.0376 17.0806 21.0186 17.0098 20.939 16.9426C20.9732 16.8233 21.03 16.7002 20.8935 16.5809ZM20.958 15.7343C20.8367 15.9245 20.8405 16.1147 20.9732 16.3086C21.0831 16.1184 21.1172 15.9282 20.958 15.7343ZM20.9883 15.4471C20.8518 15.4956 20.8594 15.5478 21.0035 15.6075C21.1058 15.5478 20.9504 15.4956 20.9883 15.4471ZM21.0641 11.5983C21.0983 11.6953 20.8708 11.7662 20.9883 11.8706C21.1551 11.7923 21.1172 11.6953 21.0641 11.5983ZM21.1096 11.0799H21.0641L21.0566 11.2627H21.0983L21.1058 11.0799H21.1096ZM21.1096 10.61L21.121 10.625L21.14 10.61H21.1058H21.1096ZM21.1627 9.98721C21.0869 10.0282 21.0945 10.073 21.1324 10.1215C21.2385 10.0954 21.3371 10.0693 21.2651 10.0096C21.2499 9.9984 21.1627 9.98349 21.1627 9.98349V9.98721ZM20.9807 9.17419V9.18538H21.0186L20.9807 9.17792V9.17419ZM21.03 8.50289C21.0073 8.51408 20.9542 8.529 20.9618 8.53273C20.9921 8.55138 21.0338 8.58121 21.0831 8.58494C21.1513 8.5924 21.2044 8.57002 21.1817 8.54392C21.1627 8.51781 21.1058 8.50289 21.03 8.50289ZM20.9769 8.23437C20.9769 8.23437 20.9466 8.24183 20.9428 8.24556C20.9352 8.25302 20.9315 8.26048 20.9428 8.26794C20.9694 8.28286 20.9921 8.27913 20.9959 8.25675C20.9959 8.24929 20.9845 8.24183 20.9769 8.23437ZM20.8822 7.6936C20.9163 7.76819 20.9239 7.79803 20.9466 7.82786C20.9656 7.85397 20.9201 7.89499 21.0641 7.89872C21.1058 7.89872 21.1513 7.89499 21.1817 7.88753C21.2764 7.86516 21.2234 7.83532 21.1589 7.80921C21.0983 7.78311 21.0414 7.76073 20.886 7.68987L20.8822 7.6936ZM20.9807 6.83583C20.958 6.83583 20.939 6.86193 20.9504 6.87312C20.9656 6.89177 20.9694 6.92161 21.0528 6.91788C21.0717 6.91788 21.0717 6.89177 21.0831 6.87312C21.0679 6.85448 21.0831 6.82464 20.9807 6.8321V6.83583ZM21.1703 5.91465C21.121 5.90719 21.0907 5.91465 21.1172 5.9333C21.1324 5.94449 21.1817 5.95195 21.2158 5.95568C21.2688 5.96314 21.2992 5.95568 21.2726 5.94076C21.2499 5.92957 21.2044 5.92211 21.1703 5.91465ZM21.2082 5.62749C21.1741 5.62749 21.14 5.63867 21.1172 5.64986C21.0869 5.66478 21.0983 5.67597 21.1475 5.68343C21.1779 5.67597 21.2158 5.67224 21.2385 5.66105C21.2726 5.64613 21.2537 5.63122 21.2082 5.62749ZM21.1627 4.70631C21.2196 4.7809 21.3333 4.84057 21.4736 4.90397C21.4104 4.81944 21.3068 4.75355 21.1627 4.70631ZM21.2802 3.91567C21.2802 3.91567 21.2688 3.92686 21.2613 3.93431C21.2764 3.94177 21.2916 3.94923 21.3068 3.95296C21.3636 3.95669 21.375 3.9455 21.3371 3.92686C21.3257 3.92313 21.2992 3.9194 21.2802 3.9194V3.91567ZM21.2537 3.69563C21.2537 3.69563 21.1968 3.72174 21.2044 3.7292C21.2234 3.75157 21.2537 3.78514 21.2992 3.78887C21.3902 3.80378 21.3826 3.77022 21.375 3.74784C21.3674 3.72174 21.3257 3.70309 21.2537 3.6919V3.69563ZM21.1324 2.8565L21.14 2.87142L21.1627 2.86023H21.1324V2.8565ZM21.1551 2.47237L21.1665 2.48729L21.1854 2.4761H21.1551V2.47237ZM21.1741 2.06213L21.2575 2.14791L21.2954 2.1591L21.2688 2.14418C21.212 2.11807 21.303 2.07705 21.1741 2.06213ZM21.7465 1.68546L21.7579 1.70037L21.7768 1.68918H21.7465V1.68546ZM21.1968 1.56238L21.1513 1.60341L21.121 1.6146L21.1627 1.60714C21.1627 1.60714 21.2764 1.58849 21.1968 1.55865V1.56238ZM21.0983 1.25657L21.1134 1.27149L21.1286 1.25657H21.0983Z" fill="#070707"/>
<path d="M21.2121 15.3875C21.5078 15.1301 21.3144 14.8542 21.2348 14.5819C20.8747 14.8392 21.1666 15.1152 21.2121 15.3875Z" fill="#070707"/>
<path d="M21.0908 13.3027C21.1818 13.4444 21.0226 13.5824 21.2804 13.7316C21.3258 13.657 21.3827 13.5861 21.4092 13.5115C21.4358 13.4407 21.4396 13.3698 21.4244 13.299C21.4168 13.2691 21.3296 13.243 21.2311 13.2393C21.1136 13.2356 21.0719 13.2691 21.0908 13.299V13.3027Z" fill="#070707"/>
<path d="M21.4962 21.9028C21.6403 21.7835 21.7237 21.6604 21.4204 21.5448C21.3294 21.6641 21.2612 21.7835 21.4962 21.9028Z" fill="#070707"/>
<path d="M21.0831 18.9267C21.0983 18.9752 20.9239 19.0461 21.1817 19.061C21.3674 19.0722 21.4432 19.0088 21.3826 18.9454C21.3333 18.8932 21.4736 18.7962 21.1855 18.7925C20.9353 18.7925 21.0755 18.8708 21.0831 18.923V18.9267Z" fill="#070707"/>
<path d="M21.265 7.18638C21.2764 7.23486 21.3598 7.2647 21.4773 7.27588C21.6403 7.28707 21.7237 7.25351 21.7199 7.19757C21.7161 7.15654 21.6479 7.11552 21.519 7.10806C21.3484 7.09687 21.2991 7.13789 21.2688 7.18638H21.265Z" fill="#070707"/>
<path d="M21.0529 14.3843C21.0454 14.429 21.1363 14.4551 21.2425 14.47C21.3107 14.4775 21.3714 14.47 21.3789 14.4402C21.3903 14.3917 21.3524 14.3507 21.2121 14.3283C21.106 14.3283 21.0605 14.3507 21.0529 14.3843Z" fill="#070707"/>
<path d="M21.2387 14.1269C21.3486 14.0672 21.3676 14.015 21.2121 13.9218C21.1818 14.0001 21.0226 14.0411 21.2387 14.1269Z" fill="#070707"/>
<path d="M21.0225 25.4234C20.9619 25.4234 20.8709 25.4234 20.8444 25.4197C20.6776 25.3712 20.5032 25.3265 20.3667 25.2743C20.2265 25.2183 20.2947 25.2034 20.7117 25.181L20.7458 25.1885L20.7231 25.181C20.6359 25.14 20.7799 25.0654 20.416 25.0579C20.2795 25.0579 20.2871 25.0244 20.2947 24.9983C20.3326 24.9013 20.1696 24.8118 20.3099 24.7111C20.3667 24.6738 20.3099 24.6253 20.2492 24.5843C20.1658 24.5284 20.1393 24.4687 20.2454 24.4165C20.5146 24.2785 20.2492 24.1442 20.2947 24.0062C20.3061 23.9727 20.234 23.9503 20.416 23.9279C20.4425 23.9279 20.5942 23.9167 20.4767 23.9093C20.0483 23.8869 20.2454 23.8235 20.2909 23.7713C20.3023 23.7564 20.2909 23.7414 20.2265 23.734C19.8398 23.6967 20.0483 23.6258 20.1772 23.5885C20.3023 23.5512 20.3516 23.5326 20.253 23.4916C19.9876 23.3797 19.9687 23.2678 20.1468 23.1336C20.2682 23.044 20.1582 22.9284 20.1772 22.824C20.2151 22.604 20.1165 22.3877 20.2947 22.1676C20.344 22.108 20.253 22.0446 20.2416 21.9811C20.2378 21.9476 20.2492 21.9028 20.4691 21.9066C20.67 21.9066 20.5676 21.9513 20.5752 21.9774C20.5752 21.9849 20.5942 21.9961 20.6169 22.0147C20.8482 21.9886 21.0529 21.9662 20.8254 21.9028C20.8102 21.9028 20.7989 21.8954 20.7913 21.8916C20.6851 21.832 20.4122 21.7984 20.3099 21.7425C20.2075 21.6903 20.3667 21.6194 20.2113 21.5672C20.2606 21.556 20.2833 21.5411 20.3136 21.5411C20.9278 21.5075 21.1135 21.4217 20.6435 21.3397C20.1317 21.2502 20.1355 21.1234 20.1961 21.0227C20.2568 20.9183 20.2378 20.825 20.162 20.7281C20.162 20.7243 20.1355 20.7169 20.1393 20.7131C20.1885 20.6609 20.1127 20.6087 20.1468 20.5565C20.1885 20.4968 20.5221 20.5192 20.7041 20.4894C20.8292 20.4707 20.8102 20.4521 20.7989 20.426L20.8254 20.4185H20.7875C20.2378 20.4745 20.2568 20.467 20.1734 20.3514C19.9952 20.1015 20.162 19.8516 20.1431 19.6055C20.1279 19.4004 20.1241 19.199 20.1658 18.9976C20.2075 18.7887 20.2909 18.5762 20.1848 18.371C20.1089 18.2256 20.2909 18.0876 20.1772 17.9459C20.1658 17.9347 20.2113 17.9198 20.234 17.9049C20.4842 17.9049 20.5714 17.9496 20.5184 17.9832C20.325 18.0988 20.5108 18.2107 20.5411 18.3263C20.5563 18.3934 20.5411 18.4605 20.5411 18.5239C21.0984 18.4195 20.6207 18.2965 20.6472 18.1808C20.7041 17.9272 20.6435 17.6736 20.6397 17.42C20.6397 17.3865 20.7041 17.3529 20.7344 17.3231C20.761 17.2932 20.833 17.2634 20.8065 17.2373C20.5714 17.0284 20.6207 16.8196 20.6738 16.6107C20.6851 16.5623 20.6131 16.5138 20.5184 16.469C20.1317 16.4541 20.1051 16.387 20.0976 16.3236C20.0824 16.2266 20.0597 16.1296 20.1051 16.0327C20.2454 15.7418 20.1241 15.4509 20.09 15.16C20.0672 14.9772 20.2265 14.7945 20.0672 14.6118C20.0331 14.5707 20.1051 14.5372 20.2871 14.5409C20.4729 14.5409 20.3933 14.5856 20.4312 14.6118C20.4425 14.6192 20.4653 14.6267 20.5259 14.6602C20.6207 14.485 20.5335 14.332 20.4842 14.1791C20.4312 14.0225 20.5032 13.8659 20.2985 13.713C20.2189 13.8771 20.4236 14.0523 20.2037 14.2239C19.9649 14.1493 19.9194 13.974 19.9497 13.7875C19.9725 13.6384 19.8474 13.4892 19.8587 13.34C19.8701 13.1983 19.6123 13.0491 19.9156 12.9149C20.0407 13.1498 20.0634 13.3848 20.2151 13.6272C20.4615 13.5973 20.2947 13.56 20.2909 13.5339C20.2189 12.9037 20.1241 12.2734 20.1165 11.6431C20.1165 11.2776 19.9876 10.9047 20.0293 10.5392C20.0521 10.349 20.1241 10.1588 20.1734 9.96859C20.181 9.93875 20.1999 9.90519 20.3743 9.90892C20.5259 9.90892 20.6131 9.94248 20.6055 9.97232C20.5676 10.114 20.761 10.252 20.7572 10.3937C20.7496 10.6958 20.6738 10.9942 20.7761 11.2963C20.8899 11.6319 20.7648 11.9638 20.8747 12.2995C21.0036 12.7023 20.9505 13.1051 21.1211 13.5041C21.3106 13.9554 21.322 14.4029 21.4016 14.8504C21.6101 15.9879 21.394 17.1254 21.5078 18.2629C21.5305 18.4978 21.6177 18.7365 21.6215 18.9715C21.6215 19.5234 21.5533 20.0717 21.6594 20.6236C21.7238 20.9556 21.8148 21.2875 21.7504 21.6231C21.6935 21.9327 21.6215 22.2422 21.6518 22.5518C21.6859 22.9471 21.6935 23.3387 21.8186 23.7303C21.8869 23.9466 21.8224 24.1666 21.9665 24.3792C22.1333 24.6253 21.9437 24.8827 22.1939 25.1251C22.2394 25.1698 22.2697 25.2258 22.1636 25.2668C21.8831 25.3861 21.7921 25.5092 21.7845 25.636C21.7845 25.6547 21.7239 25.6733 21.5798 25.6808C21.2197 25.5129 21.5267 25.3116 21.1818 25.14C21.2614 25.2332 20.9543 25.3227 21.0832 25.416C21.0908 25.4234 21.0491 25.4384 21.0225 25.4384V25.4234ZM20.4804 14.7274L20.4691 14.7199L20.4501 14.7274H20.4804ZM20.579 15.7865C20.6814 15.7119 20.6434 15.6411 20.5259 15.5702C20.7079 15.4285 20.6548 14.9325 20.4236 14.8094C20.4236 15.0295 20.4236 15.2346 20.4198 15.4434C20.4198 15.4882 20.4425 15.5292 20.5259 15.5702C20.4956 15.6448 20.4425 15.7157 20.5828 15.7903L20.579 15.7865ZM20.5449 16.2975C20.6624 16.1819 20.6472 16.0662 20.5146 15.9506C20.4084 16.0662 20.3857 16.1819 20.5449 16.2975ZM20.5221 16.4727C20.6548 16.4392 20.651 16.4093 20.5032 16.3758C20.4008 16.4131 20.5563 16.4429 20.5221 16.4727ZM20.5942 18.7925C20.5563 18.7365 20.7799 18.688 20.6586 18.6246C20.4956 18.6769 20.5373 18.7328 20.5942 18.7925ZM20.579 19.102H20.6245V18.9901H20.579V19.102ZM20.598 19.3892L20.5828 19.378L20.5638 19.3855H20.598V19.3892ZM20.5752 19.7621C20.6472 19.736 20.6397 19.7099 20.598 19.6801C20.4956 19.6987 20.397 19.7174 20.4691 19.7509C20.4842 19.7584 20.5714 19.7621 20.5714 19.7621H20.5752ZM20.7875 20.6497C20.8102 20.6423 20.8633 20.6311 20.8519 20.6311C20.8216 20.6199 20.7761 20.605 20.7306 20.605C20.6624 20.605 20.6131 20.6162 20.6321 20.6348C20.651 20.6497 20.7117 20.6572 20.7875 20.6535V20.6497ZM20.8557 20.8101C20.8557 20.8101 20.8861 20.8064 20.8899 20.8026C20.8936 20.7989 20.8974 20.7915 20.8899 20.7915C20.8595 20.784 20.8368 20.7877 20.8368 20.7989C20.8368 20.8026 20.8482 20.8064 20.8557 20.8101ZM20.977 21.1308C20.9391 21.0861 20.9278 21.0712 20.905 21.0525C20.8861 21.0376 20.9278 21.0115 20.7837 21.0152C20.742 21.0152 20.6965 21.0227 20.6662 21.0264C20.5714 21.0451 20.6283 21.06 20.6927 21.0712C20.7534 21.0861 20.8102 21.0973 20.9733 21.1308H20.977ZM20.9316 21.6492C20.9543 21.6492 20.9695 21.6306 20.9619 21.6231C20.9467 21.6119 20.9429 21.5933 20.8557 21.6007C20.8368 21.6007 20.8368 21.6194 20.8292 21.6306C20.8444 21.6418 20.8292 21.6604 20.9316 21.6492ZM20.7989 22.2086C20.8519 22.2086 20.8785 22.2049 20.8519 22.1975C20.833 22.19 20.7875 22.19 20.7496 22.1863C20.6965 22.1863 20.6662 22.1937 20.6927 22.1975C20.7193 22.2049 20.761 22.2049 20.7951 22.2086H20.7989ZM20.7799 22.3839C20.814 22.3839 20.8482 22.3727 20.8671 22.369C20.8974 22.3578 20.8823 22.3504 20.8368 22.3504C20.8065 22.3578 20.7723 22.3616 20.7496 22.369C20.7193 22.3802 20.7344 22.3877 20.7799 22.3877V22.3839ZM20.8823 22.9359C20.8178 22.8949 20.7041 22.865 20.5563 22.8315C20.6245 22.8812 20.7332 22.916 20.8823 22.9359ZM20.8216 23.417C20.8216 23.417 20.833 23.4095 20.8406 23.4058C20.8254 23.4058 20.8102 23.3983 20.7951 23.3983C20.7382 23.3983 20.7268 23.4058 20.7685 23.417C20.7799 23.417 20.8102 23.417 20.8254 23.417H20.8216ZM20.8633 23.5475C20.8633 23.5475 20.9202 23.5289 20.9126 23.5251C20.8936 23.514 20.8595 23.4953 20.814 23.4916C20.7193 23.4878 20.7306 23.5065 20.7382 23.5177C20.7496 23.5326 20.7913 23.5438 20.8633 23.5475ZM21.0453 24.0435L21.0377 24.0361L21.0187 24.0435H21.0491H21.0453ZM21.0491 24.2748L21.0377 24.2673L21.0187 24.2748H21.0491ZM21.0604 24.5209L20.9733 24.4724H20.9353H20.9619C21.0187 24.4836 20.9316 24.5134 21.0642 24.5172L21.0604 24.5209ZM20.5184 24.7782L20.507 24.7708L20.488 24.7782H20.5184ZM21.0718 24.823L21.1135 24.7932L21.1438 24.7857L21.1021 24.7932C21.1021 24.7932 20.9884 24.8118 21.0718 24.823ZM21.1931 24.9983L21.178 24.9908L21.1628 24.9983H21.1931Z" fill="#070707"/>
<path d="M20.3022 16.5101C20.0178 16.6704 20.2188 16.8345 20.3022 16.9949C20.6547 16.8345 20.3514 16.6704 20.3022 16.5101Z" fill="#070707"/>
<path d="M20.4954 17.7631C20.4006 17.6811 20.5561 17.5953 20.2907 17.5095C20.249 17.5543 20.1921 17.599 20.1694 17.6438C20.1466 17.6848 20.1466 17.7296 20.1618 17.7706C20.1694 17.7892 20.2604 17.8041 20.3551 17.8041C20.4727 17.8041 20.5144 17.7818 20.4954 17.7631Z" fill="#070707"/>
<path d="M19.8623 12.5792C19.7221 12.6538 19.6349 12.7247 19.9419 12.7955C20.0291 12.7247 20.0974 12.6501 19.8623 12.5792Z" fill="#070707"/>
<path d="M20.3287 14.3768C20.3097 14.347 20.4879 14.3022 20.2263 14.2948C20.0406 14.291 19.9686 14.3283 20.0292 14.3656C20.0823 14.3954 19.9382 14.4588 20.2263 14.4551C20.4765 14.4551 20.3363 14.4066 20.3249 14.3768H20.3287Z" fill="#070707"/>
<path d="M20.6282 21.4516C20.613 21.4217 20.5296 21.4068 20.4121 21.4068C20.2453 21.4068 20.1657 21.4292 20.1771 21.4627C20.1847 21.4888 20.2529 21.5075 20.3818 21.5075C20.5562 21.5075 20.6017 21.4814 20.6282 21.4516Z" fill="#070707"/>
<path d="M20.4955 17.1142C20.4993 17.0881 20.4083 17.0732 20.3022 17.0657C20.234 17.062 20.1733 17.0694 20.1657 17.0844C20.1543 17.1142 20.196 17.1366 20.3363 17.1478C20.4424 17.1478 20.4879 17.1328 20.4917 17.1105L20.4955 17.1142Z" fill="#070707"/>
<path d="M20.3174 17.2708C20.2075 17.3081 20.1923 17.3417 20.3515 17.3939C20.3781 17.3454 20.5335 17.3193 20.3174 17.2708Z" fill="#070707"/>
<path d="M7.10235 24.2971C7.0834 24.2412 7.05686 24.1554 7.05686 24.1256C7.06065 23.9503 7.06444 23.7713 7.0834 23.6296C7.10235 23.4804 7.14026 23.5401 7.28052 23.9279V23.9615L7.28432 23.9354C7.30706 23.8384 7.42458 23.954 7.3336 23.6072C7.29948 23.4767 7.3336 23.4729 7.36392 23.4767C7.47765 23.4841 7.53072 23.3014 7.67478 23.4021C7.73164 23.4431 7.76955 23.3722 7.79608 23.3088C7.83399 23.2156 7.89086 23.1708 7.97805 23.2529C8.20171 23.4655 8.27373 23.1746 8.43295 23.1746C8.47465 23.1746 8.47844 23.1 8.55047 23.2678C8.56184 23.2939 8.61112 23.4319 8.58838 23.32C8.4936 22.906 8.61491 23.0776 8.68694 23.1037C8.70589 23.1112 8.72106 23.0962 8.70968 23.0328C8.64524 22.6562 8.77792 22.8315 8.85374 22.9396C8.92956 23.044 8.95988 23.0851 8.97884 22.9844C9.02812 22.6972 9.14184 22.6487 9.33518 22.7755C9.46407 22.8613 9.55884 22.7233 9.67636 22.7084C9.92276 22.6785 10.1313 22.5182 10.4156 22.6189C10.4952 22.6487 10.5369 22.5406 10.6013 22.5145C10.6354 22.4995 10.6885 22.4995 10.7416 22.7084C10.7909 22.8986 10.7226 22.8128 10.6961 22.8277C10.6885 22.8315 10.6809 22.8501 10.6696 22.8762C10.7605 23.0888 10.8402 23.2753 10.8477 23.0403C10.8477 23.0254 10.8477 23.0142 10.8515 23.003C10.8856 22.8837 10.8515 22.6151 10.8819 22.4995C10.9122 22.3876 11.0297 22.5145 11.0449 22.3504C11.0714 22.3914 11.0904 22.41 11.1017 22.4399C11.3026 23.0142 11.4467 23.1596 11.4088 22.6897C11.3671 22.1751 11.5036 22.1452 11.6324 22.1713C11.7613 22.1974 11.8561 22.149 11.9395 22.052C11.9433 22.0483 11.9395 22.0259 11.9471 22.0296C12.0153 22.0595 12.0532 21.9737 12.1177 21.9886C12.1935 22.0072 12.2617 22.3354 12.3376 22.4958C12.3906 22.6077 12.4096 22.5853 12.4285 22.5667L12.4437 22.589L12.4285 22.5555C12.2238 22.052 12.239 22.0669 12.3413 21.955C12.5612 21.7089 12.8759 21.7947 13.1412 21.7052C13.3573 21.6306 13.5772 21.5672 13.8046 21.5448C14.0397 21.5187 14.2936 21.5448 14.487 21.3807C14.6234 21.2688 14.8244 21.3993 14.9457 21.2464C14.957 21.2352 14.9836 21.2725 15.0063 21.2875C15.067 21.5261 15.048 21.6231 14.995 21.5784C14.8168 21.4292 14.7448 21.638 14.631 21.6977C14.5628 21.735 14.487 21.7387 14.4187 21.7574C14.6803 22.2534 14.6841 21.7648 14.8168 21.7574C15.1049 21.7387 15.3627 21.6045 15.6356 21.5261C15.6697 21.515 15.7228 21.5672 15.7683 21.5895C15.8062 21.6082 15.8593 21.6679 15.8782 21.6306C16.0412 21.3471 16.2801 21.3322 16.5227 21.3248C16.5795 21.3248 16.6099 21.239 16.6326 21.1346C16.5492 20.7653 16.6137 20.7206 16.6781 20.6907C16.7805 20.646 16.879 20.5975 16.9965 20.6124C17.3491 20.6609 17.6334 20.4633 17.9367 20.3439C18.13 20.2693 18.3688 20.3663 18.528 20.1649C18.5622 20.1201 18.619 20.1835 18.6607 20.3551C18.7062 20.5341 18.638 20.4707 18.6228 20.5117C18.6152 20.5267 18.6114 20.549 18.5963 20.6162C18.8086 20.6572 18.9564 20.5304 19.1081 20.4371C19.2635 20.3439 19.4492 20.3663 19.5667 20.1276C19.3658 20.0978 19.2332 20.3439 18.9905 20.1835C19.0095 19.9337 19.1877 19.8404 19.4 19.8181C19.5668 19.7994 19.6956 19.6353 19.8624 19.6055C20.0179 19.5756 20.1126 19.2922 20.3401 19.5383C20.1164 19.7211 19.8662 19.8143 19.6464 20.0232C19.7411 20.2507 19.7373 20.0791 19.7677 20.0679C20.4311 19.8218 21.0945 19.5533 21.7768 19.3743C22.1749 19.2698 22.5426 19.0461 22.952 18.9864C23.1643 18.9566 23.3917 18.9715 23.6116 18.9677C23.6457 18.9677 23.6874 18.9752 23.7253 19.143C23.7595 19.2885 23.7481 19.378 23.714 19.378C23.551 19.3817 23.4486 19.6018 23.2932 19.639C22.9634 19.7136 22.6184 19.7248 22.3189 19.9076C21.9853 20.109 21.5911 20.0828 21.2575 20.2805C20.8556 20.5155 20.4045 20.5789 20.0141 20.8548C19.5743 21.1607 19.0929 21.2987 18.6304 21.5038C17.4552 22.0259 16.1701 22.149 14.9722 22.589C14.722 22.6823 14.4908 22.8315 14.2368 22.9023C13.6416 23.0627 13.0313 23.1634 12.4664 23.4244C12.1253 23.5848 11.7917 23.7713 11.4164 23.8123C11.0676 23.8496 10.7151 23.8794 10.389 23.9988C9.97584 24.1517 9.55126 24.2785 9.16459 24.5172C8.9523 24.6477 8.69452 24.6552 8.50877 24.8565C8.2889 25.0915 7.96288 24.9908 7.76955 25.3004C7.73164 25.36 7.68236 25.401 7.60654 25.3153C7.40183 25.0878 7.24262 25.0356 7.10614 25.0691C7.08719 25.0729 7.04928 25.0244 7 24.8901C7.07961 24.4985 7.38288 24.726 7.47007 24.3456C7.39425 24.45 7.2085 24.189 7.14405 24.3382C7.14026 24.3493 7.10994 24.312 7.10235 24.2897V24.2971ZM18.5053 20.6012L18.5129 20.5901L18.4977 20.5751L18.5053 20.6012ZM17.3832 21.0003C17.4893 21.0786 17.5576 21.0227 17.6069 20.8884C17.8078 21.0189 18.3309 20.8287 18.4067 20.5714C18.1679 20.6311 17.9443 20.6908 17.7206 20.7467C17.6713 20.7579 17.6334 20.7914 17.6107 20.8847C17.5235 20.8772 17.4287 20.8474 17.387 21.0003H17.3832ZM16.8222 21.1159C16.9776 21.1942 17.0989 21.1457 17.1861 20.9854C17.0344 20.9182 16.9018 20.9294 16.8222 21.1159ZM16.6288 21.142C16.6971 21.2614 16.7312 21.2464 16.7274 21.0935C16.6591 21.0078 16.6705 21.1644 16.6288 21.142ZM14.1382 21.8916C14.1913 21.8394 14.3012 22.0371 14.3353 21.9028C14.2368 21.7611 14.1837 21.8208 14.1382 21.8916ZM13.797 21.9662L13.8084 22.0072L13.9297 21.9737L13.9221 21.9327L13.797 21.9662ZM13.4976 22.0669L13.5051 22.052L13.49 22.0371L13.4976 22.0706V22.0669ZM13.0844 22.1602C13.1336 22.2198 13.1602 22.2049 13.1791 22.1602C13.1298 22.0669 13.0844 21.9811 13.0692 22.0595C13.0692 22.0744 13.0844 22.1602 13.0844 22.1602ZM12.6219 22.5145H12.6294L12.6143 22.4772L12.6219 22.5145ZM12.1821 22.6226C12.1973 22.6413 12.22 22.686 12.22 22.6785C12.22 22.645 12.2276 22.6002 12.22 22.5555C12.2049 22.4921 12.1745 22.4473 12.1632 22.4734C12.1518 22.4958 12.1632 22.5555 12.1821 22.6263V22.6226ZM12.0305 22.7345C12.0305 22.7345 12.0457 22.7606 12.0494 22.7643C12.057 22.7681 12.0646 22.7681 12.0646 22.7606C12.0646 22.7308 12.057 22.7121 12.0419 22.7158C12.0381 22.7158 12.0381 22.7308 12.0343 22.7382L12.0305 22.7345ZM11.7158 22.9471C11.7538 22.8986 11.7689 22.8837 11.7803 22.8576C11.7917 22.8352 11.8334 22.865 11.7879 22.7308C11.7765 22.6935 11.7575 22.6524 11.7424 22.6226C11.6969 22.5368 11.6969 22.5965 11.7007 22.6636C11.7007 22.727 11.7045 22.783 11.7121 22.9471H11.7158ZM11.1434 23.059C11.151 23.0813 11.1738 23.0925 11.1775 23.0776C11.1851 23.059 11.2041 23.0478 11.1775 22.9694C11.17 22.9545 11.1548 22.9583 11.1396 22.9545C11.1321 22.9732 11.1093 22.9657 11.1472 23.059H11.1434ZM10.5028 23.1C10.5141 23.1485 10.5293 23.1746 10.5293 23.1447C10.5293 23.1261 10.5217 23.0813 10.5141 23.0478C10.5028 22.9956 10.4838 22.9732 10.4876 22.9993C10.4876 23.0254 10.499 23.0664 10.5028 23.1ZM10.3094 23.1373C10.3208 23.1671 10.3398 23.1969 10.3511 23.2156C10.3701 23.2417 10.3739 23.2268 10.3625 23.1783C10.3473 23.1522 10.3322 23.1186 10.3208 23.1C10.3019 23.0739 10.2943 23.0925 10.3094 23.1335V23.1373ZM9.74459 23.4021C9.77113 23.3312 9.77492 23.2119 9.76734 23.0627C9.73448 23.1422 9.7269 23.2554 9.74459 23.4021ZM9.21008 23.4878C9.21008 23.4878 9.22145 23.4953 9.22524 23.499C9.22524 23.4841 9.22524 23.4692 9.22145 23.4543C9.20629 23.3983 9.19492 23.3909 9.19492 23.4319C9.19492 23.4431 9.2025 23.4692 9.21008 23.4841V23.4878ZM9.08119 23.5662C9.08119 23.5662 9.11531 23.6146 9.1191 23.6035C9.12668 23.5811 9.13805 23.5438 9.12668 23.5028C9.10394 23.4133 9.08877 23.4282 9.0774 23.4394C9.06603 23.4543 9.06603 23.4953 9.08119 23.5662ZM8.59596 23.8906L8.60354 23.8794L8.58838 23.8608L8.59596 23.8869V23.8906ZM8.34955 23.9652L8.35713 23.954L8.34197 23.9391L8.34955 23.9652ZM8.08798 24.051L8.11452 23.954V23.9167L8.10694 23.9428C8.10694 24.0025 8.05386 23.9279 8.08798 24.051ZM7.6634 23.6184L7.67098 23.6035L7.65582 23.5885L7.6634 23.6184ZM7.76576 24.1591L7.80746 24.189L7.82641 24.2151L7.80746 24.1778C7.80746 24.1778 7.75817 24.0771 7.76576 24.1591ZM7.61033 24.327V24.312L7.60275 24.3009L7.61033 24.327Z" fill="#070707"/>
<path d="M16.5266 20.9443C16.2764 20.7206 16.1551 20.9555 16.0034 21.0898C16.2688 21.3769 16.3673 21.0413 16.5266 20.9443Z" fill="#070707"/>
<path d="M15.2224 21.4963C15.2868 21.3807 15.4195 21.5038 15.4422 21.2278C15.3816 21.2017 15.3209 21.1607 15.2641 21.1532C15.211 21.1457 15.1655 21.1532 15.1238 21.183C15.1048 21.1942 15.1162 21.2837 15.1427 21.377C15.1731 21.4889 15.211 21.5224 15.2224 21.4963Z" fill="#070707"/>
<path d="M20.6737 19.4078C20.56 19.2959 20.4576 19.2363 20.4576 19.5458C20.56 19.6092 20.6548 19.654 20.6737 19.4078Z" fill="#070707"/>
<path d="M18.8465 20.3588C18.8731 20.3327 18.9678 20.4893 18.9072 20.2394C18.8655 20.0604 18.8048 20.0008 18.7783 20.0716C18.7593 20.1313 18.657 20.0119 18.7328 20.2842C18.801 20.5192 18.8162 20.3737 18.8427 20.3551L18.8465 20.3588Z" fill="#070707"/>
<path d="M11.2761 22.7121C11.3026 22.6897 11.2988 22.6039 11.2647 22.492C11.223 22.3354 11.1737 22.2645 11.1396 22.2832C11.1131 22.2981 11.1093 22.369 11.1434 22.492C11.1889 22.6561 11.2306 22.6897 11.2723 22.7083L11.2761 22.7121Z" fill="#070707"/>
<path d="M15.9273 21.3061C15.9576 21.3061 15.95 21.2128 15.9273 21.1084C15.9122 21.045 15.8895 20.9854 15.8706 20.9854C15.8366 20.9854 15.8215 21.0301 15.848 21.1681C15.8782 21.2688 15.9047 21.3061 15.9273 21.3061Z" fill="#070707"/>
<path d="M15.7111 21.1831C15.6392 21.0898 15.6014 21.0824 15.5863 21.2502C15.643 21.2614 15.7148 21.4031 15.7111 21.1831Z" fill="#070707"/>
</g>
<defs>
<clipPath id="clip0_432_63530">
<rect width="17" height="32" fill="white" transform="translate(7)"/>
</clipPath>
</defs>
</svg>
