<svg width="155" height="61" viewBox="0 0 155 61" fill="none" xmlns="http://www.w3.org/2000/svg">
<g clip-path="url(#clip0_5561_7694)">
<path d="M154.953 44.111L153.636 38.9145C153.589 38.4913 153.519 38.2326 153.377 38.1386C153.26 38.0445 152.954 38.021 152.507 38.1151C152.225 38.1621 152.296 38.1856 152.014 38.1856C150.932 38.1856 150.25 37.927 149.968 37.4332C149.686 36.9394 149.545 36.187 149.545 35.1994C149.545 35.1994 149.521 29.18 149.545 27.2284C149.592 24.8065 148.957 22.8079 148.016 20.8563C147.076 18.9047 145.947 17.7055 144.231 16.2947C142.514 14.8839 140.116 14.1079 138 13.6142C135.954 13.1204 131.463 13.4966 129.747 13.4731C126.149 13.4261 124.55 13.4496 122.058 13.0263C121.87 12.9793 121.681 12.9793 121.47 13.0028C121.258 13.0263 121.094 13.2379 120.976 13.6142L119.213 19.5865C119.095 20.0568 119.142 20.3625 119.283 20.4801C119.448 20.5976 119.589 20.7152 119.753 20.7857C120.365 20.9738 120.764 21.1384 121.188 21.2325C121.611 21.3265 122.034 21.3971 122.457 21.4676C122.881 21.5382 123.915 21.7028 124.362 21.7263C125.467 21.7968 131.416 22.079 133.485 22.2436C135.554 22.4081 136.824 22.7373 137.647 23.96C138.023 24.5479 138.141 24.9476 138.211 25.8881H131.392C127.56 25.8881 124.48 26.8287 122.175 28.7332C119.871 30.6378 118.719 33.4124 118.719 37.104C118.719 38.6088 118.977 40.0196 119.471 41.3129C119.965 42.6061 120.811 43.7348 122.011 44.6753C123.21 45.6158 124.785 46.3447 126.737 46.862C128.688 47.3793 131.134 47.638 134.002 47.638C136.801 47.638 139.34 46.9561 141.456 46.0626C142.138 46.5564 142.89 46.9091 143.76 47.0972C144.889 47.3558 146.135 47.4969 147.499 47.4969C150.956 47.4969 154.718 45.1926 154.835 45.0045C155.023 44.8634 155.023 44.5577 154.953 44.111ZM138.188 38.1151C137.694 38.3737 137.036 38.5383 136.236 38.6088C135.437 38.7029 134.872 38.7264 134.59 38.7264C133.391 38.7264 132.427 38.4913 131.698 38.0445C130.969 37.5743 130.617 36.8453 130.617 35.8578C130.617 35.1524 130.734 34.5646 130.993 34.1413C131.251 33.6946 131.557 33.3654 131.933 33.1302C132.309 32.8951 132.709 32.754 133.179 32.66C133.626 32.5659 134.096 32.5424 134.543 32.5424H138.211V38.1151H138.188Z" fill="#0097B9"/>
<path d="M120.743 0.141111C120.626 0.117597 119.262 3.05176e-05 118.721 3.05176e-05C115.335 3.05176e-05 112.678 0.634891 110.774 1.90461C108.846 3.17433 107.411 5.24351 106.447 8.06511L104.12 14.7664C104.096 14.8134 104.073 14.8605 104.073 14.9075L101.815 21.2326C101.274 22.902 100.498 24.0072 99.7225 24.548C98.9466 25.0888 98.0296 25.3709 96.995 25.3709H95.302V15.1661C95.302 14.6959 95.208 14.4137 95.0434 14.3197C94.8788 14.2256 94.5731 14.1551 94.1734 14.1551H85.1443C84.7681 14.1551 84.4859 14.2021 84.2978 14.3197C84.1097 14.4137 84.0156 14.6959 84.0156 15.1661V45.9921C84.0156 46.4624 84.1097 46.7446 84.2978 46.8386C84.4859 46.9327 84.7681 47.0032 85.1443 47.0032H94.1734C94.5966 47.0032 94.8788 46.9562 95.0434 46.8386C95.208 46.7446 95.302 46.4624 95.302 45.9921V33.9533H97.6299C98.9231 33.9533 99.9342 34.1649 100.663 34.6117C101.392 35.0584 101.909 35.8814 102.333 37.0806C103.108 39.2673 102.92 41.5716 103.461 43.2646C104.402 46.2508 105.389 46.7681 105.624 46.8386C105.86 46.9327 106.048 46.9562 106.212 46.9562H115.735C116.229 46.9562 116.511 46.8151 116.558 46.5565C116.605 46.2743 116.37 45.9216 116.135 45.5454C116.135 45.5454 115.077 44.2286 114.465 42.23C113.948 40.5606 113.666 36.8454 113.313 35.223C113.149 34.5411 112.937 33.6711 112.678 33.0598C112.42 32.4485 112.114 31.9076 111.714 31.3904C111.315 30.8966 110.797 30.4498 110.139 30.0736C109.481 29.6974 108.681 29.4152 107.717 29.2036V29.0155C109.104 28.5217 110.139 27.7693 110.891 26.7582C111.62 25.7471 112.161 24.6185 112.49 23.3018C112.49 23.3018 114.865 14.978 114.889 14.978L115.665 12.7208C116.135 11.3335 116.84 10.4635 117.616 10.0637C118.322 9.71104 117.969 9.87564 118.58 9.59348C118.698 9.54645 119.098 9.42888 119.309 8.69997C119.544 7.82998 120.838 2.86866 121.308 0.799484C121.331 0.517324 121.12 0.282191 120.743 0.141111Z" fill="#4F388C"/>
<path d="M37.5042 14.179H27.8638C27.0173 14.179 26.4765 14.2965 26.2413 14.5317C25.9827 14.7668 25.7711 15.2136 25.5594 15.8719L22.8554 25.8886L20.1279 36.4696L20.1044 36.5402H19.7517L17.7765 28.7337L15.0255 18.3879C14.8139 17.7765 14.5787 17.1887 14.3436 16.6244C14.1084 16.06 13.7793 15.5663 13.356 15.143C12.9328 14.7198 12.4155 14.3906 11.7806 14.1555C11.1458 13.9203 10.2993 13.8028 9.2647 13.8028C7.99498 13.8028 6.70174 13.9438 5.36148 14.226C4.02122 14.5082 2.61042 15.0255 1.08205 15.7544C0.729354 15.966 0.447194 16.2011 0.188547 16.4127C-0.0465866 16.6244 -0.0700999 17.1181 0.165034 17.8471L1.22313 22.103C1.38773 22.7614 1.57583 23.1376 1.74043 23.2551C1.90502 23.3727 2.25772 23.3727 2.79853 23.2786C3.57447 23.1846 4.06825 23.2081 4.27987 23.3022C4.46798 23.4197 4.72662 23.89 5.0323 24.713L9.14713 36.0699L11.4044 42.3245C11.7806 43.359 12.1568 44.1115 12.5331 44.5112C12.9093 44.9344 13.6617 45.1461 14.7903 45.1461H17.1182L16.1776 47.8971C15.7074 49.2844 15.096 50.1544 14.3201 50.5541C13.6147 50.9068 12.6271 51.1185 11.3574 51.142C11.2398 51.142 10.746 51.0949 10.5579 51.9884C10.3698 52.882 9.28821 57.6787 8.84146 59.7478C8.77092 60.077 9.00605 60.4062 9.33524 60.4533C9.45281 60.4768 9.59389 60.4768 9.71145 60.5003C10.9341 60.6178 12.0628 60.6884 13.1679 60.6884C16.5538 60.6884 19.2108 60.0535 21.1154 58.7838C23.0435 57.5141 24.4778 55.4449 25.4419 52.6233V52.6938L38.3507 15.3546C38.6564 14.5787 38.3742 14.179 37.5042 14.179Z" fill="#E99500"/>
<path d="M67.0848 31.0382L65.1567 36.0465L61.5827 44.6994C61.136 45.687 60.7362 46.3454 60.1249 46.651C59.49 46.9567 59.1844 46.9567 58.3614 46.9567H55.3517C54.3876 46.9567 53.7057 46.7921 53.2825 46.4629C52.8593 46.1337 52.5771 45.5459 52.436 44.7229L50.9547 35.6233L50.2493 31.1087H49.9906L45.8523 45.734C45.7347 46.3689 45.5466 46.7451 45.3115 46.8627C45.0763 46.9802 44.6531 47.0508 44.0182 47.0508H34.9421C34.4718 47.0508 34.1191 46.9802 33.8605 46.8627C33.6018 46.7451 33.5313 46.3689 33.6489 45.734L44.2534 14.6494C44.512 14.038 45.9463 14.1556 48.0861 14.1556L50.9782 14.2261C51.8952 14.2261 53.1179 14.3907 53.8468 14.6964C54.5757 15.0021 55.0695 15.8015 55.3047 17.0948L57.75 31.3438H58.2438L64.4278 17.6356C65.2273 16.3894 65.6505 15.4958 66.5205 14.9786C67.3905 14.4613 68.5192 14.2026 69.8829 14.2026H74.5621C76.0199 14.2026 77.0545 14.4848 77.6894 15.0726C78.3242 15.6604 78.865 16.7656 78.5594 18.388L78.5123 45.7105C78.3948 46.3454 78.2067 46.7216 77.9715 46.8391C77.7364 46.9567 77.3131 47.0272 76.7488 47.0272H69.06C68.5192 47.0272 68.1665 47.0743 67.9078 46.9567C67.6492 46.8391 67.2494 46.4394 67.2494 45.7105L67.2965 31.0147H67.0848V31.0382Z" fill="#DF3376"/>
</g>
<defs>
<clipPath id="clip0_5561_7694">
<rect width="155" height="60.735" fill="white"/>
</clipPath>
</defs>
</svg>
