<svg width="184" height="19" viewBox="0 0 184 19" fill="none" xmlns="http://www.w3.org/2000/svg">
<path d="M162 12.0545V10.3384C162 7.56929 159.63 5.29297 156.686 5.29297H155.533C152.591 5.29297 150.219 7.56929 150.219 10.3384V12.1207C150.219 12.3071 150.23 12.4934 150.252 12.6785C150.545 15.1889 152.789 17.1661 155.533 17.1661H156.686C159.183 17.1661 161.295 15.5039 161.872 13.2889H158.671C158.437 13.7673 158.074 14.1706 157.622 14.4527C157.17 14.7349 156.649 14.8846 156.116 14.8849C154.829 14.8849 153.722 14.0661 153.396 12.9322C153.331 12.7067 153.298 12.4731 153.298 12.2384V12.0545H162ZM153.297 10.2158C153.297 8.74484 154.578 7.56929 156.116 7.56929C157.654 7.56929 158.935 8.73871 158.935 10.2158V10.7061H153.297V10.2158Z" fill="white"/>
<path d="M91.3776 1.23047H95.1555L92.7235 8.05208L89.6075 16.7933L89.5855 16.8534H86L88.5546 9.43111L91.3776 1.23047Z" fill="white"/>
<path d="M104.311 16.8534H100.725L97.2551 7.11802L95.1553 1.23047H98.9332L100.845 6.78705L104.311 16.8534Z" fill="white"/>
<path d="M100.598 16.854H89.5215L89.6073 16.794L95.0916 12.918L100.598 16.854Z" fill="white"/>
<path d="M109.946 0V16.8536H106.744V2.2751L109.946 0Z" fill="white"/>
<path d="M144.905 12.9173C144.905 14.0843 145.545 14.756 146.505 14.756C147.12 14.7458 147.728 14.6211 148.298 14.3883V16.6033C147.442 16.9392 146.528 17.1057 145.609 17.0936C141.832 17.0936 141.639 14.202 141.639 13.1564V7.50294H139.59V5.41171H141.639V1.16797H144.839V3.1979L141.639 5.473H144.839L148.36 5.41171V7.50294H144.904L144.905 12.9173Z" fill="white"/>
<path d="M124.352 11.995V10.3352C124.352 7.50484 121.983 5.22852 119.038 5.22852H117.885C115.733 5.22852 113.889 6.44452 113.052 8.17781C112.734 8.83085 112.57 9.5477 112.57 10.2739V12.0563C112.57 14.8254 114.94 17.1017 117.885 17.1017H119.038C121.535 17.1017 123.648 15.4395 124.224 13.2245H121.022C120.789 13.7048 120.425 14.1098 119.972 14.3929C119.519 14.676 118.996 14.8259 118.462 14.8254C116.924 14.8254 115.642 13.6559 115.642 12.1788V11.995H124.352ZM118.462 7.56613C119.999 7.56613 121.281 8.73555 121.281 10.2126V10.703H115.642V10.2126C115.642 9.79298 115.747 9.37994 115.947 9.01136C116.198 8.56726 116.564 8.1988 117.007 7.94456C117.449 7.69031 117.951 7.5596 118.462 7.56613Z" fill="white"/>
<path d="M138.181 9.59409V16.8521H134.98V9.90177C134.98 9.75184 134.967 9.60218 134.942 9.45435C134.82 8.7299 134.354 7.62668 132.613 7.62668C132.143 7.61791 131.679 7.74564 131.28 7.99442C130.618 8.40874 130.284 9.09152 130.116 9.53526V16.8545H126.912V5.47293H130.114V8.17952C130.172 7.96521 130.245 7.75512 130.332 7.55068C131.022 5.92648 132.416 5.28906 134.019 5.28906C137.606 5.28906 138.117 8.36584 138.181 9.59409Z" fill="white"/>
<path d="M95.0918 12.9177L100.598 16.8525H86L88.5546 9.43885C89.9169 8.90105 91.3083 8.44024 92.7223 8.05859L89.6075 16.7937L95.0918 12.9177Z" fill="white"/>
<path d="M100.846 6.78516L104.312 16.8515H100.726L97.2559 7.11735C98.4147 6.95309 99.6114 6.84236 100.846 6.78516Z" fill="white"/>
<path d="M106.744 6.98828C107.831 7.11086 108.897 7.27512 109.946 7.4786V16.8523H106.744V6.98828Z" fill="white"/>
<path d="M124.224 13.2244C123.648 15.4394 121.535 17.1016 119.038 17.1016H117.885C114.943 17.1016 112.57 14.8253 112.57 12.0562V10.2739C112.57 9.54763 112.734 8.83078 113.052 8.17773C114.033 8.43025 114.994 8.71096 115.95 9.01128C115.749 9.37987 115.644 9.79291 115.645 10.2126V10.7029H120.8C121.911 11.1209 123.019 11.5548 124.128 11.9937H115.645V12.1775C115.645 13.6485 116.924 14.8241 118.464 14.8241C118.998 14.8246 119.522 14.6747 119.974 14.3916C120.427 14.1085 120.791 13.7035 121.025 13.2232L124.224 13.2244Z" fill="white"/>
<path d="M126.912 13.0938C127.971 13.5105 129.036 13.9248 130.114 14.3196V16.8447H126.912V13.0938Z" fill="white"/>
<path d="M134.98 16.0059C135.955 16.3082 136.944 16.5906 137.949 16.8529H134.98V16.0059Z" fill="white"/>
<path d="M126.912 5.47266H130.114V7.44376C128.958 6.87988 127.893 6.29272 126.912 5.6933V5.47266Z" fill="white"/>
<path d="M138.181 9.59359V10.4737C137.045 10.155 135.965 9.81506 134.943 9.45385C134.82 8.7294 134.354 7.62618 132.614 7.62618C132.143 7.61741 131.68 7.74514 131.28 7.99392C130.959 7.84805 130.644 7.70218 130.335 7.55263C131.025 5.92843 132.419 5.29102 134.022 5.29102C137.606 5.28857 138.118 8.36534 138.181 9.59359Z" fill="white"/>
<path d="M144.839 5.473L148.36 5.41171V7.50294H144.904V11.9649C143.771 11.7745 142.683 11.5644 141.638 11.3348V7.50294H139.59V5.41171H141.639V1.16797H144.839V3.1979L141.639 5.473H144.839Z" fill="white"/>
<path d="M162 12.0545V10.3384C162 7.56929 159.63 5.29297 156.686 5.29297H155.533C152.591 5.29297 150.219 7.56929 150.219 10.3384V12.1207C150.219 12.3071 150.23 12.4934 150.252 12.6785C151.267 12.779 152.312 12.8672 153.39 12.9371C153.325 12.7116 153.292 12.478 153.292 12.2433V12.0594L162 12.0545ZM153.297 10.2158C153.297 8.74484 154.578 7.56929 156.116 7.56929C157.654 7.56929 158.935 8.73871 158.935 10.2158V10.7061H153.297V10.2158Z" fill="white"/>
<path d="M7.644 14.6327C7.26133 14.922 6.81333 15.1414 6.3 15.2907C5.78667 15.4307 5.25 15.5007 4.69 15.5007C4.08333 15.5007 3.542 15.412 3.066 15.2347C2.59933 15.0574 2.20267 14.81 1.876 14.4927C1.55867 14.166 1.316 13.774 1.148 13.3167C0.98 12.8594 0.896 12.3554 0.896 11.8047C0.896 11.2167 0.994 10.694 1.19 10.2367C1.386 9.77935 1.65667 9.39202 2.002 9.07469C2.35667 8.75735 2.772 8.51935 3.248 8.36069C3.724 8.19269 4.242 8.10869 4.802 8.10869C5.32467 8.10869 5.81467 8.16935 6.272 8.29069C6.72933 8.41202 7.07933 8.52869 7.322 8.64069V11.1047H5.782V9.81669C5.49267 9.75135 5.20333 9.71869 4.914 9.71869C4.65267 9.71869 4.39133 9.76069 4.13 9.84469C3.878 9.91935 3.64933 10.0454 3.444 10.2227C3.248 10.3907 3.08467 10.6054 2.954 10.8667C2.83267 11.128 2.772 11.4407 2.772 11.8047C2.772 12.1034 2.82333 12.3787 2.926 12.6307C3.02867 12.8827 3.17333 13.102 3.36 13.2887C3.54667 13.4754 3.77533 13.6247 4.046 13.7367C4.326 13.8394 4.634 13.8907 4.97 13.8907C5.502 13.8907 5.936 13.816 6.272 13.6667C6.61733 13.5174 6.874 13.3867 7.042 13.2747L7.644 14.6327ZM16.3745 16.9847H14.8345V15.3047H10.0465V16.9847H8.50653V13.6947H9.33253C9.4072 13.592 9.50053 13.4194 9.61253 13.1767C9.73386 12.9247 9.85053 12.584 9.96253 12.1547C10.0839 11.7254 10.1865 11.1934 10.2705 10.5587C10.3545 9.92402 10.3965 9.17269 10.3965 8.30469H15.2685V13.6947H16.3745V16.9847ZM13.4485 13.7787V9.84469H11.9785C11.9599 10.1807 11.9272 10.54 11.8805 10.9227C11.8339 11.296 11.7732 11.66 11.6985 12.0147C11.6332 12.3694 11.5539 12.7007 11.4605 13.0087C11.3672 13.3167 11.2645 13.5734 11.1525 13.7787H13.4485ZM24.2651 14.5627C24.1437 14.6747 23.9851 14.7867 23.7891 14.8987C23.6024 15.0014 23.3784 15.0994 23.1171 15.1927C22.8651 15.286 22.5851 15.3607 22.2771 15.4167C21.9691 15.4727 21.6424 15.5007 21.2971 15.5007C20.6997 15.5007 20.1631 15.4167 19.6871 15.2487C19.2204 15.0807 18.8237 14.838 18.4971 14.5207C18.1704 14.194 17.9184 13.8067 17.7411 13.3587C17.5731 12.9014 17.4891 12.3834 17.4891 11.8047C17.4891 11.1887 17.5871 10.652 17.7831 10.1947C17.9791 9.72802 18.2451 9.34069 18.5811 9.03269C18.9264 8.72469 19.3277 8.49602 19.7851 8.34669C20.2424 8.18802 20.7371 8.10869 21.2691 8.10869C21.6237 8.10869 21.9877 8.15535 22.3611 8.24869C22.7437 8.34202 23.0937 8.50535 23.4111 8.73869C23.7284 8.96269 23.9851 9.26602 24.1811 9.64869C24.3864 10.0314 24.4891 10.5167 24.4891 11.1047C24.4891 11.506 24.4424 11.94 24.3491 12.4067H19.3091C19.3184 12.7054 19.3791 12.9574 19.4911 13.1627C19.6124 13.368 19.7664 13.536 19.9531 13.6667C20.1491 13.7974 20.3684 13.8954 20.6111 13.9607C20.8631 14.0167 21.1291 14.0447 21.4091 14.0447C21.9691 14.0447 22.4264 13.9794 22.7811 13.8487C23.1451 13.718 23.4391 13.5594 23.6631 13.3727L24.2651 14.5627ZM21.2411 9.56469C20.9984 9.56469 20.7697 9.59735 20.5551 9.66269C20.3404 9.72802 20.1444 9.82602 19.9671 9.95669C19.7991 10.078 19.6591 10.232 19.5471 10.4187C19.4351 10.6054 19.3697 10.8154 19.3511 11.0487H22.7951C22.7951 10.5914 22.6644 10.232 22.4031 9.97069C22.1511 9.70002 21.7637 9.56469 21.2411 9.56469ZM30.6296 9.91469H28.8236C28.7676 10.5774 28.6929 11.2354 28.5996 11.8887C28.5156 12.542 28.3803 13.13 28.1936 13.6527C28.0163 14.166 27.7783 14.586 27.4796 14.9127C27.1903 15.23 26.8216 15.3887 26.3736 15.3887C25.8323 15.3887 25.4496 15.3187 25.2256 15.1787L25.4496 13.6667C25.5989 13.7227 25.7389 13.7507 25.8696 13.7507C26.0563 13.7507 26.2243 13.6714 26.3736 13.5127C26.5323 13.354 26.6676 13.0694 26.7796 12.6587C26.9009 12.248 26.9989 11.6927 27.0736 10.9927C27.1483 10.2834 27.1996 9.38735 27.2276 8.30469H32.4496V15.3047H30.6296V9.91469ZM34.8381 8.78069C35.2115 8.61269 35.6408 8.46802 36.1261 8.34669C36.6208 8.22535 37.2041 8.16469 37.8761 8.16469C38.3615 8.16469 38.7721 8.22535 39.1081 8.34669C39.4535 8.45869 39.7288 8.62202 39.9341 8.83669C40.1488 9.05135 40.3028 9.30802 40.3961 9.60669C40.4895 9.90535 40.5361 10.2414 40.5361 10.6147C40.5361 11.0907 40.5175 11.4967 40.4801 11.8327C40.4521 12.1687 40.4381 12.4674 40.4381 12.7287C40.4381 12.9247 40.4475 13.144 40.4661 13.3867C40.4848 13.5174 40.4988 13.6434 40.5081 13.7647H41.4181V15.3047H39.0941L38.9121 14.3527H38.8421C38.6555 14.642 38.3895 14.894 38.0441 15.1087C37.6988 15.314 37.2321 15.4167 36.6441 15.4167C35.9441 15.4167 35.3888 15.23 34.9781 14.8567C34.5675 14.4834 34.3621 13.9887 34.3621 13.3727C34.3621 12.9807 34.4321 12.6447 34.5721 12.3647C34.7215 12.0754 34.9315 11.842 35.2021 11.6647C35.4821 11.478 35.8135 11.3427 36.1961 11.2587C36.5881 11.1654 37.0221 11.1187 37.4981 11.1187C37.6661 11.1187 37.8435 11.128 38.0301 11.1467C38.2168 11.1654 38.4455 11.184 38.7161 11.2027C38.7348 11.1094 38.7441 11.016 38.7441 10.9227V10.6567C38.7441 10.302 38.6415 10.05 38.4361 9.90069C38.2308 9.74202 37.9275 9.66269 37.5261 9.66269C37.0501 9.66269 36.6208 9.72335 36.2381 9.84469C35.8555 9.96602 35.5335 10.0874 35.2721 10.2087L34.8381 8.78069ZM37.2321 13.9187C37.6801 13.9187 38.0161 13.8394 38.2401 13.6807C38.4641 13.5127 38.6275 13.3354 38.7301 13.1487V12.3087C38.6368 12.29 38.4968 12.2714 38.3101 12.2527C38.1235 12.2247 37.9228 12.2107 37.7081 12.2107C37.5308 12.2107 37.3535 12.2294 37.1761 12.2667C36.9988 12.2947 36.8401 12.346 36.7001 12.4207C36.5601 12.486 36.4481 12.5747 36.3641 12.6867C36.2801 12.7987 36.2381 12.934 36.2381 13.0927C36.2381 13.354 36.3128 13.5594 36.4621 13.7087C36.6208 13.8487 36.8775 13.9187 37.2321 13.9187ZM47.6707 12.5467H44.6887V15.3047H42.8687V8.30469H44.6887V10.9367H47.6707V8.30469H49.4907V15.3047H47.6707V12.5467ZM50.8572 11.8047C50.8572 11.2167 50.9459 10.694 51.1232 10.2367C51.3005 9.77935 51.5525 9.39202 51.8792 9.07469C52.2059 8.75735 52.5932 8.51935 53.0412 8.36069C53.4985 8.19269 54.0072 8.10869 54.5672 8.10869C55.1552 8.10869 55.6779 8.19735 56.1352 8.37469C56.6019 8.55202 56.9939 8.80402 57.3112 9.13069C57.6285 9.44802 57.8665 9.83535 58.0252 10.2927C58.1932 10.75 58.2772 11.254 58.2772 11.8047C58.2772 12.3927 58.1885 12.9154 58.0112 13.3727C57.8339 13.83 57.5819 14.2174 57.2552 14.5347C56.9285 14.852 56.5365 15.0947 56.0792 15.2627C55.6312 15.4214 55.1272 15.5007 54.5672 15.5007C53.9792 15.5007 53.4519 15.412 52.9852 15.2347C52.5279 15.0574 52.1405 14.81 51.8232 14.4927C51.5059 14.166 51.2632 13.774 51.0952 13.3167C50.9365 12.8594 50.8572 12.3554 50.8572 11.8047ZM52.7332 11.8047C52.7332 12.1127 52.7752 12.3974 52.8592 12.6587C52.9432 12.92 53.0645 13.1487 53.2232 13.3447C53.3819 13.5407 53.5732 13.6947 53.7972 13.8067C54.0212 13.9094 54.2779 13.9607 54.5672 13.9607C55.1085 13.9607 55.5472 13.788 55.8832 13.4427C56.2285 13.0974 56.4012 12.5514 56.4012 11.8047C56.4012 11.1607 56.2425 10.6427 55.9252 10.2507C55.6079 9.84935 55.1552 9.64869 54.5672 9.64869C54.3059 9.64869 54.0632 9.69069 53.8392 9.77469C53.6152 9.84935 53.4192 9.97535 53.2512 10.1527C53.0925 10.33 52.9665 10.554 52.8732 10.8247C52.7799 11.0954 52.7332 11.422 52.7332 11.8047ZM68.2203 8.31869C68.3789 8.30935 68.5796 8.29535 68.8223 8.27669C69.0743 8.25802 69.3449 8.24402 69.6343 8.23469C69.9329 8.22535 70.2456 8.21602 70.5723 8.20669C70.9083 8.19735 71.2396 8.19269 71.5663 8.19269C72.6209 8.19269 73.3863 8.34202 73.8623 8.64069C74.3383 8.93002 74.5763 9.36869 74.5763 9.95669C74.5763 10.2834 74.4783 10.6007 74.2823 10.9087C74.0863 11.2074 73.7503 11.4314 73.2743 11.5807V11.6367C73.8529 11.702 74.2589 11.8887 74.4923 12.1967C74.7256 12.5047 74.8423 12.8827 74.8423 13.3307C74.8423 14.0214 74.5436 14.544 73.9463 14.8987C73.3583 15.244 72.3876 15.4167 71.0343 15.4167C70.8383 15.4167 70.6096 15.412 70.3483 15.4027C70.0963 15.4027 69.8396 15.3934 69.5783 15.3747C69.3169 15.3654 69.0649 15.3514 68.8223 15.3327C68.5796 15.3234 68.3789 15.3094 68.2203 15.2907V8.31869ZM69.9983 13.9047C70.0636 13.914 70.1476 13.9234 70.2503 13.9327C70.3529 13.942 70.4603 13.9514 70.5723 13.9607C70.6843 13.9607 70.7963 13.9607 70.9083 13.9607C71.0203 13.9607 71.1183 13.9607 71.2023 13.9607C71.8369 13.9607 72.2989 13.8907 72.5883 13.7507C72.8776 13.6107 73.0223 13.396 73.0223 13.1067C73.0223 12.864 72.8963 12.668 72.6443 12.5187C72.4016 12.36 71.9723 12.2807 71.3563 12.2807H69.9983V13.9047ZM71.3843 11.1607C71.8509 11.1607 72.2056 11.0907 72.4483 10.9507C72.7003 10.8014 72.8263 10.6147 72.8263 10.3907C72.8263 10.148 72.7096 9.96602 72.4763 9.84469C72.2429 9.71402 71.8416 9.64869 71.2722 9.64869C71.0576 9.64869 70.8149 9.65335 70.5443 9.66269C70.2829 9.67202 70.1009 9.68135 69.9983 9.69069V11.1607H71.3843Z" fill="white"/>
<path d="M171.167 8.90005C171.167 8.05441 171.507 7.24423 172.11 6.65179C172.714 6.05934 173.53 5.73439 174.375 5.75005C175.377 5.74473 176.333 6.16957 177 6.91672C177.668 6.16957 178.624 5.74473 179.625 5.75005C180.471 5.73439 181.287 6.05934 181.891 6.65179C182.494 7.24423 182.834 8.05441 182.834 8.90005C182.834 12.0244 179.113 14.3834 177 16.2501C174.893 14.3676 171.167 12.0267 171.167 8.90005Z" fill="#FF0D55"/>
</svg>
