<svg width="32" height="32" viewBox="0 0 32 32" fill="none" xmlns="http://www.w3.org/2000/svg">
<path id="Vector" d="M15.9845 32.0003C15.5627 32.0003 15.2781 31.7362 15.1305 31.208C14.6876 29.655 14.287 28.0809 13.7914 26.549C12.4102 22.2492 9.53177 19.4391 5.22996 18.1079C3.75385 17.6536 2.25665 17.2522 0.759448 16.8296C0.253352 16.6817 -0.0102393 16.3753 0.000304369 15.9528C0.010848 15.5513 0.27444 15.2555 0.759448 15.1182C2.52024 14.6005 4.3232 14.199 6.04182 13.5546C10.1117 12.0439 12.716 9.11749 13.9285 4.93394C14.3291 3.53942 14.7193 2.15546 15.1199 0.760941C15.2675 0.264407 15.5733 -0.0102707 15.995 0.000293863C16.4168 0.000293863 16.712 0.264407 16.8596 0.771506C17.2814 2.22941 17.6715 3.68732 18.1143 5.13466C19.4955 9.65629 22.4794 12.5615 27.0026 13.9032C28.4049 14.3153 29.8072 14.7061 31.199 15.1076C31.7262 15.2555 31.9792 15.5407 31.9898 15.9633C31.9898 16.3859 31.7367 16.6817 31.2095 16.8296C29.5858 17.305 27.9305 17.7065 26.3384 18.2453C22.0682 19.6926 19.3268 22.6401 18.0616 26.9716C17.6504 28.3872 17.2603 29.8029 16.8491 31.2185C16.7015 31.7362 16.3957 32.0003 15.9845 32.0003Z" fill="white"/>
</svg>
