<svg width="24" height="25" viewBox="0 0 24 25" fill="none" xmlns="http://www.w3.org/2000/svg">
<g id="icons">
<path id="coolicon" d="M18.9975 20.7373C10.4659 20.7494 3.99088 14.1968 4.00001 5.73981C4.00001 5.18753 4.44773 4.7373 5.00001 4.7373H7.63937C8.13494 4.7373 8.55593 5.10143 8.6287 5.59163C8.80311 6.7665 9.14517 7.91027 9.64448 8.98801L9.74725 9.20981C9.89013 9.51821 9.79328 9.88465 9.51668 10.0822C8.6993 10.6659 8.38692 11.8409 9.0237 12.7577C9.82278 13.9081 10.8301 14.9152 11.9803 15.7139C12.897 16.3505 14.0718 16.0382 14.6555 15.221C14.8532 14.9442 15.2198 14.8473 15.5284 14.9903L15.7492 15.0925C16.827 15.5918 17.9708 15.9339 19.1458 16.1083C19.636 16.181 20 16.602 20 17.0976V19.7373C20 20.2896 19.5512 20.7373 18.9989 20.7373L18.9975 20.7373Z" fill="white"/>
</g>
</svg>
