<svg width="66" height="72" viewBox="0 0 66 72" fill="none" xmlns="http://www.w3.org/2000/svg">
<circle opacity="0.5" cx="40.5" cy="40" r="18" fill="#DF3577"/>
<g clip-path="url(#clip0_6328_24397)">
<path d="M28.7018 35.6649C25.6065 35.321 24.3871 32.5383 22.1672 30.9437C19.916 32.9135 17.3835 34.5081 14.4444 35.0396C11.5992 35.5399 8.66016 35.6024 5.59606 35.8838C5.1896 37.3846 5.31467 39.073 5.75239 40.7301C7.6909 48.3278 16.2579 51.8921 23.0427 48.0151C23.324 47.8588 24.6685 47.2022 25.075 48.1714C25.3876 48.7968 23.8868 49.5784 23.4178 49.8911C23.8868 51.2668 24.3558 52.5175 24.6998 53.7994C24.9499 54.7374 24.7623 55.6128 23.9494 56.3632C23.6054 56.6759 23.668 57.395 23.324 57.6764C22.261 58.4893 21.8545 59.6462 21.2917 60.803C20.6977 62.0537 19.1656 62.3038 17.8212 61.7723C17.446 61.6159 16.9457 61.5847 16.6018 61.7097C14.6633 62.5539 12.8811 61.6159 12.4434 59.5211C12.3496 59.1146 11.9744 58.7707 11.693 58.4268C11.5679 58.2705 11.3491 58.2079 11.2553 58.0516C10.6925 57.0198 9.81701 56.0505 9.66068 54.9562C9.50435 53.7994 10.0359 52.5487 10.3485 51.3606C10.4736 50.9229 10.7863 50.5477 11.0989 50.0161C7.47204 47.9526 4.75187 45.0135 4.03275 40.8239C3.37616 36.8843 2.9697 32.851 5.97126 29.1615C4.75187 28.6925 3.75135 28.2236 2.6883 27.9109C0.65599 27.2856 -0.0631344 25.6597 0.937387 23.815C1.56271 22.6894 2.18804 21.5638 2.8759 20.4695C3.78262 19 5.25213 18.6873 6.69038 19.5941C8.72269 20.876 10.1922 22.6582 11.2865 24.9093C15.1948 23.2835 19.1031 23.2209 22.6362 24.753C24.1995 23.0021 25.5127 21.3137 27.1073 19.938C28.9207 18.3747 30.5153 18.8124 31.7034 20.876C32.2662 21.8452 32.8603 22.8145 33.3918 23.815C34.3298 25.5972 33.6107 27.2856 31.6721 27.8484C30.953 28.0672 30.2652 28.3174 29.5773 28.5987C29.2334 28.7551 28.8894 28.9739 28.5455 29.1615C29.1083 30.2246 29.7024 31.2251 30.1714 32.2882C30.4528 32.9135 30.5778 33.6326 30.6091 34.3205C30.828 38.6665 30.7029 42.9187 27.545 46.3893C27.4825 46.4518 27.3887 46.4831 27.2949 46.5143C26.7321 46.6707 26.1693 46.2017 26.2005 45.6389C26.2005 45.4825 26.2318 45.3262 26.3256 45.2011C28.483 42.3872 29.2959 39.2605 28.7018 35.6649ZM5.471 33.8827C6.72165 33.8827 7.81597 33.8515 8.94156 33.8827C13.694 33.9765 17.915 32.5696 21.3855 29.2241C22.3548 28.3174 23.0114 28.8801 24.0432 30.4122C24.6372 31.2876 27.6701 33.9765 28.5768 33.9453C28.7331 33.9453 28.8582 33.789 28.8894 33.6639C29.0145 32.8822 25.1062 27.9109 22.261 26.5039C20.9165 25.8473 19.3532 25.5659 17.8837 25.4096C12.5372 24.9093 6.94051 28.7238 5.471 33.8827ZM12.3496 56.8009H21.9796C21.4168 55.9567 20.9165 55.3002 20.6039 54.581C20.5726 54.5185 20.5726 54.456 20.5726 54.3934C20.5101 53.7368 21.2292 53.2991 21.8233 53.5492C21.8858 53.5805 21.9796 53.6118 22.0421 53.6743C22.3861 53.9244 22.5737 54.3622 22.9489 54.925C23.1052 53.3304 22.6362 52.1735 21.8545 51.2043C21.6669 50.9541 21.1041 50.7978 20.7915 50.8916C18.3527 51.5169 15.9452 51.5169 13.5377 50.8916C13.225 50.8291 12.7248 50.9229 12.5372 51.1417C11.7243 52.1423 11.2865 53.3304 11.3178 54.925C11.7555 54.3309 12.0057 53.8619 12.3808 53.5805C12.3808 53.5805 12.3808 53.5805 12.4121 53.5805C13.0062 53.174 13.8816 53.6743 13.8191 54.3934C13.8191 54.456 13.7878 54.5185 13.7878 54.581C13.4126 55.3002 12.9124 55.9567 12.3496 56.8009ZM27.2949 27.6608C28.5768 27.1605 29.8587 26.629 31.1719 26.16C32.1099 25.816 32.3287 25.2845 31.6409 24.3153C31.0781 23.5336 30.5778 22.7207 30.2026 21.8452C29.7962 20.876 29.2646 20.5633 28.4517 21.1261C26.8884 22.1579 25.7316 23.5336 24.8561 25.1907C24.4809 25.8786 24.8248 26.285 25.3876 26.5977C26.0129 27.0042 26.7008 27.3481 27.2949 27.6608ZM9.66068 25.6597C8.81649 23.7212 7.53457 22.2204 5.84619 21.0948C5.25213 20.6884 4.75187 20.7196 4.37668 21.345C3.72009 22.4393 3.06349 23.5649 2.46943 24.6905C2.09424 25.3783 2.37564 25.8473 3.09476 26.1287C4.43921 26.629 5.7524 27.1605 7.12811 27.692L9.66068 25.6597ZM18.0713 58.7394C17.9775 59.6149 18.2589 60.209 19.0718 60.1777C19.8848 60.1464 20.1349 59.5836 20.0098 58.7394H18.0713ZM14.3194 58.7394C14.1943 59.6774 14.4757 60.2715 15.3199 60.209C16.1328 60.1464 16.3829 59.5836 16.1328 58.7394H14.3194Z" fill="#50398C"/>
<path d="M35.0809 38.3227C34.9246 38.3227 34.8308 38.4477 34.8308 38.6041C35.8001 47.2336 44.9298 52.0798 52.465 47.984C52.465 47.984 52.465 47.984 52.4963 47.984C53.403 47.515 54.2159 48.7656 53.4655 49.4222C53.4343 49.4535 53.3717 49.4847 53.3405 49.516C53.2154 49.6098 53.0903 49.6723 52.9653 49.7349C52.8402 49.7974 52.8089 49.9225 52.8402 50.0475C53.3717 51.4233 54.0909 52.7052 54.341 54.0809C54.8412 56.7385 54.2159 57.614 51.8084 58.5207C51.7146 58.552 51.6521 58.6145 51.6521 58.7083C51.2144 61.7099 49.3696 62.7104 46.8683 61.3034C46.8058 61.2721 46.712 61.2721 46.6495 61.3034C43.8668 62.6166 42.3035 61.7724 41.7094 58.7083C41.7094 58.6145 41.6469 58.552 41.5531 58.5207C39.0205 57.5202 38.3326 56.0507 39.2394 53.1116C39.552 52.0798 40.1461 51.1419 40.6463 50.1101C40.7089 49.985 40.6776 49.8599 40.5526 49.7974C39.9898 49.4535 39.3644 49.0783 38.7704 48.6718C32.7672 44.3883 31.2039 36.134 35.206 29.9433C39.2081 23.7526 47.3999 21.7828 53.7157 25.5973C54.5286 26.0976 55.0914 26.035 55.8105 25.566C56.8423 24.8782 57.9053 24.1903 59.0935 25.1908C60.3128 26.2226 59.8126 27.5045 59.2498 28.6301C58.6557 29.8182 58.7808 30.7562 59.2811 31.9756C61.4072 37.0095 60.7193 41.7307 57.4051 46.0767C57.3425 46.1705 57.155 46.2643 56.9674 46.3581C56.3108 46.6395 55.6229 46.0455 55.8105 45.3576C55.8418 45.2951 55.8418 45.2325 55.873 45.2013C57.155 43.5754 58.0617 41.7932 58.4681 39.7609C58.5307 39.417 58.5619 39.0731 58.5932 38.8229C58.5932 38.7291 58.5307 38.6353 58.4369 38.5728C56.6547 37.7599 55.0288 36.9782 53.403 36.2904C53.1529 36.1966 52.7464 36.3216 52.465 36.478C50.0262 37.7912 47.4624 38.3539 44.711 38.3227C41.5218 38.3227 38.3326 38.3227 35.0809 38.3227ZM57.9679 26.848C58.0304 26.6604 57.8115 26.4728 57.6239 26.5666C56.8736 26.9417 56.2795 27.2544 55.7167 27.5983C54.8725 28.0986 54.2159 28.0673 53.3717 27.4733C51.0893 25.8474 48.5255 25.2846 45.7428 25.441C40.1461 25.7849 35.1435 30.7562 34.8934 36.1966C34.8934 36.3216 34.9871 36.4154 35.1122 36.4467C35.2998 36.478 35.4874 36.5092 35.675 36.5092C38.9892 36.5092 42.3035 36.5718 45.6177 36.5092C51.1206 36.4154 55.9356 32.8823 57.7803 27.6609C57.8428 27.442 57.9053 27.1919 57.9679 26.848ZM44.3045 54.6749H49.1508C49.2133 54.6749 49.2758 54.6437 49.3071 54.6124C50.2451 53.6744 50.933 52.9866 51.6208 52.2987C51.6833 52.2362 51.7146 52.1111 51.6521 52.0173C50.9642 50.7354 50.8704 50.8292 49.3696 50.9543C47.6187 51.1106 45.8053 51.1106 44.0544 50.9543C42.5536 50.8292 42.2722 50.8292 41.7407 52.0486C41.7094 52.1424 41.7094 52.2362 41.8032 52.33C42.4911 53.0178 43.1789 53.7057 44.1169 54.6437C44.1794 54.6437 44.242 54.6749 44.3045 54.6749ZM43.8668 56.5197C43.7417 56.5197 43.6166 56.6135 43.6166 56.7698C43.6166 57.614 43.5228 58.4582 43.6792 59.2398C43.7417 59.5837 44.3045 60.084 44.6797 60.1153C45.0236 60.1153 45.4926 59.6775 45.7428 59.3024C45.9303 59.021 45.7428 58.4894 45.8991 58.1768C45.8991 58.1455 45.9303 58.1142 45.9616 58.083C46.3055 57.5827 47.0559 57.5827 47.4937 58.0517C47.5249 58.083 47.5562 58.1455 47.5875 58.1768C47.7125 58.3644 47.5249 58.7708 47.65 58.9584C47.9314 59.3962 48.2753 59.9902 48.6818 60.1153C49.4009 60.3029 49.8074 59.7088 49.8699 59.021C49.9324 58.3018 49.9012 57.5514 49.8699 56.7698C49.8699 56.6447 49.7761 56.5197 49.6198 56.5197H43.8668ZM57.3113 32.3195C56.4358 33.2575 55.7167 34.0392 54.9038 34.9147C54.7787 35.0397 54.8412 35.2586 54.9976 35.3211C56.217 35.7588 57.3425 36.1966 58.4681 36.603C58.6557 36.6656 58.8433 36.5092 58.7808 36.3216C58.4369 35.1023 58.1242 33.8516 57.749 32.4446C57.6552 32.257 57.4363 32.1945 57.3113 32.3195ZM52.2774 54.2059C51.3394 54.7375 51.5896 55.5191 51.6521 56.3008C51.6521 56.4884 51.8709 56.5822 52.0273 56.4884C52.9027 55.9881 52.7464 55.2377 52.6526 54.3935C52.6213 54.2372 52.4337 54.1434 52.2774 54.2059ZM41.7719 56.3008C41.8032 55.5191 42.0533 54.7062 41.2091 54.2372C41.0528 54.1434 40.8652 54.2372 40.8339 54.4248C40.8027 55.2065 40.5526 55.9881 41.3967 56.4884C41.5531 56.5822 41.7719 56.4884 41.7719 56.3008Z" fill="#50398C"/>
</g>
<path d="M18.307 9.41487C18.4577 8.56524 18.1518 8.06272 17.6176 7.73376C16.8649 7.21607 16.0782 6.77493 15.3255 6.25723C15.107 6.0685 14.8643 5.59403 14.9663 5.36438C15.1023 5.05818 15.4617 4.75957 15.7823 4.71866C16.3262 4.68533 16.8361 4.72855 17.4092 4.79981C17.9531 4.76648 18.4339 4.70511 19.1041 4.72787C19.2937 3.62054 19.4784 2.69436 19.6631 1.76818C19.7749 1.17624 19.7604 0.528209 20.4355 0.369825C21.2077 0.162938 21.2513 0.915562 21.3969 1.43854C21.7221 2.40794 22.615 3.79558 22.615 3.79558L23.9249 4.64716C23.9249 4.64716 25.8984 5.08812 26.9522 5.09801C27.399 5.11319 27.8118 5.20491 27.734 5.7203C27.6611 6.05454 27.3308 6.45775 27.0054 6.67981C26.0972 7.1929 25.1258 7.67793 24.0573 8.21148C24.4505 9.02778 24.7515 9.71144 25.0866 10.3186C25.2371 10.6604 25.4847 10.9537 25.5721 11.2675C25.5963 11.5532 25.6157 12.0201 25.4845 12.1452C25.3194 12.3468 24.9017 12.4362 24.7123 12.3521C24.0519 11.967 23.4595 11.4289 22.833 10.9673C22.5514 10.7505 22.2066 10.5057 21.7987 10.2328C21.2061 10.8861 20.6135 11.5394 19.9578 12.1647C19.5012 12.5118 19.2001 13.0196 18.8115 13.2136C18.1607 13.6577 17.6896 13.3568 17.7092 12.6323C17.7627 11.8311 18.0105 10.933 18.1612 10.0834C18.4477 10.119 18.7343 10.1546 19.0208 10.1903C19.0548 10.1137 19.0888 10.0372 19.1228 9.9606C18.8412 9.74383 18.6226 9.5551 18.307 9.41487ZM19.8174 9.07764C19.7834 9.15419 19.6863 9.2027 19.6523 9.27925L19.6814 9.38384C19.7785 9.33534 19.8417 9.36338 19.8757 9.28683C19.8125 9.25879 19.7834 9.15419 19.8174 9.07764Z" fill="#F2BF5C"/>
<circle cx="34.5929" cy="14.0929" r="2.5" transform="rotate(-73.9774 34.5929 14.0929)" fill="#0097B9"/>
<defs>
<clipPath id="clip0_6328_24397">
<rect width="60" height="42.9911" fill="white" transform="translate(0.5 19)"/>
</clipPath>
</defs>
</svg>
