<svg width="33" height="32" viewBox="0 0 33 32" fill="none" xmlns="http://www.w3.org/2000/svg">
<g clip-path="url(#clip0_7228_9202)">
<path d="M14.0468 13.346C13.8631 12.4441 13.646 11.5757 13.5458 10.6905C12.8109 5.06209 16.1512 1.57148 20.8944 0.25207C21.1616 0.185264 21.4289 0.135159 21.6794 0.0683535C22.1303 -0.0485568 22.5479 -0.0485568 22.8819 0.335577C23.2159 0.71971 23.1157 1.13725 22.932 1.55478C22.3307 2.9243 22.0301 4.36063 22.0134 5.86376C21.9967 7.30009 22.4309 8.5694 23.3662 9.65499C24.0677 10.4734 24.8026 11.275 25.5708 12.0433C31.3495 17.8554 29.5458 28.7448 20.0426 31.4671C11.0071 34.0558 4.00923 26.8074 4.52698 18.8742C4.7441 15.4504 5.8798 12.3272 8.31821 9.8053C8.45182 9.67169 8.56873 9.48798 8.73575 9.43787C9.06978 9.32096 9.48731 9.15395 9.75454 9.25416C10.0218 9.37107 10.2055 9.7886 10.3391 10.1059C10.6063 10.774 10.6898 11.5256 11.0405 12.1435C11.6418 13.2625 12.7107 13.6466 14.0468 13.346ZM22.8151 28.0433C22.8986 28.0099 22.9654 27.9932 22.9988 27.9598C27.3412 24.9535 28.3099 18.3398 24.9696 14.2312C24.1512 13.2291 23.2326 12.3272 22.3474 11.3752C20.4936 9.38777 19.8422 7.01616 20.2431 4.34393C20.3433 3.69257 20.4602 3.05791 20.5771 2.38986C17.2535 3.17482 14.9654 6.43161 15.3662 9.87211C15.5165 11.108 15.8673 12.3105 16.1679 13.513C16.3349 14.1811 16.218 14.6153 15.6502 14.8658C13.7128 15.7009 10.9737 15.6007 9.47061 13.2124C9.25349 12.8617 9.05307 12.5109 8.85266 12.1435C4.94451 16.0851 5.9299 25.4379 10.4894 28.06C9.57082 23.7176 10.6898 20.6279 14.2138 17.8721C15.6167 16.7698 17.17 15.9514 18.8401 15.3168C19.2744 15.1498 19.7086 14.9995 20.1261 15.3669C20.5604 15.751 20.4602 16.2187 20.3266 16.6863C20.0092 17.7552 19.7754 18.8909 20.2264 19.9264C20.5938 20.7949 21.2284 21.5965 21.8464 22.3314C22.932 23.6007 23.4163 25.0036 23.1658 26.6571C23.0823 27.108 22.932 27.559 22.8151 28.0433ZM20.1762 28.5777C21.6126 27.1748 21.7295 25.0871 20.3934 23.5506C20.0927 23.1999 19.7921 22.8658 19.4915 22.5151C18.7566 21.68 18.3224 20.6947 18.1888 19.5924C18.122 18.9744 18.1721 18.3565 18.1721 17.6216C16.1512 18.6237 14.4309 19.8095 13.195 21.6132C12.2264 23.0162 11.8255 24.5861 12.0259 26.2896C12.1428 27.2249 12.4769 28.0767 13.1616 28.6947C13.3621 28.0934 13.479 27.5089 13.7462 26.9744C14.3641 25.7218 15.0322 24.5026 15.7504 23.3001C15.9341 22.9995 16.3015 22.7322 16.6355 22.6487C17.0865 22.5318 17.3704 22.8992 17.5875 23.3001C18.1721 24.3857 18.7733 25.4379 19.3245 26.5402C19.6585 27.1915 19.8923 27.893 20.1762 28.5777ZM16.6689 25.5214C16.1846 26.4233 15.7337 27.1915 15.3328 27.9932C15.0155 28.6446 15.1992 29.346 15.7504 29.7803C16.2848 30.1978 17.003 30.2145 17.5374 29.8137C18.0886 29.3961 18.3057 28.678 18.0051 28.0433C17.6042 27.2249 17.1533 26.44 16.6689 25.5214Z" fill="#DF3577"/>
</g>
<defs>
<clipPath id="clip0_7228_9202">
<rect width="32" height="32" fill="white" transform="translate(0.5)"/>
</clipPath>
</defs>
</svg>
