<svg width="50" height="50" viewBox="0 0 50 50" fill="none" xmlns="http://www.w3.org/2000/svg">
<path fill-rule="evenodd" clip-rule="evenodd" d="M46.485 3.515C42.97 0 37.315 0 26 0H24C12.685 0 7.03 0 3.515 3.515C0 7.03 0 12.685 0 24V26C0 37.315 0 42.97 3.515 46.485C7.03 50 12.685 50 24 50H26C37.315 50 42.97 50 46.485 46.485C50 42.97 50 37.315 50 26V24C50 12.685 50 7.03 46.485 3.515ZM25 36.75C23.765 36.75 22.75 35.75 22.75 34.51V25.485C22.75 24.25 23.765 23.25 25 23.25C26.235 23.25 27.25 24.25 27.25 25.485V34.51C27.25 35.745 26.235 36.75 25 36.75ZM30.75 40.26V19.735C30.75 18.5 31.765 17.495 33 17.495C34.235 17.495 35.25 18.495 35.25 19.735V40.26C35.25 41.495 34.235 42.495 33 42.495C31.765 42.495 30.75 41.495 30.75 40.26ZM43.25 34.51C43.25 35.745 42.235 36.745 41 36.745C39.765 36.745 38.75 35.745 38.75 34.51V25.485C38.75 24.25 39.765 23.245 41 23.245C42.235 23.245 43.25 24.245 43.25 25.485V34.51ZM33 9.995C28.45 9.995 24.815 12.495 20.73 15.305C15.88 18.64 10.39 22.395 2 22.92C2 17.765 2.03 14.005 2.42 11.1C2.83 8.055 3.605 6.255 4.925 4.93C6.25 3.605 8.05 2.83 11.095 2.425C14.2 2.01 18.28 2.005 23.995 2.005H25.995C31.71 2.005 35.79 2.005 38.895 2.425C41.94 2.835 43.74 3.61 45.065 4.93C46.39 6.255 47.165 8.055 47.57 11.1C47.78 12.665 47.885 14.48 47.94 16.625C44.65 14 39.185 10 32.995 10L33 9.995ZM19.25 28.735V31.26C19.25 32.495 18.235 33.495 17 33.495C15.765 33.495 14.75 32.495 14.75 31.26V28.735C14.75 27.5 15.765 26.495 17 26.495C18.235 26.495 19.25 27.495 19.25 28.735ZM9 33.495C7.765 33.495 6.75 32.495 6.75 31.26V28.735C6.75 27.5 7.765 26.495 9 26.495C10.235 26.495 11.25 27.495 11.25 28.735V31.26C11.25 32.495 10.235 33.495 9 33.495Z" fill="white"/>
</svg>
