<svg width="24" height="25" viewBox="0 0 24 25" fill="none" xmlns="http://www.w3.org/2000/svg">
<g id="icon docs">
<path id="Subtract" fill-rule="evenodd" clip-rule="evenodd" d="M6 22.5H18C18.5304 22.5 19.0391 22.2893 19.4142 21.9142C19.7893 21.5392 20 21.0305 20 20.5V9.50002C19.9996 9.49327 19.9986 9.48657 19.997 9.48002V9.47402C19.9932 9.46476 19.9909 9.45498 19.99 9.44502C19.9854 9.3572 19.9689 9.27041 19.941 9.18702L19.931 9.15902C19.924 9.13602 19.917 9.11502 19.908 9.09302C19.8596 8.98407 19.7918 8.8848 19.708 8.80002L13.708 2.80002C13.6232 2.7162 13.5239 2.64844 13.415 2.60002C13.3988 2.58432 13.3815 2.56994 13.363 2.55702H13.351H13.336H13.321C13.2373 2.52882 13.1502 2.51167 13.062 2.50602C13.0522 2.50498 13.0424 2.50298 13.033 2.50002H13.027C13.018 2.49886 13.009 2.49886 13 2.50002H6C4.89543 2.50002 4 3.39545 4 4.50002V20.5C4 21.6046 4.89543 22.5 6 22.5ZM13 9.50002V4.50002L18 9.50002H13ZM11.9017 14.5C11.6473 14.5 11.4094 14.55 11.1912 14.6527C10.9736 14.7563 10.7867 14.9099 10.6321 15.1086L10.6312 15.1097C10.4775 15.3102 10.3639 15.5542 10.2861 15.8362C10.2076 16.1185 10.17 16.4414 10.17 16.8023V17.6311C10.17 17.9877 10.2076 18.3074 10.2862 18.5876L10.2866 18.589C10.3666 18.8665 10.4814 19.1069 10.635 19.3046L10.6367 19.3067C10.7917 19.5009 10.9787 19.6507 11.1959 19.7514C11.414 19.8515 11.6523 19.9 11.9078 19.9C12.1648 19.9 12.4033 19.8517 12.62 19.7512C12.8396 19.6503 13.0258 19.5004 13.1775 19.3046C13.3316 19.1062 13.4445 18.8651 13.5204 18.5869C13.5989 18.3069 13.6364 17.9875 13.6364 17.6311V16.8023C13.6364 16.4416 13.5989 16.1188 13.5205 15.8367C13.4427 15.5545 13.329 15.3103 13.1752 15.1097C13.0221 14.91 12.8354 14.7565 12.6157 14.6529C12.3986 14.5497 12.1594 14.5 11.9017 14.5ZM16.9813 16.1745C16.9882 16.2391 16.9934 16.3058 16.9969 16.3745H16.7966L16.7971 16.3846L16.9969 16.3745V16.1745H16.9813ZM15.5528 14.5C15.2885 14.5 15.0442 14.5522 14.8242 14.6608C14.6062 14.7673 14.4225 14.9238 14.2738 15.1264C14.1258 15.3278 14.0157 15.5683 13.94 15.8435L13.9396 15.8449C13.8658 16.1213 13.8301 16.4299 13.8301 16.7689V17.6311C13.8301 17.9697 13.8647 18.2778 13.9362 18.5537L13.9366 18.5551C14.0101 18.8302 14.118 19.0708 14.2638 19.2724L14.2645 19.2734C14.4108 19.4731 14.5912 19.6295 14.804 19.7381C15.0206 19.8475 15.2616 19.9 15.5226 19.9C15.8585 19.9 16.157 19.8294 16.4083 19.6775C16.6604 19.5262 16.8517 19.307 16.9819 19.0289C17.1106 18.7517 17.1788 18.4246 17.1937 18.0536L17.202 17.8456H16.0724L16.063 18.0357C16.0513 18.2719 16.0217 18.444 15.9805 18.5605C15.9419 18.6698 15.8904 18.7271 15.8368 18.7579L15.8354 18.7587C15.7742 18.7945 15.6754 18.8215 15.5226 18.8215C15.4057 18.8215 15.3244 18.7976 15.2671 18.7623C15.2057 18.7223 15.1514 18.662 15.107 18.5726C15.0597 18.4749 15.0222 18.3495 14.9982 18.1926C14.9739 18.0333 14.9613 17.8465 14.9613 17.6311V16.7622C14.9613 16.5389 14.9758 16.3497 15.0034 16.1928C15.033 16.0336 15.0746 15.9122 15.1236 15.8228C15.1732 15.7338 15.2309 15.6754 15.2938 15.6383C15.3586 15.6012 15.4424 15.5785 15.5528 15.5785C15.6966 15.5785 15.7868 15.6066 15.842 15.6427L15.8436 15.6437C15.8954 15.677 15.9468 15.739 15.9851 15.8554L15.9862 15.8586C16.0275 15.9774 16.0563 16.1494 16.0659 16.3828L16.0739 16.5745H17.2072L17.1966 16.3644C17.1776 15.988 17.1085 15.6579 16.9828 15.3797C16.8557 15.0986 16.6709 14.8767 16.4259 14.7241C16.1798 14.5708 15.8852 14.5 15.5528 14.5ZM8.10562 14.5668H6.79688V19.8332H8.07541C8.36009 19.8332 8.62223 19.7846 8.85828 19.6832C9.09383 19.582 9.29601 19.4333 9.46291 19.2386L9.46374 19.2376C9.63055 19.0404 9.75522 18.8024 9.84048 18.5291C9.92617 18.252 9.96723 17.9396 9.96723 17.5944V16.809C9.96723 16.4638 9.92617 16.1513 9.84048 15.8742C9.75541 15.5991 9.63101 15.3612 9.46377 15.1658C9.29947 14.9692 9.10061 14.819 8.86866 14.7173C8.63676 14.6157 8.38133 14.5668 8.10562 14.5668ZM7.93101 18.7547V15.6487H8.10562C8.25219 15.6487 8.36571 15.6722 8.45253 15.7113L8.45542 15.7125C8.53818 15.7482 8.60362 15.8029 8.65498 15.8802L8.65753 15.8839C8.71191 15.9619 8.75802 16.0731 8.78862 16.2264L8.7892 16.2292C8.82162 16.3806 8.83915 16.5707 8.83915 16.8023V17.5944C8.83915 17.895 8.80883 18.1293 8.75453 18.3036C8.70245 18.4709 8.62354 18.5787 8.52706 18.6461C8.42971 18.712 8.28519 18.7547 8.07541 18.7547H7.93101ZM11.6571 15.6504C11.7252 15.6127 11.8051 15.5918 11.9017 15.5918C12.0036 15.5918 12.0835 15.6133 12.1478 15.6496L12.1523 15.652C12.2161 15.6859 12.2757 15.7416 12.3286 15.8293L12.3295 15.8308C12.3815 15.9153 12.4262 16.0352 12.4575 16.1983L12.4581 16.2009C12.4908 16.3598 12.5083 16.5571 12.5083 16.7956V17.6311C12.5083 17.8653 12.4918 18.0613 12.4607 18.2212C12.4295 18.3792 12.3845 18.4981 12.3321 18.5833C12.282 18.6656 12.2236 18.72 12.1584 18.7546C12.0901 18.7909 12.0083 18.8115 11.9078 18.8115C11.8098 18.8115 11.7288 18.7911 11.6602 18.7546C11.5941 18.7196 11.5331 18.6642 11.4788 18.5807C11.4264 18.4948 11.3812 18.3764 11.3483 18.219C11.3156 18.06 11.2981 17.8648 11.2981 17.6311V16.7956C11.2981 16.5571 11.3146 16.3592 11.3456 16.1996C11.3788 16.0366 11.4245 15.9163 11.4767 15.8311C11.5323 15.7416 11.593 15.6852 11.6556 15.6513L11.6571 15.6504Z" fill="#0097B9"/>
</g>
</svg>
