<svg width="62" height="62" viewBox="0 0 62 62" fill="none" xmlns="http://www.w3.org/2000/svg">
<circle opacity="0.2" cx="31" cy="31" r="31" fill="#0097B9"/>
<g clip-path="url(#clip0_7088_14888)">
<path d="M21.0713 36.9555C18.7713 33.9523 18.7713 31 21.038 28.93C23.1047 27.0467 26.188 27.1145 28.188 29.0318C29.9713 30.7455 30.7213 34.2238 28.0213 36.9555C29.8547 37.736 31.3547 38.9406 32.438 40.5355C33.488 39.755 34.488 38.9915 35.538 38.211C34.538 37.1251 34.038 35.7338 34.3213 34.1389C34.5047 33.0191 35.0547 32.0689 35.9213 31.3563C37.7047 29.8802 40.238 29.965 41.9213 31.543C43.788 33.2906 43.838 35.5811 42.038 38.3468C44.338 39.4496 45.9547 41.1803 46.6713 43.7084C46.8713 44.421 46.9547 45.1676 47.0047 45.8971C47.0547 46.6267 46.6713 46.983 45.9547 47.017C45.8047 47.017 45.6713 47.017 45.5213 47.017C35.8547 47.017 26.188 47.017 16.538 47.017C15.238 47.017 14.9213 46.7116 15.038 45.3881C15.388 41.6554 17.2213 38.9237 20.5213 37.2439C20.7047 37.1421 20.888 37.0403 21.0713 36.9555ZM32.088 45.0488C32.0547 42.351 29.2547 38.1601 24.438 38.245C20.638 38.2959 16.8047 41.8081 17.0547 45.0488C22.0547 45.0488 27.0713 45.0488 32.088 45.0488ZM34.138 45.0318C37.738 45.0318 41.3547 45.0318 45.0213 45.0318C45.0213 44.9131 45.038 44.8282 45.0213 44.7434C44.6547 42.351 42.588 40.2641 40.0713 39.7041C37.7213 39.1951 34.9547 40.298 33.7047 42.2662C33.6213 42.4019 33.5547 42.6225 33.588 42.7752C33.738 43.5387 33.938 44.2683 34.138 45.0318ZM27.9047 32.8834C27.9047 31 26.4213 29.473 24.588 29.473C22.7213 29.456 21.2047 31 21.2047 32.9003C21.2047 34.7667 22.7047 36.3107 24.538 36.3277C26.388 36.3277 27.9047 34.7837 27.9047 32.8834ZM36.138 34.9364C36.138 36.4634 37.338 37.6851 38.8213 37.6851C40.3047 37.6851 41.5213 36.4465 41.5047 34.9364C41.488 33.4602 40.288 32.2386 38.838 32.2216C37.3547 32.1707 36.138 33.4093 36.138 34.9364Z" fill="#0097B9"/>
<path d="M29.6297 24.1792C28.5797 23.9926 27.6964 24.1453 26.8797 24.7391C26.3297 25.1463 25.6964 25.4687 25.0964 25.7911C24.3297 26.1983 23.6297 25.8081 23.6297 24.9258C23.613 22.4825 23.613 20.0392 23.6297 17.6129C23.6464 16.3574 24.5797 15.3054 25.7964 15.0848C26.0797 15.0339 26.363 15 26.663 15C29.0464 15 31.413 15 33.7964 15C35.763 15 36.8464 16.1029 36.863 18.105C36.863 18.9364 36.863 19.7508 36.863 20.684C37.113 20.684 37.3297 20.684 37.5464 20.684C38.7964 20.7349 39.7297 21.6511 39.7464 22.9067C39.7797 24.6373 39.763 26.3849 39.7464 28.1326C39.7297 28.9979 39.0297 29.3881 38.263 28.9979C38.2297 28.9809 38.1797 28.964 38.1464 28.93C36.8797 27.929 35.4464 27.6405 33.8797 27.7932C33.213 27.8611 32.5464 27.8102 31.8797 27.7932C30.5797 27.7932 29.663 26.86 29.6297 25.5196C29.6297 25.0785 29.6297 24.6373 29.6297 24.1792ZM25.4964 23.3309C25.8797 23.1103 26.1797 22.9746 26.4464 22.7879C27.0964 22.3128 27.813 22.1601 28.613 22.1771C30.3797 22.228 32.1464 22.1941 33.9297 22.1941C34.6464 22.1941 34.9464 21.9056 34.963 21.21C34.9797 20.0901 34.9797 18.9703 34.963 17.8335C34.963 17.2566 34.6464 16.9173 34.063 16.9173C31.4964 16.9003 28.9464 16.9003 26.3797 16.9173C25.813 16.9173 25.4964 17.2397 25.4964 17.8505C25.4964 18.5631 25.4964 19.2927 25.4964 20.0053C25.4964 21.0912 25.4964 22.1601 25.4964 23.3309ZM37.8797 26.6564C37.8797 25.4178 37.8964 24.4168 37.863 23.3987C37.8464 23.1273 37.6797 22.6691 37.5464 22.6522C37.163 22.6013 36.6964 22.3807 36.363 22.8897C35.7797 23.772 34.9297 24.1283 33.8964 24.1114C33.113 24.0944 32.3297 24.1114 31.513 24.1114C31.513 24.5525 31.5297 24.9088 31.513 25.2651C31.4797 25.7741 31.6964 25.9268 32.1797 25.9099C33.163 25.8929 34.1297 25.8929 35.113 25.9099C36.013 25.9099 36.9797 25.7572 37.8797 26.6564Z" fill="#0097B9"/>
</g>
<defs>
<clipPath id="clip0_7088_14888">
<rect width="32" height="32" fill="white" transform="translate(15 15)"/>
</clipPath>
</defs>
</svg>
