<svg width="52" height="59" viewBox="0 0 52 59" fill="none" xmlns="http://www.w3.org/2000/svg">
<g id="Frame 7794">
<path id="Vector" d="M16.989 34C16.5407 34 16.2381 33.7194 16.0813 33.1581C15.6106 31.5081 15.1848 29.8356 14.6581 28.208C13.19 23.6396 10.1307 20.6538 5.55861 19.2395C3.98974 18.7568 2.39845 18.3303 0.807171 17.8813C0.269273 17.7242 -0.0108827 17.3986 0.000323496 16.9496C0.0115297 16.5231 0.291685 16.2088 0.807171 16.0629C2.67861 15.5129 4.59487 15.0863 6.42149 14.4016C10.7471 12.7965 13.515 9.68725 14.8037 5.24226C15.2296 3.76059 15.6442 2.29016 16.07 0.808492C16.2269 0.28093 16.5519 -0.0109125 17.0002 0.000312227C17.4484 0.000312227 17.7622 0.28093 17.9191 0.819717C18.3673 2.36873 18.7819 3.91774 19.2526 5.45553C20.7206 10.2597 23.892 13.3465 28.6995 14.772C30.1899 15.2098 31.6803 15.6251 33.1595 16.0517C33.7198 16.2088 33.9888 16.5119 34 16.9609C34 17.4099 33.7311 17.7242 33.1707 17.8813C31.445 18.3864 29.6856 18.813 27.9935 19.3854C23.4549 20.9232 20.5413 24.0549 19.1966 28.657C18.7595 30.1611 18.3449 31.6653 17.9079 33.1694C17.751 33.7194 17.426 34 16.989 34Z" fill="white"/>
<path id="Vector_2" d="M37.9909 59C37.6218 59 37.3726 58.7689 37.2434 58.3067C36.8558 56.9479 36.5051 55.5705 36.0713 54.2302C34.8624 50.4679 32.343 48.009 28.5777 46.8443C27.2857 46.4468 25.9752 46.0955 24.6647 45.7258C24.2218 45.5964 23.991 45.3283 24.0003 44.9585C24.0095 44.6073 24.2402 44.3484 24.6647 44.2283C26.2059 43.7753 27.784 43.424 29.2883 42.8602C32.8505 41.5383 35.13 38.9777 36.1913 35.3172C36.542 34.097 36.8835 32.886 37.2342 31.6658C37.3634 31.2314 37.631 30.991 38.0001 31.0003C38.3693 31.0003 38.6277 31.2314 38.7569 31.6751C39.126 32.9507 39.4675 34.2264 39.8551 35.4928C41.064 39.4492 43.6758 41.9912 47.6348 43.1652C48.8623 43.5257 50.0897 43.8678 51.3078 44.219C51.7693 44.3484 51.9908 44.598 52 44.9678C52 45.3375 51.7785 45.5964 51.3171 45.7258C49.8959 46.1418 48.447 46.493 47.0534 46.9645C43.3158 48.2309 40.9164 50.8099 39.8089 54.5999C39.449 55.8386 39.1076 57.0773 38.7477 58.316C38.6185 58.7689 38.3508 59 37.9909 59Z" fill="white"/>
</g>
</svg>
