<svg width="65" height="65" viewBox="0 0 65 65" fill="none" xmlns="http://www.w3.org/2000/svg">
<ellipse opacity="0.5" cx="41" cy="24" rx="24" ry="24" transform="rotate(-90 41 24)" fill="#DF3577"/>
<path d="M41.5177 15.6314C40.9259 8.33194 38.6784 7.00056 33.2531 5.39727C27.8278 3.79398 20.5532 7.36812 16.8544 10.3282C10.2276 15.6314 4.05363 28.6767 7.99983 41.5C11.946 54.3232 21.0461 60.7596 36.2123 60.6363C48.3453 60.5377 54.7145 53.3615 57.0538 49.0459C59.3932 44.7303 59.1253 40.2417 57.0538 35.6055C54.9824 30.9693 47.5561 27.9612 44.9702 25.9888C42.3843 24.0164 42.1096 22.9309 41.5177 15.6314Z" stroke="#2D2C34" stroke-width="2"/>
<path d="M21.2395 16.729C19.0678 16.9949 17.62 18.5012 17.1675 19.2212C16.3192 22.0457 18.8642 22.8762 20.5608 23.3746C22.2574 23.873 22.0878 25.8667 23.2754 27.5282C24.4631 29.1896 26.6687 26.0329 28.535 24.7037C30.4013 23.3746 30.5709 17.2275 28.535 15.566C26.499 13.9046 23.9541 16.3968 21.2395 16.729Z" fill="#DF3577"/>
<path d="M16.5544 39.83C15.8726 41.8335 16.5986 43.7428 17.0468 44.447C19.1969 46.4039 21.0101 44.5489 22.1698 43.2885C23.3296 42.028 25.0286 43.036 27.0062 42.7202C28.9837 42.4043 27.1123 39.1236 26.7205 36.9268C26.3288 34.73 20.9409 31.9293 18.6049 32.983C16.2688 34.0366 17.4066 37.3256 16.5544 39.83Z" fill="#0097B9"/>
<path d="M36.8354 53.3075C38.752 53.4137 40.2426 52.3133 40.7483 51.7498C41.9326 49.3937 39.8695 48.2628 38.4851 47.5575C37.1008 46.8522 37.5665 45.1219 36.8077 43.4716C36.0488 41.8212 33.64 44.2572 31.8166 45.1358C29.9933 46.0145 28.8625 51.405 30.3534 53.1884C31.8443 54.9717 34.4396 53.1746 36.8354 53.3075Z" fill="#E99500"/>
<circle cx="62.5" cy="24.5" r="2.5" fill="#50398C"/>
<ellipse cx="46.876" cy="39.621" rx="6.35737" ry="4.66207" transform="rotate(38.9177 46.876 39.621)" fill="white"/>
<path d="M48.1717 11.41C49.0117 11.1001 49.317 10.4798 49.3548 9.70412C49.457 8.5808 49.4736 7.46278 49.5758 6.33946C49.6402 5.99178 49.9507 5.457 50.2075 5.44108C50.5499 5.41985 50.9937 5.6501 51.1862 5.98186C51.4801 6.56509 51.6884 7.15363 51.9021 7.82776C52.196 8.41099 52.4846 8.90863 52.7891 9.66304C53.8806 9.25169 54.8062 8.93654 55.7318 8.62138C56.3204 8.41305 56.8983 8.03354 57.3687 8.69175C57.93 9.43024 57.2718 9.90066 56.8704 10.3552C56.1531 11.2588 55.3336 13.0253 55.3336 13.0253L55.2003 14.9525L56.3015 18.2628C56.3015 18.2628 56.622 19.274 56.119 19.477C56.119 19.477 55.2578 19.4445 54.8995 19.209C53.9958 18.4917 53.0471 17.9815 52.0472 17.0983C51.5011 17.9914 51.03 18.708 50.6445 19.4193C50.4089 19.7776 50.2643 20.2161 50.0234 20.4888C49.7773 20.6759 49.3652 20.9592 49.1887 20.8843C48.9266 20.8146 48.6433 20.4025 48.6274 20.1458C48.6546 19.1989 48.853 18.2415 48.9658 17.2894C49.0249 16.8561 49.0787 16.3372 49.1271 15.7328C48.25 15.4435 47.3728 15.1542 46.4903 14.7793C45.9556 14.4687 45.3511 14.4203 44.9875 14.0991C44.2709 13.628 44.3141 12.938 44.9776 12.5532C45.7267 12.163 46.6576 11.9335 47.4976 11.6236C47.6044 11.9607 47.7112 12.2978 47.8181 12.6348C47.9037 12.6295 47.9892 12.6242 48.0748 12.6189C48.1339 12.1856 48.1983 11.8379 48.1717 11.41ZM49.2088 12.8923C49.1232 12.8976 49.0323 12.8173 48.9467 12.8226L48.8664 12.9135C48.9573 12.9938 48.9626 13.0794 49.0482 13.0741C49.0429 12.9885 49.1232 12.8976 49.2088 12.8923Z" fill="#F2BF5C"/>
</svg>
