<svg width="50" height="50" viewBox="0 0 50 50" fill="none" xmlns="http://www.w3.org/2000/svg">
<path fill-rule="evenodd" clip-rule="evenodd" d="M21.1785 43.0511C21.3038 43.6561 21.3665 43.9587 21.1771 44.1713C20.9879 44.3837 20.6721 44.3556 20.0408 44.2995C16.5064 43.9847 14.5297 43.3369 12.9838 42.6965C10.4121 41.6313 8.36902 39.588 7.30382 37.0163C6.66327 35.4704 6.01524 33.4936 5.70056 29.9591C5.64433 29.3278 5.61623 29.0122 5.82874 28.8229C6.04129 28.6334 6.34385 28.6962 6.94895 28.8214C14.0832 30.298 19.702 35.9167 21.1785 43.0511ZM28.01 44.4296C27.5191 44.4526 27.2736 44.464 27.1048 44.3243C26.9362 44.1845 26.9002 43.9293 26.8279 43.4188C25.3464 32.9419 17.0579 24.6536 6.58118 23.172C6.07067 23.1 5.81544 23.0637 5.6757 22.8951C5.53597 22.7263 5.54742 22.4809 5.57032 21.99C5.66626 19.9337 5.86071 18.3181 6.11068 17.0005C6.19298 16.5669 6.23403 16.3502 6.40551 16.2187C6.5768 16.0874 6.79892 16.1041 7.24297 16.1374C21.452 17.2055 32.7947 28.5483 33.8626 42.7571C33.8961 43.2012 33.9127 43.4234 33.7814 43.5948C33.6498 43.7661 33.4332 43.8074 32.9995 43.8895C31.682 44.1394 30.0662 44.3337 28.01 44.4296ZM40.7473 40.0809C40.1882 40.6924 39.9088 40.9982 39.5685 40.8964C39.2282 40.7947 39.1555 40.3426 39.0095 39.4383C36.6595 24.8559 25.1445 13.3406 10.5624 10.9904C9.65803 10.8447 9.20561 10.7719 9.10409 10.4316C9.00242 10.0913 9.30818 9.81185 9.91955 9.25304C10.8115 8.43769 11.8459 7.77477 12.9838 7.30365C15.1376 6.4114 18.1271 5.50456 24.9998 5.50456C31.8729 5.50456 34.863 6.4114 37.0167 7.30365C39.5882 8.36885 41.6315 10.412 42.6968 12.9837C43.5888 15.1372 44.4955 18.1269 44.4955 25.0002C44.4955 31.8733 43.5888 34.8631 42.6968 37.0163C42.2255 38.1544 41.5626 39.1888 40.7473 40.0809ZM0 25.0002C0 17.545 1.00029 13.8173 2.21821 10.8771C3.84211 6.95669 6.95688 3.84195 10.8774 2.21792C13.8177 1.0002 17.5448 0 24.9998 0C32.455 0 36.1829 1.0002 39.1232 2.21792C43.0436 3.84195 46.1585 6.95669 47.7823 10.8771C49.0003 13.8173 50 17.545 50 25.0002C50 32.455 49.0003 36.1827 47.7823 39.1229C46.1585 43.0433 43.0436 46.1582 39.1232 47.7821C36.1829 49 32.455 50 24.9998 50C17.5448 50 13.8177 49 10.8774 47.7821C6.95688 46.1582 3.84211 43.0433 2.21821 39.1229C1.00029 36.1827 0 32.455 0 25.0002Z" fill="white"/>
</svg>
