<svg width="24" height="24" viewBox="0 0 24 24" fill="none" xmlns="http://www.w3.org/2000/svg">
<path fill-rule="evenodd" clip-rule="evenodd" d="M6 22H18C18.5304 22 19.0391 21.7893 19.4142 21.4142C19.7893 21.0392 20 20.5305 20 20V9.00002C19.9996 8.99327 19.9986 8.98657 19.997 8.98002V8.97402C19.9932 8.96476 19.9909 8.95498 19.99 8.94502C19.9854 8.8572 19.9689 8.77041 19.941 8.68702L19.931 8.65902C19.924 8.63602 19.917 8.61502 19.908 8.59302C19.8596 8.48407 19.7918 8.3848 19.708 8.30002L13.708 2.30002C13.6232 2.2162 13.5239 2.14844 13.415 2.10002C13.3988 2.08432 13.3815 2.06994 13.363 2.05702H13.351H13.336H13.321C13.2373 2.02882 13.1502 2.01167 13.062 2.00602C13.0522 2.00498 13.0424 2.00298 13.033 2.00002H13.027C13.018 1.99886 13.009 1.99886 13 2.00002H6C4.89543 2.00002 4 2.89545 4 4.00002V20C4 21.1046 4.89543 22 6 22ZM13 9.00002V4.00002L18 9.00002H13ZM15.4885 13.85C15.216 13.85 14.9687 13.895 14.7498 13.9889L14.1888 14.4178C14.0361 14.6082 13.9232 14.8425 13.8469 15.1161L13.8466 15.1172C13.7724 15.3916 13.7365 15.7084 13.7365 16.0655V16.9311C13.7365 17.2937 13.7769 17.6147 13.8607 17.8908C13.944 18.163 14.0651 18.3961 14.2269 18.5859C14.3881 18.775 14.5826 18.9177 14.8084 19.0117C15.0341 19.1046 15.2805 19.15 15.5458 19.15C15.8518 19.15 16.1165 19.1105 16.3326 19.0256C16.5377 18.9435 16.7089 18.8464 16.84 18.7316C16.9596 18.6264 17.0544 18.5313 17.1199 18.447L17.1516 18.4064V16.2865H15.3354V17.2248H16.0823V18.0042C16.0633 18.0194 16.0424 18.0364 16.0198 18.055C15.9907 18.0785 15.9418 18.106 15.8659 18.1339C15.8046 18.1565 15.71 18.1715 15.5744 18.1715C15.4463 18.1715 15.3378 18.1492 15.2458 18.1082C15.1578 18.0669 15.0819 18.003 15.0178 17.9123C14.9548 17.8181 14.9028 17.6921 14.8656 17.5294C14.8285 17.3674 14.8089 17.1687 14.8089 16.9311V16.0588C14.8089 15.8242 14.8245 15.6265 14.8542 15.4641C14.8837 15.3024 14.9286 15.1786 14.9841 15.0873L14.9848 15.0862C15.0398 14.9941 15.1065 14.9318 15.1842 14.8926C15.2647 14.852 15.3675 14.8285 15.4981 14.8285C15.6432 14.8285 15.7476 14.8563 15.8213 14.9006C15.8939 14.9442 15.9542 15.0133 15.999 15.1183L16.0002 15.1211C16.0479 15.227 16.0826 15.3745 16.0987 15.5698L16.1101 15.7075H17.1604L17.1513 15.5489C17.1314 15.2003 17.0603 14.8963 16.9325 14.6419C16.8052 14.382 16.6178 14.1826 16.3713 14.049C16.1271 13.9132 15.8302 13.85 15.4885 13.85ZM9.7453 13.9168H8.67608V17.4692C8.67608 17.6407 8.65508 17.7777 8.61777 17.8842C8.57966 17.993 8.53117 18.0644 8.47861 18.1096C8.42794 18.151 8.37103 18.1715 8.30161 18.1715C8.22741 18.1715 8.16523 18.1535 8.11086 18.1194C8.06441 18.087 8.01985 18.0317 7.98374 17.9397C7.94846 17.8476 7.92714 17.7154 7.92714 17.5361V17.3861H6.85156V17.5361C6.85156 17.8838 6.91023 18.1836 7.03693 18.4274C7.16157 18.6673 7.3353 18.8518 7.55877 18.9744L7.56054 18.9753C7.78179 19.0929 8.03001 19.15 8.30161 19.15C8.57499 19.15 8.82414 19.0833 9.04472 18.9471C9.26611 18.8105 9.43817 18.6138 9.56157 18.364C9.68622 18.1093 9.7453 17.8093 9.7453 17.4692V13.9168ZM11.9046 13.9168H10.2257V19.0831H11.2949V17.2783H11.9046C12.2294 17.2783 12.5164 17.2142 12.7595 17.0789L12.7605 17.0783C13.0027 16.941 13.1886 16.7453 13.3161 16.4944C13.4436 16.2438 13.5041 15.9498 13.5041 15.6176C13.5041 15.2976 13.4431 15.0081 13.317 14.7526C13.1905 14.494 13.0062 14.2887 12.7655 14.1398C12.5212 13.9887 12.232 13.9168 11.9046 13.9168ZM11.9046 16.2998H11.2949V14.8986H11.9046C12.0397 14.8986 12.1316 14.9328 12.1955 14.9868C12.2698 15.0497 12.3263 15.1335 12.363 15.2439L12.3637 15.2459C12.4044 15.3626 12.4253 15.4884 12.4253 15.6243C12.4253 15.7679 12.4041 15.8911 12.3648 15.9963L12.3641 15.9984C12.329 16.0968 12.2746 16.1689 12.2019 16.2209L12.2007 16.2218C12.1359 16.2692 12.0417 16.2998 11.9046 16.2998Z" fill="#0097B9"/>
</svg>
