<svg width="24" height="24" viewBox="0 0 24 24" fill="none" xmlns="http://www.w3.org/2000/svg">
<path d="M19.6509 8.84013L12.9098 2.09904C12.8967 2.08601 12.8801 2.07714 12.8619 2.07356C12.8438 2.06997 12.825 2.07183 12.8079 2.07889C12.7908 2.08595 12.7762 2.09791 12.7659 2.11326C12.7556 2.1286 12.7501 2.14665 12.75 2.16513V8.24998C12.75 8.44889 12.829 8.63966 12.9697 8.78031C13.1103 8.92096 13.3011 8.99998 13.5 8.99998H19.5848C19.6033 8.9999 19.6214 8.99436 19.6367 8.98405C19.6521 8.97375 19.664 8.95913 19.6711 8.94205C19.6781 8.92497 19.68 8.90618 19.6764 8.88805C19.6728 8.86991 19.664 8.85324 19.6509 8.84013Z" fill="#0097B9"/>
<path fill-rule="evenodd" clip-rule="evenodd" d="M13.5 10.5H20.0625C20.1122 10.5 20.1599 10.5198 20.1951 10.5549C20.2302 10.5901 20.25 10.6378 20.25 10.6875V19.5C20.25 20.2957 19.9339 21.0587 19.3713 21.6213C18.8087 22.1839 18.0456 22.5 17.25 22.5H6.75C5.95435 22.5 5.19129 22.1839 4.62868 21.6213C4.06607 21.0587 3.75 20.2957 3.75 19.5V4.5C3.75 3.70435 4.06607 2.94129 4.62868 2.37868C5.19129 1.81607 5.95435 1.5 6.75 1.5H11.0625C11.1122 1.5 11.1599 1.51975 11.1951 1.55492C11.2302 1.59008 11.25 1.63777 11.25 1.6875V8.25C11.25 8.84674 11.4871 9.41903 11.909 9.84099C12.331 10.2629 12.9033 10.5 13.5 10.5ZM11.2768 19.4586C11.5614 19.0976 11.7037 18.5907 11.7037 17.9378V17.1056C11.6996 16.4394 11.5542 15.9225 11.2676 15.5548C10.981 15.1849 10.5889 15 10.0915 15C9.5858 15 9.19069 15.1883 8.90612 15.5648C8.62155 15.9392 8.47927 16.4606 8.47927 17.129V17.9612C8.48337 18.6052 8.62872 19.1065 8.91533 19.4652C9.20194 19.8217 9.59604 20 10.0976 20C10.6012 20 10.9943 19.8195 11.2768 19.4586ZM10.6258 16.143C10.7404 16.357 10.7978 16.6834 10.7978 17.1223V17.9679C10.7957 18.3824 10.7374 18.6887 10.6227 18.887C10.5081 19.0831 10.333 19.1812 10.0976 19.1812C9.85399 19.1812 9.67383 19.0809 9.55714 18.8803C9.44045 18.6776 9.3821 18.3634 9.3821 17.9378V17.0722C9.3862 16.6511 9.44557 16.338 9.56021 16.133C9.67486 15.9258 9.85194 15.8222 10.0915 15.8222C10.333 15.8222 10.5112 15.9291 10.6258 16.143ZM5 15.0668V19.9332H6.15771C6.70227 19.9332 7.12912 19.7516 7.43825 19.3884C7.74943 19.0229 7.90502 18.5205 7.90502 17.881V17.0922C7.89888 16.4639 7.74022 15.9693 7.42904 15.6083C7.11991 15.2473 6.70432 15.0668 6.18228 15.0668H5ZM5.90283 19.1176V15.8857H6.23141C6.51188 15.8946 6.71046 15.9893 6.82716 16.1698C6.94385 16.348 7.00219 16.6644 7.00219 17.119V17.9646C6.99605 18.3879 6.93156 18.6865 6.80873 18.8603C6.6859 19.0319 6.47401 19.1176 6.17306 19.1176H5.90283ZM15.3825 18.3122C15.36 18.867 15.2167 19.287 14.9526 19.5722C14.6885 19.8574 14.3159 20 13.8348 20C13.3292 20 12.9412 19.8195 12.671 19.4586C12.4028 19.0954 12.2687 18.5784 12.2687 17.9078V17.0889C12.2687 16.4205 12.4079 15.9057 12.6863 15.5448C12.9648 15.1816 13.3517 15 13.8471 15C14.3344 15 14.7039 15.1482 14.9557 15.4445C15.2095 15.7409 15.3539 16.1664 15.3887 16.7213H14.4828C14.4746 16.3781 14.4255 16.1419 14.3354 16.0127C14.2473 15.8812 14.0846 15.8155 13.8471 15.8155C13.6055 15.8155 13.4346 15.908 13.3343 16.0929C13.234 16.2756 13.1807 16.5775 13.1746 16.9987V17.9178C13.1746 18.4013 13.2237 18.7333 13.322 18.9138C13.4223 19.0943 13.5933 19.1845 13.8348 19.1845C14.0723 19.1845 14.2361 19.1221 14.3262 18.9973C14.4162 18.8703 14.4674 18.6419 14.4797 18.3122H15.3825ZM17.9406 15.0668L17.3387 16.738L16.7368 15.0668H15.7019L16.7552 17.4799L15.6804 19.9332H16.7276L17.3387 18.232L17.9528 19.9332H19L17.9252 17.4799L18.9754 15.0668H17.9406Z" fill="#0097B9"/>
</svg>
