<svg width="24" height="25" viewBox="0 0 24 25" fill="none" xmlns="http://www.w3.org/2000/svg">
<path fill-rule="evenodd" clip-rule="evenodd" d="M12 3.50879C9.15729 3.50879 6.25 5.93852 6.25 9.65534C6.25 12.4372 7.38582 15.1464 8.72797 17.3661C9.93645 19.3648 11.2793 20.9128 12 21.6842C12.7207 20.9128 14.0636 19.3648 15.272 17.3661C16.6142 15.1464 17.75 12.4372 17.75 9.65534C17.75 5.93852 14.8427 3.50879 12 3.50879ZM4.75 9.65534C4.75 5.0963 8.34271 2.00879 12 2.00879C15.6573 2.00879 19.25 5.0963 19.25 9.65534C19.25 12.825 17.9655 15.8105 16.5556 18.1423C15.1405 20.4827 13.5581 22.2316 12.8731 22.9434C12.3928 23.4425 11.6072 23.4425 11.1269 22.9434C10.4419 22.2316 8.8595 20.4827 7.44436 18.1423C6.03452 15.8105 4.75 12.825 4.75 9.65534Z" fill="white"/>
<path fill-rule="evenodd" clip-rule="evenodd" d="M12.3327 22.4233C13.6593 21.0448 18.5 15.6069 18.5 9.65534C18.5 5.51741 15.25 2.75879 12 2.75879C8.75 2.75879 5.5 5.51741 5.5 9.65534C5.5 15.6069 10.3407 21.0448 11.6673 22.4233C11.8526 22.6159 12.1474 22.6159 12.3327 22.4233ZM12 12.7373C13.1046 12.7373 14 11.8419 14 10.7373C14 9.63274 13.1046 8.7373 12 8.7373C10.8954 8.7373 10 9.63274 10 10.7373C10 11.8419 10.8954 12.7373 12 12.7373Z" fill="white"/>
</svg>
