<svg width="66" height="69" viewBox="0 0 66 69" fill="none" xmlns="http://www.w3.org/2000/svg">
<circle opacity="0.5" cx="40.5" cy="37" r="18" fill="#0097B9"/>
<path d="M32.3962 57.3042C23.0791 57.3384 15.4061 51.8578 12.3232 43.0202C12.0492 42.2323 11.7066 41.787 10.816 41.5815C8.24697 41.0677 6.5 38.7041 6.5 36.135C6.53425 33.5317 8.31548 31.2367 10.8845 30.6886C11.6724 30.5173 12.0149 30.2091 12.2547 29.4897C15.3376 20.5151 23.0791 14.9659 32.4647 15.0002C41.7819 15.0344 49.4891 20.5836 52.5377 29.4897C52.8118 30.2433 53.1201 30.5516 53.9079 30.6544C56.5797 31.0312 58.4295 33.2577 58.498 35.998C58.5665 38.8754 56.888 41.1704 54.1477 41.65C53.1201 41.8213 52.7775 42.3008 52.4692 43.1914C49.3863 51.8578 41.6449 57.3042 32.3962 57.3042ZM32.91 17.1239C32.91 17.1582 32.8758 17.2267 32.91 17.2609C33.0471 17.4322 33.1841 17.5692 33.3553 17.7405C36.1299 20.2411 39.2813 22.0565 42.8095 23.2212C43.2206 23.3582 43.7001 23.3925 44.0084 23.6322C44.3167 23.9063 44.6935 24.4886 44.5565 24.7284C44.3852 25.0709 43.8714 25.3449 43.4261 25.482C43.1863 25.5505 42.8438 25.3792 42.5697 25.2764C37.9454 23.872 33.9719 21.4057 30.5808 17.946C30.2725 17.6377 29.7929 17.2267 29.4504 17.2952C27.8062 17.6035 26.2305 18.083 24.3465 18.5626C27.6006 21.8853 31.1631 23.735 35.3078 24.4886C36.0614 24.6256 36.9863 24.7284 36.815 25.7903C36.6438 26.8864 35.6846 26.6466 34.9653 26.5096C31.4029 25.893 28.183 24.4886 25.3741 22.2278C24.415 21.4742 23.5244 20.6179 22.5995 19.7958C15.2006 23.8035 10.9531 33.3604 14.5498 42.9859C18.0779 52.5086 27.9089 57.3727 37.8084 54.5638C47.5709 51.7892 53.1201 42.4378 51.0991 32.1273C49.2493 22.7074 41.1311 17.0897 32.91 17.1239ZM53.5311 39.5262C55.1753 39.3892 56.4085 38.0875 56.477 36.3748C56.5797 34.4566 55.4494 33.0864 53.5311 32.7096C53.5311 34.9704 53.5311 37.2654 53.5311 39.5262ZM11.3299 39.5262C11.2613 38.3958 11.1243 37.2997 11.1243 36.2036C11.1243 35.0732 11.2613 33.9085 11.3299 32.7439C9.54863 33.2234 8.48675 34.5936 8.55526 36.2721C8.62376 37.9163 9.68565 39.1837 11.3299 39.5262Z" fill="#50398C"/>
<path d="M32.1908 47.7476C29.9642 47.5764 27.9775 46.6515 26.5731 44.6647C26.299 44.288 26.2648 43.3631 26.5388 43.0205C27.0526 42.404 27.6349 42.8493 28.1145 43.3973C30.8206 46.446 34.0405 46.446 36.6096 43.3973C37.0891 42.8493 37.5687 42.4725 38.2195 42.9863C38.8703 43.5001 38.6306 44.0824 38.2195 44.6647C37.0549 46.446 34.5201 47.7819 32.1908 47.7476Z" fill="#50398C"/>
<path d="M24.8254 28.7702C26.7779 28.7359 28.5591 30.1061 28.7646 31.9216C28.8331 32.4011 28.5248 33.1547 28.1823 33.3602C27.4972 33.737 26.9834 33.2232 26.8121 32.4696C26.5723 31.4762 25.99 30.8939 24.9624 30.8597C23.8663 30.8254 23.3524 31.5105 22.9414 32.4696C22.7701 32.8807 22.1535 33.1205 21.7082 33.4287C21.4685 32.9149 20.9889 32.3669 21.0574 31.9216C21.2972 30.0718 22.9414 28.8044 24.8254 28.7702Z" fill="#50398C"/>
<path d="M39.9999 28.7705C41.8496 28.7705 43.6651 30.2434 43.8363 32.0589C43.8706 32.5042 43.391 32.9838 43.117 33.4633C42.7059 33.1893 42.0551 32.9838 41.9181 32.6412C41.5755 31.5794 41.0275 30.8943 39.8628 30.8943C38.7667 30.9285 38.2871 31.6136 37.9103 32.607C37.7733 32.9838 37.054 33.1551 36.6087 33.4291C36.4032 32.9838 35.9578 32.5042 35.9921 32.0589C36.2319 30.2434 38.0816 28.7705 39.9999 28.7705Z" fill="#50398C"/>
<circle cx="58" cy="18.5" r="2.5" fill="#DF3577"/>
<path d="M42.6717 6.40998C43.5117 6.10014 43.817 5.47976 43.8548 4.70412C43.957 3.5808 43.9736 2.46278 44.0758 1.33946C44.1402 0.991783 44.4507 0.456999 44.7075 0.44108C45.0499 0.419853 45.4937 0.6501 45.6862 0.981858C45.9801 1.56509 46.1884 2.15363 46.4021 2.82776C46.696 3.41099 46.9846 3.90863 47.2891 4.66304C48.3806 4.25169 49.3062 3.93654 50.2318 3.62138C50.8204 3.41305 51.3983 3.03354 51.8687 3.69175C52.43 4.43024 51.7718 4.90066 51.3704 5.35516C50.6531 6.25885 49.8336 8.02525 49.8336 8.02525L49.7003 9.95246L50.8015 13.2628C50.8015 13.2628 51.122 14.274 50.619 14.477C50.619 14.477 49.7578 14.4445 49.3995 14.209C48.4958 13.4917 47.5471 12.9815 46.5472 12.0983C46.0011 12.9914 45.53 13.708 45.1445 14.4193C44.9089 14.7776 44.7643 15.2161 44.5234 15.4888C44.2773 15.6759 43.8652 15.9592 43.6887 15.8843C43.4266 15.8146 43.1433 15.4025 43.1274 15.1458C43.1546 14.1989 43.353 13.2415 43.4658 12.2894C43.5249 11.8561 43.5787 11.3372 43.6271 10.7328C42.75 10.4435 41.8728 10.1542 40.9903 9.77926C40.4556 9.46873 39.8511 9.42028 39.4875 9.09913C38.7709 8.62803 38.8141 7.93798 39.4776 7.55315C40.2267 7.16302 41.1576 6.93346 41.9976 6.62362C42.1044 6.96069 42.2112 7.29775 42.3181 7.63482C42.4037 7.62951 42.4892 7.6242 42.5748 7.6189C42.6339 7.18563 42.6983 6.83795 42.6717 6.40998ZM43.7088 7.89228C43.6232 7.89759 43.5323 7.8173 43.4467 7.82261L43.3664 7.91351C43.4573 7.9938 43.4626 8.07939 43.5482 8.07408C43.5429 7.98849 43.6232 7.89759 43.7088 7.89228Z" fill="#F2BF5C"/>
</svg>
