<svg width="33" height="32" viewBox="0 0 33 32" fill="none" xmlns="http://www.w3.org/2000/svg">
<path d="M14.1339 31.8829C14.0436 31.8501 13.945 31.809 13.8547 31.7844C12.9431 31.4969 12.319 30.7085 12.2862 29.7641C12.2697 29.3371 12.2615 28.9018 12.3108 28.4748C12.4093 27.6043 13.1402 26.8488 14.0107 26.6599C14.1093 26.6352 14.2078 26.6188 14.3228 26.5942C14.4214 25.3541 14.6595 24.1469 15.2097 23.0382C15.6286 22.1924 16.1213 21.3629 16.6633 20.591C17.7145 19.0963 18.1826 17.4375 18.2647 15.639C18.2647 15.5815 18.2647 15.5158 18.2647 15.4583C18.2647 15.4419 18.2483 15.4254 18.2237 15.368C18.0266 15.368 17.813 15.368 17.5995 15.368C16.2034 15.3597 15.1522 14.325 15.1605 12.9864C15.1687 11.656 16.2116 10.6377 17.5913 10.6212C17.6652 10.6212 17.7309 10.6212 17.8705 10.6212C17.1889 9.63576 16.9097 8.57638 17.1232 7.42665C17.3367 6.26872 17.9526 5.36536 18.9463 4.73302C20.4656 3.75575 22.4694 3.92821 23.8162 5.14363C24.5964 5.84989 25.0399 6.72861 25.1384 7.77157C25.237 8.79811 24.966 9.73431 24.3336 10.6212C25.2123 10.572 25.935 10.8183 26.4852 11.4671C26.863 11.9106 27.0519 12.4362 27.0519 13.0192C27.0519 13.5202 26.8959 13.9883 26.6002 14.3989C26.3046 14.8095 25.9186 15.1298 25.4258 15.2448C24.9495 15.3515 24.4568 15.3762 23.9066 15.4419C23.9805 16.0414 24.038 16.6655 24.1365 17.2896C24.3418 18.5215 24.8428 19.6384 25.5819 20.6403C26.6084 22.0199 27.364 23.531 27.6924 25.2309C27.7746 25.6826 27.8321 26.1425 27.906 26.6106C28.0291 26.6435 28.1688 26.6681 28.3084 26.7092C29.2117 26.9719 29.8441 27.7357 29.9262 28.7047C29.959 29.1154 29.959 29.526 29.9098 29.9284C29.7866 30.9221 29.146 31.6119 28.177 31.8501C28.1277 31.8583 28.0866 31.8911 28.0374 31.9075C23.3974 31.8829 18.7657 31.8829 14.1339 31.8829ZM26.3046 26.586C26.206 26.0604 26.1403 25.5759 26.0253 25.0995C25.7133 23.7445 25.0399 22.5784 24.2268 21.4697C23.2742 20.1639 22.6994 18.7022 22.4941 17.0925C22.4201 16.5259 22.3709 15.9592 22.3052 15.3844C21.4921 15.3844 20.6873 15.3844 19.8743 15.3844C19.8661 15.4747 19.8579 15.5486 19.8579 15.6225C19.7676 17.8809 19.1352 19.9422 17.7802 21.7818C17.3121 22.4141 16.9343 23.1368 16.5976 23.8513C16.187 24.7053 16.0063 25.6251 15.9324 26.586C19.3734 26.586 22.7979 26.586 26.3046 26.586ZM21.0815 28.1956C20.8598 28.1956 20.6299 28.1956 20.4081 28.1956C18.47 28.1956 16.5319 28.1956 14.5938 28.1956C14.1093 28.1956 13.8793 28.4255 13.8629 28.91C13.8547 29.0825 13.8629 29.255 13.8629 29.4356C13.8629 30.0926 14.0682 30.2897 14.7252 30.2897C18.6096 30.2897 22.4941 30.2897 26.3785 30.2897C26.8055 30.2897 27.2408 30.2979 27.6678 30.2897C28.0538 30.2815 28.3002 30.0351 28.3248 29.6574C28.3412 29.4438 28.333 29.2303 28.333 29.0086C28.333 28.4173 28.1031 28.1956 27.5118 28.1956C25.3684 28.1956 23.2249 28.1956 21.0815 28.1956ZM23.5534 8.15755C23.5534 6.79431 22.4612 5.70207 21.098 5.69386C19.7429 5.69386 18.6343 6.80252 18.6425 8.15755C18.6507 9.51258 19.7594 10.613 21.1226 10.6048C22.4612 10.5966 23.5534 9.49616 23.5534 8.15755ZM21.0733 13.7666C22.2641 13.7666 23.4467 13.7748 24.6375 13.7666C25.1384 13.7666 25.4669 13.4298 25.4587 12.97C25.4505 12.5265 25.1138 12.2144 24.6293 12.2144C24.1283 12.2062 23.6273 12.2144 23.1264 12.2144C21.2951 12.2144 19.4555 12.2144 17.6242 12.2144C17.2464 12.2144 16.959 12.3376 16.8029 12.6907C16.5648 13.2245 16.9507 13.7666 17.5749 13.7748C18.7328 13.7748 19.9072 13.7666 21.0733 13.7666Z" fill="#DF3577"/>
<path d="M6.15245 22.9068C6.79301 22.9068 7.40894 22.9068 8.01665 22.9068C9.50308 22.9068 10.9895 22.9068 12.4759 22.9068C12.9605 22.9068 13.2889 23.1778 13.3464 23.5966C13.4121 24.0894 13.059 24.4918 12.5334 24.5C11.7532 24.5082 10.9731 24.5 10.1929 24.5C8.61615 24.5 7.03938 24.5 5.45441 24.5C4.88776 24.5 4.66603 24.7299 4.65781 25.3048C4.65781 25.4608 4.65781 25.6087 4.65781 25.7647C4.65781 26.356 4.88776 26.5859 5.47083 26.5859C7.03938 26.5859 8.60793 26.5859 10.1765 26.5859C10.5953 26.5859 10.8663 26.7666 10.9977 27.1033C11.1866 27.6125 10.8417 28.1627 10.2832 28.1709C8.55866 28.1873 6.84229 28.2037 5.1177 28.1627C4.07474 28.138 3.22887 27.3004 3.10569 26.2574C3.0482 25.7975 3.05642 25.313 3.09748 24.8531C3.17139 24.073 3.60664 23.5145 4.28826 23.1368C4.38681 23.0793 4.50999 22.9397 4.50999 22.8329C4.61675 20.4103 5.49547 18.2997 7.08866 16.4684C7.53212 15.9592 7.95095 15.4254 8.35335 14.8834C8.96928 14.0622 9.37168 13.1424 9.55235 12.0994C9.17458 12.2144 8.81324 12.3786 8.44369 12.4279C7.75385 12.51 7.05581 12.51 6.36597 12.5757C6.16067 12.5921 5.92251 12.6661 5.76648 12.7975C4.75636 13.6351 3.31921 13.5776 2.42407 12.6496C1.52893 11.7134 1.53714 10.2763 2.44049 9.31544C2.80183 8.93767 3.19602 8.58454 3.50809 8.17393C3.82837 7.7551 4.09938 7.287 4.32111 6.81068C4.89597 5.59526 5.68435 4.56872 6.75195 3.76392C6.94905 3.6161 7.00653 3.46006 7.00653 3.23012C6.99011 2.57313 6.99832 1.91615 7.00653 1.25916C7.01475 0.750001 7.33503 0.38866 7.81955 0.413297C9.37989 0.487207 10.817 0.914247 11.8354 2.16252C12.2706 2.69632 12.7387 3.04123 13.3793 3.2876C14.4469 3.69822 15.2763 4.45375 15.8676 5.43923C16.1304 5.88269 16.0319 6.35901 15.6459 6.59716C15.2517 6.84353 14.7918 6.72035 14.5126 6.27688C13.9131 5.30783 13.0508 4.71655 11.9503 4.47018C11.4905 4.37163 11.203 4.14168 10.9977 3.71464C10.5296 2.7538 9.6509 2.33498 8.61615 2.09682C8.61615 2.69632 8.59972 3.25476 8.62436 3.81319C8.64078 4.24023 8.46833 4.51945 8.1152 4.75761C7.13793 5.38996 6.3824 6.23582 5.9143 7.30342C5.4462 8.37923 4.79742 9.32365 3.94334 10.1285C3.82016 10.2434 3.68876 10.3666 3.582 10.5062C3.311 10.8347 3.32742 11.27 3.61485 11.5738C3.89407 11.8695 4.37038 11.9516 4.66603 11.6642C5.28195 11.0647 6.02106 10.9415 6.82586 10.9907C8.0495 11.0729 9.12531 10.728 10.0205 9.85745C10.2586 9.61929 10.5707 9.60287 10.8745 9.74248C11.1948 9.89851 11.318 10.1613 11.3262 10.5144C11.3508 12.8385 10.5953 14.867 9.08425 16.6326C8.5833 17.2157 8.09877 17.8152 7.64709 18.4311C6.60413 19.8108 6.20994 21.33 6.15245 22.9068Z" fill="#DF3577"/>
</svg>
