<svg width="33" height="32" viewBox="0 0 33 32" fill="none" xmlns="http://www.w3.org/2000/svg">
<g id="Frame" clip-path="url(#clip0_7228_4625)">
<path id="Vector" d="M0.5 31.9664C0.5 30.1126 0.5 28.2921 0.5 26.4884C0.5 26.3547 0.583507 26.2211 0.650313 26.1042C0.717119 26.004 0.834029 25.9372 0.900835 25.837C3.50626 22.7305 6.79645 21.361 10.8549 21.6616C12.809 21.8119 14.763 21.7451 16.7171 21.6616C18.6044 21.5781 20.1743 22.7138 20.0407 25.0186C20.2745 24.9518 20.4749 24.9017 20.6754 24.8349C23.2975 23.9163 25.9363 22.981 28.5585 22.0625C30.1785 21.4946 31.6482 22.0792 32.2662 23.5155C32.8674 24.9518 32.2662 26.4382 30.7463 27.1898C27.5898 28.7263 24.4332 30.2629 21.2766 31.7994C21.0595 31.8996 20.809 31.9831 20.5752 31.9831C13.9948 31.9998 7.4144 31.9831 0.834029 31.9831C0.73382 31.9998 0.667015 31.9831 0.5 31.9664ZM2.37056 30.0959C2.55428 30.1126 2.65449 30.1126 2.7547 30.1126C8.5167 30.1126 14.2954 30.1126 20.0574 30.1126C20.3413 30.1126 20.6253 30.0124 20.8758 29.8954C23.8152 28.4758 26.7547 27.0395 29.6775 25.6199C29.8612 25.5364 30.1284 25.4696 30.2119 25.3193C30.3789 25.0186 30.5459 24.6512 30.5125 24.3339C30.4624 23.8996 30.0616 23.6992 29.6106 23.7493C29.3935 23.766 29.1597 23.8495 28.9426 23.9163C25.8862 24.9852 22.8299 26.0708 19.7568 27.1397C19.4228 27.2566 19.072 27.3234 18.7213 27.3234C16.4499 27.3401 14.1785 27.3401 11.9071 27.3234C11.69 27.3234 11.4729 27.29 11.2557 27.29C11.2557 26.6554 11.2557 26.1042 11.2557 25.4529C11.9906 25.4529 12.6921 25.4529 13.3935 25.4529C14.6294 25.4529 15.8486 25.4696 17.0846 25.4529C17.7359 25.4362 18.12 25.0854 18.12 24.5343C18.12 23.9664 17.7526 23.6324 17.1013 23.599C16.9342 23.599 16.7672 23.599 16.6002 23.599C14.2453 23.599 11.8904 23.6658 9.53549 23.5823C6.59603 23.4821 4.37474 24.7514 2.52088 26.8892C2.42067 27.0061 2.35386 27.1731 2.35386 27.3234C2.37056 28.2086 2.37056 29.1272 2.37056 30.0959Z" fill="#DF3577"/>
<path id="Vector_2" d="M16.4516 19.6238C15.7501 19.6238 15.032 19.6071 14.3305 19.6405C13.9798 19.6572 13.8295 19.5069 13.6625 19.2229C12.9276 17.9703 12.5435 16.6509 12.7105 15.1812C12.8107 14.2793 12.4265 13.5946 11.7251 13.01C9.05285 10.7219 8.33469 6.96407 10.0048 3.891C11.675 0.817936 15.2491 -0.685195 18.5727 0.300191C21.913 1.28558 24.1176 4.44215 23.8503 7.94946C23.7 9.95363 22.865 11.6405 21.3284 12.9432C20.5602 13.5946 20.1426 14.3461 20.2762 15.3315C20.4599 16.7845 20.009 18.0705 19.2574 19.2898C19.1572 19.4568 18.89 19.6071 18.7063 19.6238C17.9547 19.6405 17.2032 19.6238 16.4516 19.6238ZM16.4516 13.8618C17.0194 13.8618 17.5706 13.8785 18.1384 13.8451C18.3055 13.8284 18.5393 13.6948 18.5894 13.5611C18.89 12.7094 19.4579 12.0747 20.1426 11.4902C21.295 10.4881 21.913 9.20207 21.9965 7.66553C22.1301 5.04341 20.4599 2.75531 17.938 2.07055C15.4829 1.40249 12.8441 2.53819 11.6416 4.82629C10.4224 7.11439 10.9735 9.87013 12.9777 11.6071C13.3451 11.9244 13.8462 12.2751 13.9631 12.7094C14.2971 13.9453 15.1656 13.962 16.151 13.8618C16.2512 13.8451 16.3514 13.8618 16.4516 13.8618ZM14.6311 15.7824C14.6144 15.9662 14.6144 16.0998 14.6144 16.2167C14.5977 17.4526 14.8817 17.7532 16.0842 17.7532C16.4516 17.7532 16.8357 17.7532 17.2032 17.7532C17.9547 17.7532 18.3055 17.4359 18.3723 16.6676C18.4057 16.3837 18.3723 16.0998 18.3723 15.7824C17.1197 15.7824 15.9004 15.7824 14.6311 15.7824Z" fill="#DF3577"/>
</g>
<defs>
<clipPath id="clip0_7228_4625">
<rect width="32" height="32" fill="white" transform="translate(0.5)"/>
</clipPath>
</defs>
</svg>
