<svg width="24" height="24" viewBox="0 0 24 24" fill="none" xmlns="http://www.w3.org/2000/svg">
<path d="M19.6509 8.84013L12.9098 2.09904C12.8967 2.08601 12.8801 2.07714 12.8619 2.07356C12.8438 2.06997 12.825 2.07183 12.8079 2.07889C12.7908 2.08595 12.7762 2.09791 12.7659 2.11326C12.7556 2.1286 12.7501 2.14665 12.75 2.16513V8.24998C12.75 8.44889 12.829 8.63966 12.9697 8.78031C13.1103 8.92096 13.3011 8.99998 13.5 8.99998H19.5848C19.6033 8.9999 19.6214 8.99436 19.6367 8.98405C19.6521 8.97375 19.664 8.95913 19.6711 8.94205C19.6781 8.92497 19.68 8.90618 19.6764 8.88805C19.6728 8.86991 19.664 8.85324 19.6509 8.84013Z" fill="#0097B9"/>
<path fill-rule="evenodd" clip-rule="evenodd" d="M13.5 10.5H20.0625C20.1122 10.5 20.1599 10.5198 20.1951 10.5549C20.2302 10.5901 20.25 10.6378 20.25 10.6875V19.5C20.25 20.2956 19.9339 21.0587 19.3713 21.6213C18.8087 22.1839 18.0456 22.5 17.25 22.5H6.75C5.95435 22.5 5.19129 22.1839 4.62868 21.6213C4.06607 21.0587 3.75 20.2956 3.75 19.5V4.5C3.75 3.70435 4.06607 2.94129 4.62868 2.37868C5.19129 1.81607 5.95435 1.5 6.75 1.5H11.0625C11.1122 1.5 11.1599 1.51975 11.1951 1.55492C11.2302 1.59008 11.25 1.63777 11.25 1.6875V8.25C11.25 8.84674 11.4871 9.41903 11.909 9.84099C12.331 10.2629 12.9033 10.5 13.5 10.5ZM16.621 18.0511C16.7368 18.1644 16.7947 18.3331 16.7947 18.5572C16.7947 18.9676 16.6009 19.1729 16.2131 19.1729C15.9336 19.1729 15.7322 19.1011 15.6088 18.9576C15.4854 18.8141 15.4237 18.5837 15.4237 18.2664H14.3095C14.3095 18.6365 14.3914 18.9576 14.555 19.2295C14.7212 19.5014 14.9504 19.7104 15.2424 19.8565C15.5345 20.0025 15.8581 20.0755 16.2131 20.0755C16.7368 20.0755 17.151 19.9408 17.4557 19.6714C17.7604 19.402 17.9127 19.0281 17.9127 18.5497C17.9127 18.1141 17.7906 17.7553 17.5463 17.4733C17.3046 17.1912 16.9156 16.9533 16.3793 16.7594C16.0721 16.6285 15.8581 16.5026 15.7372 16.3817C15.6163 16.2583 15.5559 16.1211 15.5559 15.97C15.5559 15.7762 15.6101 15.6226 15.7183 15.5093C15.8266 15.3934 15.9777 15.3355 16.1716 15.3355C16.378 15.3355 16.5354 15.4035 16.6437 15.5395C16.7545 15.6729 16.8098 15.8681 16.8098 16.1249H17.9165C17.9165 15.795 17.8447 15.5005 17.7012 15.2411C17.5602 14.9818 17.3575 14.7816 17.0931 14.6406C16.8287 14.4971 16.5278 14.4253 16.1904 14.4253C15.6843 14.4253 15.2664 14.5663 14.9365 14.8483C14.6092 15.1278 14.4455 15.4992 14.4455 15.9625C14.4455 16.3452 14.5664 16.6776 14.8081 16.9596C15.0498 17.2391 15.4464 17.4833 15.9978 17.6923C16.3 17.8157 16.5077 17.9353 16.621 18.0511ZM8.16453 16.3893L8.9048 14.5008H10.1776L8.88591 17.2278L10.2078 20H8.91991L8.16453 18.0776L7.41292 20H6.125L7.44691 17.2278L6.15144 14.5008H7.42425L8.16453 16.3893ZM11.881 19.0784H13.8299V20H10.7706V14.5008H11.881V19.0784Z" fill="#0097B9"/>
</svg>
