<svg width="65" height="65" viewBox="0 0 65 65" fill="none" xmlns="http://www.w3.org/2000/svg">
<ellipse opacity="0.5" cx="41" cy="24" rx="24" ry="24" transform="rotate(-90 41 24)" fill="#E99500"/>
<path d="M16.3008 45.3407V28.1243C17.5568 27.3236 22.3415 24.822 33.152 24.8281C43.9597 24.8343 48.7458 27.3265 50.0044 28.1256V45.8344C50.0038 45.8361 50.0013 45.8426 49.9941 45.8534C49.9771 45.8783 49.9402 45.917 49.878 45.9516C49.8161 45.986 49.7494 46.0049 49.6921 46.0089C49.6365 46.0128 49.6047 46.0021 49.5906 45.9952C47.0556 44.7449 41.9905 42.9678 33.2002 42.5493C24.6687 42.143 19.5956 44.0167 16.927 45.5585C16.9155 45.5652 16.8733 45.5839 16.7878 45.5814C16.7017 45.5788 16.6 45.5546 16.504 45.5076C16.4071 45.4601 16.3462 45.4045 16.317 45.3659C16.3076 45.3536 16.3029 45.3453 16.3008 45.3407ZM16.2992 45.3364C16.2992 45.3364 16.2996 45.3372 16.2999 45.3386C16.2993 45.3371 16.2991 45.3364 16.2992 45.3364Z" stroke="#2D2C34" stroke-width="2"/>
<path d="M16 37L2.13666 28.9107C1.24152 28.3884 1.31033 27.0731 2.25509 26.647L31.9864 13.2388C32.3227 13.0871 32.7083 13.0885 33.0435 13.2427L62.1999 26.6547C63.1311 27.083 63.2019 28.3792 62.323 28.9066L50.5 36" stroke="#2D2C34" stroke-width="2" stroke-linecap="round"/>
<path d="M16.5 45.5015C19 47.0015 22.7321 49.5015 33 49.5015C43.2679 49.5015 46.7913 47.7995 50 46.0015" stroke="#2D2C34" stroke-width="2" stroke-linecap="round"/>
<circle cx="57" cy="15" r="2" fill="#DF3577"/>
<path d="M45.6769 4.51752C46.5476 4.45924 46.9433 4.09537 47.1015 3.57871C47.3771 2.83897 47.568 2.08744 47.8436 1.3477C47.9609 1.12462 48.3485 0.819469 48.6023 0.85483C48.9408 0.901978 49.3393 1.13706 49.4758 1.3955C49.6724 1.84188 49.7844 2.27647 49.8882 2.76977C50.0848 3.21615 50.2895 3.60381 50.4697 4.16762C51.6024 4.08598 52.5577 4.03949 53.513 3.993C54.1217 3.95807 54.7467 3.80572 55.1043 4.33438C55.5384 4.93355 54.8206 5.13284 54.3566 5.36749C53.5133 5.84857 52.4352 6.89352 52.4352 6.89352L52.0035 8.17019C52.0035 8.17019 52.1711 9.91136 52.4796 10.7923C52.5998 11.1682 52.6353 11.5323 52.1113 11.579C51.7646 11.5906 51.2733 11.4024 50.9594 11.1791C50.1869 10.5328 49.4225 9.82776 48.5817 9.05222C47.9076 9.55688 47.3345 9.95589 46.846 10.3667C46.5595 10.5662 46.3493 10.8362 46.0709 10.977C45.8007 11.0591 45.3531 11.1763 45.1921 11.094C44.9464 10.9999 44.7335 10.671 44.758 10.4948C44.9326 9.86072 45.2764 9.2502 45.5356 8.62789C45.6611 8.3461 45.7948 8.00558 45.9367 7.60636C45.1233 7.25362 44.3098 6.90089 43.5046 6.48943C43.0296 6.18384 42.4455 6.04262 42.1398 5.76061C41.5119 5.31401 41.662 4.85607 42.3716 4.7155C43.1659 4.58671 44.113 4.59894 44.9837 4.54066C45.0356 4.78731 45.0874 5.03396 45.1393 5.28061C45.224 5.2924 45.3086 5.30419 45.3932 5.31598C45.5187 5.03418 45.636 4.8111 45.6769 4.51752ZM46.4605 5.70407C46.3758 5.69228 46.2994 5.62178 46.2148 5.60999L46.122 5.65692C46.1984 5.72743 46.1903 5.78614 46.2749 5.79793C46.283 5.73921 46.3758 5.69228 46.4605 5.70407Z" fill="#50398C"/>
</svg>
