<svg width="66" height="66" viewBox="0 0 66 66" fill="none" xmlns="http://www.w3.org/2000/svg">
<circle opacity="0.5" cx="40.5" cy="34" r="18" fill="#E99500"/>
<path d="M24.2183 49.181C29.6366 50.395 34.5515 49.8028 39.1112 47.1973C45.8915 43.289 49.4444 37.3378 49.6221 29.4916C49.6813 26.6197 49.3556 23.7477 49.2668 20.8461C49.2372 19.9874 48.8523 19.7506 48.0232 19.7802C37.009 19.869 26.2317 27.4487 22.0273 38.1668C21.1983 40.269 20.7838 42.5488 20.2212 44.7694C20.0436 45.4504 19.8955 46.0722 19.0665 45.9538C18.1783 45.8353 18.0598 45.1247 18.2967 44.4141C19.0369 42.2231 18.4743 40.5651 17.0828 38.6406C11.7533 31.2385 12.4935 20.9941 18.5632 14.1546C19.7771 12.7927 20.8134 12.6446 22.353 13.6809C26.1428 16.2272 28.3634 19.7802 29.074 24.3102C29.1037 24.4583 29.1037 24.6063 29.1333 24.7543C29.1333 24.7839 29.1925 24.7839 29.2813 24.8728C29.5478 24.6655 29.8439 24.4879 30.1103 24.251C35.3806 20.2539 41.3318 18.1221 47.9344 17.826C49.9774 17.7372 50.836 18.359 51.1025 20.3723C51.8131 25.9387 52.1684 31.5346 50.2439 36.9529C46.2171 48.1152 34.3147 54.096 22.9156 50.8687C22.353 50.7207 21.6128 50.8391 21.0798 51.076C19.333 51.8458 17.6157 52.7044 15.8984 53.5334C15.2174 53.8591 14.4772 54.0664 14.1219 53.1485C13.8259 52.2899 14.5068 52.0234 15.1582 51.7273C23.0932 48.4408 29.607 43.3482 34.6996 36.4496C35.5582 35.2948 36.2984 34.0513 37.0978 32.8374C37.5124 32.2156 37.838 31.3866 38.7855 31.9787C39.6441 32.5117 39.1408 33.1927 38.7855 33.8144C35.3214 39.6176 30.8505 44.4734 25.3434 48.352C25.0177 48.5593 24.7513 48.7961 24.2183 49.181ZM23.3005 31.2385C24.4552 29.9062 25.6099 28.6034 26.6758 27.271C26.9719 26.8861 27.2383 26.294 27.2087 25.8202C26.9719 21.5567 25.1362 18.1221 21.7016 15.5462C20.8726 14.9244 20.3693 14.8948 19.6291 15.7831C14.2996 22.1192 14.0035 31.4458 18.9185 38.078C19.0961 38.3149 19.333 38.5517 19.481 38.7294C21.1391 36.2127 21.4944 33.4591 21.2279 30.6167C21.1983 30.2911 21.1983 29.9654 21.1391 29.6101C20.843 27.5375 20.5469 25.4353 20.2212 23.3628C20.1028 22.6522 19.9251 21.8527 20.9022 21.6751C21.7904 21.4974 21.9977 22.2376 22.1161 22.9186C22.2938 23.8661 22.501 24.8136 22.6195 25.761C22.9156 27.5375 23.0932 29.3732 23.3005 31.2385Z" fill="#50398C"/>
<path d="M43.7445 9.41487C43.8952 8.56524 43.5893 8.06272 43.0551 7.73376C42.3024 7.21607 41.5157 6.77493 40.763 6.25723C40.5445 6.0685 40.3018 5.59403 40.4038 5.36438C40.5398 5.05818 40.8992 4.75957 41.2198 4.71866C41.7637 4.68533 42.2736 4.72855 42.8467 4.79981C43.3906 4.76648 43.8714 4.70511 44.5416 4.72787C44.7312 3.62054 44.9159 2.69436 45.1006 1.76818C45.2124 1.17624 45.1979 0.528209 45.873 0.369825C46.6452 0.162938 46.6888 0.915562 46.8344 1.43854C47.1596 2.40794 48.0525 3.79558 48.0525 3.79558L49.3624 4.64716C49.3624 4.64716 51.3359 5.08812 52.3897 5.09801C52.8365 5.11319 53.2493 5.20491 53.1715 5.7203C53.0986 6.05454 52.7683 6.45775 52.4429 6.67981C51.5347 7.1929 50.5633 7.67793 49.4948 8.21148C49.888 9.02778 50.189 9.71144 50.5241 10.3186C50.6746 10.6604 50.9222 10.9537 51.0096 11.2675C51.0338 11.5532 51.0532 12.0201 50.922 12.1452C50.7569 12.3468 50.3392 12.4362 50.1498 12.3521C49.4894 11.967 48.897 11.4289 48.2705 10.9673C47.9889 10.7505 47.6441 10.5057 47.2362 10.2328C46.6436 10.8861 46.051 11.5394 45.3953 12.1647C44.9387 12.5118 44.6376 13.0196 44.249 13.2136C43.5982 13.6577 43.1271 13.3568 43.1467 12.6323C43.2002 11.8311 43.448 10.933 43.5987 10.0834C43.8852 10.119 44.1718 10.1546 44.4583 10.1903C44.4923 10.1137 44.5263 10.0372 44.5603 9.9606C44.2787 9.74383 44.0601 9.5551 43.7445 9.41487ZM45.2549 9.07764C45.2209 9.15419 45.1238 9.2027 45.0898 9.27925L45.1189 9.38384C45.216 9.33534 45.2792 9.36338 45.3132 9.28683C45.25 9.25879 45.2209 9.15419 45.2549 9.07764Z" fill="#F2BF5C"/>
<circle cx="32.5929" cy="9.59697" r="2.5" transform="rotate(-73.9774 32.5929 9.59697)" fill="#0097B9"/>
</svg>
