<svg width="20" height="22" viewBox="0 0 20 22" fill="none" xmlns="http://www.w3.org/2000/svg">
<path id="Rectangle 148 (Stroke)" fill-rule="evenodd" clip-rule="evenodd" d="M3 1.75C2.30964 1.75 1.75 2.30964 1.75 3V19C1.75 19.6904 2.30964 20.25 3 20.25H17C17.6904 20.25 18.25 19.6904 18.25 19V7.31066L12.6893 1.75H3ZM0.25 3C0.25 1.48122 1.48122 0.25 3 0.25H12.7929C13.1244 0.25 13.4424 0.381696 13.6768 0.616117L19.3839 6.32322C19.6183 6.55764 19.75 6.87559 19.75 7.20711V19C19.75 20.5188 18.5188 21.75 17 21.75H3C1.48122 21.75 0.25 20.5188 0.25 19V3Z" fill="#2D2C34"/>
<path id="Vector 358 (Stroke)" fill-rule="evenodd" clip-rule="evenodd" d="M12.25 1.24233C12.25 0.485059 13.1656 0.105819 13.701 0.641288L19.3596 6.29987C19.8951 6.83533 19.5159 7.75091 18.7586 7.75091H13.1C12.6306 7.75091 12.25 7.37035 12.25 6.90091V1.24233ZM13.75 2.81157V6.25091H17.1893L13.75 2.81157Z" fill="#2D2C34"/>
</svg>
