<svg width="62" height="62" viewBox="0 0 62 62" fill="none" xmlns="http://www.w3.org/2000/svg">
<circle cx="31" cy="31" r="31" fill="#F8F7FB"/>
<circle cx="31" cy="31" r="27" fill="#DF3577"/>
<g clip-path="url(#clip0_9048_37573)">
<path d="M36.3756 20.8797C36.3756 22.179 36.3589 23.3784 36.3923 24.5944C36.3923 24.8443 36.526 25.1108 36.6597 25.344C39.9683 31.5741 43.2769 37.8042 46.5855 44.0176C46.7025 44.2342 46.8362 44.4508 46.9197 44.684C47.1704 45.317 46.8027 45.9167 46.1176 45.9999C45.9505 46.0166 45.7834 45.9999 45.6163 45.9999C35.8576 45.9999 26.1155 45.9999 16.3568 45.9999C16.2732 45.9999 16.1897 45.9999 16.1061 45.9999C15.1202 45.9833 14.7192 45.317 15.1871 44.4508C16.3234 42.3352 17.4597 40.2363 18.596 38.1374C20.0832 35.3888 21.5704 32.6569 23.0576 29.9083C23.2748 29.5085 23.5088 29.1421 24.0268 29.1421C24.5782 29.1254 24.8121 29.5085 25.0461 29.925C26.0654 31.8073 27.0847 33.6897 28.1041 35.572C28.2043 35.7553 28.3046 35.9219 28.4383 36.1551C28.5552 35.9552 28.6555 35.7886 28.739 35.6387C30.5772 32.1905 32.4153 28.7423 34.2367 25.2774C34.3871 24.9942 34.4706 24.6444 34.4706 24.3446C34.4873 21.3295 34.4873 18.3144 34.4873 15.2826C34.4873 14.3164 34.7881 14.0166 35.7573 14.0166C38.0466 14.0166 40.3359 14.0166 42.6252 14.0166C43.0931 14.0166 43.4941 14.0666 43.7448 14.5163C44.0121 14.9994 43.7782 15.3826 43.4941 15.7657C43.0764 16.3154 42.6753 16.8651 42.2409 17.4481C42.692 18.0478 43.1766 18.6142 43.561 19.2639C43.7448 19.5637 43.8283 20.0135 43.7448 20.3466C43.6445 20.7964 43.1933 20.913 42.7422 20.8964C40.8706 20.8964 38.9991 20.8964 37.1108 20.8964C36.9103 20.8797 36.6764 20.8797 36.3756 20.8797ZM31.8638 33.7896C30.009 37.2712 28.221 40.6527 26.3996 44.0676C32.4654 44.0676 38.4309 44.0676 44.48 44.0676C42.6586 40.6361 40.8706 37.2712 39.0158 33.7896C36.6262 35.4888 34.2367 35.4721 31.8638 33.7896ZM17.5098 44.1176C19.749 44.1176 21.8377 44.1343 23.9432 44.1009C24.127 44.1009 24.361 43.8677 24.4612 43.6845C25.2967 42.152 26.1155 40.6028 26.9343 39.0702C27.4524 38.0874 27.4189 37.8708 26.6169 36.9547C24.8957 38.2207 23.1578 38.204 21.42 36.9047C20.1166 39.3034 18.8466 41.6522 17.5098 44.1176ZM38.1135 32.1072C37.2445 30.4914 36.3589 28.8256 35.4398 27.0765C34.5041 28.8256 33.6184 30.4914 32.7662 32.0905C34.5375 33.5065 36.292 33.5398 38.1135 32.1072ZM36.409 15.9156C36.409 16.9817 36.409 17.9645 36.409 18.964C37.9464 18.964 39.4336 18.964 40.8873 18.964C40.62 18.431 40.1688 17.9146 40.1855 17.4148C40.1855 16.9151 40.6534 16.4154 40.9208 15.9156C39.4168 15.9156 37.9296 15.9156 36.409 15.9156ZM22.339 35.2056C23.4419 36.205 24.6283 36.355 25.7479 35.1556C25.1965 34.1561 24.645 33.14 24.0602 32.0406C23.4586 33.1566 22.9072 34.1728 22.339 35.2056Z" fill="white"/>
</g>
<defs>
<clipPath id="clip0_9048_37573">
<rect width="32" height="32" fill="white" transform="translate(15 14)"/>
</clipPath>
</defs>
</svg>
