<svg width="24" height="23" viewBox="0 0 24 23" fill="none" xmlns="http://www.w3.org/2000/svg">
<path id="Star 5" d="M11.2158 1.13687C11.3336 0.774081 11.8469 0.774077 11.9648 1.13687L14.1619 7.89893C14.3201 8.38567 14.7736 8.71522 15.2854 8.71522H22.3955C22.7769 8.71522 22.9356 9.20335 22.6269 9.42757L16.8748 13.6068C16.4607 13.9076 16.2875 14.4408 16.4456 14.9275L18.6428 21.6896C18.7606 22.0524 18.3454 22.3541 18.0368 22.1298L12.2847 17.9507C11.8706 17.6498 11.3099 17.6498 10.8959 17.9507L5.14375 22.1298C4.83514 22.3541 4.41991 22.0524 4.53779 21.6896L6.73491 14.9275C6.89306 14.4408 6.71981 13.9076 6.30577 13.6068L0.553617 9.42757C0.245007 9.20335 0.403611 8.71522 0.785076 8.71522H7.89512C8.40691 8.71522 8.86049 8.38567 9.01864 7.89893L11.2158 1.13687Z" stroke="#E99500" stroke-width="0.78756"/>
</svg>
