<svg width="67" height="65" viewBox="0 0 67 65" fill="none" xmlns="http://www.w3.org/2000/svg">
<circle opacity="0.5" cx="43" cy="24" r="24" transform="rotate(-90 43 24)" fill="#0097B9"/>
<path d="M56.7527 18.1671C57.6109 18.0774 58.0095 17.6447 58.1782 17.0404C58.468 16.1741 58.6749 15.2962 58.9647 14.4299C59.0858 14.1678 59.4749 13.8035 59.7237 13.8381C60.0556 13.8844 60.4418 14.1474 60.5696 14.4442C60.7518 14.9578 60.851 15.4599 60.9407 16.0303C61.1228 16.5439 61.3145 16.9891 61.4776 17.6396C62.5943 17.5161 63.5355 17.438 64.4766 17.3599C65.0764 17.3039 65.6953 17.1111 66.0339 17.7163C66.4458 18.4014 65.7345 18.651 65.272 18.9353C64.4301 19.5155 63.3428 20.7567 63.3428 20.7567L62.8858 22.2507C62.8858 22.2507 63.0067 24.2693 63.2881 25.2849C63.3968 25.7186 63.4226 26.1406 62.9058 26.2081C62.5644 26.2303 62.0857 26.0242 61.7824 25.7727C61.0386 25.0413 60.3042 24.2416 59.4965 23.3618C58.8205 23.9651 58.2464 24.4431 57.7554 24.9327C57.4684 25.1717 57.2548 25.4907 56.9773 25.6613C56.7094 25.7634 56.266 25.9109 56.1096 25.8194C55.8702 25.7163 55.669 25.3395 55.6976 25.1343C55.8854 24.3932 56.2391 23.6753 56.5099 22.9458C56.6405 22.6152 56.7806 22.2163 56.9303 21.7489C56.1388 21.3597 55.3473 20.9704 54.5653 20.5127C54.1057 20.1697 53.5345 20.0204 53.2408 19.7005C52.6342 19.1975 52.7935 18.6617 53.4953 18.4805C54.2801 18.3108 55.2117 18.3011 56.0699 18.2114C56.1148 18.4967 56.1596 18.7819 56.2044 19.0671C56.2874 19.0787 56.3704 19.0903 56.4533 19.1018C56.5839 18.7713 56.705 18.5092 56.7527 18.1671ZM57.4937 19.5257C57.4108 19.5142 57.3373 19.4342 57.2544 19.4226L57.1619 19.4795C57.2353 19.5595 57.2258 19.6279 57.3087 19.6395C57.3183 19.571 57.4108 19.5142 57.4937 19.5257Z" fill="#DF3577"/>
<circle cx="53.5" cy="7.5" r="2.5" fill="#50398C"/>
<g clip-path="url(#clip0_2677_23485)">
<path d="M40.4 62.4999C38.7 60.6999 36.9 58.9999 35.2 57.1999C34.6 56.5999 34.2 56.6999 33.8 57.3999C32.9 59.0999 31.5 59.8999 30 59.5999C28.4 59.2999 27.1 58.0999 26.8 56.4999C26.5 54.8999 27.3 53.4999 28.9 52.5999C29.9 52.0999 29.8 51.5999 29.1 50.9999C27.6 49.4999 26.1 47.9999 24.6 46.4999C24.1 45.9999 23.6 45.3999 24.2 44.7999C26.1 42.8999 28.1 41.1999 30.1 39.2999C30.9 40.7999 31.9 42.2999 33.9 42.0999C34.8 41.9999 35.9 41.5999 36.6 40.9999C37.7 39.9999 38.1 38.5999 37.4 37.1999C36.8 36.0999 35.8 35.1999 34.8 34.0999C34.9 33.8999 35.2 33.5999 35.5 33.2999C36.8 31.9999 38.1 30.5999 39.5 29.2999C40.7 28.0999 41.1 28.0999 42.3 29.2999C43.7 30.6999 45.1 32.0999 46.5 33.4999C47.5 34.3999 47.6 34.3999 48.3 33.1999C49.1 31.7999 50.6 30.9999 52.1 31.2999C53.7 31.5999 54.9 32.6999 55.2 34.2999C55.5 35.7999 54.7 37.2999 53.4 38.0999C52.1 38.8999 52.1 38.8999 53.1 39.9999C54.7 41.5999 56.4 43.2999 58.1 44.8999C58.1 45.1999 58.1 45.5999 58.1 45.8999C56.1 47.7999 54.2 49.7999 52.1 51.7999C51.8 51.2999 51.6 50.9999 51.4 50.6999C50.6 49.2999 49.1 48.4999 47.6 48.6999C46 48.9999 44.7 50.1999 44.4 51.7999C44.1 53.2999 44.9 54.8999 46.3 55.6999C47.5 56.3999 47.6 56.3999 46.5 57.4999C44.9 59.0999 43.2 60.7999 41.6 62.3999C41.1 62.4999 40.7 62.4999 40.4 62.4999ZM44.1 56.8999C41.7 53.6999 41.6 50.7999 43.9 48.4999C46.2 46.1999 49 46.2999 52.1 48.5999C53.2 47.4999 54.3 46.4999 55.5 45.2999C54.2 44.0999 52.9 42.7999 51.6 41.4999C49.5 39.3999 49.7 38.0999 52.2 36.4999C52.7 36.1999 53.1 35.1999 53 34.6999C52.9 34.1999 52.1 33.4999 51.6 33.3999C51.1 33.2999 50.2 33.7999 49.9 34.2999C48.3 36.6999 46.9 36.8999 44.9 34.8999C43.6 33.5999 42.3 32.1999 41 30.8999C39.8 32.0999 38.8 33.0999 37.7 34.1999C40.2 37.4999 40.2 40.2999 37.9 42.5999C35.6 44.8999 32.8 44.7999 29.6 42.4999C28.5 43.4999 27.4 44.5999 26.1 45.7999C27.6 47.1999 29.1 48.5999 30.6 49.9999C32.2 51.5999 31.9 53.2999 30 54.3999C29.1 54.8999 28.5 55.4999 28.8 56.3999C29 56.9999 29.7 57.5999 30.2 57.6999C31.2 57.9999 31.7 57.2999 32.2 56.3999C33 54.6999 34.6 54.3999 36.1 55.4999C36.6 55.7999 37 56.2999 37.4 56.6999C38.5 57.8999 39.6 59.1999 40.7 60.3999C42 58.9999 43.1 57.8999 44.1 56.8999Z" fill="#2D2C34"/>
<path d="M14.3 6.9C14.2 9 15.2 10.6 17 11.3C18.7 12 20.6 11.5 21.8 10.2C23.1 8.8 23.3 6.9 22.3 5.2C21.6 4 21.7 3.8 23.1 3.5C25.3 3 27.6 2.6 29.8 2.1C31.5 1.8 31.9 2 32.3 3.8C32.8 6.1 33.3 8.4 33.8 10.8C34.1 12 34.3 12.1 35.4 11.5C37.2 10.5 39.1 10.7 40.5 12C41.8 13.2 42.3 15.2 41.5 16.8C40.7 18.5 39 19.5 37 19.3C35.8 19.2 35.6 19.4 35.8 20.6C36.2 22.9 36.7 25.2 37.2 27.4C37.6 29.2 37.3 29.6 35.5 30C33.2 30.5 30.9 31 28.5 31.5C27.6 31.7 27.2 31.5 27.3 30.4C27.6 28.5 26.7 26.8 25 25.9C23.4 25.1 21.3 25.5 20 26.8C18.7 28.1 18.4 30.2 19.4 31.9C20.1 33.2 20.1 33.3 18.6 33.6C16.4 34.1 14.2 34.5 12 35C10.3 35.4 9.79996 35.1 9.39996 33.4C8.89996 31.2 8.49996 28.9 7.99996 26.7C7.69996 25.2 7.39996 25.1 6.09996 25.8C4.49996 26.7 2.49996 26.5 1.09996 25.2C-0.200044 24 -0.600044 22 0.199956 20.4C0.999956 18.7 2.79996 17.7 4.59996 18C5.99996 18 6.29996 17.8 5.99996 16.5C5.49996 14.1 4.99996 11.8 4.49996 9.4C4.19996 8 4.49996 7.4 5.89996 7.1C8.39996 6.5 10.9 6 13.3 5.5C14.8 5.3 14.3 6.4 14.3 6.9ZM29.6 29.2C31.6 28.8 33.5 28.4 35.4 27.9C35.3 27.5 35.3 27.4 35.3 27.2C34.8 25 34.3 22.7 33.9 20.5C33.5 18.1 34.7 16.9 37.1 17.2C37.3 17.2 37.4 17.2 37.6 17.2C38.6 17.2 39.5 16.7 39.7 15.8C39.8 15.1 39.6 14.1 39.2 13.4C38.6 12.4 37.4 12.4 36.2 13.1C34.2 14.3 32.5 13.5 31.9 11.3C31.8 10.8 31.7 10.2 31.6 9.7C31.2 7.8 30.8 5.8 30.3 3.9C28.2 4.3 26.3 4.8 24.5 5.2C25.2 9.5 23.5 12.6 20.1 13.4C16.5 14.3 13.6 12.3 12.2 7.8C10.3 8.2 8.39996 8.6 6.39996 9C6.89996 11.4 7.39996 13.6 7.89996 15.9C8.49996 18.8 7.39996 20 4.49996 19.7C3.39996 19.6 2.59996 20.1 2.19996 21.1C1.79996 22 1.89996 22.9 2.69996 23.6C3.49996 24.4 4.39996 24.5 5.29996 24C5.59996 23.9 5.89996 23.6 6.19996 23.5C7.69996 22.8 9.19996 23.4 9.79996 24.9C9.99996 25.4 10.1 26 10.2 26.6C10.7 28.7 11.1 30.8 11.6 33C13.6 32.6 15.5 32.2 17.4 31.8C16.8 27.3 18.7 24.1 22.2 23.5C25.2 23 28.7 24.6 29.6 29.2Z" fill="#2D2C34"/>
</g>
<defs>
<clipPath id="clip0_2677_23485">
<rect width="57.9" height="60.5" fill="white" transform="translate(0 2)"/>
</clipPath>
</defs>
</svg>
