<svg width="62" height="62" viewBox="0 0 62 62" fill="none" xmlns="http://www.w3.org/2000/svg">
<circle opacity="0.2" cx="31" cy="31" r="31" fill="#0097B9"/>
<g clip-path="url(#clip0_7088_14932)">
<path d="M17.7687 40.5165C15.751 37.6925 17.4519 33.8993 21.2705 33.8157C21.2705 32.8966 21.2705 31.9609 21.2705 31.0251C21.2705 30.0893 21.2705 29.1536 21.2705 28.1844C21.1371 28.151 21.0204 28.1342 20.9037 28.1008C20.32 27.9839 19.9699 27.5995 20.0532 27.0648C20.1366 26.4966 20.4868 26.2293 21.0371 26.2293C22.1377 26.2293 23.2382 26.2293 24.3555 26.2293C24.5556 26.2293 24.7724 26.2293 24.9558 26.2293C25.5061 23.3217 25.5895 23.1713 27.7739 21.5839C27.0069 20.5645 26.7234 19.3948 27.0069 18.1248C27.2236 17.2058 27.7239 16.4371 28.4576 15.8523C29.9417 14.6825 32.0261 14.6993 33.4936 15.8857C35.1945 17.2392 35.4279 19.1275 34.1773 21.6507C35.9949 22.6032 36.912 24.1238 36.912 26.2126C37.3122 26.2126 37.6791 26.2126 38.1293 26.2126C38.1293 25.4606 38.146 24.7087 38.1126 23.9734C38.096 23.8063 37.9125 23.6225 37.7791 23.4721C37.5624 23.2215 37.2956 23.0209 37.0954 22.7536C36.7953 22.3358 36.812 21.8846 37.1955 21.517C37.5624 21.1661 38.0126 21.1327 38.3794 21.4669C38.8797 21.9013 39.3633 22.3692 39.7802 22.8872C39.9469 23.1045 39.9803 23.4721 39.997 23.7729C40.0303 24.575 40.0136 25.3938 40.0136 26.2126C40.7974 26.3463 41.7979 26.0121 41.8646 27.2152C41.898 27.7499 41.5144 28.034 40.6806 28.2011C40.6806 30.0559 40.6806 31.9275 40.6806 33.8491C42.3482 33.8825 43.7156 34.5175 44.5327 36.0382C45.3331 37.5588 45.133 39.046 44.1658 40.4831C44.2658 40.5666 44.3492 40.6502 44.4493 40.7003C46.3836 41.8533 47.3341 44.0089 46.8839 46.2147C46.7838 46.6826 46.5003 46.9332 46.0334 47C45.85 47.0168 45.6666 47.0168 45.4665 47.0168C35.7948 47.0168 26.1231 47.0168 16.4514 47.0168C15.2507 47.0168 15.0506 46.7661 15.0006 45.6131C14.9006 43.3572 15.6843 41.6027 17.7687 40.5165ZM37.7458 40.4497C37.7291 40.3995 37.6958 40.3494 37.6624 40.2993C36.4118 38.2773 36.7286 36.2721 38.4962 34.7013C38.6629 34.551 38.763 34.2502 38.763 34.0162C38.7797 32.3118 38.7797 30.6074 38.7797 28.8862C38.7797 28.6523 38.763 28.4016 38.7463 28.1677C33.5269 28.1677 28.3576 28.1677 23.1549 28.1677C23.1549 28.435 23.1549 28.6523 23.1549 28.8862C23.1549 30.6742 23.1382 32.4622 23.1715 34.2502C23.1715 34.434 23.3716 34.6345 23.5384 34.7682C24.639 35.7374 25.1892 36.9238 24.9725 38.3776C24.8557 39.1128 24.5222 39.8147 24.2888 40.5165C24.8224 40.9342 25.3894 41.4021 25.9563 41.8533C26.54 41.3854 27.1236 40.9175 27.7239 40.4497C26.5066 38.2272 26.69 36.3055 28.2575 34.9019C29.6749 33.6319 31.776 33.5149 33.3268 34.6345C34.0772 35.1692 34.5941 35.8878 34.861 36.7734C35.2445 38.1269 34.9443 39.3468 34.1939 40.4329C34.8276 40.9342 35.3946 41.4021 35.9615 41.8533C36.5285 41.4188 37.1121 40.951 37.7458 40.4497ZM34.9777 26.2126C35.1111 24.5583 33.9605 23.2047 32.3763 23.1379C31.4425 23.1045 30.5087 23.1045 29.5582 23.1379C27.9574 23.2047 26.8068 24.575 26.9568 26.2126C29.6082 26.2126 32.2763 26.2126 34.9777 26.2126ZM24.9725 45.0951C25.0892 43.4241 23.9553 42.0872 22.3544 42.0204C21.4206 41.987 20.4868 41.987 19.5363 42.0204C17.9355 42.0872 16.7849 43.4742 16.9516 45.0951C19.6197 45.0951 22.2711 45.0951 24.9725 45.0951ZM34.9777 45.0784C35.1278 43.4742 34.0105 42.104 32.443 42.0037C31.4592 41.9536 30.4753 41.9536 29.5082 42.0037C27.9073 42.0873 26.69 43.6246 27.0069 45.0784C29.6582 45.0784 32.3263 45.0784 34.9777 45.0784ZM44.9829 45.0951C45.0663 43.4074 43.9657 42.104 42.3982 42.0204C41.4477 41.9703 40.4805 41.9703 39.5301 42.0204C37.9292 42.104 36.7453 43.541 36.9787 45.0951C39.6468 45.0951 42.2982 45.0951 44.9829 45.0951ZM33.1434 19.0606C33.1434 17.8575 32.1762 16.8716 30.9589 16.8716C29.7583 16.8716 28.7911 17.8408 28.7911 19.0606C28.7911 20.2638 29.7583 21.2497 30.9756 21.2497C32.1762 21.2497 33.1434 20.2638 33.1434 19.0606ZM21.0204 35.7541C19.8198 35.7207 18.8193 36.6732 18.7859 37.893C18.7526 39.0961 19.7031 40.0987 20.9037 40.1322C22.1043 40.1656 23.1048 39.2131 23.1382 37.9933C23.1715 36.7734 22.221 35.7875 21.0204 35.7541ZM33.1434 37.9264C33.1434 36.7233 32.1595 35.7541 30.9589 35.7541C29.7583 35.7541 28.7911 36.74 28.7911 37.9431C28.7911 39.1463 29.775 40.1154 30.9756 40.1154C32.1762 40.1154 33.1434 39.1463 33.1434 37.9264ZM40.9641 35.7541C39.7635 35.7541 38.7797 36.7233 38.7797 37.9431C38.7797 39.1463 39.7468 40.1322 40.9641 40.1322C42.1648 40.1322 43.1486 39.163 43.1319 37.9431C43.1486 36.7233 42.1814 35.7541 40.9641 35.7541Z" fill="#0097B9"/>
</g>
<defs>
<clipPath id="clip0_7088_14932">
<rect width="32" height="32" fill="white" transform="translate(15 15)"/>
</clipPath>
</defs>
</svg>
