<svg width="62" height="62" viewBox="0 0 62 62" fill="none" xmlns="http://www.w3.org/2000/svg">
<circle opacity="0.2" cx="31" cy="31" r="31" fill="#0097B9"/>
<g clip-path="url(#clip0_7088_14927)">
<path d="M32.0421 39.615C32.2556 41.3707 32.4512 42.9996 32.6469 44.6286C32.7003 45.0087 32.7536 45.3888 32.7714 45.7689C32.8248 46.6919 32.1844 47.1987 31.3128 46.891C30.2634 46.529 29.1961 46.2032 28.1644 45.7689C27.7909 45.606 27.4173 45.2621 27.2217 44.9182C26.5102 43.5245 25.8698 42.0766 25.1761 40.6105C24.0555 40.8096 22.9348 40.9544 21.8854 41.244C20.9248 41.4974 20.0888 41.3707 19.2706 40.9001C18.897 40.6829 18.5057 40.4114 18.2033 40.1037C15.802 37.5336 14.6814 34.4928 15.0905 30.9453C15.2684 29.4431 16.051 28.4476 17.5096 27.8503C22.9704 25.5879 27.7909 22.3299 31.8642 17.9499C32.1311 17.6603 32.3979 17.3526 32.6291 17.0087C33.8565 15.1806 35.7597 14.5471 37.8409 15.2892C39.6374 15.9408 41.0249 17.1897 42.1633 18.6919C45.4896 23.1082 47.2506 28.0675 47.0015 33.6965C46.9304 35.2168 46.5213 36.6467 45.6497 37.8956C44.6002 39.3978 43.1772 39.9589 41.3451 39.6874C40.1355 39.5064 38.9082 39.4521 37.6986 39.4521C35.8131 39.4521 33.9632 39.5607 32.0421 39.615ZM31.2417 21.606C30.9749 21.8413 30.8326 21.968 30.6725 22.0947C26.9371 25.3888 22.7925 28.0132 18.2033 29.9137C17.5808 30.167 17.2428 30.5471 17.1716 31.1806C16.8337 34.2213 17.7942 36.7915 20.0177 38.8367C20.3023 39.1082 20.907 39.253 21.2984 39.1625C25.4073 38.2213 29.5518 37.6241 33.7675 37.4612C34.8348 37.425 35.9198 37.4612 37.1828 37.4612C33.1094 32.8458 31.2773 27.6331 31.2417 21.606ZM38.0188 35.072C38.5346 35.5607 39.0327 36.0856 39.5841 36.5381C41.9676 38.4566 43.9421 37.7146 44.5646 34.6919C44.9382 32.9182 44.9204 31.1444 44.5646 29.3707C43.8353 25.7327 42.4301 22.3842 39.9932 19.5607C39.175 18.6195 38.2678 17.8051 37.076 17.3707C36.24 17.063 35.4396 17.1354 34.7992 17.8232C33.6608 19.0358 33.5719 20.5924 33.394 22.167C35.0838 22.2937 36.1333 23.253 37.0227 24.4838C37.9832 25.8051 38.6947 27.2711 39.0505 28.8639C39.5485 31.0358 39.673 33.1716 38.0188 35.072ZM33.6074 24.3933C33.5719 26.6919 35.4573 31.8865 36.7736 33.244C38.1077 30.9272 36.0977 25.2259 33.6074 24.3933ZM29.8898 39.8865C29.036 39.9951 28.2889 40.1037 27.4529 40.2123C27.862 41.1354 28.3245 41.968 28.6091 42.8548C28.9115 43.7598 29.5163 44.0313 30.4057 44.1218C30.2456 42.7462 30.0855 41.3707 29.8898 39.8865Z" fill="#0097B9"/>
</g>
<defs>
<clipPath id="clip0_7088_14927">
<rect width="32" height="32" fill="white" transform="translate(15 15)"/>
</clipPath>
</defs>
</svg>
