<svg width="92" height="91" viewBox="0 0 92 91" fill="none" xmlns="http://www.w3.org/2000/svg">
<circle opacity="0.3" cx="62.3359" cy="40.5" r="26.5" fill="#DF3577"/>
<circle cx="46.3359" cy="22.5" r="11" stroke="#50398C" stroke-width="3"/>
<circle cx="21.3359" cy="62.5" r="11" stroke="#50398C" stroke-width="3"/>
<circle cx="71.3359" cy="62.5" r="11" stroke="#50398C" stroke-width="3"/>
<mask id="path-5-inside-1_7228_4712" fill="white">
<path d="M18.8359 51C18.8359 45.4772 23.3131 41 28.8359 41H61.8359C67.3588 41 71.8359 45.4772 71.8359 51V52H18.8359V51Z"/>
</mask>
<path d="M15.8359 51C15.8359 43.8203 21.6562 38 28.8359 38H61.8359C69.0156 38 74.8359 43.8203 74.8359 51H68.8359C68.8359 47.134 65.7019 44 61.8359 44H28.8359C24.9699 44 21.8359 47.134 21.8359 51H15.8359ZM71.8359 52H18.8359H71.8359ZM15.8359 52V51C15.8359 43.8203 21.6562 38 28.8359 38V44C24.9699 44 21.8359 47.134 21.8359 51V52H15.8359ZM61.8359 38C69.0156 38 74.8359 43.8203 74.8359 51V52H68.8359V51C68.8359 47.134 65.7019 44 61.8359 44V38Z" fill="#50398C" mask="url(#path-5-inside-1_7228_4712)"/>
<line x1="45.3359" y1="33" x2="45.3359" y2="42" stroke="#50398C" stroke-width="3"/>
</svg>
