<svg width="16" height="22" viewBox="0 0 16 22" fill="none" xmlns="http://www.w3.org/2000/svg">
<g id="icon">
<path id="Ellipse 117 (Stroke)" fill-rule="evenodd" clip-rule="evenodd" d="M8 1.77148C5.15729 1.77148 2.25 4.20121 2.25 7.91804C2.25 10.6999 3.38582 13.4091 4.72797 15.6288C5.93645 17.6275 7.27928 19.1755 8 19.9468C8.72072 19.1755 10.0636 17.6275 11.272 15.6288C12.6142 13.4091 13.75 10.6999 13.75 7.91804C13.75 4.20121 10.8427 1.77148 8 1.77148ZM0.75 7.91804C0.75 3.359 4.34271 0.271484 8 0.271484C11.6573 0.271484 15.25 3.359 15.25 7.91804C15.25 11.0877 13.9655 14.0732 12.5556 16.405C11.1405 18.7454 9.55812 20.4943 8.87312 21.2061C8.39281 21.7052 7.60719 21.7052 7.12688 21.2061C6.44188 20.4943 4.8595 18.7454 3.44436 16.405C2.03452 14.0732 0.75 11.0877 0.75 7.91804Z" fill="#50398C"/>
<path id="Subtract" fill-rule="evenodd" clip-rule="evenodd" d="M8.3327 20.686C9.65933 19.3075 14.5 13.8696 14.5 7.91804C14.5 3.78011 11.25 1.02148 8 1.02148C4.75 1.02148 1.5 3.78011 1.5 7.91804C1.5 13.8696 6.34067 19.3075 7.6673 20.686C7.85256 20.8786 8.14744 20.8786 8.3327 20.686ZM8 11C9.10457 11 10 10.1046 10 9C10 7.89543 9.10457 7 8 7C6.89543 7 6 7.89543 6 9C6 10.1046 6.89543 11 8 11Z" fill="#50398C"/>
</g>
</svg>
