<svg width="63" height="62" viewBox="0 0 63 62" fill="none" xmlns="http://www.w3.org/2000/svg">
<circle opacity="0.2" cx="31.3359" cy="31" r="31" fill="#0097B9"/>
<g clip-path="url(#clip0_7088_5920)">
<path d="M21.5559 27.4427C21.5559 26.2971 20.9647 25.7052 19.8014 25.7052C19.3438 25.7052 18.8861 25.7052 18.4474 25.7052C17.9898 25.7052 17.5511 25.7052 17.1125 25.7052C15.9874 25.7243 15.3581 26.3162 15.3581 27.3854C15.339 33.2088 15.339 39.3377 15.3581 45.5811C15.3581 46.6694 15.9683 47.2613 17.0935 47.2995C17.9898 47.3186 18.9051 47.3186 19.7252 47.2995C21.0219 47.2804 21.575 46.7267 21.575 45.4283C21.575 43.2899 21.575 41.1515 21.575 39.0322V36.5119V33.8198C21.5559 31.6813 21.5559 29.562 21.5559 27.4427ZM19.9921 45.772H19.6107C19.42 45.772 19.2484 45.772 19.0768 45.772C18.9051 45.772 18.7335 45.772 18.5619 45.772C18.2567 45.772 17.9516 45.772 17.6274 45.7529C17.2842 45.7338 17.0172 45.3711 16.9218 45.161C16.8265 44.9701 16.8455 44.7792 16.8646 44.6264C16.8646 44.5883 16.8646 44.5501 16.8646 44.5119V27.2708H19.9921V45.772Z" fill="#0097B9"/>
<path d="M45.3713 18.1252C44.0745 18.0298 42.7205 17.9916 41.1949 18.0107C40.9851 18.0107 40.8325 18.1061 40.7562 18.2016C40.6228 18.3544 40.5274 18.5644 40.5465 18.7744C40.5465 19.1945 40.8325 19.4618 41.2711 19.519C41.5 19.5381 41.7479 19.5572 42.034 19.5572C42.1865 19.5572 42.3391 19.5763 42.5107 19.5763L43.3498 19.6145L35.8933 27.4045L35.6263 27.0608C35.3593 26.7362 35.1114 26.4116 34.8635 26.0871C34.3295 25.3997 33.8337 24.7505 33.2998 24.1205C32.9756 23.7195 32.7467 23.414 32.556 23.1467C32.1937 22.6503 32.022 22.4594 31.8504 22.383C31.6597 22.3066 31.2974 22.3066 30.6299 22.3448C30.3629 22.3639 30.0578 22.383 29.6764 22.383C27.8647 22.4403 26.4154 21.9629 25.0232 20.8174C23.4213 19.4999 21.7241 18.2589 20.084 17.0369C19.4356 16.5596 18.7872 16.0823 18.1579 15.605C17.8337 15.3758 17.5286 15.2804 17.2616 15.3376C17.0709 15.3758 16.9183 15.5286 16.8039 15.7386C16.6704 16.025 16.6132 16.3687 17.2616 16.846C17.9291 17.3424 18.5965 17.8388 19.264 18.3162C20.7324 19.3854 22.258 20.4737 23.6502 21.6956C25.767 23.5477 27.8456 24.235 30.1913 23.8723C30.2294 23.8723 30.2676 23.8723 30.2866 23.8723C30.3629 23.8532 30.4392 23.8532 30.4964 23.8532C31.1067 23.8532 31.469 24.235 31.6978 24.5214C32.4797 25.5524 33.2807 26.5835 34.0816 27.5763C34.3677 27.9391 34.6537 28.3018 34.9398 28.6837C35.2831 29.1229 35.5501 29.3329 35.7789 29.352C35.9887 29.352 36.2938 29.1801 36.6752 28.7792C37.8194 27.5954 38.9446 26.4116 40.0888 25.2088C41.0804 24.1587 42.0912 23.1276 43.0828 22.0775C43.1972 21.9629 43.3117 21.8675 43.4452 21.7338C43.5214 21.6766 43.5977 21.6002 43.674 21.5238L44.3224 20.9319V21.8102C44.3224 21.9439 44.3224 22.0584 44.3224 22.1539C44.3224 22.3448 44.3224 22.4785 44.3224 22.6312C44.3415 23.1658 44.6084 23.4904 45.0661 23.5095C45.5238 23.5286 45.8099 23.2231 45.848 22.7076C45.9052 21.5811 45.9243 20.3973 45.9434 18.8699C45.9243 18.6789 45.8862 18.1634 45.3713 18.1252Z" fill="#0097B9"/>
<path d="M30.134 32.0822C30.134 30.9939 29.5429 30.402 28.4177 30.3829C27.9982 30.3829 27.5786 30.3829 27.1209 30.3829C26.6823 30.3829 26.2246 30.3829 25.7097 30.3829C24.5464 30.3829 23.9552 30.9748 23.9362 32.1013C23.9171 36.6837 23.9171 41.2278 23.9362 45.581C23.9362 46.6693 24.5464 47.2612 25.6716 47.2803C26.3962 47.2994 27.14 47.2803 27.8647 47.2803H28.227C29.581 47.2803 30.134 46.7266 30.134 45.4092C30.134 43.8245 30.134 42.2397 30.134 40.655V38.7648C30.134 38.0965 30.134 37.4092 30.134 36.7409C30.134 35.2326 30.134 33.6479 30.134 32.0822ZM28.5512 45.7147H25.4999V31.9677H28.5512V45.7147Z" fill="#0097B9"/>
<path d="M41.1159 45.6385C41.1159 46.6313 41.707 47.2423 42.6796 47.2805C43.6522 47.3187 44.6439 47.3187 45.7118 47.2805C46.6844 47.2423 47.2946 46.6504 47.3137 45.734C47.3328 41.2471 47.3328 36.6266 47.3137 31.9678C47.3137 31.0132 46.6844 30.4022 45.6737 30.3831C44.8537 30.364 44.0146 30.3831 43.2136 30.3831H42.9085C41.707 30.3831 41.1159 30.975 41.1159 32.1397C41.1159 33.7053 41.1159 35.2709 41.1159 36.8366V38.7841C41.1159 39.4714 41.1159 40.1588 41.1159 40.8652C41.0968 42.4309 41.0968 44.0538 41.1159 45.6385ZM42.6796 31.9488H45.75V45.7149H42.6796V31.9488Z" fill="#0097B9"/>
<path d="M38.6944 45.8101C38.7326 42.6979 38.7326 39.5857 38.6944 36.5499C38.6753 35.6526 38.0842 35.0989 37.1306 35.0798C36.673 35.0798 36.1962 35.0607 35.7385 35.0607C35.2045 35.0607 34.6896 35.0607 34.2129 35.0607C33.1068 35.0798 32.5347 35.6526 32.5156 36.76C32.5156 37.7719 32.5156 38.822 32.5156 39.8148C32.5156 40.2349 32.5156 40.674 32.5156 41.0941C32.5156 41.5523 32.5156 42.0105 32.5156 42.4688C32.5156 43.4998 32.5156 44.5499 32.5156 45.581C32.5347 46.5929 33.0877 47.2039 34.0603 47.2421C35.1092 47.2802 36.1581 47.2802 37.1688 47.2421C38.0842 47.2421 38.6944 46.6693 38.6944 45.8101ZM37.1497 45.7337H34.1175V36.6645H37.1497V45.7337Z" fill="#0097B9"/>
</g>
<defs>
<clipPath id="clip0_7088_5920">
<rect width="32" height="32" fill="white" transform="translate(15.3359 15.3185)"/>
</clipPath>
</defs>
</svg>
