<svg width="75" height="74" viewBox="0 0 75 74" fill="none" xmlns="http://www.w3.org/2000/svg">
<rect x="0.5" width="74" height="74" rx="10" fill="#DF2976" fill-opacity="0.2"/>
<g clip-path="url(#clip0_7149_3425)">
<path d="M41.7001 50.6047C36.7308 50.6047 31.7616 50.6047 26.769 50.6047C24.8093 50.6047 23.8994 49.6744 23.8761 47.7209C23.8761 46.7674 23.8761 45.814 23.8761 44.8372C23.8761 44.0698 24.2494 43.6744 25.0426 43.6047C27.3522 43.3721 28.9153 41.8372 28.9153 39.7907C28.9153 37.7442 27.3522 36.1628 25.0426 35.9535C24.2027 35.8837 23.8528 35.4419 23.8761 34.6512C23.8761 33.7209 23.8761 32.7907 23.8761 31.8605C23.8761 29.8837 24.8093 28.9535 26.7457 28.9535C32.6248 28.9535 38.5039 28.9535 44.383 28.9535C48.489 28.9535 52.5951 28.9535 56.6778 28.9535C58.5208 28.9535 59.4774 29.907 59.5007 31.7209C59.5007 32.7907 59.4774 33.8837 59.5007 34.9535C59.524 35.5814 59.2441 36 58.6608 36.2326C57.0744 36.8837 56.1645 38.0465 56.1645 39.7674C56.1645 41.4884 57.0511 42.6744 58.6375 43.3023C59.2674 43.5581 59.5007 44 59.5007 44.6512C59.4774 45.7442 59.5007 46.8605 59.5007 47.9535C59.4774 49.5581 58.4975 50.5581 56.8878 50.5581C51.8252 50.6047 46.7626 50.6047 41.7001 50.6047ZM39.9736 48.4884C44.9896 48.4884 49.9121 48.4884 54.8114 48.4884C55.6279 48.4884 56.7711 48.7209 57.1444 48.3023C57.5877 47.814 57.3077 46.7209 57.401 45.907C57.4477 45.3256 57.2377 45 56.7244 44.6744C53.4349 42.5581 53.0383 37.8372 56.0712 35.4419C57.2144 34.5349 57.5177 33.6744 57.3777 32.4186C57.3544 32.3023 57.3544 32.186 57.3777 32.0698C57.5177 31.2326 57.1211 31.0465 56.3512 31.0465C51.1953 31.0698 46.0161 31.0465 40.8369 31.0465C40.5569 31.0465 40.2769 31.0698 39.9736 31.093C39.9736 36.907 39.9736 42.6512 39.9736 48.4884ZM37.7807 48.4884C37.7807 42.6047 37.7807 36.8605 37.7807 31.0465C34.0246 31.0465 30.3384 31.0465 26.629 31.0698C26.419 31.0698 26.0224 31.4186 25.9991 31.6279C25.9291 32.3721 25.9758 33.1163 25.9758 33.8372C29.3119 34.9767 30.9917 36.9535 31.015 39.7209C31.0383 42.4884 29.4053 44.4419 25.9758 45.6977C25.9758 46.4186 25.9291 47.1861 25.9991 47.9302C26.0224 48.1395 26.3724 48.4651 26.559 48.4651C30.2918 48.5116 34.0012 48.4884 37.7807 48.4884Z" fill="#DF3577"/>
<path d="M37.1501 17.093C37.1501 17.6977 37.1501 18.2093 37.1501 18.7209C37.1267 21 35.517 22.6279 33.254 22.6512C31.4109 22.6744 29.5912 22.6744 27.7481 22.6512C25.5318 22.6279 23.9221 20.9767 23.8754 18.7674C23.8754 18.2558 23.8754 17.7209 23.8754 17.1163C22.1957 17.1163 20.5626 17.0465 18.9295 17.1395C18.1596 17.186 17.693 17.8605 17.623 18.6744C17.5997 18.9302 17.623 19.186 17.623 19.4651C17.623 31.1163 17.623 42.7674 17.623 54.4186C17.623 56.2791 18.1363 56.814 19.9793 56.814C27.0482 56.814 34.1172 56.814 41.1861 56.814C42.8659 56.814 43.4491 56.2326 43.4491 54.5814C43.4491 54.2326 43.3324 53.814 43.4958 53.5581C43.7291 53.186 44.149 52.7209 44.4989 52.7209C44.8489 52.7209 45.4321 53.2093 45.5021 53.5581C46.0154 57.093 44.079 59 41.1861 58.9535C34.0938 58.8837 27.0016 58.9302 19.886 58.9302C17.0164 58.9767 15.5 57.4651 15.5 54.6279C15.5 42.8605 15.5 31.0698 15.5 19.3023C15.5 16.5349 17.0398 15 19.816 15C26.9783 15 34.1172 15 41.2794 15C43.9624 15 45.5254 16.5581 45.5254 19.2093C45.5254 21.3023 45.5254 23.3953 45.5254 25.4884C45.5254 26.3953 45.1055 26.907 44.4289 26.8605C43.6124 26.7907 43.4024 26.2326 43.4024 25.5116C43.4258 23.3953 43.4024 21.2791 43.4024 19.1395C43.4024 17.7674 42.7492 17.1163 41.3727 17.1163C40.0196 17.093 38.6665 17.093 37.1501 17.093ZM35.0037 17.1628C31.9708 17.1628 29.008 17.1628 25.9751 17.1628C25.9751 17.6744 25.9751 18.1395 25.9751 18.6047C25.9984 19.907 26.6516 20.5814 27.9581 20.5814C29.2646 20.5814 30.571 20.5349 31.8775 20.6047C35.0037 20.7674 35.2137 19.7442 35.0037 17.1628Z" fill="#DF3577"/>
<path d="M47.2043 36.6278C46.3878 36.6278 45.5713 36.6278 44.7547 36.6278C43.9148 36.6046 43.4016 36.2092 43.4482 35.558C43.4949 34.8139 43.9848 34.5348 44.7081 34.5348C46.4345 34.5348 48.1375 34.5348 49.8639 34.5348C50.5638 34.5348 51.0538 34.8139 51.1237 35.558C51.1704 36.2092 50.6572 36.6278 49.8406 36.6278C48.9307 36.6511 48.0675 36.6278 47.2043 36.6278Z" fill="#DF3577"/>
<path d="M47.2948 40.814C46.4316 40.814 45.5451 40.814 44.6819 40.814C43.9587 40.814 43.4688 40.5116 43.4688 39.7675C43.4688 39.0233 43.982 38.7209 44.7052 38.7209C46.455 38.7209 48.2047 38.7209 49.9311 38.7209C50.6077 38.7209 51.0976 39.0233 51.0976 39.7209C51.1209 40.4651 50.631 40.814 49.9078 40.814C49.0446 40.8372 48.158 40.814 47.2948 40.814Z" fill="#DF3577"/>
<path d="M47.1809 45C46.3644 45 45.5478 45 44.7313 45C43.8914 44.9768 43.3781 44.5814 43.4248 43.9302C43.4715 43.1861 43.9614 42.907 44.6846 42.907C46.411 42.907 48.1141 42.907 49.8405 42.907C50.5404 42.907 51.0303 43.1861 51.1003 43.9302C51.147 44.5814 50.6337 44.9768 49.7938 45C48.9306 45.0233 48.0674 45 47.1809 45Z" fill="#DF3577"/>
</g>
<defs>
<clipPath id="clip0_7149_3425">
<rect width="44" height="44" fill="white" transform="translate(15.5 15)"/>
</clipPath>
</defs>
</svg>
