<svg width="96" height="126" viewBox="0 0 96 126" fill="none" xmlns="http://www.w3.org/2000/svg">
<ellipse cx="48" cy="47.7904" rx="48" ry="47.7904" fill="#0097B9"/>
<ellipse cx="48" cy="47.7901" rx="38" ry="37.8341" fill="white"/>
<path d="M65 125.948L89.5 71.6855L76.5 81.6419L61.5 90.6026L65 125.948Z" fill="#0097B9"/>
<g clip-path="url(#clip0_6079_4210)">
<path d="M76.9824 53.5056L76.4897 51.5611C76.4721 51.4028 76.4457 51.306 76.3929 51.2708C76.3489 51.2356 76.2345 51.2268 76.0673 51.262C75.9618 51.2796 75.9881 51.2884 75.8826 51.2884C75.4778 51.2884 75.2227 51.1916 75.1171 51.0068C75.0115 50.8221 74.9587 50.5405 74.9587 50.171C74.9587 50.171 74.9499 47.9186 74.9587 47.1883C74.9763 46.282 74.7388 45.5341 74.3868 44.8039C74.0349 44.0736 73.6125 43.6249 72.9703 43.097C72.328 42.569 71.4305 42.2787 70.6386 42.0939C69.8732 41.9091 68.1926 42.0499 67.5503 42.0411C66.2042 42.0235 65.6059 42.0323 64.6732 41.874C64.6028 41.8564 64.5324 41.8564 64.4533 41.8652C64.3741 41.874 64.3125 41.9531 64.2685 42.0939L63.6086 44.3287C63.5646 44.5047 63.5822 44.6191 63.635 44.6631C63.6966 44.7071 63.7494 44.7511 63.811 44.7775C64.0397 44.8479 64.1893 44.9095 64.3477 44.9446C64.5061 44.9798 64.6644 45.0062 64.8228 45.0326C64.9812 45.059 65.3683 45.1206 65.5355 45.1294C65.949 45.1558 68.175 45.2614 68.9493 45.323C69.7236 45.3846 70.1987 45.5078 70.5067 45.9653C70.6474 46.1852 70.6914 46.3348 70.7178 46.6868H68.1662C66.7321 46.6868 65.5795 47.0387 64.7172 47.7514C63.855 48.4641 63.4238 49.5023 63.4238 50.8837C63.4238 51.4468 63.5206 51.9747 63.7054 52.4586C63.8902 52.9425 64.2069 53.3649 64.6556 53.7168C65.1044 54.0687 65.6939 54.3415 66.4241 54.5351C67.1544 54.7286 68.0695 54.8254 69.1429 54.8254C70.1899 54.8254 71.1401 54.5702 71.932 54.2359C72.1872 54.4207 72.4687 54.5527 72.7943 54.623C73.2166 54.7198 73.6829 54.7726 74.1932 54.7726C75.4866 54.7726 76.8944 53.9104 76.9384 53.84C77.0088 53.7872 77.0088 53.6728 76.9824 53.5056ZM70.709 51.262C70.5243 51.3588 70.2779 51.4204 69.9787 51.4468C69.6796 51.482 69.4684 51.4908 69.3628 51.4908C68.9141 51.4908 68.5534 51.4028 68.2806 51.2356C68.0079 51.0596 67.8759 50.7869 67.8759 50.4173C67.8759 50.1534 67.9199 49.9334 68.0167 49.775C68.1135 49.6079 68.2278 49.4847 68.3686 49.3967C68.5094 49.3087 68.659 49.2559 68.8349 49.2207C69.0021 49.1855 69.1781 49.1767 69.3452 49.1767H70.7178V51.262H70.709Z" fill="#0097B9"/>
<path d="M64.1808 37.0528C64.1368 37.044 63.6265 37 63.4241 37C62.1572 37 61.1629 37.2376 60.4502 37.7127C59.7288 38.1878 59.1921 38.9621 58.8313 40.0179L57.9603 42.5255C57.9515 42.5431 57.9427 42.5607 57.9427 42.5783L57.098 44.9451C56.8956 45.5698 56.6053 45.9833 56.3149 46.1857C56.0246 46.388 55.6814 46.4936 55.2943 46.4936H54.6608V42.6751C54.6608 42.4991 54.6256 42.3935 54.564 42.3583C54.5024 42.3231 54.388 42.2967 54.2385 42.2967H50.8598C50.7191 42.2967 50.6135 42.3143 50.5431 42.3583C50.4727 42.3935 50.4375 42.4991 50.4375 42.6751V54.21C50.4375 54.3859 50.4727 54.4915 50.5431 54.5267C50.6135 54.5619 50.7191 54.5883 50.8598 54.5883H54.2385C54.3968 54.5883 54.5024 54.5707 54.564 54.5267C54.6256 54.4915 54.6608 54.3859 54.6608 54.21V49.7051H55.5319C56.0158 49.7051 56.3941 49.7843 56.6669 49.9515C56.9396 50.1186 57.1332 50.4266 57.2916 50.8753C57.5819 51.6936 57.5115 52.5558 57.7139 53.1893C58.0658 54.3067 58.4354 54.5003 58.5234 54.5267C58.6113 54.5619 58.6817 54.5707 58.7433 54.5707H62.3067C62.4915 54.5707 62.5971 54.5179 62.6147 54.4211C62.6323 54.3155 62.5443 54.1836 62.4563 54.0428C62.4563 54.0428 62.0604 53.5501 61.8316 52.8022C61.638 52.1775 61.5325 50.7873 61.4005 50.1802C61.3389 49.9251 61.2597 49.5995 61.1629 49.3708C61.0661 49.142 60.9518 48.9396 60.8022 48.7461C60.6526 48.5613 60.459 48.3941 60.2127 48.2533C59.9663 48.1126 59.6672 48.007 59.3064 47.9278V47.8574C59.8255 47.6726 60.2127 47.3911 60.4942 47.0127C60.767 46.6344 60.9694 46.2121 61.0925 45.7194C61.0925 45.7194 61.9812 42.6047 61.99 42.6047L62.2803 41.76C62.4563 41.2409 62.7203 40.9154 63.0106 40.7658C63.2746 40.6338 63.1426 40.6954 63.3714 40.5898C63.4153 40.5722 63.5649 40.5282 63.6441 40.2555C63.7321 39.9299 64.216 38.0734 64.392 37.2992C64.4008 37.1936 64.3216 37.1056 64.1808 37.0528Z" fill="#4F388C"/>
<path d="M33.0338 42.3048H29.4264C29.1097 42.3048 28.9073 42.3488 28.8193 42.4368C28.7226 42.5248 28.6434 42.692 28.5642 42.9383L27.5523 46.6865L26.5317 50.6459L26.5229 50.6723H26.3909L25.6519 47.7511L24.6224 43.8798C24.5432 43.651 24.4553 43.4311 24.3673 43.2199C24.2793 43.0087 24.1561 42.824 23.9977 42.6656C23.8394 42.5072 23.6458 42.384 23.4082 42.296C23.1707 42.2081 22.8539 42.1641 22.4668 42.1641C21.9917 42.1641 21.5077 42.2169 21.0062 42.3224C20.5047 42.428 19.9768 42.6216 19.4049 42.8943C19.2729 42.9735 19.1673 43.0615 19.0706 43.1407C18.9826 43.2199 18.9738 43.4047 19.0618 43.6774L19.4577 45.2699C19.5193 45.5163 19.5897 45.6571 19.6513 45.7011C19.7128 45.7451 19.8448 45.7451 20.0472 45.7099C20.3375 45.6747 20.5223 45.6835 20.6015 45.7187C20.6719 45.7627 20.7687 45.9386 20.8831 46.2466L22.4228 50.4963L23.2675 52.8367C23.4082 53.2238 23.549 53.5054 23.6898 53.655C23.8306 53.8133 24.1121 53.8925 24.5344 53.8925H25.4055L25.0536 54.922C24.8776 55.4411 24.6488 55.7666 24.3585 55.9162C24.0945 56.0482 23.725 56.1274 23.2499 56.1361C23.2059 56.1361 23.0211 56.1186 22.9507 56.4529C22.8803 56.7872 22.4756 58.5821 22.3084 59.3564C22.282 59.4796 22.37 59.6028 22.4932 59.6204C22.5372 59.6292 22.59 59.6292 22.634 59.638C23.0915 59.682 23.5138 59.7084 23.9273 59.7084C25.1943 59.7084 26.1886 59.4708 26.9013 58.9957C27.6227 58.5206 28.1594 57.7463 28.5202 56.6905V56.7169L33.3506 42.7448C33.465 42.4544 33.3594 42.3048 33.0338 42.3048Z" fill="#E99500"/>
<path d="M44.1027 48.6137L43.3812 50.4878L42.0438 53.7257C41.8767 54.0952 41.7271 54.3416 41.4983 54.4559C41.2608 54.5703 41.1464 54.5703 40.8384 54.5703H39.7122C39.3515 54.5703 39.0963 54.5087 38.938 54.3856C38.7796 54.2624 38.674 54.0424 38.6212 53.7345L38.0669 50.3294L37.8029 48.6401H37.7062L36.1576 54.1128C36.1136 54.3504 36.0432 54.4911 35.9553 54.5351C35.8673 54.5791 35.7089 54.6055 35.4713 54.6055H32.0751C31.8991 54.6055 31.7671 54.5791 31.6704 54.5351C31.5736 54.4911 31.5472 54.3504 31.5912 54.1128L35.5593 42.4811C35.6561 42.2524 36.1928 42.2964 36.9935 42.2964L38.0757 42.3228C38.4188 42.3228 38.8764 42.3843 39.1491 42.4987C39.4219 42.6131 39.6066 42.9123 39.6946 43.3962L40.6097 48.7281H40.7945L43.1085 43.5985C43.4076 43.1322 43.566 42.7979 43.8915 42.6043C44.2171 42.4107 44.6394 42.314 45.1497 42.314H46.9006C47.4462 42.314 47.8333 42.4195 48.0708 42.6395C48.3084 42.8595 48.5108 43.273 48.3964 43.8801L48.3788 54.104C48.3348 54.3416 48.2644 54.4823 48.1764 54.5263C48.0884 54.5703 47.9301 54.5967 47.7189 54.5967H44.8418C44.6394 54.5967 44.5074 54.6143 44.4107 54.5703C44.3139 54.5263 44.1643 54.3768 44.1643 54.104L44.1819 48.6049H44.1027V48.6137Z" fill="#DF3376"/>
</g>
<defs>
<clipPath id="clip0_6079_4210">
<rect width="58" height="22.7266" fill="white" transform="translate(19 37)"/>
</clipPath>
</defs>
</svg>
