<svg width="63" height="62" viewBox="0 0 63 62" fill="none" xmlns="http://www.w3.org/2000/svg">
<circle opacity="0.2" cx="31.6641" cy="31" r="31" fill="#0097B9"/>
<g clip-path="url(#clip0_7088_20891)">
<path d="M42.2184 35.1774C43.2398 35.1774 44.2799 35.1774 45.3199 35.1774C46.4343 35.1774 47.2329 35.6995 47.5486 36.6319C47.8643 37.583 47.5486 38.4408 46.6386 39.1121C45.9328 39.6343 45.2271 40.1751 44.5027 40.6599C44.1684 40.8837 44.057 41.1075 44.2056 41.5177C44.5213 42.3942 44.7999 43.2706 45.0599 44.1657C45.3571 45.1354 45.0785 46.0305 44.317 46.59C43.5556 47.1494 42.6269 47.1494 41.7912 46.5527C40.8997 45.9373 40.0268 45.2846 39.0982 44.6133C38.2439 45.2287 37.4081 45.8441 36.5538 46.4594C35.5881 47.1494 34.678 47.1867 33.8608 46.5713C33.0808 45.9932 32.8394 45.0981 33.1922 44.0166C33.4523 43.196 33.6937 42.3755 33.9908 41.5737C34.158 41.1448 34.0466 40.9023 33.6751 40.6599C32.9508 40.1751 32.2451 39.6343 31.5393 39.1121C30.6664 38.4781 30.3693 37.6016 30.6664 36.6879C30.9821 35.7555 31.725 35.2333 32.7836 35.2147C33.7123 35.196 34.6409 35.196 35.5695 35.2147C35.9409 35.2333 36.0895 35.0842 36.2009 34.7485C36.4424 33.9093 36.721 33.0702 36.9996 32.231C37.371 31.1121 38.0953 30.534 39.1168 30.5527C40.1011 30.5713 40.8069 31.1308 41.1783 32.2124C41.494 33.1634 41.8098 34.0958 42.1255 35.0469C42.1441 35.0655 42.1626 35.1028 42.2184 35.1774ZM35.3652 44.5573C36.4424 43.7741 37.371 43.1214 38.281 42.4315C38.8382 42.0212 39.3768 42.0026 39.934 42.4315C40.2311 42.6552 40.5283 42.879 40.8254 43.0842C41.4383 43.5317 42.0698 43.9793 42.8312 44.5387C42.4412 43.3639 42.1441 42.3942 41.8283 41.4245C41.4569 40.2869 41.5312 40.0632 42.4784 39.3732C43.3141 38.7765 44.1313 38.1611 44.967 37.5643C43.8899 37.4338 42.887 37.4338 41.8655 37.4338C40.6583 37.4338 40.4911 37.3033 40.1197 36.1844C39.804 35.196 39.4697 34.2077 39.0796 33.0515C38.6711 34.3009 38.2996 35.3452 37.9839 36.4082C37.761 37.1354 37.3153 37.4525 36.5538 37.4338C35.4581 37.3965 34.3437 37.4338 33.248 37.4338C34.1023 38.217 35.0123 38.8883 35.9224 39.541C36.5167 39.9699 36.6838 40.4734 36.4424 41.1821C36.1081 42.2077 35.7738 43.2706 35.3652 44.5573Z" fill="#0097B9"/>
<path d="M39.1063 23.2238C39.0878 27.7366 35.4476 31.3916 30.9531 31.3916C26.4401 31.3916 22.7627 27.6993 22.7813 23.1678C22.7813 18.6737 26.4586 15 30.9345 15C35.4476 15 39.1249 18.6923 39.1063 23.2238ZM36.8591 23.1678C36.8405 19.8858 34.1847 17.2378 30.916 17.2378C27.6287 17.2564 24.9728 19.9604 24.9914 23.2611C25.0286 26.5058 27.7401 29.1911 30.9903 29.1538C34.2775 29.0979 36.8777 26.4499 36.8591 23.1678Z" fill="#0097B9"/>
<path d="M24.4328 45.5083C22.4455 45.5083 20.4397 45.5083 18.4525 45.5083C16.7439 45.5083 15.7224 44.4826 15.7038 42.7857C15.7038 42.4873 15.7224 42.1889 15.7038 41.8719C15.4809 39.0747 16.8182 37.1167 19.0468 35.6621C21.4055 34.1143 24.0428 33.3498 26.7915 32.9582C28.0915 32.7717 29.4287 32.7157 30.7473 32.6598C31.546 32.6225 32.066 33.0887 32.0845 33.7414C32.0845 34.3941 31.5645 34.8603 30.7659 34.8789C27.8686 34.8976 25.0085 35.2705 22.3527 36.464C21.2198 36.9675 20.1797 37.6761 19.1768 38.4407C18.1368 39.2239 17.8953 40.3987 17.9325 41.6854C17.9882 43.2892 17.9511 43.2892 19.5111 43.2892C23.207 43.2892 26.8843 43.2892 30.5802 43.2892C30.8588 43.2892 31.1559 43.3078 31.3974 43.4011C31.8988 43.6062 32.1588 44.0351 32.0474 44.5759C31.936 45.2099 31.5088 45.5269 30.8588 45.5269C28.7044 45.5083 26.5686 45.5083 24.4328 45.5083Z" fill="#0097B9"/>
</g>
<defs>
<clipPath id="clip0_7088_20891">
<rect width="32" height="32" fill="white" transform="translate(15.6641 15)"/>
</clipPath>
</defs>
</svg>
