<svg width="33" height="32" viewBox="0 0 33 32" fill="none" xmlns="http://www.w3.org/2000/svg">
<g id="Frame" clip-path="url(#clip0_7228_1080)">
<path id="Vector" d="M5.81147 13.4836C7.21074 14.8995 8.84323 15.4326 10.7256 14.9661C12.558 14.4997 13.774 13.317 14.2904 11.4846C14.3404 11.3014 14.1904 11.0348 14.0738 10.8516C13.3575 9.75218 13.2743 8.6361 13.9239 7.50335C14.5236 6.4539 15.7563 5.83756 16.939 6.03745C18.2217 6.25401 19.1045 6.98696 19.4544 8.25296C19.7209 9.20247 19.5377 10.102 18.938 10.9016C18.8214 11.0682 18.7048 11.318 18.7547 11.4846C19.2878 13.3337 20.5205 14.5164 22.3862 14.9661C24.2519 15.4159 25.8677 14.8662 27.2337 13.4836C26.634 12.684 26.2841 11.8511 26.484 10.8683C26.7672 9.41902 27.9499 8.38623 29.4158 8.36957C30.9151 8.35291 32.1478 9.31908 32.4643 10.8016C32.7641 12.1676 32.0312 13.6335 30.6985 14.1499C30.1821 14.3498 30.0988 14.6663 30.0322 15.1161C29.6657 17.6647 29.116 20.1801 27.8167 22.4622C27.7001 22.6621 27.6834 22.9287 27.6668 23.1785C27.6501 23.9115 27.6668 24.6278 27.6501 25.3607C27.6334 26.077 27.3003 26.4102 26.5673 26.4435C26.2009 26.4601 25.8177 26.4435 25.4346 26.4435C19.2212 26.4435 13.0244 26.4435 6.81095 26.4435C5.61158 26.4435 5.32839 26.1936 5.37836 24.9776C5.42834 23.6449 5.26176 22.4123 4.6121 21.1629C3.64593 19.2972 3.29611 17.1983 3.01293 15.1161C2.9463 14.6663 2.84635 14.3664 2.32995 14.1499C0.697468 13.4836 0.0478066 11.5846 0.830732 10.0354C1.61366 8.48618 3.54598 7.90315 5.0452 8.7527C6.56108 9.61892 7.04416 11.5346 6.11132 13.0171C6.06134 13.1504 5.96139 13.2837 5.81147 13.4836ZM28.1498 15.5158C28.0832 15.4992 28.0332 15.4659 27.9666 15.4492C27.9 15.4825 27.8333 15.5158 27.7667 15.5658C23.7688 18.3644 18.9213 16.9484 17.0556 12.4674C16.989 12.3009 16.7391 12.1676 16.5392 12.101C16.2227 12.001 16.0895 12.2009 15.9728 12.4841C14.1904 16.9151 9.2097 18.381 5.36171 15.6325C5.27842 15.5658 5.16181 15.5325 4.97857 15.4159C5.31173 17.3815 5.72818 19.1973 6.54442 20.9297C6.74432 21.3461 6.99419 21.4794 7.44395 21.4794C13.141 21.4628 18.8547 21.4628 24.5517 21.4628C26.3508 21.4628 26.4007 21.4794 26.9671 19.747C27.4502 18.3644 27.7834 16.9318 28.1498 15.5158ZM7.27737 24.4778C13.4908 24.4778 19.6209 24.4778 25.7511 24.4778C25.7511 24.0781 25.7511 23.7282 25.7511 23.3618C19.5876 23.3618 13.4575 23.3618 7.29403 23.3618C7.27737 23.5117 7.27737 23.6283 7.27737 23.7449C7.27737 23.9781 7.27737 24.2113 7.27737 24.4778ZM3.56264 12.5341C4.2123 12.5341 4.7287 12.0343 4.7287 11.4013C4.7287 10.7683 4.2123 10.2519 3.5793 10.2519C2.9463 10.2519 2.41324 10.7517 2.41324 11.3847C2.41324 12.001 2.92964 12.5174 3.56264 12.5341ZM30.6485 11.418C30.6652 10.8016 30.1488 10.2686 29.5158 10.2353C28.8828 10.2186 28.3497 10.7183 28.3331 11.3514C28.3164 11.9844 28.8162 12.5008 29.4492 12.5174C30.0822 12.5507 30.6152 12.051 30.6485 11.418ZM17.672 9.05255C17.672 8.41954 17.1722 7.90315 16.5392 7.88649C15.9062 7.88649 15.3898 8.40289 15.3898 9.03589C15.3898 9.68555 15.8896 10.1853 16.5226 10.2019C17.1556 10.2019 17.672 9.70221 17.672 9.05255Z" fill="#DF3577"/>
</g>
<defs>
<clipPath id="clip0_7228_1080">
<rect width="32" height="32" fill="white" transform="translate(0.5)"/>
</clipPath>
</defs>
</svg>
