<svg width="24" height="25" viewBox="0 0 24 25" fill="none" xmlns="http://www.w3.org/2000/svg">
<path fill-rule="evenodd" clip-rule="evenodd" d="M18 22.5H6C4.89543 22.5 4 21.6046 4 20.5V4.50002C4 3.39545 4.89543 2.50002 6 2.50002H13C13.009 2.49886 13.018 2.49886 13.027 2.50002H13.033C13.0424 2.50298 13.0522 2.50498 13.062 2.50602C13.1502 2.51167 13.2373 2.52882 13.321 2.55702H13.336H13.351H13.363C13.3815 2.56994 13.3988 2.58432 13.415 2.60002C13.5239 2.64844 13.6232 2.7162 13.708 2.80002L19.708 8.80002C19.7918 8.8848 19.8596 8.98407 19.908 9.09302C19.917 9.11502 19.924 9.13602 19.931 9.15902L19.941 9.18702C19.9689 9.27041 19.9854 9.3572 19.99 9.44502C19.9909 9.45498 19.9932 9.46476 19.997 9.47402V9.48002C19.9986 9.48657 19.9996 9.49327 20 9.50002V20.5C20 21.0305 19.7893 21.5392 19.4142 21.9142C19.0391 22.2893 18.5304 22.5 18 22.5ZM13 4.50002V9.50002H18L13 4.50002ZM12.8517 15.8891C12.8517 15.8891 12.8517 15.8891 12.8517 15.8891L12.8487 15.8898L12.8517 15.8891ZM8.56978 14.3H6.79688V19.4612H7.98823V17.6954H8.56978C8.90839 17.6954 9.21032 17.6319 9.4678 17.4956L9.46914 17.4948C9.72566 17.3565 9.92424 17.1582 10.0607 16.903C10.1971 16.6478 10.2609 16.3501 10.2609 16.0173C10.2609 15.6961 10.1966 15.4034 10.0622 15.1443C9.92713 14.8816 9.73053 14.6738 9.47562 14.5238C9.21649 14.3714 8.91164 14.3 8.56978 14.3ZM8.56978 16.6315H7.98823V15.3671H8.56978C8.70315 15.3671 8.78775 15.3992 8.84337 15.4439C8.91231 15.4994 8.9646 15.573 8.99903 15.6713L9.00005 15.6741C9.03941 15.7815 9.05976 15.8976 9.05976 16.0238C9.05976 16.158 9.03897 16.271 9.00165 16.366L9.00056 16.3689C8.96847 16.4545 8.91941 16.5163 8.85289 16.5616L8.85124 16.5627C8.79413 16.6025 8.70603 16.6315 8.56978 16.6315ZM11.8971 14.3H10.497V19.4612H11.8644C12.1683 19.4612 12.4474 19.4144 12.6988 19.3168C12.9497 19.2194 13.1667 19.0756 13.347 18.8854L13.3479 18.8845C13.5284 18.6916 13.6643 18.4577 13.7574 18.188C13.8509 17.9145 13.8957 17.6063 13.8957 17.2665V16.498C13.8957 16.1582 13.8509 15.85 13.7574 15.5765C13.6645 15.3049 13.5289 15.0712 13.348 14.88C13.1703 14.6879 12.9568 14.5427 12.7098 14.4448C12.4629 14.3471 12.1911 14.3 11.8971 14.3ZM11.6916 18.3974V15.3671H11.8971C12.0597 15.3671 12.1875 15.3907 12.2861 15.4308L12.2888 15.4319C12.3837 15.4689 12.4559 15.5245 12.5109 15.5995L12.5137 15.6031C12.5719 15.6785 12.6209 15.7854 12.6534 15.9329L12.6541 15.9359C12.6887 16.0819 12.7076 16.2661 12.7076 16.4915V17.2665C12.7076 17.5589 12.6749 17.7856 12.6171 17.9534C12.5622 18.1129 12.4782 18.2188 12.3704 18.2869C12.2599 18.3544 12.0968 18.3974 11.8644 18.3974H11.6916ZM17.1969 14.3H14.2364V19.4612H15.431V17.4436H16.9745V16.3765H15.431V15.3671H17.1969V14.3Z" fill="#0097B9"/>
</svg>
