<svg width="63" height="62" viewBox="0 0 63 62" fill="none" xmlns="http://www.w3.org/2000/svg">
<circle opacity="0.2" cx="31.3359" cy="31" r="31" fill="#0097B9"/>
<g clip-path="url(#clip0_7088_11191)">
<path d="M24.5176 44.1121C21.0121 44.2957 18.0909 41.3745 18.3413 37.869C18.4081 36.8675 18.1744 36.1664 17.3731 35.482C14.6021 33.0782 14.6689 28.8383 17.5067 26.4846C18.1744 25.9337 18.4248 25.3328 18.358 24.4814C18.0575 20.6421 20.9788 17.7209 24.8348 18.0214C25.6527 18.0881 26.237 17.8544 26.7878 17.2034C29.1916 14.2822 33.515 14.2822 35.9355 17.2034C36.4696 17.8544 37.0539 18.0881 37.8718 18.0214C41.7445 17.7209 44.6491 20.6421 44.3486 24.5482C44.2818 25.3495 44.5155 25.917 45.1499 26.4512C48.0878 28.8883 48.0878 33.2284 45.1499 35.6656C44.5155 36.1831 44.2818 36.7506 44.3486 37.5686C44.6491 41.458 41.7946 44.3625 37.9386 44.0954C37.0706 44.0287 36.4529 44.279 35.8854 44.9634C33.5484 47.7678 29.3919 47.8179 26.9381 45.1137C25.9532 44.0287 25.9532 44.0287 24.5176 44.1121ZM41.828 24.5148C42.2119 22.1445 40.2255 20.158 37.8217 20.5086C36.286 20.7256 35.0341 20.1079 34.0659 18.8727C32.647 17.0866 30.1097 17.0198 28.7075 18.7725C27.6225 20.1413 26.2704 20.6755 24.551 20.5086C22.3309 20.3083 20.6282 22.0276 20.8452 24.2477C21.0121 25.9671 20.4613 27.3192 19.1092 28.4042C17.4232 29.7564 17.4232 32.2937 19.0925 33.6458C20.478 34.7642 21.0288 36.1163 20.8452 37.869C20.7117 39.1043 21.1958 40.1226 22.1639 40.8904C22.8984 41.4747 23.7498 41.675 24.6845 41.5748C26.3204 41.3912 27.6392 41.9421 28.6741 43.2441C30.093 45.0302 32.647 45.0135 34.0826 43.2107C35.0507 41.9921 36.286 41.4246 37.8384 41.5414C38.3559 41.5748 38.8901 41.5748 39.3742 41.458C41.0101 41.0407 42.0283 39.555 41.8614 37.7522C41.6945 36.0829 42.2453 34.7642 43.564 33.6958C45.3168 32.2937 45.3001 29.7397 43.5307 28.3208C42.262 27.3526 41.6778 26.1006 41.828 24.5148Z" fill="#0097B9"/>
<path d="M27.8038 36.0495C26.652 36.0495 26.0511 35.048 26.4851 34.23C26.5685 34.0631 26.7021 33.9295 26.8356 33.796C29.2394 31.3756 31.6431 28.9551 34.0636 26.5514C34.314 26.301 34.7146 26.0506 35.0151 26.084C35.399 26.1173 35.8998 26.351 36.0834 26.6515C36.2837 26.952 36.2003 27.4528 36.1669 27.8701C36.1502 28.0203 35.9666 28.1705 35.833 28.3041C33.4293 30.7245 31.0255 33.145 28.6051 35.5487C28.3547 35.7991 27.9707 35.9494 27.8038 36.0495Z" fill="#0097B9"/>
<path d="M27.5545 26.0339C28.2556 26.0172 28.8398 26.5847 28.8398 27.2858C28.8398 27.9535 28.289 28.5211 27.6213 28.5378C26.9202 28.5545 26.3359 27.9869 26.3359 27.2858C26.3526 26.6181 26.8868 26.0506 27.5545 26.0339Z" fill="#0097B9"/>
<path d="M35.0804 33.5456C35.7815 33.5456 36.3491 34.1299 36.3324 34.831C36.3157 35.4987 35.7648 36.0495 35.0804 36.0495C34.3793 36.0495 33.8118 35.4653 33.8285 34.7642C33.8452 34.0965 34.4127 33.5456 35.0804 33.5456Z" fill="#0097B9"/>
</g>
<defs>
<clipPath id="clip0_7088_11191">
<rect width="32" height="32" fill="white" transform="translate(15.3359 15)"/>
</clipPath>
</defs>
</svg>
