<svg width="75" height="74" viewBox="0 0 75 74" fill="none" xmlns="http://www.w3.org/2000/svg">
<rect x="0.5" width="74" height="74" rx="10" fill="#0097B9" fill-opacity="0.2"/>
<g clip-path="url(#clip0_7149_20233)">
<g clip-path="url(#clip1_7149_20233)">
<path d="M40.5843 49.1273C39.0006 50.5962 37.4857 51.9963 35.9709 53.3735C33.5379 55.5999 30.8295 54.9113 29.7278 51.7898C28.4425 48.1174 27.1342 44.445 25.8718 40.7496C25.6881 40.2217 25.4357 39.9692 24.9078 39.8315C22.6814 39.2118 20.455 38.5921 18.2286 37.9264C17.563 37.7199 16.8744 37.4215 16.3235 37.0083C15.2218 36.1821 15.1988 34.8049 16.2317 33.8868C16.6678 33.4966 17.2187 33.1753 17.7695 32.9687C30.1409 28.2175 42.4894 23.4893 54.8608 18.807C55.5723 18.5316 56.4445 18.4398 57.202 18.5316C58.8546 18.7381 59.7956 20.4137 59.4054 22.3646C58.648 26.2666 57.8446 30.1685 57.0643 34.0704C55.8248 40.2217 54.5854 46.373 53.323 52.5243C52.6803 55.6917 50.0178 56.6787 47.4931 54.7047C45.1748 52.8685 42.9255 51.0323 40.5843 49.1273ZM19.009 35.264C19.009 35.3328 19.009 35.4017 19.009 35.4705C21.2583 36.1132 23.4847 36.8018 25.7341 37.3985C26.1931 37.5133 26.8128 37.4444 27.2489 37.2379C34.1347 33.7491 40.9975 30.2144 47.8832 26.7027C48.1357 26.5649 48.3882 26.4043 48.6407 26.3125C49.2374 26.1059 49.7883 26.1977 50.1785 26.7486C50.5457 27.2765 50.5228 27.8273 50.1096 28.3323C49.9719 28.5159 49.8113 28.6766 49.6506 28.8372C45.5421 33.1982 41.4565 37.5822 37.348 41.9431C37.1415 42.1727 36.9349 42.4022 36.7054 42.6547C36.9578 42.8842 37.1415 43.0449 37.348 43.2055C40.9975 46.1664 44.6469 49.1043 48.3193 52.0652C48.6866 52.3636 49.0309 52.662 49.3981 52.9144C50.0408 53.3276 50.4539 53.1669 50.6835 52.4324C50.7523 52.2259 50.7982 51.9963 50.8441 51.7668C52.818 42.012 54.769 32.2801 56.72 22.5253C56.8118 22.0892 56.72 21.6072 56.72 21.1252C56.2609 21.217 55.756 21.217 55.3428 21.3777C46.8274 24.614 38.312 27.8732 29.7967 31.1325C26.1931 32.5097 22.6125 33.8868 19.009 35.264ZM31.7247 49.7011C32.023 48.5076 32.3673 47.6124 32.4591 46.6714C32.8264 43.4121 34.4101 40.8873 36.7972 38.6609C38.9088 36.71 40.768 34.4836 42.7419 32.3719C42.7189 32.326 42.673 32.2801 42.6501 32.2342C37.83 34.6901 33.033 37.169 28.2129 39.6249C29.3835 42.999 30.5311 46.2353 31.7247 49.7011ZM33.9511 51.5143C33.997 51.5373 34.0429 51.5832 34.0888 51.6062C35.5577 50.252 37.0267 48.8978 38.5645 47.4977C37.5317 46.6714 36.5906 45.9139 35.5577 45.0876C34.9839 47.314 34.479 49.4257 33.9511 51.5143Z" fill="#0097B9"/>
</g>
</g>
<defs>
<clipPath id="clip0_7149_20233">
<rect width="44" height="44" fill="white" transform="translate(15.5 15)"/>
</clipPath>
<clipPath id="clip1_7149_20233">
<rect width="44" height="37.229" fill="white" transform="translate(15.5 18.4854)"/>
</clipPath>
</defs>
</svg>
