<svg width="62" height="62" viewBox="0 0 62 62" fill="none" xmlns="http://www.w3.org/2000/svg">
<circle opacity="0.2" cx="31" cy="31" r="31" fill="#0097B9"/>
<path d="M31.0417 19C35.1481 19 39.2546 19 43.3443 19C45.6813 19 46.9833 20.2853 46.9833 22.6223C46.9833 28.782 46.9833 34.9416 46.9833 41.1012C46.9833 42.4199 46.349 42.7872 45.1972 42.1195C43.9118 41.385 42.6432 40.6338 41.3579 39.916C41.024 39.7324 40.6234 39.6155 40.2561 39.6155C33.0449 39.5989 25.8503 39.5989 18.639 39.5989C16.252 39.5989 15 38.3302 15 35.9264C15 31.5029 15 27.0626 15 22.639C15 20.2853 16.2853 19 18.6724 19C22.7955 19 26.9186 19 31.0417 19ZM45.0803 39.8659C45.097 39.7157 45.1304 39.6656 45.1304 39.5989C45.1304 33.8399 45.1304 28.0809 45.1304 22.3052C45.1304 21.3871 44.5629 20.8696 43.6114 20.8696C35.2149 20.8696 26.8185 20.8696 18.4387 20.8696C17.4371 20.8696 16.903 21.4038 16.903 22.422C16.903 24.0245 16.903 25.627 16.903 27.2295C16.903 30.2175 16.903 33.2222 16.903 36.2102C16.903 37.0282 17.337 37.6458 18.0381 37.6959C19.0897 37.746 20.1414 37.7126 21.2765 37.7126C21.2765 36.1435 21.2598 34.6411 21.2932 33.1221C21.2932 32.7214 21.1763 32.4544 20.8592 32.1873C17.771 29.6834 18.1716 24.8925 21.5436 22.9729C22.3949 22.4888 23.096 22.8727 23.1127 23.8576C23.1294 24.5086 23.1294 25.1429 23.1127 25.7939C23.096 26.1445 23.1961 26.3615 23.4966 26.5618C24.4147 27.1961 24.3813 27.1628 25.2994 26.5785C25.8169 26.2447 25.7001 25.8106 25.7001 25.3766C25.7167 24.9426 25.7001 24.5086 25.7001 24.0579C25.7001 23.5905 25.7001 23.1398 26.1841 22.856C26.6682 22.5889 27.0689 22.8226 27.4528 23.073C30.6411 25.1095 30.9416 29.6834 28.0704 32.1372C27.8701 32.3041 27.603 32.5378 27.603 32.7381C27.5696 34.374 27.5863 36.0099 27.5863 37.7126C27.8868 37.7126 28.1372 37.7126 28.3876 37.7126C32.494 37.7126 36.6004 37.6959 40.6901 37.7293C41.1075 37.7293 41.5582 37.8628 41.9254 38.0631C42.977 38.614 43.9786 39.2316 45.0803 39.8659ZM21.2264 25.9943C20.1247 27.747 20.6588 29.9171 22.4116 31.0355C22.9291 31.3693 23.1461 31.7533 23.1294 32.3542C23.096 33.5728 23.1127 34.808 23.1127 36.0266C23.1127 36.5775 23.1127 37.1283 23.1127 37.6959C23.9974 37.6959 24.8153 37.6959 25.7001 37.6959C25.7001 37.4455 25.7001 37.2285 25.7001 36.9948C25.7001 35.5425 25.7334 34.0902 25.6834 32.638C25.6667 31.8534 25.867 31.3526 26.5681 30.9019C28.204 29.8503 28.6714 27.4966 27.5863 26.011C27.5696 26.6787 27.6197 27.2796 27.0021 27.6635C26.3344 28.0809 25.7001 28.5483 25.049 29.0156C24.5983 29.3328 24.1643 29.3495 23.7303 29.0323C23.313 28.7319 22.8957 28.4147 22.445 28.1476C21.6771 27.6468 20.9593 27.1294 21.2264 25.9943Z" fill="#0097B9"/>
<path d="M37.5702 24.6254C36.0678 24.6254 34.5655 24.6254 33.0798 24.6254C32.3787 24.6254 31.9781 24.2916 31.9614 23.724C31.9447 23.1398 32.3787 22.7559 33.0798 22.7559C36.1012 22.7559 39.1226 22.7559 42.144 22.7559C42.8451 22.7559 43.2791 23.1565 43.2624 23.724C43.2457 24.2749 42.8284 24.6254 42.144 24.6254C40.6082 24.6254 39.0892 24.6254 37.5702 24.6254Z" fill="#0097B9"/>
<path d="M37.6135 28.3646C36.0945 28.3646 34.5754 28.3646 33.0564 28.3646C32.3553 28.3646 31.9547 28.0307 31.938 27.4632C31.9213 26.8789 32.3553 26.495 33.0564 26.495C36.0778 26.495 39.0992 26.495 42.1205 26.495C42.8216 26.495 43.2556 26.8956 43.239 27.4632C43.2223 28.014 42.8049 28.3646 42.1205 28.3646C40.6182 28.3646 39.1158 28.3646 37.6135 28.3646Z" fill="#0097B9"/>
<path d="M37.5702 32.1204C36.0678 32.1204 34.5655 32.1204 33.0798 32.1204C32.362 32.1204 31.9447 31.7532 31.9614 31.169C31.9781 30.6181 32.3954 30.2509 33.0798 30.2509C36.1012 30.2509 39.1226 30.2509 42.144 30.2509C42.8451 30.2509 43.2958 30.6348 43.2791 31.219C43.2624 31.7699 42.8451 32.1204 42.1607 32.1204C40.6083 32.1204 39.0892 32.1204 37.5702 32.1204Z" fill="#0097B9"/>
<path d="M35.6772 35.8596C34.7758 35.8596 33.891 35.8596 32.9896 35.8596C32.3386 35.8596 31.9547 35.509 31.938 34.9582C31.9213 34.3906 32.3386 33.99 32.9896 33.99C34.7758 33.9733 36.5619 33.9733 38.3647 33.99C39.0324 33.99 39.433 34.3906 39.4163 34.9582C39.3996 35.509 38.999 35.8429 38.3647 35.8596C37.48 35.8596 36.5786 35.8596 35.6772 35.8596Z" fill="#0097B9"/>
</svg>
