<svg width="32" height="32" viewBox="0 0 32 32" fill="none" xmlns="http://www.w3.org/2000/svg">
<g clip-path="url(#clip0_5682_1514)">
<path d="M15.9943 32.0003C15.5725 32.0003 15.2878 31.7362 15.1402 31.208C14.6974 29.655 14.2967 28.0809 13.8012 26.549C12.42 22.2492 9.54154 19.4391 5.23972 18.1079C3.76361 17.6536 2.26641 17.2522 0.769213 16.8296C0.263118 16.6817 -0.000473664 16.3753 0.01007 15.9528C0.0206137 15.5513 0.284205 15.2555 0.769213 15.1182C2.53 14.6005 4.33297 14.199 6.05159 13.5546C10.1214 12.0439 12.7257 9.11749 13.9382 4.93394C14.3389 3.53942 14.729 2.15546 15.1297 0.760941C15.2773 0.264407 15.5831 -0.0102707 16.0048 0.000293863C16.4265 0.000293863 16.7218 0.264407 16.8694 0.771506C17.2911 2.22941 17.6812 3.68732 18.1241 5.13466C19.5053 9.65629 22.4892 12.5615 27.0124 13.9032C28.4147 14.3153 29.817 14.7061 31.2088 15.1076C31.7359 15.2555 31.989 15.5407 31.9995 15.9633C31.9995 16.3859 31.7465 16.6817 31.2193 16.8296C29.5956 17.305 27.9402 17.7065 26.3481 18.2453C22.0779 19.6926 19.3366 22.6401 18.0714 26.9716C17.6602 28.3872 17.27 29.8029 16.8588 31.2185C16.7112 31.7362 16.4055 32.0003 15.9943 32.0003Z" fill="#E99500"/>
</g>
<defs>
<clipPath id="clip0_5682_1514">
<rect width="32" height="32" fill="white"/>
</clipPath>
</defs>
</svg>
