<svg width="63" height="62" viewBox="0 0 63 62" fill="none" xmlns="http://www.w3.org/2000/svg">
<circle opacity="0.2" cx="31.6641" cy="31" r="31" fill="#0097B9"/>
<g clip-path="url(#clip0_7088_25633)">
<path d="M33.0109 26.277C36.5628 26.7106 37.5133 27.5277 38.2803 30.796C39.1641 30.5126 40.0479 30.2291 40.8483 29.9623C38.5638 28.5115 37.8301 27.1108 38.4471 25.2098C38.964 23.5756 40.5649 22.5084 42.2824 22.6251C43.95 22.7252 45.3674 24.0092 45.6842 25.6767C46.0344 27.5443 45.1506 28.9951 42.9661 30.029C43.3497 30.079 43.6832 30.1124 44 30.1957C46.1678 30.696 47.6352 32.5136 47.6519 34.7314C47.6686 37.7497 47.6519 40.7679 47.6519 43.7695C47.6519 44.9034 47.3851 45.1702 46.2678 45.1702C40.0479 45.1702 33.828 45.1702 27.6081 45.1702C24.0896 45.1702 20.5711 45.1702 17.0693 45.1702C15.9854 45.1702 15.7019 44.8867 15.7019 43.8028C15.7019 40.968 15.7853 38.1499 15.6686 35.3151C15.5685 32.7637 17.136 30.2291 20.3377 30.029C18.0031 28.6783 17.2027 27.2442 17.7363 25.3432C18.2032 23.6923 19.7374 22.5584 21.4716 22.6084C23.1558 22.6418 24.5899 23.8424 25.0068 25.5266C25.457 27.3609 24.5732 28.8617 22.4888 29.9623C23.3059 30.2291 24.1897 30.5126 25.1068 30.796C25.2069 29.512 25.7071 28.3448 26.7577 27.4443C27.7915 26.5605 29.0088 26.227 30.3762 26.277C29.1423 25.7768 28.1251 25.043 27.5247 23.8424C26.9078 22.6251 26.8244 21.3745 27.2913 20.1071C27.975 18.1728 29.8926 16.9055 31.877 17.0055C33.9781 17.1223 35.7123 18.5563 36.2293 20.5907C36.7962 22.8752 35.8457 24.5428 33.0109 26.277ZM27.0412 43.2525C30.1428 43.2525 33.211 43.2525 36.296 43.2525C36.3127 43.1191 36.346 43.0191 36.346 42.919C36.346 38.9336 36.3794 34.9482 36.3293 30.9461C36.3127 29.0285 34.6951 27.8779 32.7441 28.2781C32.7942 28.4615 32.8442 28.6282 32.9109 28.8117C33.3945 30.2624 33.8614 31.7299 34.3616 33.1806C34.5451 33.7142 34.495 34.1311 34.0782 34.548C33.5279 35.115 32.9943 35.6986 32.444 36.2656C31.9104 36.8158 31.4268 36.8158 30.8932 36.2656C30.3596 35.7153 29.8593 35.1316 29.309 34.598C28.8588 34.1645 28.8087 33.6976 29.0088 33.1306C29.5258 31.6798 29.9927 30.2291 30.4763 28.7616C30.5263 28.5949 30.5597 28.4281 30.6264 28.178C30.0761 28.2114 29.5925 28.1947 29.1256 28.2947C27.7915 28.5949 27.0078 29.6788 27.0078 31.1963C26.9911 35.0149 27.0078 38.8336 27.0078 42.6689C27.0078 42.8523 27.0245 43.0358 27.0412 43.2525ZM20.4377 31.9633C18.7702 31.9466 17.5862 33.1473 17.5696 34.7815C17.5529 37.4662 17.5696 40.1342 17.5696 42.819C17.5696 42.9524 17.6029 43.0858 17.6196 43.2359C20.1209 43.2359 22.5888 43.2359 25.1235 43.2359C25.1235 42.9524 25.1235 42.7022 25.1235 42.4521C25.1235 40.1009 25.1235 37.7497 25.1235 35.4151C25.1235 35.0149 25.1235 34.6147 25.0735 34.2312C24.89 32.9138 23.6561 31.8966 22.322 31.98C22.322 32.1968 22.322 32.4302 22.322 32.647C22.322 33.9477 22.3387 35.265 22.322 36.5657C22.322 37.1827 21.9218 37.5662 21.3549 37.5496C20.8212 37.5329 20.4711 37.166 20.4544 36.5657C20.4377 36.3656 20.4544 36.1488 20.4544 35.9487C20.4377 34.648 20.4377 33.3307 20.4377 31.9633ZM45.7009 43.2859C45.7509 43.1858 45.7676 43.1525 45.7676 43.1025C45.7676 40.2343 45.8176 37.3661 45.7509 34.498C45.7176 33.0305 44.4002 31.9133 42.9494 31.9633C42.9328 32.1301 42.9161 32.2801 42.9161 32.4469C42.9161 33.7976 42.9161 35.1483 42.9161 36.499C42.9161 37.1827 42.5492 37.5829 41.9656 37.5662C41.3986 37.5662 41.0485 37.1494 41.0318 36.4823C41.0318 36.0488 41.0318 35.6152 41.0318 35.1817C41.0318 34.1144 41.0318 33.0305 41.0318 31.9633C39.3809 31.9466 38.247 33.1473 38.2303 34.8815C38.2136 37.4995 38.2303 40.1176 38.2303 42.7356C38.2303 42.9023 38.2637 43.0524 38.2803 43.2192C38.3971 43.2359 38.4804 43.2692 38.5471 43.2692C40.9317 43.2859 43.2996 43.2859 45.7009 43.2859ZM31.6602 24.4928C33.2277 24.4928 34.4784 23.2755 34.4784 21.708C34.4784 20.1572 33.211 18.8898 31.6769 18.8898C30.1594 18.8898 28.9088 20.1405 28.8921 21.6579C28.8588 23.2254 30.0927 24.4761 31.6602 24.4928ZM23.2058 26.327C23.2058 25.2932 22.3721 24.4761 21.3549 24.4761C20.3377 24.4761 19.4872 25.3265 19.4872 26.327C19.4705 27.3609 20.3543 28.228 21.3882 28.2114C22.4054 28.1947 23.2058 27.3609 23.2058 26.327ZM40.148 26.3437C40.148 27.3776 40.9651 28.2114 41.9823 28.2114C42.9995 28.2114 43.8499 27.3776 43.8666 26.3771C43.8833 25.3599 43.0161 24.4761 41.9823 24.4761C40.9651 24.4761 40.148 25.3099 40.148 26.3437ZM31.7603 34.3145C31.9771 34.0144 32.4273 33.6809 32.3939 33.4141C32.2939 32.697 31.9771 31.9967 31.7436 31.2963C31.4601 31.7299 31.3601 32.1634 31.1766 32.547C30.8098 33.2807 30.9265 33.8476 31.7603 34.3145Z" fill="#0097B9"/>
</g>
<defs>
<clipPath id="clip0_7088_25633">
<rect width="32" height="32" fill="white" transform="translate(15.6641 15)"/>
</clipPath>
</defs>
</svg>
