<svg width="92" height="91" viewBox="0 0 92 91" fill="none" xmlns="http://www.w3.org/2000/svg">
<circle opacity="0.3" cx="62" cy="40.5" r="26.5" fill="#DF3577"/>
<rect x="13" y="29.5" width="66" height="45" rx="5.5" stroke="#50398C" stroke-width="3"/>
<mask id="path-3-inside-1_7228_10078" fill="white">
<path d="M11.5 28C11.5 24.134 14.634 21 18.5 21H61.5C65.366 21 68.5 24.134 68.5 28V30H11.5V28Z"/>
</mask>
<path d="M8.5 28C8.5 22.4772 12.9772 18 18.5 18H61.5C67.0228 18 71.5 22.4772 71.5 28H65.5C65.5 25.7909 63.7091 24 61.5 24H18.5C16.2909 24 14.5 25.7909 14.5 28H8.5ZM68.5 30H11.5H68.5ZM8.5 30V28C8.5 22.4772 12.9772 18 18.5 18V24C16.2909 24 14.5 25.7909 14.5 28V30H8.5ZM61.5 18C67.0228 18 71.5 22.4772 71.5 28V30H65.5V28C65.5 25.7909 63.7091 24 61.5 24V18Z" fill="#50398C" mask="url(#path-3-inside-1_7228_10078)"/>
<mask id="path-5-inside-2_7228_10078" fill="white">
<path d="M58.5 50C58.5 46.6863 61.1863 44 64.5 44H79.5V60H64.5C61.1863 60 58.5 57.3137 58.5 54V50Z"/>
</mask>
<path d="M55.5 50C55.5 45.0294 59.5294 41 64.5 41H79.5V47H64.5C62.8431 47 61.5 48.3431 61.5 50H55.5ZM79.5 63H64.5C59.5294 63 55.5 58.9706 55.5 54H61.5C61.5 55.6569 62.8431 57 64.5 57H79.5V63ZM64.5 63C59.5294 63 55.5 58.9706 55.5 54V50C55.5 45.0294 59.5294 41 64.5 41V47C62.8431 47 61.5 48.3431 61.5 50V54C61.5 55.6569 62.8431 57 64.5 57V63ZM79.5 44V60V44Z" fill="#50398C" mask="url(#path-5-inside-2_7228_10078)"/>
<line x1="13" y1="27" x2="13" y2="41" stroke="#50398C" stroke-width="3"/>
</svg>
