<svg width="22" height="14" viewBox="0 0 22 14" fill="none" xmlns="http://www.w3.org/2000/svg">
<g id="icon">
<path id="Vector 165 (Stroke)" fill-rule="evenodd" clip-rule="evenodd" d="M0.75 7C0.75 6.58579 1.08579 6.25 1.5 6.25L19.5007 6.25C19.9149 6.25 20.2507 6.58579 20.2507 7C20.2507 7.41421 19.9149 7.75 19.5007 7.75L1.5 7.75C1.08579 7.75 0.75 7.41421 0.75 7Z" fill="#2D2C34"/>
<path id="Vector 166 (Stroke)" fill-rule="evenodd" clip-rule="evenodd" d="M15.0199 0.423862C15.3381 0.158683 15.811 0.201667 16.0762 0.51987L20.8096 6.19977C21.1959 6.66333 21.1959 7.3367 20.8096 7.80027L16.0762 13.4802C15.811 13.7984 15.3381 13.8414 15.0199 13.5762C14.7017 13.311 14.6587 12.8381 14.9239 12.5199L19.5239 7.00002L14.9239 1.48017C14.6587 1.16197 14.7017 0.689041 15.0199 0.423862Z" fill="#2D2C34"/>
</g>
</svg>
