<svg width="44" height="53" viewBox="0 0 44 53" fill="none" xmlns="http://www.w3.org/2000/svg">
<g clip-path="url(#clip0_6442_4886)">
<path d="M31.4978 52.9995C31.2557 52.7231 30.9282 52.4742 30.7858 52.1563C28.5929 47.2074 26.4285 42.2447 24.2356 37.2958C23.2389 35.0426 21.5017 33.6464 19.0097 33.1902C18.668 33.1211 18.2978 33.1349 17.956 33.0934C17.358 33.0381 17.0589 32.734 17.0874 32.264C17.1159 31.8078 17.4434 31.5037 18.013 31.559C19.0097 31.6558 20.0065 31.8355 21.0318 31.9875C21.0318 31.9599 21.0602 31.8355 21.0602 31.7111C21.0602 31.0337 21.0033 30.3563 21.0745 29.6928C21.1599 28.8634 21.0033 28.2966 20.0635 28.0478C19.5366 27.9096 19.38 27.3704 19.6078 26.9557C19.8214 26.5687 20.2628 26.4442 20.7612 26.6654C22.356 27.3843 24.0078 27.9648 25.7593 28.2275C27.468 28.4763 28.3081 28.1169 29.1483 26.6516C29.3619 26.2784 29.547 25.8775 29.7178 25.4904C29.8887 25.1172 30.0169 24.7163 30.1735 24.2877C30.0026 24.2325 29.8602 24.1772 29.7036 24.1495C28.7496 23.873 27.8952 23.4445 27.2544 22.6704C26.9127 22.2557 26.9269 21.8133 27.2829 21.523C27.6246 21.2327 28.1088 21.2742 28.4505 21.6751C29.0201 22.311 29.7321 22.6151 30.6149 22.7533C30.7716 22.1451 30.9282 21.5645 31.0564 20.9839C31.1703 20.5001 31.4266 20.2236 31.9534 20.1821C32.0958 20.1683 32.2382 20.1545 32.3664 20.113C33.4201 19.8503 33.6337 19.2283 32.9075 18.4542C32.1101 17.5971 31.3411 16.74 31.213 15.5374C31.1703 15.0674 31.156 14.5697 31.2272 14.0997C31.2842 13.7265 31.1845 13.4638 30.8285 13.3809C29.9741 13.1735 29.1198 12.98 28.2654 12.8003C28.0376 12.7588 27.8097 12.8003 27.5677 12.8003C26.9696 12.8003 26.6279 12.5238 26.6279 12.0538C26.6136 11.5976 26.9411 11.2935 27.4822 11.252C28.7496 11.1829 30.0026 11.3211 31.1845 11.805C31.2984 11.8464 31.4123 11.8879 31.5547 11.9432C31.8395 9.74524 31.6402 7.65786 30.4013 5.75019C30.3444 5.77784 30.3017 5.77784 30.2874 5.80549C29.2479 8.14169 27.169 9.0817 24.791 9.44112C23.8085 9.59318 23.2816 9.86965 22.9256 10.8235C22.2564 12.6067 21.0745 14.1135 19.7217 15.4821C19.2376 15.9797 18.7819 15.9521 18.3263 15.4406C17.7852 14.8324 17.2013 14.6388 16.5463 14.86C15.8913 15.0812 15.4356 15.7171 15.3929 16.4497C15.3217 18.1224 16.5606 19.4909 18.2835 19.6292C19.1664 19.6983 19.4939 19.9609 19.4369 20.5139C19.38 21.0392 19.024 21.2327 18.1696 21.1774C17.0305 21.1083 16.0479 20.6521 15.2363 19.9471C14.3107 20.5554 13.4279 21.1498 12.5165 21.758C13.3709 25.1172 12.2887 28.2966 11.3347 31.5728C12.2033 31.5728 13.0007 31.5728 13.8123 31.5728C14.0971 31.5728 14.3819 31.559 14.6667 31.5867C15.1366 31.6281 15.4356 31.9461 15.4356 32.3608C15.4356 32.7617 15.1224 33.1073 14.6525 33.1211C13.8835 33.1487 13.1288 33.1211 12.3599 33.1349C11.8473 33.1487 11.2065 33.0105 10.8648 33.2593C10.5373 33.4805 10.523 34.1302 10.3949 34.5864C8.80004 39.8809 9.4693 45.0509 11.2492 50.1657C11.4201 50.6772 11.6479 51.161 11.8473 51.6586C12.1463 52.3913 12.1178 52.5434 11.534 53.041C11.3631 53.041 11.178 53.041 11.0072 53.041C10.8078 52.7922 10.523 52.571 10.3949 52.2945C8.60069 48.1336 7.74632 43.8068 7.91719 39.2864C8.00263 36.9641 8.68612 34.7385 9.34114 32.5267C9.95344 30.4255 10.5515 28.3104 11.0356 26.1816C11.3204 24.9651 11.3489 23.6933 11.0214 22.463C10.0958 22.6704 9.21299 22.9607 8.3159 23.0713C5.36832 23.4169 2.8337 22.6566 1.09648 20.1959C-1.33847 16.6571 0.284829 11.0861 5.79551 10.3811C6.74955 10.2567 6.76379 10.2844 6.92043 9.33053C7.5612 5.29401 9.9392 2.62604 13.7981 1.1469C17.3437 -0.22164 21.0033 -0.263112 24.6913 0.524838C25.2609 0.649251 25.5314 1.00867 25.4318 1.46485C25.3321 1.92103 24.9191 2.14221 24.3496 2.0178C24.1929 1.99015 24.0363 1.94868 23.8797 1.92103C20.9321 1.36808 18.013 1.38191 15.1508 2.29427C11.89 3.34487 9.51201 5.28019 8.68612 8.65316C8.07383 11.1829 8.37286 13.6297 9.56897 15.9382C10.3094 17.3621 11.1496 18.7445 11.9897 20.2374C12.7017 19.7398 13.4136 19.2559 14.0971 18.7445C14.1968 18.6753 14.1826 18.4265 14.1541 18.2606C14.0686 17.4865 13.7981 16.6847 13.8978 15.9244C14.211 13.5606 16.7457 12.4685 18.8389 13.7265C18.8958 13.7679 18.967 13.7956 19.0525 13.8509C20.3767 12.3994 21.3877 10.782 21.9716 8.92964C22.1994 8.21081 22.2991 8.12786 23.0822 8.07257C24.4208 7.9758 25.7308 7.75462 26.9269 7.13256C28.0091 6.56579 28.778 5.73637 28.9631 4.51988C28.9916 4.354 28.892 4.10517 28.7638 4.00841C28.2654 3.64899 27.7386 3.34487 27.1975 3.02693C26.6848 2.73663 26.4997 2.29427 26.7418 1.87956C26.9696 1.47867 27.4253 1.39573 27.9521 1.65838C31.7256 3.46928 33.7334 7.11874 33.2492 11.3626C33.1496 12.2888 32.9929 13.2012 32.822 14.1273C32.6369 15.1641 32.879 16.0765 33.6337 16.8506C33.833 17.058 34.0466 17.2791 34.2318 17.5141C35.5133 18.9933 35.0719 20.7904 33.1923 21.4401C32.6512 21.6336 32.4945 21.9239 32.3379 22.3939C31.8253 23.9836 31.2415 25.5457 30.6861 27.1216C30.6576 27.1769 30.6434 27.246 30.6434 27.2598C31.569 27.3843 32.4803 27.4948 33.3774 27.6607C33.7903 27.7298 34.189 27.9096 34.5735 28.0754C35.1146 28.2966 35.2997 28.7113 35.1146 29.1399C34.9153 29.5684 34.4738 29.7205 33.947 29.4855C32.0816 28.6837 30.2162 28.6837 28.3936 29.5684C26.3431 30.5499 25.147 32.1949 24.8052 34.3929C24.7625 34.697 24.8764 35.0564 25.0188 35.3605C25.3463 36.0932 25.7165 36.7844 26.0725 37.5032C26.158 37.6691 26.2292 37.835 26.3716 38.1253C26.6279 37.8903 26.8415 37.7244 26.9981 37.5308C27.3114 37.1576 27.7386 37.0332 28.1088 37.2544C28.479 37.4755 28.6499 37.9455 28.3509 38.3326C27.9949 38.8026 27.525 39.1897 27.0266 39.6735C27.3683 40.4476 27.7528 41.3738 28.1942 42.2724C28.2797 42.4382 28.5217 42.5765 28.7353 42.6594C30.145 43.1986 31.4978 42.9083 32.8078 42.3553C32.9075 42.3138 32.9929 42.1203 33.0072 41.9959C33.1638 40.6826 33.8188 39.7012 34.9722 39.01C35.8123 38.4985 36.6667 38.0008 37.5068 37.4894C38.0479 37.1714 38.3897 36.7014 38.3042 36.0794C38.2758 35.8305 38.0764 35.5126 37.8628 35.3882C37.7204 35.3052 37.3787 35.4573 37.1793 35.5817C36.7806 35.8167 36.3534 35.8305 36.0686 35.5402C35.7554 35.2223 35.7411 34.7385 36.1256 34.4343C36.5386 34.1164 37.0369 33.8814 37.5496 33.5911C37.336 32.6926 36.8233 31.8217 36.1398 31.0337C35.8835 30.7434 35.8123 30.4255 36.0259 30.0799C36.2253 29.7619 36.5386 29.6375 36.8945 29.7481C37.0939 29.8172 37.2932 29.9693 37.4356 30.1352C38.4751 31.2964 39.0874 32.6511 39.3153 34.1717C39.3295 34.2961 39.3153 34.4343 39.3864 34.5173C39.9418 35.2638 40.0699 36.0932 39.8421 36.9917C41.3515 37.2682 42.3767 38.0838 42.8894 39.4662C43.0318 39.867 43.1741 40.2818 43.2738 40.6965C43.8434 43.005 43.9146 45.3689 44 47.7327C44.057 49.1427 44.0143 50.5666 44.057 51.9766C44.0712 52.4466 43.9146 52.7784 43.4874 52.9995C43.3165 52.9995 43.1314 52.9995 42.9606 52.9995C42.5334 52.7231 42.4479 52.3084 42.4479 51.8384C42.4479 50.221 42.4195 48.5898 42.391 46.9724C42.391 46.7374 42.3483 46.5024 42.3198 46.2536C40.5541 46.2536 38.8596 46.2674 37.1508 46.2536C35.4991 46.2398 34.2602 45.5486 33.4771 44.1109C33.4343 44.028 33.3631 43.9589 33.292 43.8621C31.9677 44.3874 30.6292 44.5947 29.1767 44.4012C29.2764 44.6362 29.3334 44.8021 29.4046 44.9542C30.3871 47.1936 31.3696 49.4192 32.3379 51.6586C32.6512 52.3637 32.5515 52.6125 31.868 52.9995C31.7114 52.9995 31.5975 52.9995 31.4978 52.9995ZM6.83499 11.9156C4.48548 11.7635 2.37803 13.2012 1.77997 15.3024C1.1392 17.6109 2.24988 20.0024 4.47124 21.0115C6.479 21.9239 8.47253 21.6198 10.523 20.8595C8.95667 17.9841 6.90619 15.33 6.83499 11.9156ZM42.1204 44.6639C42.2201 43.6133 41.7502 40.9591 41.2803 39.8809C40.725 38.5814 39.4292 38.1667 38.1761 38.8717C37.3929 39.3141 36.6382 39.7841 35.8693 40.2403C34.7729 40.9038 34.3599 41.8438 34.6732 42.9497C34.9864 44.0556 35.8551 44.6777 37.1366 44.6777C38.646 44.6915 40.1554 44.6777 41.6505 44.6777C41.8214 44.6915 41.978 44.6777 42.1204 44.6639ZM22.6551 29.1122C22.6551 30.2181 22.6835 31.324 22.6408 32.4161C22.6123 32.969 22.8686 33.2178 23.3528 33.4114C23.6945 32.0152 24.3923 30.8125 25.389 29.7619C24.4492 29.5408 23.5806 29.3334 22.6551 29.1122Z" fill="#DF3577"/>
<path d="M20.4073 53.0009C20.208 52.7659 19.9374 52.5724 19.8235 52.3097C18.7982 50.0427 17.8157 47.7618 16.8047 45.4808C16.6481 45.1353 16.5626 44.7897 16.8474 44.4579C17.2604 43.9879 17.9581 44.14 18.2429 44.7758C18.7982 46.02 19.3393 47.2779 19.8947 48.5221C20.3503 49.545 20.806 50.5818 21.2474 51.6047C21.5607 52.3236 21.518 52.4895 20.9342 52.9871C20.7633 53.0009 20.5924 53.0009 20.4073 53.0009Z" fill="#DF3577"/>
<path d="M31.5987 37.5448C31.2997 37.4619 30.9722 37.4204 30.6874 37.296C30.2887 37.1163 30.1178 36.7845 30.2744 36.356C30.4311 35.9412 30.7586 35.7339 31.2 35.8583C31.7269 35.9965 32.0686 35.8998 32.3534 35.4298C32.5955 35.0427 33.0511 34.9736 33.4213 35.1809C33.7773 35.3883 33.8913 35.803 33.7061 36.2177C33.3644 36.9918 32.51 37.5033 31.5987 37.5448Z" fill="#DF3577"/>
<path d="M29.9173 41.3742C29.3619 41.3742 28.9632 41.0839 28.949 40.6277C28.9205 40.1854 29.248 39.9089 29.7891 39.8121C30.1451 39.743 30.5011 39.6186 30.8144 39.4389C31.2843 39.1762 31.7114 39.1762 31.9962 39.5495C32.2525 39.8812 32.1956 40.3236 31.8254 40.6554C31.27 41.1254 30.6292 41.3327 29.9173 41.3742Z" fill="#DF3577"/>
<path d="M27.9386 17.7767C26.9419 17.749 26.1302 17.4587 25.461 16.809C25.0907 16.4496 25.0623 15.9796 25.3755 15.6616C25.6888 15.3437 26.1445 15.3299 26.5147 15.6616C27.0415 16.1316 27.6254 16.2837 28.3231 16.1593C28.85 16.0625 29.2344 16.3252 29.3199 16.7675C29.4053 17.1822 29.092 17.5693 28.5794 17.6799C28.3516 17.7352 28.1095 17.749 27.9386 17.7767Z" fill="#DF3577"/>
</g>
<defs>
<clipPath id="clip0_6442_4886">
<rect width="44" height="53" fill="white"/>
</clipPath>
</defs>
</svg>
