<svg width="24" height="24" viewBox="0 0 24 24" fill="none" xmlns="http://www.w3.org/2000/svg">
<path d="M19.6509 8.84013L12.9098 2.09904C12.8967 2.08601 12.8801 2.07714 12.8619 2.07356C12.8438 2.06997 12.825 2.07183 12.8079 2.07889C12.7908 2.08595 12.7762 2.09791 12.7659 2.11326C12.7556 2.1286 12.7501 2.14665 12.75 2.16513V8.24998C12.75 8.44889 12.829 8.63966 12.9697 8.78031C13.1103 8.92096 13.3011 8.99998 13.5 8.99998H19.5848C19.6033 8.9999 19.6214 8.99436 19.6367 8.98405C19.6521 8.97375 19.664 8.95913 19.6711 8.94205C19.6781 8.92497 19.68 8.90618 19.6764 8.88805C19.6728 8.86991 19.664 8.85324 19.6509 8.84013Z" fill="#0097B9"/>
<path fill-rule="evenodd" clip-rule="evenodd" d="M13.5 10.5H20.0625C20.1122 10.5 20.1599 10.5198 20.1951 10.5549C20.2302 10.5901 20.25 10.6378 20.25 10.6875V19.5C20.25 20.2956 19.9339 21.0587 19.3713 21.6213C18.8087 22.1839 18.0456 22.5 17.25 22.5H6.75C5.95435 22.5 5.19129 22.1839 4.62868 21.6213C4.06607 21.0587 3.75 20.2956 3.75 19.5V4.5C3.75 3.70435 4.06607 2.94129 4.62868 2.37868C5.19129 1.81607 5.95435 1.5 6.75 1.5H11.0625C11.1122 1.5 11.1599 1.51975 11.1951 1.55492C11.2302 1.59008 11.25 1.63777 11.25 1.6875V8.25C11.25 8.84674 11.4871 9.41903 11.909 9.84099C12.331 10.2629 12.9033 10.5 13.5 10.5ZM13.86 19.147C13.86 18.9819 13.8173 18.8576 13.732 18.7741C13.6485 18.6888 13.4955 18.6007 13.2729 18.5098C12.8667 18.3559 12.5745 18.176 12.3965 17.9701C12.2184 17.7623 12.1294 17.5175 12.1294 17.2355C12.1294 16.8942 12.2499 16.6207 12.4911 16.4148C12.7341 16.207 13.042 16.1031 13.4148 16.1031C13.6633 16.1031 13.885 16.156 14.0798 16.2617C14.2745 16.3656 14.4238 16.5131 14.5277 16.7041C14.6334 16.8952 14.6863 17.1122 14.6863 17.3552H13.8711C13.8711 17.166 13.8303 17.0222 13.7487 16.9239C13.6689 16.8238 13.553 16.7737 13.4009 16.7737C13.2581 16.7737 13.1468 16.8163 13.067 16.9017C12.9872 16.9851 12.9474 17.0983 12.9474 17.2411C12.9474 17.3524 12.9919 17.4535 13.0809 17.5444C13.17 17.6334 13.3276 17.7262 13.5539 17.8226C13.949 17.9654 14.2356 18.1407 14.4136 18.3485C14.5936 18.5562 14.6835 18.8205 14.6835 19.1414C14.6835 19.4938 14.5713 19.7693 14.3469 19.9677C14.1224 20.1662 13.8173 20.2654 13.4315 20.2654C13.17 20.2654 12.9316 20.2117 12.7164 20.1041C12.5013 19.9965 12.3325 19.8425 12.2101 19.6422C12.0895 19.4419 12.0292 19.2054 12.0292 18.9327H12.85C12.85 19.1664 12.8954 19.3362 12.9863 19.4419C13.0772 19.5476 13.2256 19.6005 13.4315 19.6005C13.7171 19.6005 13.86 19.4493 13.86 19.147ZM8.04776 16.1588L7.50243 17.5499L6.95711 16.1588H6.01948L6.9738 18.1676L6 20.2098H6.94876L7.50243 18.7936L8.05889 20.2098H9.00765L8.03385 18.1676L8.98539 16.1588H8.04776ZM11.6759 19.5309H10.2402V16.1588H9.42221V20.2098H11.6759V19.5309ZM17.0401 16.1588L16.4948 17.5499L15.9495 16.1588H15.0118L15.9661 18.1676L14.9923 20.2098H15.9411L16.4948 18.7936L17.0512 20.2098H18L17.0262 18.1676L17.9777 16.1588H17.0401Z" fill="#0097B9"/>
</svg>
