<svg width="66" height="69" viewBox="0 0 66 69" fill="none" xmlns="http://www.w3.org/2000/svg">
<path d="M14.0681 36.5583C17.2344 46.2315 12.4994 48.294 14.1552 54.4813C14.3295 55.0914 14.3295 55.7595 14.3295 56.3985C14.3586 58.5772 15.201 59.4196 17.3796 59.4487C21.1269 59.5068 24.8451 59.5649 28.5924 59.7391C31.1487 59.8553 33.734 60.3782 36.2903 60.2911C39.1661 60.2039 42.0419 59.6811 44.9178 59.2163C46.254 59.0129 46.9512 58.0543 46.9512 56.66C46.9221 54.5394 47.2997 52.3608 46.3121 50.2402C46.2249 50.124 45.5278 48.4102 44.0753 48.0616C42.9715 47.8001 41.8386 47.3935 40.7057 47.3935C35.4188 47.3063 36.2322 47.713 32.6302 43.6171C31.7878 42.6585 31.4682 41.5837 31.5263 40.3346C31.6716 35.4545 31.8168 30.5743 31.9621 25.6941C31.9911 24.3288 32.0492 22.9345 32.0201 21.5692C31.9911 19.8553 30.9163 18.6934 29.2605 18.6643C24.6127 18.6353 19.965 18.6353 15.3172 18.6934C13.6033 18.6934 12.5285 19.8844 12.4994 21.6273C12.4994 23.5445 12.4704 25.4617 12.5285 27.3789C12.6737 30.5162 13.0804 33.5663 14.0681 36.5583ZM43.843 57.6476C39.8633 58.5191 35.8836 58.6353 31.8459 58.2867C27.169 57.9091 22.4341 57.7929 17.7573 57.5895C16.1596 57.5314 16.1596 57.5605 16.3339 55.7595C16.7115 55.7595 17.0891 55.7595 17.4668 55.7595C22.8989 55.6433 28.331 55.9338 33.734 56.5147C37.4522 56.9214 41.1995 56.8633 44.9178 55.8176C45.2082 56.9214 44.9178 57.3862 43.843 57.6476ZM14.3586 21.6564C14.3586 20.9011 14.7362 20.5525 15.5205 20.5525C19.994 20.5525 24.4384 20.5235 28.9119 20.5235C29.8415 20.5235 30.161 20.9882 30.161 21.8887C30.132 24.445 30.161 27.0304 30.161 30.4C29.9867 33.2468 29.7834 36.9069 29.6091 40.567C29.5801 41.2061 29.6382 41.8742 29.8125 42.4842C30.7711 46.0282 35.1284 49.2816 38.7885 49.2816C39.6599 49.2816 40.5314 49.2526 41.4029 49.2816C43.4944 49.3397 44.9758 50.9084 45.0339 52.9708C45.0339 53.5808 44.8597 53.9294 44.2496 54.0456C42.8263 54.278 41.4029 54.6847 39.9504 54.6847C36.7551 54.6847 33.5888 54.4232 30.3934 54.307C25.949 54.1328 21.4755 53.9875 17.031 53.9004C16.1305 53.8713 15.7819 53.6099 15.5496 52.7675C15.0848 50.8503 15.3172 48.9911 16.0724 47.2482C17.5249 43.9076 17.4668 40.538 16.2177 37.1974C14.3295 32.1429 14.3586 26.9142 14.3586 21.6564Z" fill="#50398C"/>
<path d="M51.8026 44.6339C51.7155 44.5177 51.0183 42.8038 49.5659 42.4553C48.462 42.1938 47.3291 41.7871 46.1962 41.7871C40.9094 41.7 41.7227 42.1067 38.1207 38.0108C37.2783 37.0522 36.9587 35.9774 37.0168 34.7283C37.2202 29.8481 37.3654 24.968 37.5107 20.0587C37.5397 18.6935 37.5978 17.2991 37.5688 15.9338C37.5397 14.22 36.4649 13.058 34.8091 13.029C30.1614 12.9999 25.5136 12.9999 20.8658 13.058C19.1519 13.0871 18.0771 14.249 18.0481 15.9919C18.0481 17.2991 18.019 18.6354 18.0481 19.9425C18.6871 19.8845 19.3262 19.9135 19.9362 20.0878C19.9072 18.7516 19.9072 17.3863 19.9072 16.021C19.9072 15.2657 20.2848 14.9171 21.0691 14.9171C25.5426 14.9171 29.9871 14.8881 34.4606 14.8881C35.3901 14.8881 35.7097 15.3529 35.7097 16.2534C35.6806 18.8097 35.7097 21.395 35.7097 24.7646C35.5354 27.6114 35.332 31.2715 35.1577 34.9317C35.1287 35.5707 35.1868 36.2388 35.3611 36.8489C36.3197 40.3928 40.677 43.6463 44.3371 43.6463C45.2086 43.6463 46.08 43.6172 46.9515 43.6463C49.043 43.7043 50.5245 45.273 50.5826 47.3354C50.5826 47.9455 50.4083 48.294 49.7982 48.4102C48.3749 48.6426 46.9515 49.0493 45.499 49.0493C44.889 49.0493 44.25 49.0203 43.6399 49.0203C44.5404 49.3979 45.1214 50.0951 45.5281 51.0246C47.1548 50.9084 48.8106 50.647 50.4373 50.1822C50.7569 51.286 50.4664 51.7799 49.3625 52.0123C48.2587 52.2447 47.1548 52.4189 46.051 52.5642C46.1381 52.8837 46.1962 53.2323 46.2834 53.5809C46.3415 53.8133 46.3124 54.0747 46.2543 54.3071C47.6486 54.1038 49.043 53.8714 50.4373 53.668C51.7736 53.4647 52.4707 52.5061 52.4707 51.1118C52.4126 48.9331 52.7903 46.7545 51.8026 44.6339Z" fill="#50398C"/>
<circle opacity="0.5" cx="38.5" cy="34" r="18" fill="#50398C"/>
<circle cx="58" cy="18.5" r="2.5" fill="#DF3577"/>
<path d="M42.6717 6.4101C43.5117 6.10026 43.817 5.47988 43.8548 4.70424C43.957 3.58092 43.9736 2.4629 44.0758 1.33958C44.1402 0.991905 44.4507 0.457121 44.7075 0.441202C45.0499 0.419975 45.4937 0.650222 45.6862 0.98198C45.9801 1.56521 46.1884 2.15375 46.4021 2.82788C46.696 3.41111 46.9846 3.90875 47.2891 4.66316C48.3806 4.25181 49.3062 3.93666 50.2318 3.62151C50.8204 3.41318 51.3983 3.03366 51.8687 3.69187C52.43 4.43037 51.7718 4.90078 51.3704 5.35528C50.6531 6.25897 49.8336 8.02538 49.8336 8.02538L49.7003 9.95258L50.8015 13.2629C50.8015 13.2629 51.122 14.2741 50.619 14.4772C50.619 14.4772 49.7578 14.4446 49.3995 14.2091C48.4958 13.4918 47.5471 12.9816 46.5472 12.0984C46.0011 12.9915 45.53 13.7081 45.1445 14.4194C44.9089 14.7777 44.7643 15.2163 44.5234 15.489C44.2773 15.6761 43.8652 15.9594 43.6887 15.8844C43.4266 15.8147 43.1433 15.4027 43.1274 15.1459C43.1546 14.1991 43.353 13.2416 43.4658 12.2895C43.5249 11.8562 43.5787 11.3373 43.6271 10.7329C42.75 10.4436 41.8728 10.1543 40.9903 9.77938C40.4556 9.46885 39.8511 9.4204 39.4875 9.09925C38.7709 8.62815 38.8141 7.9381 39.4776 7.55328C40.2267 7.16314 41.1576 6.93359 41.9976 6.62374C42.1044 6.96081 42.2112 7.29787 42.3181 7.63494C42.4037 7.62963 42.4892 7.62433 42.5748 7.61902C42.6339 7.18575 42.6983 6.83807 42.6717 6.4101ZM43.7088 7.89241C43.6232 7.89771 43.5323 7.81743 43.4467 7.82273L43.3664 7.91363C43.4573 7.99392 43.4626 8.07951 43.5482 8.0742C43.5429 7.98861 43.6232 7.89771 43.7088 7.89241Z" fill="#F2BF5C"/>
</svg>
