<svg width="92" height="91" viewBox="0 0 92 91" fill="none" xmlns="http://www.w3.org/2000/svg">
<circle opacity="0.3" cx="61.6641" cy="40.5" r="26.5" fill="#DF3577"/>
<path d="M44.287 15.4419C44.4839 15.4741 44.6619 15.5051 44.8203 15.534C44.8365 15.6205 44.8537 15.7123 44.8718 15.8092C45.023 16.6175 45.2397 17.7796 45.5018 19.1945C46.026 22.0243 46.7315 25.8642 47.4571 29.9056C48.915 38.0258 50.4336 46.8509 50.7482 50.0107C50.8707 51.2401 50.4548 53.1008 49.4654 55.3605C48.4968 57.573 47.0555 59.9944 45.346 62.2781C43.6363 64.5623 41.6891 66.6675 39.7299 68.2683C37.7458 69.8894 35.8693 70.8948 34.2972 71.1657C32.7284 71.4359 30.6549 71.1134 28.2821 70.2456C25.9378 69.3882 23.4411 68.05 21.0916 66.4637C18.7437 64.8784 16.5827 63.0724 14.9006 61.3061C13.189 59.5088 12.087 57.8708 11.6865 56.6327C10.7245 53.6581 9.21005 44.9077 7.91945 36.7276C7.28008 32.6751 6.70342 28.8159 6.28653 25.9694C6.07811 24.5463 5.9097 23.3767 5.79341 22.5631C5.78344 22.4934 5.77386 22.4263 5.76466 22.3618C5.88778 22.3029 6.02282 22.2391 6.16959 22.1707C7.06656 21.7525 8.40112 21.1634 10.1299 20.4909C13.5881 19.1456 18.6188 17.4687 24.8754 16.1594C31.0741 14.8622 36.3238 14.7609 40.0112 14.9811C41.8545 15.0911 43.3055 15.2813 44.287 15.4419Z" stroke="#50398C" stroke-width="3"/>
<path d="M15.1641 38.5723C15.1641 38.5723 17.3651 39.7578 19.3428 39.46C21.3205 39.1623 23.0749 37.3812 23.0749 37.3812" stroke="#50398C" stroke-width="3" stroke-linecap="round"/>
<path d="M30.9844 36.1914C30.9844 36.1914 33.1854 37.3769 35.1631 37.0792C37.1408 36.7814 38.8952 35.0003 38.8952 35.0003" stroke="#50398C" stroke-width="3" stroke-linecap="round"/>
<path d="M22.1641 54.5312C22.1641 54.5312 24.4395 56.2112 30.8671 55.2435C37.2947 54.2757 38.9746 52.0002 38.9746 52.0002" stroke="#50398C" stroke-width="3" stroke-linecap="round"/>
<path d="M46.9579 20.6172C46.9579 20.6172 55.7415 20.8068 68.1059 24.7351C80.4703 28.6635 87.0717 34.9574 87.0717 34.9574C87.0717 34.9574 77.5322 63.0182 74.9138 68.9666C72.2954 74.9149 55.7226 82.7593 48.3102 80.1095C44.648 78.8003 40.9873 74.1305 38.3784 68.9666" stroke="#50398C" stroke-width="3"/>
<path d="M49.4141 41.2734C49.4141 41.2734 50.5685 43.3194 52.2576 43.9638C53.9467 44.6083 56.1706 43.8513 56.1706 43.8513" stroke="#50398C" stroke-width="3" stroke-linecap="round"/>
<path d="M63.125 46.6133C63.125 46.6133 64.4589 48.7277 66.3275 49.4406C68.1961 50.1536 70.5994 49.4651 70.5994 49.4651" stroke="#50398C" stroke-width="3" stroke-linecap="round"/>
<path d="M46.5547 61.5098C46.5547 61.5098 47.6999 64.3224 53.6489 66.1288C59.5979 67.9353 62.1137 66.2344 62.1137 66.2344" stroke="#50398C" stroke-width="3" stroke-linecap="round"/>
</svg>
