<svg width="21" height="20" viewBox="0 0 21 20" fill="none" xmlns="http://www.w3.org/2000/svg">
<g id="icon">
<path id="Vector 417 (Stroke)" fill-rule="evenodd" clip-rule="evenodd" d="M10.5 12.9393L7.03033 9.46959C6.73744 9.17669 6.26256 9.17669 5.96967 9.46959C5.67678 9.76248 5.67678 10.2374 5.96967 10.5302L9.89896 14.4595C10.2309 14.7915 10.7691 14.7915 11.101 14.4595L15.0303 10.5302C15.3232 10.2374 15.3232 9.76248 15.0303 9.46959C14.7374 9.17669 14.2626 9.17669 13.9697 9.46959L10.5 12.9393Z" fill="#93999F"/>
<path id="Vector 418 (Stroke)" fill-rule="evenodd" clip-rule="evenodd" d="M10.5 13.75C10.0858 13.75 9.75 13.4142 9.75 13L9.75 1C9.75 0.585786 10.0858 0.25 10.5 0.25C10.9142 0.25 11.25 0.585786 11.25 1L11.25 13C11.25 13.4142 10.9142 13.75 10.5 13.75Z" fill="#93999F"/>
<path id="Vector 419 (Stroke)" fill-rule="evenodd" clip-rule="evenodd" d="M1 13.25C1.41421 13.25 1.75 13.5858 1.75 14V18.25H19.25V14.5C19.25 14.0858 19.5858 13.75 20 13.75C20.4142 13.75 20.75 14.0858 20.75 14.5V18.9C20.75 19.3694 20.3694 19.75 19.9 19.75H1.1C0.630559 19.75 0.25 19.3694 0.25 18.9V14C0.25 13.5858 0.585786 13.25 1 13.25Z" fill="#93999F"/>
</g>
</svg>
