<svg width="22" height="17" viewBox="0 0 22 17" fill="none" xmlns="http://www.w3.org/2000/svg">
<g id="icon">
<path id="Subtract" fill-rule="evenodd" clip-rule="evenodd" d="M0.25 3C0.25 1.48122 1.48122 0.25 3 0.25H19C20.5188 0.25 21.75 1.48122 21.75 3V14C21.75 15.5188 20.5188 16.75 19 16.75H3C1.48122 16.75 0.25 15.5188 0.25 14V3ZM1.31483 4.6954C1.48306 4.31689 1.92628 4.14642 2.30479 4.31465L10.8987 8.13414C10.9633 8.16287 11.0371 8.16287 11.1017 8.13414L19.6956 4.31465C20.0741 4.14642 20.5173 4.31689 20.6855 4.6954C20.8538 5.07391 20.6833 5.51713 20.3048 5.68536L15.3629 7.88177L20.4266 11.3826C20.7673 11.6182 20.8525 12.0853 20.617 12.426C20.3814 12.7667 19.9143 12.852 19.5736 12.6164L14.2596 8.94262C14.1866 8.89212 14.0922 8.88416 14.0118 8.92172L11.7401 9.98181C11.271 10.2007 10.7291 10.2007 10.26 9.98181L7.98838 8.92172C7.90791 8.88416 7.81354 8.89212 7.74049 8.94262L2.42658 12.6164C2.08587 12.852 1.61871 12.7667 1.38315 12.426C1.14759 12.0853 1.23284 11.6182 1.57356 11.3826L6.63735 7.88171L1.69558 5.68536C1.31707 5.51713 1.1466 5.07391 1.31483 4.6954Z" fill="#2D2C34"/>
</g>
</svg>
