<svg width="50" height="50" viewBox="0 0 50 50" fill="none" xmlns="http://www.w3.org/2000/svg">
<path fill-rule="evenodd" clip-rule="evenodd" d="M50 15.6403C50 15.0431 50 14.4458 49.9972 13.8486C49.9944 13.3458 49.9889 12.8431 49.975 12.3403C49.9458 11.2444 49.8806 10.1403 49.6861 9.05694C49.4889 7.95694 49.1653 6.93333 48.6569 5.93333C48.1569 4.95139 47.5042 4.05417 46.725 3.275C45.9458 2.49583 45.0472 1.84306 44.0653 1.34306C43.0667 0.834722 42.0431 0.5125 40.9444 0.313889C39.8611 0.119444 38.7556 0.0541667 37.6597 0.025C37.1569 0.0111111 36.6542 0.00555556 36.1514 0.00277778C35.5542 0 34.9569 0 34.3597 0H15.6403C15.0431 0 14.4458 0 13.8486 0.00277778C13.3458 0.00555556 12.8431 0.0111111 12.3403 0.025C11.2444 0.0555556 10.1389 0.119444 9.05556 0.315278C7.95556 0.5125 6.93333 0.836111 5.93472 1.34444C4.95278 1.84444 4.05417 2.49722 3.275 3.27639C2.49583 4.05556 1.84306 4.95278 1.34306 5.93472C0.834722 6.93472 0.511111 7.95833 0.313889 9.05833C0.119444 10.1417 0.0541667 11.2472 0.025 12.3417C0.0111111 12.8444 0.00555556 13.3472 0.00277778 13.85C0 14.4458 0 15.0431 0 15.6403V34.3583C0 34.9556 0 35.5528 0.00277778 36.15C0.00555556 36.6528 0.0111111 37.1556 0.025 37.6583C0.0541667 38.7542 0.119444 39.8583 0.313889 40.9417C0.511111 42.0417 0.834722 43.0653 1.34306 44.0653C1.84306 45.0472 2.49583 45.9444 3.275 46.7236C4.05417 47.5028 4.95278 48.1556 5.93472 48.6556C6.93333 49.1639 7.95694 49.4861 9.05556 49.6847C10.1389 49.8792 11.2444 49.9444 12.3403 49.9736C12.8431 49.9875 13.3458 49.9931 13.8486 49.9958C14.4458 50 15.0431 49.9986 15.6403 49.9986H34.3583C34.9556 49.9986 35.5528 49.9986 36.15 49.9958C36.6528 49.9931 37.1556 49.9875 37.6583 49.9736C38.7542 49.9444 39.8597 49.8792 40.9431 49.6847C42.0431 49.4875 43.0653 49.1639 44.0639 48.6556C45.0458 48.1556 45.9444 47.5028 46.7236 46.7236C47.5028 45.9444 48.1556 45.0472 48.6556 44.0653C49.1639 43.0653 49.4875 42.0417 49.6847 40.9417C49.8792 39.8583 49.9444 38.7528 49.9736 37.6583C49.9875 37.1556 49.9931 36.6528 49.9958 36.15C50 35.5528 49.9986 34.9556 49.9986 34.3583V15.6403H50Z" fill="url(#paint0_linear_426_58917)"/>
<path fill-rule="evenodd" clip-rule="evenodd" d="M35.2494 7.61791C35.1289 7.62899 34.0582 7.81874 33.9294 7.84506L19.1095 10.8354L19.1039 10.8367C18.7175 10.9185 18.4142 11.0556 18.1801 11.2523C17.8976 11.4891 17.741 11.8243 17.6815 12.2149C17.669 12.298 17.6482 12.4669 17.6482 12.7162C17.6482 12.7162 17.6482 27.8575 17.6482 31.2647C17.6482 31.6982 17.6136 32.1193 17.32 32.478C17.0264 32.8367 16.6635 32.9448 16.2383 33.0306C15.9156 33.0957 15.5928 33.1608 15.2701 33.2259C14.0458 33.4725 13.2494 33.6401 12.5277 33.9198C11.838 34.1872 11.3214 34.5279 10.91 34.96C10.0942 35.8146 9.76321 36.9739 9.87678 38.0597C9.97373 38.9863 10.3906 39.8728 11.1067 40.5279C11.5901 40.9711 12.194 41.3077 12.9059 41.4503C13.6441 41.5985 14.4308 41.5473 15.5804 41.3146C16.1926 41.1913 16.766 40.9988 17.3117 40.6761C17.8518 40.3575 18.3145 39.9323 18.6759 39.4143C19.0388 38.8949 19.2729 38.3174 19.4017 37.7038C19.5347 37.0708 19.5665 36.4988 19.5665 35.8672V19.78C19.5665 18.9185 19.8103 18.6913 20.5056 18.5223C20.5056 18.5223 32.8241 16.0376 33.3989 15.9254C34.2009 15.7716 34.579 16.0002 34.579 16.8409V27.8229C34.579 28.2578 34.5748 28.6982 34.2784 29.0584C33.9848 29.4171 33.6219 29.5251 33.1967 29.611C32.874 29.6761 32.5513 29.7412 32.2286 29.8063C31.0042 30.0528 30.2078 30.2204 29.4862 30.5002C28.7964 30.7675 28.2798 31.1082 27.8685 31.5403C27.0527 32.3949 26.6926 33.5542 26.8061 34.6401C26.9031 35.5667 27.3491 36.4531 28.0651 37.1082C28.5485 37.5514 29.1524 37.8783 29.8643 38.0223C30.6025 38.1705 31.3892 38.1179 32.5388 37.8866C33.151 37.7633 33.7244 37.5791 34.2701 37.2564C34.8103 36.9379 35.2729 36.5126 35.6344 35.9946C35.9973 35.4752 36.2313 34.8977 36.3602 34.2841C36.4931 33.6511 36.4987 33.0791 36.4987 32.4475V8.92816C36.5014 8.07497 36.0513 7.54866 35.2494 7.61791Z" fill="white"/>
<defs>
<linearGradient id="paint0_linear_426_58917" x1="25" y1="49.8062" x2="25" y2="1.07758" gradientUnits="userSpaceOnUse">
<stop stop-color="#FA233B"/>
<stop offset="1" stop-color="#FB5C74"/>
</linearGradient>
</defs>
</svg>
