<svg width="50" height="50" viewBox="0 0 50 50" fill="none" xmlns="http://www.w3.org/2000/svg">
<path d="M47.9344 13.2459C47.6616 12.2295 47.1263 11.3027 46.3822 10.5586C45.638 9.81444 44.7112 9.27911 43.6948 9.00632C40.9181 7.93353 14.0166 7.40793 6.21186 9.03632C5.19532 9.30922 4.26845 9.84473 3.5243 10.5891C2.78015 11.3335 2.2449 12.2605 1.97229 13.2771C0.718296 18.7767 0.623496 30.6662 2.00349 36.2894C2.27628 37.3058 2.81161 38.2325 3.55575 38.9767C4.29989 39.7208 5.22666 40.2561 6.24306 40.5289C11.7426 41.7949 37.8881 41.9725 43.726 40.5289C44.7424 40.2561 45.6692 39.7208 46.4134 38.9767C47.1575 38.2325 47.6928 37.3058 47.9656 36.2894C49.3024 30.2978 49.3972 19.1451 47.9344 13.2459Z" stroke="white" stroke-linecap="round" stroke-linejoin="round"/>
<path d="M32.8805 25.1892L20.3442 18V32.3783L32.8805 25.1892Z" stroke="white" stroke-linecap="round" stroke-linejoin="round"/>
</svg>
