<svg width="33" height="33" viewBox="0 0 33 33" fill="none" xmlns="http://www.w3.org/2000/svg">
<g id="Frame" clip-path="url(#clip0_7228_10784)">
<path id="Vector" d="M23.2271 26.1686C22.911 25.1692 22.6114 24.253 22.2786 23.1702C21.3135 22.8704 20.1653 22.5039 18.9838 22.1541C18.8506 22.1207 18.651 22.2207 18.5178 22.3373C17.2199 23.5034 15.7721 23.5034 14.4409 22.3206C14.3244 22.2207 14.1247 22.1541 13.9749 22.1707C13.7253 22.204 13.4923 22.304 13.2594 22.3706C12.3441 22.6538 11.4455 22.937 10.7134 23.1702C10.3805 24.2363 10.081 25.1692 9.76484 26.1353C10.0977 26.3852 10.5469 26.6684 10.9463 27.0349C12.3441 28.3508 12.5105 30.05 12.3441 31.8157C12.2942 32.2988 11.9115 32.5653 11.4123 32.5653C8.10077 32.5653 4.78928 32.5653 1.49443 32.5653C0.995208 32.5653 0.612473 32.2988 0.562551 31.8157C0.396144 30.0666 0.54591 28.3842 1.91044 27.0682C2.30982 26.685 2.7924 26.3852 3.22506 26.052C1.91044 23.62 2.2599 21.4544 4.15693 20.1551C6.07061 18.8558 8.21726 19.3055 9.98117 21.4211C11.1127 21.0713 12.2609 20.7215 13.3925 20.3383C13.5423 20.2884 13.6754 20.0552 13.7087 19.8886C13.8917 18.989 14.3743 18.3394 15.1564 17.8896C15.3228 17.7897 15.5059 17.5731 15.5225 17.4065C15.5558 16.2072 15.5392 14.9911 15.5392 13.7085C14.341 13.7085 13.1762 13.7085 12.028 13.7085C10.7799 13.7085 10.5969 13.4753 10.547 12.2092C10.4637 10.0104 11.2625 8.31127 13.3093 7.2285C12.4606 6.01247 12.1777 4.69649 12.6603 3.28056C12.9598 2.41434 13.5256 1.71471 14.3077 1.23163C15.9052 0.21549 17.952 0.432044 19.2999 1.74803C20.7643 3.18061 20.8974 5.11294 19.6827 7.19519C19.7659 7.26182 19.8491 7.34511 19.9489 7.41174C21.5464 8.34459 22.3618 9.7272 22.3951 11.5596C22.4284 13.4086 22.5282 13.8084 20.3317 13.7251C19.3831 13.6918 18.4346 13.7251 17.4029 13.7251C17.4029 15.0244 17.3863 16.2738 17.4195 17.5231C17.4195 17.6564 17.6026 17.823 17.7524 17.9063C18.5678 18.3727 19.0503 19.039 19.25 19.9552C19.2833 20.1218 19.483 20.3383 19.6494 20.405C20.7477 20.7714 21.8626 21.1046 22.9609 21.4544C24.3587 19.4055 26.8714 18.8058 28.9182 20.2884C30.3993 21.3545 31.3478 23.6866 29.717 26.0687C29.7336 26.102 29.7336 26.152 29.7669 26.1686C32.0134 27.3514 32.6125 29.3337 32.4294 31.6991C32.3795 32.2988 31.9968 32.6153 31.3145 32.6153C29.068 32.6153 26.8215 32.6153 24.575 32.6153C23.6432 32.6153 22.6946 32.6153 21.7628 32.6153C20.8974 32.6153 20.5813 32.2821 20.5646 31.3992C20.548 30.3498 20.548 29.317 21.0472 28.3508C21.5964 27.318 22.3618 26.6184 23.2271 26.1686ZM20.4981 11.7761C20.5979 10.0937 19.4996 8.7777 17.9354 8.69441C16.9869 8.64443 16.0217 8.64443 15.0732 8.69441C13.4757 8.7777 12.2942 10.2103 12.5272 11.7761C15.1564 11.7761 17.8189 11.7761 20.4981 11.7761ZM2.42631 30.6496C5.13873 30.6496 7.81788 30.6496 10.4804 30.6496C10.5636 28.8839 9.3821 27.6012 7.66811 27.5679C6.85272 27.5513 6.05397 27.5513 5.23858 27.5679C3.52459 27.6012 2.32646 28.9005 2.42631 30.6496ZM30.549 30.6496C30.7321 29.0338 29.5339 27.6345 27.9198 27.5679C27.0046 27.5346 26.0893 27.5346 25.1741 27.5679C23.5599 27.6345 22.3618 29.0338 22.5449 30.6496C25.2074 30.6496 27.8865 30.6496 30.549 30.6496ZM6.43671 21.3212C5.23858 21.3212 4.25678 22.304 4.25678 23.5034C4.25678 24.7027 5.25522 25.6856 6.43671 25.6856C7.63483 25.6856 8.61663 24.7027 8.61663 23.5034C8.63327 22.304 7.63483 21.3212 6.43671 21.3212ZM28.7186 23.4867C28.7186 22.2873 27.7201 21.3045 26.522 21.3212C25.3239 21.3212 24.3421 22.3206 24.3587 23.52C24.3587 24.7194 25.3571 25.7022 26.5553 25.6856C27.7534 25.6856 28.7352 24.6861 28.7186 23.4867ZM16.5043 2.44766C15.3062 2.44766 14.3244 3.41382 14.3244 4.62986C14.3244 5.82923 15.2895 6.81205 16.4877 6.81205C17.6858 6.81205 18.6676 5.84589 18.6676 4.62986C18.6676 3.43048 17.7024 2.44766 16.5043 2.44766ZM16.5043 21.3045C17.0202 21.3045 17.4362 20.8547 17.4029 20.3217C17.3863 19.8219 16.9702 19.4222 16.471 19.4388C15.9552 19.4388 15.5391 19.8886 15.5724 20.4216C15.6057 20.9214 16.0217 21.3212 16.5043 21.3045Z" fill="#DF3577"/>
</g>
<defs>
<clipPath id="clip0_7228_10784">
<rect width="32" height="32" fill="white" transform="translate(0.5 0.566406)"/>
</clipPath>
</defs>
</svg>
