<svg width="24" height="24" viewBox="0 0 24 24" fill="none" xmlns="http://www.w3.org/2000/svg">
<path d="M19.6509 8.84013L12.9098 2.09904C12.8967 2.08601 12.8801 2.07714 12.8619 2.07356C12.8438 2.06997 12.825 2.07183 12.8079 2.07889C12.7908 2.08595 12.7762 2.09791 12.7659 2.11326C12.7556 2.1286 12.7501 2.14665 12.75 2.16513V8.24998C12.75 8.44889 12.829 8.63966 12.9697 8.78031C13.1103 8.92096 13.3011 8.99998 13.5 8.99998H19.5848C19.6033 8.9999 19.6214 8.99436 19.6367 8.98405C19.6521 8.97375 19.664 8.95913 19.6711 8.94205C19.6781 8.92497 19.68 8.90618 19.6764 8.88805C19.6728 8.86991 19.664 8.85324 19.6509 8.84013Z" fill="#0097B9"/>
<path fill-rule="evenodd" clip-rule="evenodd" d="M13.5 10.5H20.0625C20.1122 10.5 20.1599 10.5198 20.1951 10.5549C20.2302 10.5901 20.25 10.6378 20.25 10.6875V19.5C20.25 20.2956 19.9339 21.0587 19.3713 21.6213C18.8087 22.1839 18.0456 22.5 17.25 22.5H6.75C5.95435 22.5 5.19129 22.1839 4.62868 21.6213C4.06607 21.0587 3.75 20.2956 3.75 19.5V4.5C3.75 3.70435 4.06607 2.94129 4.62868 2.37868C5.19129 1.81607 5.95435 1.5 6.75 1.5H11.0625C11.1122 1.5 11.1599 1.51975 11.1951 1.55492C11.2302 1.59008 11.25 1.63777 11.25 1.6875V8.25C11.25 8.84674 11.4871 9.41903 11.909 9.84099C12.331 10.2629 12.9033 10.5 13.5 10.5ZM16.6764 19.9164C16.9425 19.8155 17.1667 19.6664 17.349 19.469V17.5349H15.7367V18.2493H16.3997V19.1086L16.316 19.1665C16.2001 19.2416 16.0489 19.2792 15.8622 19.2792C15.5704 19.2792 15.3602 19.1826 15.2314 18.9895C15.1049 18.7943 15.0416 18.4832 15.0416 18.0563V17.2067C15.0459 16.799 15.1059 16.5019 15.2218 16.3152C15.3376 16.1286 15.5232 16.0352 15.7785 16.0352C15.9888 16.0352 16.1433 16.0899 16.242 16.1994C16.3407 16.3066 16.4029 16.5094 16.4286 16.8076H17.349C17.3083 16.2712 17.1581 15.8775 16.8985 15.6265C16.641 15.3755 16.2581 15.25 15.7496 15.25C15.2089 15.25 14.797 15.4249 14.5138 15.7746C14.2327 16.1221 14.0922 16.6188 14.0922 17.2646V18.1077C14.1008 18.745 14.2542 19.2309 14.5524 19.5656C14.8506 19.8981 15.269 20.0644 15.8075 20.0644C16.1229 20.0644 16.4125 20.0151 16.6764 19.9164ZM7.32115 18.3523V20H6.375V15.3144H7.97122C8.43464 15.3144 8.80366 15.4581 9.07828 15.7456C9.35504 16.0331 9.49342 16.4064 9.49342 16.8655C9.49342 17.3247 9.35719 17.6872 9.08471 17.9533C8.81224 18.2193 8.43464 18.3523 7.95191 18.3523H7.32115ZM7.32115 17.5639H7.97122C8.15144 17.5639 8.29089 17.5049 8.38958 17.3869C8.48828 17.2689 8.53762 17.0972 8.53762 16.872C8.53762 16.6381 8.4872 16.4525 8.38637 16.3152C8.28553 16.1758 8.15037 16.105 7.98088 16.1028H7.32115V17.5639ZM13.4035 20H12.4574L11.0736 16.9267V20H10.1274V15.3144H11.0736L12.4606 18.3909V15.3144H13.4035V20Z" fill="#0097B9"/>
</svg>
