<svg width="33" height="33" viewBox="0 0 33 33" fill="none" xmlns="http://www.w3.org/2000/svg">
<g id="Frame" clip-path="url(#clip0_7228_19319)">
<path id="Vector" d="M6.14867 17.3123C7.89199 16.3603 9.18272 16.8613 10.3896 18.1139C12.3844 20.1682 14.4462 22.139 16.5415 24.21C16.7092 24.0262 16.9103 23.7924 17.1282 23.5753C18.8883 21.8216 20.6484 20.068 22.4085 18.3143C24.1183 16.6108 24.5374 16.4939 26.8506 17.212C26.8506 16.9448 26.8506 16.711 26.8506 16.4605C26.8506 14.1557 26.8338 11.8342 26.8674 9.52937C26.9009 7.5252 28.6107 6.18908 30.4546 6.72353C31.5609 7.04085 32.3488 7.95943 32.4661 9.09513C32.4996 9.36236 32.4996 9.62958 32.4996 9.9135C32.4996 13.6379 32.4829 17.3624 32.5164 21.0868C32.5332 22.6066 32.0806 23.926 31.1419 25.1285C29.4991 27.2329 27.9067 29.3707 26.3142 31.5085C25.9454 32.0095 25.5431 32.2267 24.9061 32.2267C19.3074 32.21 13.7086 32.21 8.09314 32.2267C7.50645 32.2267 7.12091 32.0429 6.76889 31.5753C5.09262 29.3373 3.39959 27.116 1.70655 24.8947C0.901942 23.8926 0.499638 22.7402 0.499638 21.4375C0.499638 17.4793 0.482875 13.521 0.499638 9.56277C0.499638 7.97614 1.48864 6.84044 2.94699 6.62332C4.28801 6.4396 5.61226 7.25797 5.9978 8.57739C6.11514 8.96152 6.13191 9.39576 6.14867 9.8133C6.16543 12.0346 6.14867 14.2726 6.14867 16.4939C6.14867 16.7277 6.14867 16.9448 6.14867 17.3123ZM17.4803 30.3561C19.8773 30.3561 22.2073 30.3728 24.5541 30.3394C24.7385 30.3394 24.9732 30.1223 25.124 29.9386C26.6495 27.9511 28.1413 25.9469 29.6667 23.9761C30.3205 23.1244 30.6222 22.2225 30.6222 21.1536C30.6055 17.4125 30.6222 13.6713 30.6055 9.9135C30.6055 9.66298 30.6557 9.34565 30.5384 9.17864C30.3205 8.89472 29.9685 8.54398 29.6667 8.54398C29.365 8.54398 29.0298 8.89472 28.7951 9.17864C28.661 9.34565 28.728 9.66298 28.728 9.9135C28.728 12.5523 28.7113 15.1912 28.728 17.8467C28.728 19.2997 28.2251 20.5189 27.1859 21.5377C26.046 22.64 24.9397 23.7757 23.8166 24.8947C23.2466 25.4626 22.727 25.5294 22.2912 25.1118C21.8386 24.6943 21.9224 24.1431 22.5091 23.5419C23.5484 22.4897 24.6044 21.4542 25.6605 20.402C26.1298 19.9177 26.1801 19.3665 25.8113 18.9657C25.409 18.5315 24.8558 18.5649 24.3362 19.0826C22.3247 21.0868 20.2964 23.0576 18.3352 25.0951C17.9328 25.496 17.5976 26.1139 17.5473 26.6651C17.4132 27.8509 17.4803 29.0701 17.4803 30.3561ZM15.5023 30.3561C15.5023 29.0367 15.5525 27.8008 15.4687 26.5649C15.4352 26.1306 15.1838 25.6296 14.8653 25.2955C12.7867 23.1578 10.6578 21.0701 8.54574 18.9657C8.19372 18.615 7.77465 18.5649 7.33882 18.8321C6.93652 19.0993 6.83594 19.5001 7.00357 19.9344C7.07062 20.1348 7.25501 20.3185 7.40587 20.4688C8.37811 21.4375 9.35034 22.4062 10.3226 23.3916C10.4232 23.4918 10.5405 23.592 10.6243 23.7089C11.0434 24.1766 11.0769 24.711 10.6914 25.0951C10.3058 25.4793 9.75265 25.4793 9.30006 25.0283C8.17696 23.926 7.10414 22.7903 5.96428 21.7214C4.7406 20.5857 4.2042 19.2162 4.22096 17.5461C4.27125 15.0576 4.23772 12.5523 4.23772 10.0638C4.23772 9.8968 4.23772 9.72979 4.23772 9.56277C4.2042 8.91142 3.85218 8.52728 3.31577 8.51058C2.7626 8.49388 2.3603 8.91142 2.3603 9.59618C2.3603 13.5878 2.3603 17.5795 2.3603 21.5878C2.3603 22.3895 2.6285 23.091 3.11462 23.7256C4.70708 25.8133 6.28277 27.9177 7.89199 29.9887C8.04285 30.1891 8.39487 30.3561 8.64631 30.3561C10.6243 30.3895 12.6191 30.3728 14.5971 30.3728C14.9156 30.3561 15.2005 30.3561 15.5023 30.3561Z" fill="#DF3577"/>
<path id="Vector_2" d="M13.502 5.5216C12.7979 3.2001 13.0997 1.84728 14.5413 0.845193C15.7817 -0.00658165 17.3742 0.0268212 18.5811 0.945401C19.9389 1.96419 20.2238 3.38381 19.4863 5.5383C19.6539 5.63851 19.8383 5.72202 20.0059 5.82223C21.4475 6.6573 22.3024 7.87651 22.403 9.54665C22.4868 10.8995 22.4533 12.2523 22.4365 13.6051C22.4365 14.2899 22.0677 14.6239 21.3637 14.6239C18.1285 14.6239 14.8765 14.6239 11.6413 14.6239C10.887 14.6239 10.535 14.2899 10.535 13.5049C10.5182 12.3191 10.5015 11.1333 10.535 9.94749C10.5853 7.94331 11.3731 6.80761 13.502 5.5216ZM12.4962 12.6865C15.1782 12.6865 17.8435 12.6865 20.5423 12.6865C20.5423 11.6343 20.5926 10.6322 20.5256 9.64686C20.425 8.24394 19.2851 7.17505 17.877 7.14164C16.9551 7.10824 16.0331 7.10824 15.128 7.14164C13.8708 7.17505 12.6806 8.09363 12.5297 9.27943C12.3956 10.3984 12.4962 11.5341 12.4962 12.6865ZM18.0447 3.70114C18.0447 2.84937 17.3742 2.14791 16.5193 2.13121C15.6644 2.1145 14.9603 2.78256 14.9436 3.63434C14.9268 4.51951 15.6141 5.23768 16.5025 5.23768C17.3406 5.23768 18.0447 4.55292 18.0447 3.70114Z" fill="#DF3577"/>
</g>
<defs>
<clipPath id="clip0_7228_19319">
<rect width="32" height="32" fill="white" transform="translate(0.5 0.242188)"/>
</clipPath>
</defs>
</svg>
