<svg width="32" height="32" viewBox="0 0 32 32" fill="none" xmlns="http://www.w3.org/2000/svg">
<g id="32*32">
<g id="Group">
<path id="Vector" d="M31.9769 29.5857L31.4553 27.5055C31.4393 27.343 31.4072 27.2374 31.3591 27.1967C31.3109 27.1561 31.1986 27.148 31.014 27.1805C30.9017 27.1967 30.9258 27.2048 30.8134 27.2048C30.3881 27.2048 30.1233 27.1073 30.003 26.9042C29.8906 26.7092 29.8345 26.4085 29.8345 26.0104C29.8345 26.0104 29.8184 23.597 29.8345 22.817C29.8505 21.8419 29.6018 21.0537 29.2327 20.2655C28.8636 19.4773 28.4142 19.006 27.7402 18.4372C27.0662 17.8684 26.1113 17.5678 25.2768 17.3647C24.4664 17.1696 22.6931 17.324 22.019 17.3078C20.5988 17.2834 19.9649 17.2996 18.9859 17.1209C18.9137 17.1046 18.8335 17.1046 18.7532 17.1128C18.665 17.1209 18.6008 17.2021 18.5607 17.3647L17.8626 19.7699C17.8224 19.9567 17.8305 20.0786 17.8947 20.1274C17.9589 20.1761 18.023 20.2168 18.0792 20.2493C18.3199 20.3224 18.4804 20.3955 18.6489 20.428C18.8174 20.4605 18.9859 20.493 19.1544 20.5255C19.3149 20.558 19.7322 20.6149 19.9007 20.6312C20.334 20.6637 22.685 20.7774 23.5115 20.8424C24.33 20.9074 24.8355 21.0375 25.1564 21.525C25.3089 21.7606 25.349 21.9232 25.3811 22.2969H22.6931C21.1765 22.2969 19.9568 22.6788 19.0501 23.4345C18.1434 24.1983 17.686 25.3116 17.686 26.7823C17.686 27.3836 17.7823 27.9443 17.9829 28.4643C18.1835 28.9844 18.5125 29.4313 18.9859 29.8051C19.4594 30.1788 20.0772 30.4714 20.8555 30.6826C21.6339 30.8939 22.5887 30.9995 23.7282 30.9995C24.8355 30.9995 25.8385 30.7233 26.673 30.3739C26.9378 30.5689 27.2427 30.707 27.5797 30.7883C28.0291 30.8939 28.5185 30.9508 29.0642 30.9508C30.4283 30.9508 31.9127 30.0245 31.9609 29.9595C32.001 29.8944 32.009 29.7644 31.9769 29.5857ZM25.357 27.1886C25.1564 27.2861 24.8997 27.3592 24.5867 27.3917C24.2658 27.4242 24.0491 27.4405 23.9368 27.4405C23.4634 27.4405 23.0782 27.3511 22.7974 27.1642C22.5085 26.9773 22.3641 26.6848 22.3641 26.2866C22.3641 26.0022 22.4122 25.7747 22.5085 25.596C22.6048 25.4172 22.7332 25.2872 22.8776 25.1978C23.022 25.1084 23.1906 25.0434 23.3671 25.0109C23.5436 24.9784 23.7282 24.9622 23.9047 24.9622H25.357V27.1886Z" fill="#0097B9"/>
<path id="Vector_2" d="M18.4482 11.9456C18.4 11.9293 17.8624 11.8887 17.6538 11.8887C16.6347 11.8887 15.7842 12.0349 15.1021 12.3356C15.0861 12.3437 15.0781 12.3518 15.062 12.3518C14.9737 12.3925 14.8775 12.4331 14.7972 12.4818C14.7009 12.5306 14.6127 12.5875 14.5244 12.6444C14.5164 12.6444 14.5164 12.6525 14.5083 12.6525C13.7461 13.1644 13.1763 13.9851 12.7992 15.1227L11.8764 17.8042C11.8764 17.8123 11.8684 17.8285 11.8684 17.8367C11.8684 17.8448 11.8604 17.8529 11.8604 17.861L11.8524 17.8854L11.8283 17.9504L11.74 18.1942C11.5154 18.8036 10.8173 20.2256 9.83833 21.0219C9.03593 21.672 7.82429 21.9239 7.07003 21.9645C5.5936 21.9645 4.10915 21.9645 3.93262 21.9645V22.2814V24.5972V30.3096C3.93262 30.4965 3.97274 30.6102 4.04495 30.6509C4.11717 30.6915 4.22951 30.7159 4.38197 30.7159H7.94465C8.11316 30.7159 8.2255 30.6915 8.28969 30.6509C8.35388 30.6102 8.38598 30.4965 8.38598 30.3096V25.4992H9.30875C9.82229 25.4992 10.2235 25.5886 10.5124 25.7592C10.8012 25.938 11.0018 26.263 11.1703 26.7505C11.4752 27.6281 11.403 28.5463 11.6197 29.2289C11.9968 30.4233 12.382 30.6265 12.4702 30.659C12.5585 30.6915 12.6387 30.7077 12.7029 30.7077H16.4662C16.6668 30.7077 16.7711 30.6509 16.7872 30.5452C16.8032 30.4396 16.715 30.2852 16.6187 30.1471C16.6187 30.1471 16.2014 29.6189 15.9607 28.8226C15.7601 28.1563 15.6478 26.6693 15.5033 26.0192C15.4391 25.743 15.3509 25.3935 15.2546 25.1579C15.1583 24.9141 15.0299 24.6947 14.8694 24.4916C14.7089 24.2885 14.5083 24.1178 14.2516 23.9634C13.9948 23.809 13.6819 23.6953 13.2967 23.614V23.5409C13.8423 23.3378 14.2596 23.0371 14.5485 22.6389C14.8373 22.2408 15.046 21.7776 15.1824 21.2576C15.1824 21.2576 16.1212 17.9261 16.1292 17.9261L16.4341 17.016C16.6187 16.4634 16.8995 16.1059 17.2044 15.9515C17.4853 15.8052 17.3408 15.8784 17.5816 15.7646C17.6297 15.7402 17.7902 15.6996 17.8704 15.4071C17.9667 15.0577 18.4803 13.0669 18.6568 12.2462C18.6728 12.0999 18.6006 11.9943 18.4482 11.9456Z" fill="#4F388C"/>
<path id="Vector_3" d="M14.8215 1.14626H11.0101C10.6811 1.14626 10.4644 1.19502 10.3681 1.2844C10.2718 1.37378 10.1756 1.55255 10.0953 1.82069L9.02812 5.83478L7.94487 10.0683L7.93684 10.0926H7.80846L7.03012 6.97237L5.93885 2.8364C5.85058 2.59263 5.76232 2.35699 5.66603 2.12947C5.56974 1.90195 5.44136 1.70693 5.28088 1.53629C5.12039 1.37378 4.91177 1.23564 4.66302 1.14626C4.40625 1.04875 4.07726 1 3.66001 1C3.16252 1 2.64898 1.05688 2.11939 1.17064C1.59783 1.2844 1.02812 1.48754 0.426312 1.78819C0.289902 1.87757 0.169541 1.96696 0.0732524 2.04821C-0.0230365 2.13759 -0.0230365 2.32449 0.0652283 2.62514L0.48248 4.33153C0.554697 4.59155 0.618889 4.74594 0.691106 4.78657C0.763323 4.82719 0.899732 4.83532 1.10836 4.80282C1.4213 4.77031 1.61387 4.77031 1.69412 4.81907C1.77436 4.8597 1.87064 5.05471 1.99101 5.37974L3.61187 9.93012L4.49452 12.4328C4.64697 12.8472 4.79141 13.1398 4.94386 13.3104C5.09632 13.481 5.39321 13.5623 5.83454 13.5623H6.74928L6.38017 14.6674C6.19562 15.2199 5.9549 15.5775 5.64998 15.7319C5.36914 15.8781 4.98398 15.9512 4.47847 15.9675C4.43032 15.9675 4.23775 15.9512 4.15751 16.3006C4.07726 16.6582 3.66001 18.584 3.48348 19.4047C3.45139 19.5428 3.54768 19.6728 3.68409 19.6891C3.73223 19.6972 3.78037 19.7053 3.82852 19.7053C4.30996 19.7541 4.75931 19.7784 5.19261 19.7784C6.53263 19.7784 7.57576 19.5265 8.33805 19.0146C9.10033 18.5027 9.67004 17.682 10.0472 16.5444V16.5688L15.1425 1.62568C15.2708 1.30878 15.1665 1.14626 14.8215 1.14626Z" fill="#E99500"/>
<path id="Vector_4" d="M30.6932 1.49546C30.4444 1.25982 30.0352 1.14606 29.4575 1.14606H27.6039C27.0583 1.14606 26.617 1.25169 26.2719 1.46296C25.9269 1.67423 25.7584 2.02363 25.4454 2.52742L22.9981 8.01225H22.7975L21.8346 2.2999C21.7383 1.77986 21.5457 1.46296 21.2569 1.33295C20.968 1.21106 20.4866 1.14606 20.1255 1.14606L18.9861 1.12168C18.1355 1.12168 17.5658 1.08105 17.4615 1.32482L14.3481 10.58C14.5487 10.4418 15.0543 10.1168 15.7925 9.93804C16.7554 9.70239 17.7905 9.68614 18.3762 9.75927C18.7373 9.7999 18.97 9.84053 19.1947 9.88929L19.7403 7.90662H19.8366L20.1175 9.71052L20.8316 14.1146C20.8878 14.4478 21.0081 14.6834 21.1686 14.8134C21.3291 14.9435 21.6019 15.0166 21.9871 15.0166H22.7173C23.0462 15.0166 23.1666 15.0247 23.4153 14.8947C23.6641 14.7728 23.8166 14.5128 23.9931 14.1146L25.7263 9.88929L26.4886 7.89037H26.5849L26.5688 14.4884C26.5688 14.7809 26.7213 14.9353 26.8256 14.9841C26.9299 15.0328 27.0663 15.0166 27.2829 15.0166H30.3241C30.5568 15.0166 30.7173 14.9922 30.8135 14.9435C30.9098 14.8947 30.982 14.7403 31.0302 14.4965L31.0462 2.8362C31.1586 2.16989 30.9419 1.73111 30.6932 1.49546Z" fill="#DF3376"/>
</g>
</g>
</svg>
