<svg width="167" height="65" viewBox="0 0 167 65" fill="none" xmlns="http://www.w3.org/2000/svg">
<g id="logo" clip-path="url(#clip0_5561_5693)">
<g id="Group">
<path id="Vector" d="M166.95 47.2086L165.532 41.6473C165.481 41.1943 165.405 40.9175 165.253 40.8168C165.126 40.7162 164.797 40.691 164.316 40.7917C164.012 40.842 164.088 40.8672 163.784 40.8672C162.618 40.8672 161.884 40.5904 161.58 40.0619C161.276 39.5334 161.124 38.7282 161.124 37.6713C161.124 37.6713 161.098 31.2291 161.124 29.1405C161.174 26.5485 160.49 24.4096 159.477 22.3209C158.464 20.2322 157.248 18.9489 155.398 17.439C153.549 15.9291 150.965 15.0987 148.685 14.5702C146.481 14.0418 141.642 14.4444 139.793 14.4192C135.917 14.3689 134.194 14.3941 131.509 13.9411C131.306 13.8908 131.103 13.8908 130.875 13.9159C130.647 13.9411 130.47 14.1676 130.343 14.5702L128.443 20.962C128.316 21.4653 128.367 21.7924 128.519 21.9183C128.696 22.0441 128.848 22.1699 129.026 22.2454C129.684 22.4467 130.115 22.6229 130.571 22.7235C131.027 22.8242 131.483 22.8997 131.939 22.9752C132.395 23.0507 133.51 23.2268 133.991 23.252C135.182 23.3275 141.591 23.6295 143.821 23.8056C146.05 23.9818 147.418 24.3341 148.305 25.6426C148.71 26.2717 148.837 26.6995 148.913 27.7061H141.566C137.437 27.7061 134.118 28.7127 131.635 30.751C129.152 32.7893 127.911 35.7588 127.911 39.7096C127.911 41.3201 128.19 42.83 128.722 44.214C129.254 45.5981 130.166 46.806 131.458 47.8126C132.75 48.8192 134.447 49.5993 136.55 50.1529C138.653 50.7065 141.287 50.9833 144.378 50.9833C147.393 50.9833 150.129 50.2535 152.409 49.2973C153.144 49.8257 153.954 50.2032 154.892 50.4045C156.108 50.6813 157.45 50.8323 158.92 50.8323C162.644 50.8323 166.697 48.3662 166.824 48.1649C167.026 48.0139 167.026 47.6868 166.95 47.2086ZM148.887 40.7917C148.355 41.0685 147.646 41.2446 146.785 41.3201C145.923 41.4208 145.315 41.4459 145.011 41.4459C143.719 41.4459 142.681 41.1943 141.895 40.7162C141.11 40.2129 140.73 39.4328 140.73 38.3759C140.73 37.6209 140.857 36.9918 141.135 36.5389C141.414 36.0607 141.743 35.7084 142.149 35.4568C142.554 35.2051 142.985 35.0542 143.491 34.9535C143.973 34.8528 144.479 34.8277 144.961 34.8277H148.913V40.7917H148.887Z" fill="#0097B9"/>
<path id="Vector_2" d="M130.091 0.150987C129.964 0.125823 128.495 0 127.912 0C124.264 0 121.401 0.679443 119.349 2.03833C117.272 3.39721 115.727 5.61169 114.688 8.63144L112.18 15.8033C112.155 15.8537 112.129 15.904 112.129 15.9543L109.697 22.7236C109.114 24.5103 108.278 25.693 107.442 26.2718C106.606 26.8506 105.618 27.1525 104.504 27.1525H102.68V16.2311C102.68 15.7278 102.578 15.4259 102.401 15.3252C102.224 15.2245 101.894 15.1491 101.464 15.1491H91.7356C91.3302 15.1491 91.0262 15.1994 90.8235 15.3252C90.6209 15.4259 90.5195 15.7278 90.5195 16.2311V49.2218C90.5195 49.7251 90.6209 50.0271 90.8235 50.1278C91.0262 50.2284 91.3302 50.3039 91.7356 50.3039H101.464C101.92 50.3039 102.224 50.2536 102.401 50.1278C102.578 50.0271 102.68 49.7251 102.68 49.2218V36.3376H105.188C106.581 36.3376 107.67 36.5641 108.456 37.0422C109.241 37.5203 109.799 38.4011 110.255 39.6845C111.091 42.0248 110.888 44.4909 111.471 46.3028C112.484 49.4987 113.548 50.0523 113.801 50.1278C114.055 50.2284 114.257 50.2536 114.435 50.2536H124.695C125.227 50.2536 125.531 50.1026 125.581 49.8258C125.632 49.5238 125.379 49.1464 125.125 48.7437C125.125 48.7437 123.985 47.3345 123.327 45.1955C122.769 43.4088 122.465 39.4328 122.085 37.6965C121.908 36.9667 121.68 36.0356 121.401 35.3813C121.123 34.7271 120.793 34.1483 120.363 33.5947C119.932 33.0662 119.375 32.5881 118.665 32.1854C117.956 31.7828 117.095 31.4808 116.056 31.2544V31.053C117.551 30.5246 118.665 29.7193 119.476 28.6373C120.261 27.5552 120.844 26.3473 121.199 24.9381C121.199 24.9381 123.757 16.0298 123.783 16.0298L124.619 13.614C125.125 12.1293 125.885 11.1982 126.721 10.7704C127.481 10.393 127.101 10.5691 127.76 10.2671C127.887 10.2168 128.317 10.091 128.545 9.31088C128.799 8.37979 130.192 3.07007 130.699 0.855594C130.724 0.55362 130.496 0.301975 130.091 0.150987Z" fill="#4F388C"/>
<path id="Vector_3" d="M40.4078 15.1741H30.021C29.1089 15.1741 28.5263 15.2999 28.2729 15.5516C27.9943 15.8032 27.7663 16.2814 27.5382 16.986L24.6249 27.7061L21.6862 39.0301L21.6608 39.1056H21.2808L19.1528 30.751L16.1887 19.6786C15.9607 19.0243 15.7074 18.3952 15.4541 17.7912C15.2007 17.1873 14.846 16.6588 14.39 16.2059C13.934 15.7529 13.3767 15.4006 12.6927 15.149C12.0087 14.8973 11.0967 14.7715 9.98197 14.7715C8.61395 14.7715 7.22059 14.9225 5.77657 15.2244C4.33254 15.5264 2.81252 16.08 1.16583 16.8601C0.78582 17.0866 0.481815 17.3383 0.203144 17.5647C-0.0501933 17.7912 -0.075527 18.3197 0.17781 19.0998L1.31783 23.6546C1.49516 24.3592 1.69783 24.7618 1.87517 24.8876C2.05251 25.0135 2.43251 25.0135 3.01519 24.9128C3.8512 24.8121 4.38321 24.8373 4.61121 24.938C4.81388 25.0638 5.09256 25.5671 5.42189 26.4478L9.8553 38.6023L12.2873 45.2961C12.6927 46.4033 13.098 47.2086 13.5034 47.6364C13.9087 48.0893 14.7194 48.3158 15.9354 48.3158H18.4434L17.4301 51.2601C16.9234 52.7448 16.2647 53.6759 15.4287 54.1037C14.6687 54.4811 13.6047 54.7076 12.2367 54.7328C12.11 54.7328 11.578 54.6825 11.3753 55.6387C11.1727 56.595 10.0073 61.7285 9.52596 63.943C9.44996 64.2953 9.7033 64.6476 10.058 64.6979C10.1846 64.7231 10.3366 64.7231 10.4633 64.7483C11.7807 64.8741 12.9967 64.9496 14.1874 64.9496C17.8354 64.9496 20.6981 64.2701 22.7502 62.9113C24.8275 61.5524 26.3729 59.3379 27.4116 56.3181V56.3936L41.3198 16.4323C41.6491 15.6019 41.3451 15.1741 40.4078 15.1741Z" fill="#E99500"/>
<g id="Group_2">
<path id="Vector_4" d="M72.2793 33.2175L70.2019 38.5775L66.3512 47.8381C65.8698 48.895 65.4391 49.5996 64.7805 49.9267C64.0965 50.2539 63.7671 50.2539 62.8804 50.2539H59.6377C58.599 50.2539 57.8644 50.0777 57.4084 49.7254C56.9524 49.3731 56.6483 48.744 56.4963 47.8633L54.9003 38.1246L54.1403 33.293H53.8616L49.4029 48.9453C49.2762 49.6248 49.0736 50.0274 48.8202 50.1532C48.5669 50.2791 48.1109 50.3545 47.4269 50.3545H37.648C37.1414 50.3545 36.7614 50.2791 36.4827 50.1532C36.204 50.0274 36.128 49.6248 36.2547 48.9453L47.6802 15.6778C47.9589 15.0235 49.5042 15.1494 51.8096 15.1494L54.9257 15.2249C55.9137 15.2249 57.231 15.401 58.0164 15.7281C58.8017 16.0553 59.3337 16.9109 59.5871 18.2949L62.2218 33.5446H62.7538L69.4165 18.8737C70.2779 17.54 70.7339 16.5837 71.6712 16.0301C72.6086 15.4765 73.8246 15.1997 75.294 15.1997H80.3354C81.9061 15.1997 83.0208 15.5017 83.7048 16.1308C84.3888 16.7599 84.9715 17.9426 84.6421 19.679L84.5915 48.9202C84.4648 49.5996 84.2621 50.0022 84.0088 50.1281C83.7554 50.2539 83.2994 50.3294 82.6914 50.3294H74.4073C73.8246 50.3294 73.4446 50.3797 73.1659 50.2539C72.8873 50.1281 72.4566 49.7003 72.4566 48.9202L72.5073 33.1923H72.2793V33.2175Z" fill="#DF3376"/>
</g>
</g>
</g>
<defs>
<clipPath id="clip0_5561_5693">
<rect width="167" height="65" fill="white"/>
</clipPath>
</defs>
</svg>
