<svg width="53" height="53" viewBox="0 0 53 53" fill="none" xmlns="http://www.w3.org/2000/svg">
<path d="M52.9622 49.0011L52.0984 45.5558C52.0718 45.2866 52.0186 45.1117 51.9389 45.0444C51.8592 44.9771 51.6731 44.9636 51.3674 45.0175C51.1814 45.0444 51.2213 45.0578 51.0352 45.0578C50.3308 45.0578 49.8923 44.8964 49.6929 44.5599C49.5069 44.2369 49.4138 43.7389 49.4138 43.0795C49.4138 43.0795 49.3872 39.0824 49.4138 37.7904C49.4404 36.1755 49.0284 34.87 48.4171 33.5646C47.8058 32.2591 47.0615 31.4786 45.9452 30.5365C44.8288 29.5944 43.2473 29.0965 41.8652 28.76C40.5229 28.437 37.5858 28.6927 36.4695 28.6658C34.1172 28.6254 33.0673 28.6524 31.4459 28.3563C31.3263 28.3294 31.1934 28.3294 31.0605 28.3428C30.9143 28.3563 30.808 28.4909 30.7416 28.76L29.5853 32.7436C29.5189 33.0532 29.5322 33.255 29.6385 33.3358C29.7448 33.4165 29.8511 33.4838 29.9442 33.5377C30.3429 33.6588 30.6087 33.7799 30.8878 33.8338C31.1668 33.8876 31.4459 33.9414 31.725 33.9952C31.9908 34.0491 32.6819 34.1433 32.961 34.1702C33.6786 34.224 37.5726 34.4125 38.9414 34.5201C40.297 34.6278 41.1342 34.8431 41.6658 35.6506C41.9183 36.0409 41.9848 36.3101 42.038 36.9291H37.5858C35.0741 36.9291 33.054 37.5617 31.5522 38.8133C30.0505 40.0783 29.293 41.9221 29.293 44.358C29.293 45.3539 29.4524 46.2825 29.7847 47.1439C30.1169 48.0052 30.6618 48.7454 31.4459 49.3645C32.23 49.9835 33.2533 50.468 34.5425 50.8179C35.8316 51.1678 37.4131 51.3428 39.3002 51.3428C41.1342 51.3428 42.7955 50.8852 44.1776 50.3065C44.6162 50.6295 45.1212 50.8583 45.6794 50.9929C46.4236 51.1679 47.2343 51.2621 48.138 51.2621C50.3973 51.2621 52.8559 49.7278 52.9356 49.6202C53.0021 49.5125 53.0154 49.2972 52.9622 49.0011ZM41.9981 45.0309C41.6658 45.1924 41.2406 45.3136 40.7223 45.3674C40.1907 45.4212 39.8318 45.4481 39.6458 45.4481C38.8617 45.4481 38.2238 45.3001 37.7586 44.9906C37.2802 44.681 37.041 44.1965 37.041 43.5371C37.041 43.066 37.1207 42.6892 37.2802 42.3931C37.4397 42.0971 37.6523 41.8817 37.8915 41.7337C38.1307 41.5856 38.4098 41.478 38.7022 41.4241C38.9946 41.3703 39.3002 41.3434 39.5926 41.3434H41.9981V45.0309Z" fill="#0097B9"/>
<path d="M30.555 19.7846C30.4753 19.7577 29.5849 19.6904 29.2393 19.6904C27.5515 19.6904 26.1428 19.9327 25.0132 20.4306C24.9866 20.4441 24.9733 20.4575 24.9467 20.4575C24.8005 20.5248 24.6411 20.5921 24.5082 20.6729C24.3487 20.7536 24.2025 20.8478 24.0563 20.942C24.043 20.942 24.043 20.9555 24.0297 20.9555C22.7672 21.8034 21.8236 23.1626 21.199 25.0468L19.6706 29.488C19.6706 29.5014 19.6574 29.5283 19.6574 29.5418C19.6574 29.5553 19.6441 29.5687 19.6441 29.5822L19.6308 29.6225L19.5909 29.7302L19.4447 30.134C19.0726 31.1433 17.9164 33.4985 16.295 34.8174C14.966 35.894 12.9593 36.3112 11.71 36.3785C9.26467 36.3785 6.80605 36.3785 6.51367 36.3785V36.9034V40.739V50.2001C6.51367 50.5096 6.58012 50.698 6.69973 50.7653C6.81934 50.8326 7.0054 50.873 7.2579 50.873H13.1586C13.4377 50.873 13.6238 50.8326 13.7301 50.7653C13.8364 50.698 13.8895 50.5096 13.8895 50.2001V42.2328H15.4179C16.2684 42.2328 16.9329 42.3809 17.4114 42.6635C17.8898 42.9596 18.222 43.4979 18.5011 44.3054C19.0061 45.7589 18.8865 47.2796 19.2454 48.4101C19.87 50.3885 20.5079 50.7249 20.6541 50.7788C20.8003 50.8326 20.9332 50.8595 21.0395 50.8595H27.2724C27.6047 50.8595 27.7775 50.7653 27.804 50.5903C27.8306 50.4154 27.6844 50.1597 27.525 49.9309C27.525 49.9309 26.8339 49.0561 26.4352 47.7372C26.1029 46.6336 25.9169 44.1708 25.6777 43.0942C25.5713 42.6366 25.4252 42.0579 25.2657 41.6676C25.1062 41.2638 24.8936 40.9005 24.6278 40.564C24.362 40.2276 24.0297 39.945 23.6044 39.6892C23.1792 39.4335 22.6609 39.2451 22.023 39.1105V38.9894C22.9267 38.653 23.6177 38.155 24.0962 37.4956C24.5746 36.8361 24.9201 36.069 25.1461 35.2077C25.1461 35.2077 26.701 29.6898 26.7143 29.6898L27.2193 28.1825C27.525 27.2674 27.9901 26.6752 28.4951 26.4195C28.9603 26.1773 28.721 26.2984 29.1197 26.11C29.1995 26.0696 29.4653 26.0023 29.5982 25.5178C29.7577 24.9391 30.6082 21.6419 30.9006 20.2826C30.9272 20.0403 30.8076 19.8654 30.555 19.7846Z" fill="#4F388C"/>
<path d="M24.5481 1.8985H18.2354C17.6905 1.8985 17.3317 1.97925 17.1722 2.12729C17.0128 2.27533 16.8533 2.5714 16.7204 3.01552L14.9528 9.66385L13.1587 16.6755L13.1454 16.7159H12.9328L11.6436 11.548L9.83622 4.69779C9.69003 4.29405 9.54384 3.90376 9.38437 3.52693C9.22489 3.1501 9.01225 2.82711 8.74645 2.54449C8.48065 2.27533 8.13512 2.04654 7.72313 1.8985C7.29785 1.737 6.75297 1.65625 6.0619 1.65625C5.23793 1.65625 4.38737 1.75046 3.51024 1.93887C2.6464 2.12729 1.70282 2.46374 0.706079 2.96169C0.480151 3.10973 0.280803 3.25777 0.121324 3.39235C-0.0381542 3.54039 -0.0381542 3.84993 0.108034 4.34788L0.799108 7.17409C0.918717 7.60475 1.02504 7.86046 1.14464 7.92775C1.26425 7.99504 1.49018 8.0085 1.83572 7.95467C2.35402 7.90083 2.67298 7.90083 2.80588 7.98158C2.93878 8.04887 3.09826 8.37187 3.2976 8.91019L5.98216 16.4468L7.44404 20.5919C7.69655 21.2782 7.93577 21.7627 8.18828 22.0454C8.44078 22.328 8.93251 22.4626 9.66345 22.4626H11.1785L10.5672 24.2929C10.2615 25.208 9.8628 25.8002 9.35779 26.0559C8.89264 26.2981 8.25473 26.4192 7.41746 26.4462C7.33772 26.4462 7.01877 26.4193 6.88587 26.998C6.75297 27.5901 6.0619 30.7797 5.76952 32.139C5.71636 32.3678 5.87584 32.5831 6.10177 32.61C6.18151 32.6235 6.26125 32.6369 6.34098 32.6369C7.13838 32.7177 7.88261 32.758 8.60026 32.758C10.8197 32.758 12.5474 32.3408 13.8099 31.493C15.0724 30.6451 16.016 29.2858 16.6406 27.4017V27.4421L25.0797 2.69253C25.2923 2.16766 25.1196 1.8985 24.5481 1.8985Z" fill="#E99500"/>
<path d="M50.8351 2.4768C50.4232 2.08651 49.7454 1.8981 48.7885 1.8981H45.7185C44.8148 1.8981 44.0839 2.07305 43.5124 2.42296C42.941 2.77288 42.6619 3.35158 42.1436 4.18598L38.0902 13.2702H37.7579L36.1631 3.80915C36.0036 2.94783 35.6847 2.42296 35.2062 2.20763C34.7278 2.00576 33.9304 1.8981 33.3324 1.8981L31.4452 1.85772C30.0365 1.85772 29.0929 1.79043 28.9201 2.19418L23.7637 17.523C24.0959 17.2942 24.9332 16.7559 26.1558 16.4598C27.7506 16.0695 29.465 16.0426 30.4352 16.1637C31.0332 16.231 31.4186 16.2983 31.7908 16.3791L32.6945 13.0953H32.8539L33.3191 16.083L34.5019 23.3773C34.5949 23.9291 34.7943 24.3194 35.0601 24.5347C35.3259 24.75 35.7777 24.8712 36.4156 24.8712H37.625C38.1699 24.8712 38.3692 24.8846 38.7812 24.6693C39.1932 24.4674 39.4457 24.0368 39.7381 23.3773L42.6087 16.3791L43.8712 13.0684H44.0307L44.0041 23.9964C44.0041 24.4809 44.2566 24.7366 44.4294 24.8173C44.6022 24.8981 44.8281 24.8712 45.1869 24.8712H50.2238C50.6092 24.8712 50.875 24.8308 51.0345 24.75C51.194 24.6693 51.3136 24.4136 51.3933 24.0098L51.4199 4.69739C51.6059 3.59382 51.2471 2.86708 50.8351 2.4768Z" fill="#DF3376"/>
</svg>
