<svg width="50" height="50" viewBox="0 0 50 50" fill="none" xmlns="http://www.w3.org/2000/svg">
<g clip-path="url(#clip0_221_450)">
<path d="M24.9988 0.0825195C11.2342 0.0825195 0.0753174 11.2411 0.0753174 25.0057C0.0753174 38.7709 11.2342 49.9286 24.9988 49.9286C38.7649 49.9286 49.9226 38.7709 49.9226 25.0057C49.9226 11.242 38.7649 0.08371 24.9985 0.08371L24.9988 0.0825195ZM36.4286 36.0289C35.9822 36.7611 35.0238 36.9932 34.2917 36.5438C28.4399 32.9694 21.0732 32.1599 12.3976 34.142C11.5616 34.3325 10.7283 33.8087 10.5378 32.9724C10.3464 32.1361 10.8682 31.3028 11.7063 31.1123C21.2003 28.9423 29.3441 29.8772 35.9137 33.892C36.6459 34.3414 36.878 35.2968 36.4286 36.0289ZM39.4792 29.2417C38.9167 30.1569 37.7203 30.4456 36.8066 29.8831C30.1072 25.7644 19.895 24.5718 11.9709 26.9772C10.9432 27.2876 9.85776 26.7084 9.54585 25.6825C9.23633 24.6548 9.81579 23.5715 10.8417 23.259C19.8932 20.5126 31.1459 21.8429 38.8393 26.5706C39.753 27.1331 40.0417 28.3295 39.4792 29.242V29.2417ZM39.7411 22.1751C31.7084 17.4039 18.4554 16.9653 10.786 19.2929C9.55448 19.6664 8.2521 18.9712 7.87889 17.7397C7.50567 16.5075 8.20032 15.206 9.43276 14.8316C18.2366 12.159 32.872 12.6754 42.1203 18.1656C43.2304 18.823 43.5935 20.2536 42.9357 21.3599C42.281 22.4676 40.8464 22.8328 39.7423 22.1751H39.7411Z" fill="white"/>
</g>
<defs>
<clipPath id="clip0_221_450">
<rect width="50" height="50" fill="white"/>
</clipPath>
</defs>
</svg>
