<svg width="50" height="50" viewBox="0 0 50 50" fill="none" xmlns="http://www.w3.org/2000/svg">
<g clip-path="url(#clip0_221_427)">
<path d="M49.9875 12.7586C50.0042 11.2232 49.8363 9.69137 49.4875 8.19606C48.8271 5.46689 47.275 3.38356 44.9458 1.85648C43.7583 1.09249 42.4279 0.577897 41.0354 0.343978C39.9586 0.158583 38.8695 0.0541237 37.7771 0.0314779C37.6937 0.0252279 37.6042 0.0106445 37.5187 0.00439453H12.4708C12.1556 0.023839 11.8396 0.0418945 11.5229 0.0585612C9.96667 0.148145 8.41875 0.314811 6.95417 0.891894C4.17083 1.99606 2.1625 3.91689 0.985417 6.68356C0.585417 7.61689 0.377083 8.61064 0.229167 9.61689C0.115631 10.432 0.0460858 11.2526 0.0208333 12.0752C0.0208333 12.1419 0.00625 12.2044 0 12.269V37.7336L0.05625 38.6169C0.160417 40.3148 0.377083 42.0002 1.09167 43.5606C2.44583 46.519 4.7125 48.4627 7.82917 49.396C8.70417 49.6606 9.6125 49.7856 10.5229 49.8711C11.6792 49.9815 12.8354 49.9961 13.9958 49.9961H36.975C38.0685 49.9927 39.1608 49.9231 40.2458 49.7877C41.9583 49.5669 43.5708 49.0586 45.0271 48.1002C46.754 46.9833 48.1157 45.3848 48.9437 43.5023C49.3312 42.6273 49.5542 41.6898 49.7146 40.744C49.95 39.3377 50.0021 37.9148 50 36.494C49.9958 28.5773 50 20.6711 49.9937 12.7586H49.9875ZM36.6062 21.0711V32.9711C36.6062 33.8398 36.4854 34.694 36.0979 35.4836C35.4937 36.7127 34.5146 37.4877 33.2062 37.8586C32.4785 38.0669 31.7354 38.187 30.9771 38.219C28.9979 38.3127 27.2833 36.969 26.9292 35.019C26.7804 34.177 26.9113 33.3095 27.3018 32.5489C27.6922 31.7883 28.3208 31.1764 29.0917 30.8065C29.7646 30.4731 30.4875 30.2856 31.2125 30.1315C32 29.9606 32.7917 29.8127 33.575 29.6315C34.1458 29.5002 34.5271 29.1523 34.6375 28.5565C34.6644 28.4241 34.6783 28.2895 34.6792 28.1544C34.6792 24.3724 34.6778 20.5926 34.675 16.8148C34.6742 16.6845 34.656 16.5549 34.6208 16.4294C34.5375 16.1169 34.3083 15.9231 33.9875 15.9419C33.6542 15.9627 33.325 16.0148 32.9979 16.0794C31.4146 16.3933 29.8312 16.7099 28.2479 17.0294L23.4042 18.0086L20.5417 18.5877L20.4417 18.6148C19.8646 18.7752 19.6562 19.0377 19.6292 19.6356C19.6264 19.7231 19.6264 19.8134 19.6292 19.9065C19.625 25.3273 19.6292 30.7481 19.6229 36.1669C19.6229 37.0419 19.525 37.9086 19.175 38.7231C18.5958 40.0565 17.5708 40.8898 16.1875 41.2919C15.4569 41.503 14.7104 41.6224 13.9479 41.6502C11.9479 41.7252 10.2917 40.4002 9.94792 38.4336C9.65625 36.7419 10.4271 34.9231 12.3521 34.1106C13.0958 33.7981 13.8729 33.6273 14.6604 33.4648C15.2583 33.3398 15.8583 33.2231 16.4521 33.0961C17.2493 32.9211 17.666 32.4252 17.7021 31.6086V31.2961L17.7062 12.7919C17.7062 12.5356 17.7333 12.2711 17.7938 12.0211C17.9396 11.4273 18.3625 11.0877 18.9312 10.9419C19.4625 10.8044 20.0042 10.7086 20.5437 10.5981C22.0715 10.287 23.5993 9.9787 25.1271 9.67314L29.8562 8.71481L34.0437 7.87523C34.5021 7.78564 34.9646 7.69189 35.425 7.65439C36.0708 7.60231 36.5146 8.00856 36.5792 8.65856C36.5958 8.81134 36.6042 8.9662 36.6042 9.12314C36.6083 13.1037 36.6083 17.0843 36.6042 21.0648L36.6062 21.0711Z" fill="white"/>
</g>
<defs>
<clipPath id="clip0_221_427">
<rect width="50" height="50" fill="white"/>
</clipPath>
</defs>
</svg>
