<svg width="50" height="50" viewBox="0 0 50 50" fill="none" xmlns="http://www.w3.org/2000/svg">
<path d="M44.0029 8C45.2615 8 46.2109 9.10403 45.7031 11.1575L39.5426 40.1936C39.112 42.2581 37.8644 42.7549 36.1421 41.7944L21.4475 30.9418C21.3905 30.9009 21.3441 30.847 21.312 30.7846C21.28 30.7222 21.2633 30.6531 21.2633 30.583C21.2633 30.5128 21.28 30.4437 21.312 30.3813C21.3441 30.3189 21.3905 30.265 21.4475 30.2242L38.4165 14.9002C39.1893 14.2157 38.2508 13.8845 37.2351 14.5027L15.9384 27.9388C15.8738 27.9809 15.8004 28.0078 15.7239 28.0174C15.6474 28.0269 15.5697 28.0189 15.4967 27.994L6.45473 25.1346C4.44539 24.5494 4.44539 23.1694 6.90738 22.1868L43.0865 8.23185C43.3738 8.0953 43.6852 8.01653 44.0029 8Z" stroke="white" stroke-width="1.05987" stroke-linecap="round" stroke-linejoin="round"/>
</svg>
