<svg width="50" height="50" viewBox="0 0 50 50" fill="none" xmlns="http://www.w3.org/2000/svg">
<path d="M49.5227 19.0682L49.3182 18.0909L41.0682 16.6591L45.8636 10.1818L45.2955 9.56818L38.25 12.9545L39.1364 3.97727L38.4091 3.56818L34.1136 10.8182L29.3409 0H28.5L29.6364 10.4545L17.5227 0.75L16.5 1.04545L25.8409 12.7727L7.36364 6.61364L6.52273 7.54545L23.0227 16.9318L0.25 18.8409L0 20.25L23.6591 22.8182L3.93182 39.1364L4.77273 40.2727L28.25 27.5L23.5909 50H25.0227L34.0227 28.8409L39.5 45.4091L40.4773 44.6591L38.2273 27.8182L46.7727 37.5227L47.3409 36.6364L40.7955 24.6136L49.9318 28L50.0227 26.9773L41.8409 20.9318L49.5682 19.0682H49.5227Z" fill="#FFBC0D"/>
</svg>
