<svg width="50" height="50" viewBox="0 0 50 50" fill="none" xmlns="http://www.w3.org/2000/svg">
<g clip-path="url(#clip0_221_412)">
<path d="M49.5002 19.0682L49.2958 18.0909L41.0495 16.6591L45.8428 10.1818L45.2749 9.56818L38.2326 12.9545L39.1186 3.97727L38.3916 3.56818L34.0981 10.8182L29.3276 0H28.4871L29.6229 10.4545L17.5148 0.75L16.4925 1.04545L25.8292 12.7727L7.36029 6.61364L6.51976 7.54545L23.0123 16.9318L0.249886 18.8409L0 20.25L23.6483 22.8182L3.93003 39.1364L4.77056 40.2727L28.2372 27.5L23.5802 50H25.0114L34.0073 28.8409L39.4821 45.4091L40.4589 44.6591L38.2099 27.8182L46.7515 37.5227L47.3194 36.6364L40.7769 24.6136L49.9091 28L50 26.9773L41.8219 20.9318L49.5457 19.0682H49.5002Z" fill="white"/>
</g>
<defs>
<clipPath id="clip0_221_412">
<rect width="50" height="50" fill="white"/>
</clipPath>
</defs>
</svg>
