<svg width="50" height="50" viewBox="0 0 50 50" fill="none" xmlns="http://www.w3.org/2000/svg">
<path d="M18.6904 43.4189C22.7755 43.4189 26.1051 40.1004 26.1051 36.029C26.1051 31.9576 22.7755 28.6392 18.6904 28.6392C14.6054 28.6392 11.2758 31.9576 11.2758 36.029C11.2758 40.1283 14.6054 43.4189 18.6904 43.4189Z" fill="white"/>
<path d="M26.1051 6.97168V19.7715L39.9551 26.6594V13.8596L26.1051 6.97168Z" fill="white"/>
<path d="M50 0H0V50H50V0Z" fill="#FF0032"/>
<path d="M18.4946 43.5023C22.6356 43.5023 25.9932 40.156 25.9932 36.0009C25.9932 31.8459 22.6356 28.4995 18.4946 28.4995C14.3536 28.4995 10.996 31.8459 10.996 36.0009C10.996 40.156 14.3536 43.5023 18.4946 43.5023Z" fill="white"/>
<path d="M25.9932 6.49756V19.4925L40.0111 26.492V13.497L25.9932 6.49756Z" fill="white"/>
</svg>
