<svg width="50" height="50" viewBox="0 0 50 50" fill="none" xmlns="http://www.w3.org/2000/svg">
<path d="M33.3325 15.001V23.3335M25 15.001V23.3335M33.3325 6.66846H16.6675C12.7387 6.66846 10.7764 6.66846 9.55567 7.885C8.33496 9.09946 8.33496 11.0555 8.33496 14.9676V28.6663C8.33496 29.437 8.33496 29.8224 8.38704 30.1453C8.52683 31.012 8.93686 31.8125 9.5586 32.4324C10.1803 33.0522 10.982 33.4598 11.8492 33.597C12.1742 33.647 12.5595 33.647 13.3345 33.647C13.5282 33.647 13.6261 33.647 13.7053 33.6595C13.9222 33.6936 14.1228 33.7953 14.2784 33.9502C14.434 34.1051 14.5367 34.3052 14.5718 34.5219C14.5843 34.6032 14.5843 34.699 14.5843 34.8927V38.107C14.5843 40.5692 14.5843 41.8004 15.2822 42.0441C15.9779 42.2878 16.7508 41.3275 18.2944 39.4027L22.2919 34.424C22.5981 34.0428 22.7523 33.8512 22.9668 33.7491C23.1793 33.647 23.4251 33.647 23.9188 33.647H31.9638C33.6678 33.647 34.5178 33.647 35.2844 33.3304C36.0489 33.0158 36.6509 32.4138 37.857 31.216L39.2235 29.8516C40.4297 28.6538 41.0296 28.0538 41.3483 27.2893C41.665 26.5269 41.665 25.6791 41.665 23.9834V14.9697C41.665 11.0555 41.665 9.09946 40.4443 7.885C39.2235 6.66846 37.2612 6.66846 33.3325 6.66846Z" stroke="white" stroke-width="0.9999" stroke-linecap="round" stroke-linejoin="round"/>
</svg>
