<svg width="1663" height="195" viewBox="0 0 1663 195" fill="none" xmlns="http://www.w3.org/2000/svg">
<g clip-path="url(#clip0_769_23160)">
<path d="M1356.6 134.3C1337.8 110.6 1328.4 81.5996 1328.4 47.1996C1328.4 41.3996 1328.7 35.7996 1329.2 30.2996C1328.5 30.1996 1327.9 30.0996 1327.2 30.0996C1326.6 35.6996 1326.3 41.3996 1326.3 47.1996C1326.3 81.4996 1335.6 110.7 1354.1 134.6C1355.1 134.5 1355.8 134.4 1356.6 134.3Z" fill="white"/>
<path d="M1566.7 128.2C1580.5 108 1588.1 84.3 1589.6 57.2C1588.9 57.1 1588.3 57.1 1587.6 57C1586.1 84.3 1578.3 108 1564.3 128.1C1565.1 128.2 1565.9 128.2 1566.7 128.2Z" fill="white"/>
<path d="M659.7 13.6998L660 13.3998L667.6 4.7998C666.7 4.7998 665.8 4.8998 664.9 4.8998L658.9 11.7998H642.8V5.7998C642.1 5.7998 641.5 5.8998 640.8 5.8998V13.7998H659.7V13.6998Z" fill="white"/>
<path d="M1032.8 13.7004L1033.1 13.4004L1041.7 3.6004C1040.8 3.6004 1040 3.5004 1039.1 3.5004L1031.8 11.8004H1015.7V2.5004C1015 2.5004 1014.4 2.50039 1013.7 2.40039V13.8004H1032.8V13.7004Z" fill="white"/>
<path d="M569.2 169.6V9.09961C568.5 9.09961 567.9 9.1996 567.2 9.1996V169.8C567.8 169.7 568.5 169.6 569.2 169.6Z" fill="white"/>
<path d="M813.1 154C813.9 154 814.8 153.9 815.6 153.9L723.4 49.5004L765.2 1.90039C764.3 1.90039 763.4 1.9004 762.5 2.0004L721.3 48.9004L720.7 49.6004L721.3 50.3004L813.1 154Z" fill="white"/>
<path d="M642.7 163.9V89H658.8L721.4 159C722.3 159 723.1 158.9 724 158.9L660 87.3L659.7 87H640.7V164C641.4 164 642.1 163.9 642.7 163.9Z" fill="white"/>
<path d="M509 175.1V12.4004C508.3 12.4004 507.7 12.5004 507 12.5004V175.2C507.6 175.2 508.3 175.1 509 175.1Z" fill="white"/>
<path d="M434.5 183.2C434.8 183.2 435.1 183.1 435.4 183.1V17.2998C434.7 17.2998 434.1 17.3998 433.4 17.3998V183.4C433.8 183.3 434.1 183.3 434.5 183.2Z" fill="white"/>
<path d="M942.3 156.1V0.5C941.6 0.5 941 0.5 940.3 0.5V155.8C940.9 155.9 941.6 156 942.3 156.1Z" fill="white"/>
<path d="M1189.1 157.4C1189.9 157.3 1190.7 157.2 1191.5 157.1L1096.6 49.4998L1131.7 9.4998C1130.9 9.3998 1130 9.3998 1129.2 9.2998L1094.5 48.8998L1093.9 49.5998L1094.5 50.2998L1189.1 157.4Z" fill="white"/>
<path d="M1102.9 165.4L1033.1 87.3L1032.8 87H1013.8V161.5C1014.5 161.5 1015.1 161.5 1015.8 161.5V89H1031.9L1100.3 165.5C1101.2 165.5 1102 165.4 1102.9 165.4Z" fill="white"/>
<path d="M1268.8 132.5C1270.5 136.5 1272.3 140.4 1274.1 144.2C1274.8 144.1 1275.5 144 1276.2 143.9C1274.3 139.9 1272.4 135.9 1270.7 131.7C1260.2 105.4 1254.9 77.1996 1254.9 47.1996C1254.9 38.4996 1255.4 30.0996 1256.2 21.7996C1255.5 21.6996 1254.9 21.6996 1254.2 21.5996C1253.3 29.8996 1252.9 38.3996 1252.9 47.1996C1252.9 77.4996 1258.2 105.9 1268.8 132.5Z" fill="white"/>
<path d="M1647.9 130.3C1656.4 109 1661.5 86.4996 1663 62.7996C1662.3 62.6996 1661.7 62.6996 1661 62.5996C1659.5 86.3996 1654.4 108.9 1645.8 130.2C1646.5 130.3 1647.2 130.3 1647.9 130.3Z" fill="white"/>
<path d="M85.0997 186L96.1997 156.9H269L283.4 194.9C284.1 194.9 284.8 194.8 285.5 194.8L270.4 154.9C270.3 154.9 95.5997 154.9 94.8997 154.8L83.0997 185.7C83.6997 185.8 84.3997 185.9 85.0997 186Z" fill="white"/>
<path d="M366.9 190.5L301.9 27.9004C301.2 28.0004 300.5 28.0004 299.8 28.1004L364.9 190.7C365.5 190.6 366.2 190.5 366.9 190.5Z" fill="white"/>
<path d="M1.29971 185.5C1.49971 185.5 1.69971 185.5 1.99971 185.4L54.4997 53C53.6997 53.1 52.9997 53.2 52.1997 53.3L-0.300293 185.7C0.199707 185.6 0.699705 185.6 1.29971 185.5Z" fill="white"/>
<path d="M122.6 87.8004C122.6 87.8004 244.6 87.8004 245.1 87.8004C238.4 70.2004 231.8 52.6004 225.1 34.9004C224.4 35.0004 223.7 35.0004 223 35.1004L242.2 85.8004H123.3L139.4 43.6004C138.7 43.7004 137.9 43.8004 137.2 43.8004L120.4 87.8004C120.5 87.8004 122.6 87.8004 122.6 87.8004Z" fill="white"/>
</g>
<defs>
<clipPath id="clip0_769_23160">
<rect width="1663" height="195" fill="white"/>
</clipPath>
</defs>
</svg>
