<svg viewBox="0 0 1689 421" fill="none">
    <g clip-path="url(#clip0_651_27031)">
        <path d="M1591 291.2C1590.2 291.2 1589.4 291.2 1588.6 291.2C1584.6 296.8 1580.2 302 1575.3 307.1C1550.2 332.2 1519.5 344.7 1483.2 344.7C1446.9 344.7 1416.2 332.2 1391.1 307.1C1388 303.9 1385 300.6 1382.3 297.2C1381.5 297.3 1380.7 297.3 1379.9 297.4C1382.9 301.2 1386.2 304.9 1389.7 308.5C1415.2 334 1446.4 346.7 1483.2 346.7C1520.1 346.7 1551.3 334 1576.7 308.5C1582 303 1586.8 297.2 1591 291.2Z" fill="white"/>
        <path d="M841.6 317C840.7 317 839.9 317.1 839 317.1L919.2 408H826.8L749.7 321.7C748.8 321.7 748 321.8 747.1 321.8L825.5 409.6L825.8 409.9H923.6L922.1 408.2L841.6 317Z" fill="white"/>
        <path d="M665.7 327V408H594.1V332.6C593.4 332.7 592.8 332.7 592.1 332.8V410H667.7V326.9C667.1 326.9 666.4 327 665.7 327Z" fill="white"/>
        <path d="M532 338.301V408.001H460.4V346.101C459.7 346.201 459.1 346.301 458.4 346.301V410.001H534V338.101C533.3 338.101 532.6 338.201 532 338.301Z" fill="white"/>
        <path d="M1038.8 324.5V408H967.2V319.1C966.5 319 965.9 318.9 965.2 318.8V410H1040.8V324.5C1040.2 324.5 1039.5 324.5 1038.8 324.5Z" fill="white"/>
        <path d="M1217.3 319.9C1216.5 320 1215.7 320.1 1214.9 320.2L1292.3 407.9H1199.9L1128.8 328.3C1127.9 328.3 1127.1 328.4 1126.2 328.4L1198.8 409.6L1199.1 409.9H1296.9L1295.4 408.2L1217.3 319.9Z" fill="white"/>
        <path d="M1670.4 293.101C1670.3 293.301 1670.2 293.501 1670.2 293.701C1659.7 319.601 1645.2 341.801 1626.8 360.201C1608.4 378.201 1586.8 392.501 1562 403.001C1537.2 413.101 1510.9 418.201 1483.1 418.201C1455.3 418.201 1429 413.101 1404.2 403.001C1379.4 392.501 1357.8 378.201 1339.4 360.201C1324.2 345.001 1311.5 327.201 1301.4 306.801C1300.7 306.901 1300 307.001 1299.3 307.101C1309.5 327.901 1322.4 346.101 1337.9 361.601C1356.5 379.801 1378.3 394.201 1403.3 404.801C1428.3 415.001 1454.9 420.201 1482.9 420.201C1510.9 420.201 1537.5 415.101 1562.5 404.801C1587.5 394.201 1609.3 379.801 1627.9 361.601C1646.5 343.001 1661.1 320.601 1671.7 294.501C1671.9 294.101 1672 293.701 1672.2 293.201C1671.8 293.201 1671.1 293.201 1670.4 293.101Z" fill="white"/>
        <path d="M414.4 408.6L392.3 353.5C391.6 353.6 390.9 353.6 390.2 353.7L412 408H329.8L310.8 357.8C310.1 357.8 309.4 357.9 308.7 357.9L328.2 409.4L328.4 410H414.9L414.4 408.6Z" fill="white"/>
        <path d="M107.7 348.6L85.0999 408H2.8999L26.4999 348.5C25.7999 348.6 24.9999 348.7 24.2999 348.7L0.499902 408.6L-0.100098 410H86.3999L86.5999 409.4L109.7 349C109.1 348.8 108.4 348.7 107.7 348.6Z" fill="white"/>
    </g>
    <g clip-path="url(#clip1_651_27031)">
        <path d="M1381.6 296.3C1362.8 272.6 1353.4 243.6 1353.4 209.2C1353.4 203.4 1353.7 197.8 1354.2 192.3C1353.5 192.2 1352.9 192.1 1352.2 192.1C1351.6 197.7 1351.3 203.4 1351.3 209.2C1351.3 243.5 1360.6 272.7 1379.1 296.6C1380.1 296.5 1380.8 296.4 1381.6 296.3Z" fill="white"/>
        <path d="M1591.7 290.2C1605.5 270 1613.1 246.3 1614.6 219.2C1613.9 219.1 1613.3 219.1 1612.6 219C1611.1 246.3 1603.3 270 1589.3 290.1C1590.1 290.2 1590.9 290.2 1591.7 290.2Z" fill="white"/>
        <path d="M684.7 175.7L685 175.4L692.6 166.8C691.7 166.8 690.8 166.9 689.9 166.9L683.9 173.8H667.8V167.8C667.1 167.8 666.5 167.9 665.8 167.9V175.8H684.7V175.7Z" fill="white"/>
        <path d="M1057.8 175.7L1058.1 175.4L1066.7 165.6C1065.8 165.6 1065 165.5 1064.1 165.5L1056.8 173.8H1040.7V164.5C1040 164.5 1039.4 164.5 1038.7 164.4V175.8H1057.8V175.7Z" fill="white"/>
        <path d="M594.2 331.6V171.1C593.5 171.1 592.9 171.2 592.2 171.2V331.8C592.8 331.7 593.5 331.6 594.2 331.6Z" fill="white"/>
        <path d="M838.1 316C838.9 316 839.8 315.9 840.6 315.9L748.4 211.5L790.2 163.9C789.3 163.9 788.4 163.9 787.5 164L746.3 210.9L745.7 211.6L746.3 212.3L838.1 316Z" fill="white"/>
        <path d="M667.7 325.9V251H683.8L746.4 321C747.3 321 748.1 320.9 749 320.9L685 249.3L684.7 249H665.7V326C666.4 326 667.1 325.9 667.7 325.9Z" fill="white"/>
        <path d="M534 337.1V174.4C533.3 174.4 532.7 174.5 532 174.5V337.2C532.6 337.2 533.3 337.1 534 337.1Z" fill="white"/>
        <path d="M459.5 345.2C459.8 345.2 460.1 345.1 460.4 345.1V179.3C459.7 179.3 459.1 179.4 458.4 179.4V345.4C458.8 345.3 459.1 345.3 459.5 345.2Z" fill="white"/>
        <path d="M967.3 318.1V162.5C966.6 162.5 966 162.5 965.3 162.5V317.8C965.9 317.9 966.6 318 967.3 318.1Z" fill="white"/>
        <path d="M1214.1 319.4C1214.9 319.3 1215.7 319.2 1216.5 319.1L1121.6 211.5L1156.7 171.5C1155.9 171.4 1155 171.4 1154.2 171.3L1119.5 210.9L1118.9 211.6L1119.5 212.3L1214.1 319.4Z" fill="white"/>
        <path d="M1127.9 327.4L1058.1 249.3L1057.8 249H1038.8V323.5C1039.5 323.5 1040.1 323.5 1040.8 323.5V251H1056.9L1125.3 327.5C1126.2 327.5 1127 327.4 1127.9 327.4Z" fill="white"/>
        <path d="M1293.8 294.5C1295.5 298.5 1297.3 302.4 1299.1 306.2C1299.8 306.1 1300.5 306 1301.2 305.9C1299.3 301.9 1297.4 297.9 1295.7 293.7C1285.2 267.4 1279.9 239.2 1279.9 209.2C1279.9 200.5 1280.4 192.1 1281.2 183.8C1280.5 183.7 1279.9 183.7 1279.2 183.6C1278.3 191.9 1277.9 200.4 1277.9 209.2C1277.9 239.5 1283.2 267.9 1293.8 294.5Z" fill="white"/>
        <path d="M1672.9 292.3C1681.4 271 1686.5 248.5 1688 224.8C1687.3 224.7 1686.7 224.7 1686 224.6C1684.5 248.4 1679.4 270.9 1670.8 292.2C1671.5 292.3 1672.2 292.3 1672.9 292.3Z" fill="white"/>
        <path d="M110.1 348L121.2 318.9H294L308.4 356.9C309.1 356.9 309.8 356.8 310.5 356.8L295.4 316.9C295.3 316.9 120.6 316.9 119.9 316.8L108.1 347.7C108.7 347.8 109.4 347.9 110.1 348Z" fill="white"/>
        <path d="M391.9 352.5L326.9 189.9C326.2 190 325.5 190 324.8 190.1L389.9 352.7C390.5 352.6 391.2 352.5 391.9 352.5Z" fill="white"/>
        <path d="M26.2997 347.5C26.4997 347.5 26.6997 347.5 26.9997 347.4L79.4997 215C78.6997 215.1 77.9997 215.2 77.1997 215.3L24.6997 347.7C25.1997 347.6 25.6997 347.6 26.2997 347.5Z" fill="white"/>
        <path d="M147.6 249.8C147.6 249.8 269.6 249.8 270.1 249.8C263.4 232.2 256.8 214.6 250.1 196.9C249.4 197 248.7 197 248 197.1L267.2 247.8H148.3L164.4 205.6C163.7 205.7 162.9 205.8 162.2 205.8L145.4 249.8C145.5 249.8 147.6 249.8 147.6 249.8Z" fill="white"/>
    </g>
    <g clip-path="url(#clip2_651_27031)">
        <path d="M967.3 161.9V13.7998H1038.9V163.6C1039.6 163.6 1040.2 163.6 1040.9 163.7V11.7998H965.3V161.8C965.9 161.8 966.6 161.9 967.3 161.9Z" fill="white"/>
        <path d="M693.5 165.7L826.8 13.7998H919.2L788.4 162.9C789.3 162.9 790.2 162.9 791.1 162.8L922.2 13.4998L923.7 11.7998H826L825.7 12.0998L690.8 165.8C691.7 165.7 692.6 165.7 693.5 165.7Z" fill="white"/>
        <path d="M1279.3 182.6C1280 182.7 1280.6 182.7 1281.3 182.8C1284.5 153.4 1293.2 126.5 1307.5 102.1C1325.9 70.2 1350.5 45.6 1381.3 28.3C1412.1 11 1446.1 2.4 1483.3 2.4C1520.5 2.4 1554.5 11 1585.3 28.3C1616.1 45.6 1640.7 70.1 1659.1 102.1C1677.5 133.6 1686.7 169.3 1686.7 209.1C1686.7 214 1686.5 218.9 1686.2 223.7C1686.5 223.7 1686.8 223.7 1687.1 223.8C1687.5 223.8 1687.8 223.9 1688.2 223.9C1688.5 219 1688.7 214.1 1688.7 209.1C1688.7 168.9 1679.4 132.9 1660.8 101.1C1642.2 68.9 1617.4 44 1586.3 26.6C1555 9.2 1520.7 0.5 1483.2 0.5C1445.7 0.5 1411.4 9.2 1380.3 26.7C1349.2 44.1 1324.4 69 1305.8 101.2C1291.3 125.8 1282.5 153 1279.3 182.6Z" fill="white"/>
        <path d="M1576.7 112.3C1551.2 86.7996 1520 74.0996 1483.2 74.0996C1446.3 74.0996 1415.1 86.7996 1389.7 112.3C1368.2 133.5 1355.8 159.7 1352.4 191.1C1353.1 191.2 1353.7 191.3 1354.4 191.3C1357.7 160.3 1370 134.5 1391.1 113.7C1416.2 88.5996 1446.9 76.0996 1483.2 76.0996C1519.5 76.0996 1550.2 88.5996 1575.3 113.7C1600.4 138.4 1612.9 170.2 1612.9 209.2C1612.9 212.2 1612.8 215.2 1612.7 218.1C1613.4 218.2 1614 218.2 1614.7 218.3C1614.8 215.3 1614.9 212.3 1614.9 209.3C1614.9 169.7 1602.2 137.4 1576.7 112.3Z" fill="white"/>
        <path d="M1067.4 164.8L1199.9 13.8002H1292.3L1155 170.3C1155.8 170.4 1156.7 170.4 1157.5 170.5L1295.3 13.4002L1296.7 11.7002H1199L1198.7 12.0002L1064.9 164.5C1065.7 164.7 1066.6 164.7 1067.4 164.8Z" fill="white"/>
        <path d="M249.7 196L208.9 88.2998L208 85.7998L207.1 88.2998L162.6 204.8C163.3 204.7 164.1 204.6 164.8 204.6L208 91.4998L247.6 196.2C248.3 196.1 249 196 249.7 196Z" fill="white"/>
        <path d="M594.2 170.1V13.7998H665.8V166.7C666.5 166.7 667.1 166.6 667.8 166.6V11.7998H592.2V170.2C592.8 170.1 593.5 170.1 594.2 170.1Z" fill="white"/>
        <path d="M460.4 178.3V13.7998H532V173.6C532.7 173.6 533.3 173.5 534 173.5V11.7998H458.4V178.4C459.1 178.4 459.7 178.3 460.4 178.3Z" fill="white"/>
        <path d="M79.8997 214L159.4 13.7998H254.3L324.4 189.1C325.1 189 325.8 189 326.5 188.9L255.9 12.3998L255.6 11.7998H158L157.8 12.3998L77.6997 214.3C78.3997 214.2 79.1997 214.1 79.8997 214Z" fill="white"/>
    </g>
    <defs>
    <clipPath id="clip0_651_27031">
    <rect width="1673" height="130" fill="white" transform="translate(0 291)"/>
    </clipPath>
    <clipPath id="clip1_651_27031">
    <rect width="1663" height="195" fill="white" transform="translate(25 162)"/>
    </clipPath>
    <clipPath id="clip2_651_27031">
    <rect width="1612" height="224" fill="white" transform="translate(77)"/>
    </clipPath>
    </defs>
</svg>
