<svg width="1690" height="421" viewBox="0 0 1690 421" fill="none" xmlns="http://www.w3.org/2000/svg">
<mask id="path-1-outside-1_643_16079" maskUnits="userSpaceOnUse" x="0" y="0" width="1690" height="421" fill="black">
<rect fill="white" width="1690" height="421"/>
<path d="M98.068 248.822H319.94V317.874H98.068V248.822ZM86.748 409H2.414L159.762 12.8H255.982L414.462 409H330.128L209.004 88.644L86.748 409ZM533.976 409H460.396V12.8H533.976V409ZM594.158 409V12.8H667.738V174.676H685.284L827.35 12.8H922.438L748.11 211.466L922.438 409H827.35L685.284 249.954H667.738V409H594.158ZM967.254 409V12.8H1040.83V174.676H1058.38L1200.45 12.8H1295.53L1121.21 211.466L1295.53 409H1200.45L1058.38 249.954H1040.83V409H967.254ZM1353.42 209.202C1353.42 249.199 1366.06 282.027 1391.34 307.686C1416.62 332.967 1447.56 345.608 1484.16 345.608C1520.76 345.608 1551.7 332.967 1576.99 307.686C1602.27 282.027 1614.91 249.199 1614.91 209.202C1614.91 169.959 1602.27 137.886 1576.99 112.982C1551.7 87.7007 1520.76 75.06 1484.16 75.06C1447.56 75.06 1416.62 87.7007 1391.34 112.982C1366.06 137.886 1353.42 169.959 1353.42 209.202ZM1279.84 209.202C1279.84 169.205 1289.08 133.358 1307.57 101.662C1326.06 69.5887 1350.77 44.8733 1381.72 27.516C1412.66 10.1587 1446.81 1.47998 1484.16 1.47998C1521.52 1.47998 1555.67 10.1587 1586.61 27.516C1617.55 44.8733 1642.26 69.5887 1660.75 101.662C1679.24 133.358 1688.49 169.205 1688.49 209.202C1688.49 239.389 1683.02 267.689 1672.07 294.102C1661.51 320.138 1646.98 342.401 1628.49 360.89C1610 379.002 1588.31 393.341 1563.4 403.906C1538.5 414.094 1512.08 419.188 1484.16 419.188C1456.24 419.188 1429.83 414.094 1404.92 403.906C1380.02 393.341 1358.32 379.002 1339.83 360.89C1321.34 342.401 1306.63 320.138 1295.68 294.102C1285.12 267.689 1279.84 239.389 1279.84 209.202Z"/>
</mask>
<path d="M98.068 248.822V247.822H97.068V248.822H98.068ZM319.94 248.822H320.94V247.822H319.94V248.822ZM319.94 317.874V318.874H320.94V317.874H319.94ZM98.068 317.874H97.068V318.874H98.068V317.874ZM86.748 409V410H87.4367L87.6823 409.357L86.748 409ZM2.414 409L1.48461 408.631L0.940883 410H2.414V409ZM159.762 12.8V11.8H159.083L158.833 12.4309L159.762 12.8ZM255.982 12.8L256.91 12.4286L256.659 11.8H255.982V12.8ZM414.462 409V410H415.939L415.391 408.629L414.462 409ZM330.128 409L329.193 409.354L329.437 410H330.128V409ZM209.004 88.644L209.939 88.2903L209.008 85.8279L208.07 88.2874L209.004 88.644ZM98.068 248.822V249.822H319.94V248.822V247.822H98.068V248.822ZM319.94 248.822H318.94V317.874H319.94H320.94V248.822H319.94ZM319.94 317.874V316.874H98.068V317.874V318.874H319.94V317.874ZM98.068 317.874H99.068V248.822H98.068H97.068V317.874H98.068ZM86.748 409V408H2.414V409V410H86.748V409ZM2.414 409L3.34339 409.369L160.691 13.1691L159.762 12.8L158.833 12.4309L1.48461 408.631L2.414 409ZM159.762 12.8V13.8H255.982V12.8V11.8H159.762V12.8ZM255.982 12.8L255.054 13.1714L413.534 409.371L414.462 409L415.391 408.629L256.91 12.4286L255.982 12.8ZM414.462 409V408H330.128V409V410H414.462V409ZM330.128 409L331.063 408.646L209.939 88.2903L209.004 88.644L208.069 88.9976L329.193 409.354L330.128 409ZM209.004 88.644L208.07 88.2874L85.8137 408.643L86.748 409L87.6823 409.357L209.938 89.0005L209.004 88.644ZM533.976 409V410H534.976V409H533.976ZM460.396 409H459.396V410H460.396V409ZM460.396 12.8V11.8H459.396V12.8H460.396ZM533.976 12.8H534.976V11.8H533.976V12.8ZM533.976 409V408H460.396V409V410H533.976V409ZM460.396 409H461.396V12.8H460.396H459.396V409H460.396ZM460.396 12.8V13.8H533.976V12.8V11.8H460.396V12.8ZM533.976 12.8H532.976V409H533.976H534.976V12.8H533.976ZM594.158 409H593.158V410H594.158V409ZM594.158 12.8V11.8H593.158V12.8H594.158ZM667.738 12.8H668.738V11.8H667.738V12.8ZM667.738 174.676H666.738V175.676H667.738V174.676ZM685.284 174.676V175.676H685.737L686.036 175.336L685.284 174.676ZM827.35 12.8V11.8H826.897L826.599 12.1404L827.35 12.8ZM922.438 12.8L923.19 13.4595L924.646 11.8H922.438V12.8ZM748.11 211.466L747.359 210.806L746.778 211.468L747.36 212.128L748.11 211.466ZM922.438 409V410H924.654L923.188 408.338L922.438 409ZM827.35 409L826.604 409.666L826.903 410H827.35V409ZM685.284 249.954L686.03 249.288L685.732 248.954H685.284V249.954ZM667.738 249.954V248.954H666.738V249.954H667.738ZM667.738 409V410H668.738V409H667.738ZM594.158 409H595.158V12.8H594.158H593.158V409H594.158ZM594.158 12.8V13.8H667.738V12.8V11.8H594.158V12.8ZM667.738 12.8H666.738V174.676H667.738H668.738V12.8H667.738ZM667.738 174.676V175.676H685.284V174.676V173.676H667.738V174.676ZM685.284 174.676L686.036 175.336L828.102 13.4596L827.35 12.8L826.599 12.1404L684.533 174.016L685.284 174.676ZM827.35 12.8V13.8H922.438V12.8V11.8H827.35V12.8ZM922.438 12.8L921.687 12.1404L747.359 210.806L748.11 211.466L748.862 212.126L923.19 13.4595L922.438 12.8ZM748.11 211.466L747.36 212.128L921.688 409.662L922.438 409L923.188 408.338L748.86 210.804L748.11 211.466ZM922.438 409V408H827.35V409V410H922.438V409ZM827.35 409L828.096 408.334L686.03 249.288L685.284 249.954L684.538 250.62L826.604 409.666L827.35 409ZM685.284 249.954V248.954H667.738V249.954V250.954H685.284V249.954ZM667.738 249.954H666.738V409H667.738H668.738V249.954H667.738ZM667.738 409V408H594.158V409V410H667.738V409ZM967.254 409H966.254V410H967.254V409ZM967.254 12.8V11.8H966.254V12.8H967.254ZM1040.83 12.8H1041.83V11.8H1040.83V12.8ZM1040.83 174.676H1039.83V175.676H1040.83V174.676ZM1058.38 174.676V175.676H1058.83L1059.13 175.336L1058.38 174.676ZM1200.45 12.8V11.8H1199.99L1199.69 12.1404L1200.45 12.8ZM1295.53 12.8L1296.29 13.4595L1297.74 11.8H1295.53V12.8ZM1121.21 211.466L1120.45 210.806L1119.87 211.468L1120.46 212.128L1121.21 211.466ZM1295.53 409V410H1297.75L1296.28 408.338L1295.53 409ZM1200.45 409L1199.7 409.666L1200 410H1200.45V409ZM1058.38 249.954L1059.13 249.288L1058.83 248.954H1058.38V249.954ZM1040.83 249.954V248.954H1039.83V249.954H1040.83ZM1040.83 409V410H1041.83V409H1040.83ZM967.254 409H968.254V12.8H967.254H966.254V409H967.254ZM967.254 12.8V13.8H1040.83V12.8V11.8H967.254V12.8ZM1040.83 12.8H1039.83V174.676H1040.83H1041.83V12.8H1040.83ZM1040.83 174.676V175.676H1058.38V174.676V173.676H1040.83V174.676ZM1058.38 174.676L1059.13 175.336L1201.2 13.4596L1200.45 12.8L1199.69 12.1404L1057.63 174.016L1058.38 174.676ZM1200.45 12.8V13.8H1295.53V12.8V11.8H1200.45V12.8ZM1295.53 12.8L1294.78 12.1404L1120.45 210.806L1121.21 211.466L1121.96 212.126L1296.29 13.4595L1295.53 12.8ZM1121.21 211.466L1120.46 212.128L1294.78 409.662L1295.53 409L1296.28 408.338L1121.96 210.804L1121.21 211.466ZM1295.53 409V408H1200.45V409V410H1295.53V409ZM1200.45 409L1201.19 408.334L1059.13 249.288L1058.38 249.954L1057.63 250.62L1199.7 409.666L1200.45 409ZM1058.38 249.954V248.954H1040.83V249.954V250.954H1058.38V249.954ZM1040.83 249.954H1039.83V409H1040.83H1041.83V249.954H1040.83ZM1040.83 409V408H967.254V409V410H1040.83V409ZM1391.34 307.686L1390.63 308.388L1390.63 308.393L1391.34 307.686ZM1576.99 307.686L1577.69 308.393L1577.7 308.388L1576.99 307.686ZM1576.99 112.982L1576.28 113.689L1576.28 113.694L1576.99 112.982ZM1391.34 112.982L1392.04 113.694L1392.05 113.689L1391.34 112.982ZM1307.57 101.662L1308.43 102.166L1308.44 102.161L1307.57 101.662ZM1586.61 27.516L1587.1 26.6438L1586.61 27.516ZM1660.75 101.662L1659.89 102.161L1659.89 102.166L1660.75 101.662ZM1672.07 294.102L1671.15 293.719L1671.15 293.726L1672.07 294.102ZM1628.49 360.89L1629.19 361.604L1629.2 361.597L1628.49 360.89ZM1563.4 403.906L1563.78 404.832L1563.79 404.827L1563.4 403.906ZM1404.92 403.906L1404.53 404.827L1404.54 404.832L1404.92 403.906ZM1339.83 360.89L1339.13 361.597L1339.13 361.604L1339.83 360.89ZM1295.68 294.102L1294.76 294.473L1294.76 294.481L1294.76 294.489L1295.68 294.102ZM1353.42 209.202H1352.42C1352.42 249.43 1365.14 282.521 1390.63 308.388L1391.34 307.686L1392.05 306.984C1366.97 281.534 1354.42 248.968 1354.42 209.202H1353.42ZM1391.34 307.686L1390.63 308.393C1416.1 333.867 1447.3 346.608 1484.16 346.608V345.608V344.608C1447.82 344.608 1417.13 332.068 1392.05 306.979L1391.34 307.686ZM1484.16 345.608V346.608C1521.02 346.608 1552.22 333.867 1577.69 308.393L1576.99 307.686L1576.28 306.979C1551.19 332.068 1520.51 344.608 1484.16 344.608V345.608ZM1576.99 307.686L1577.7 308.388C1603.19 282.521 1615.91 249.43 1615.91 209.202H1614.91H1613.91C1613.91 248.968 1601.35 281.534 1576.27 306.984L1576.99 307.686ZM1614.91 209.202H1615.91C1615.91 169.723 1603.18 137.382 1577.69 112.27L1576.99 112.982L1576.28 113.694C1601.35 138.39 1613.91 170.196 1613.91 209.202H1614.91ZM1576.99 112.982L1577.69 112.275C1552.22 86.8011 1521.02 74.06 1484.16 74.06V75.06V76.06C1520.51 76.06 1551.19 88.6002 1576.28 113.689L1576.99 112.982ZM1484.16 75.06V74.06C1447.3 74.06 1416.1 86.8011 1390.63 112.275L1391.34 112.982L1392.05 113.689C1417.13 88.6002 1447.82 76.06 1484.16 76.06V75.06ZM1391.34 112.982L1390.64 112.27C1365.14 137.382 1352.42 169.723 1352.42 209.202H1353.42H1354.42C1354.42 170.196 1366.97 138.39 1392.04 113.694L1391.34 112.982ZM1279.84 209.202H1280.84C1280.84 169.365 1290.04 133.695 1308.43 102.166L1307.57 101.662L1306.71 101.158C1288.12 133.021 1278.84 169.044 1278.84 209.202H1279.84ZM1307.57 101.662L1308.44 102.161C1326.84 70.2369 1351.43 45.6535 1382.21 28.3881L1381.72 27.516L1381.23 26.6438C1350.12 44.0931 1325.28 68.9404 1306.7 101.163L1307.57 101.662ZM1381.72 27.516L1382.21 28.3881C1412.99 11.1191 1446.97 2.47998 1484.16 2.47998V1.47998V0.479984C1446.64 0.479984 1412.33 9.19819 1381.23 26.6438L1381.72 27.516ZM1484.16 1.47998V2.47998C1521.36 2.47998 1555.34 11.1191 1586.12 28.3881L1586.61 27.516L1587.1 26.6438C1556 9.19819 1521.68 0.479984 1484.16 0.479984V1.47998ZM1586.61 27.516L1586.12 28.3881C1616.9 45.6535 1641.48 70.2369 1659.89 102.161L1660.75 101.662L1661.62 101.163C1643.05 68.9404 1618.2 44.0931 1587.1 26.6438L1586.61 27.516ZM1660.75 101.662L1659.89 102.166C1678.28 133.695 1687.49 169.365 1687.49 209.202H1688.49H1689.49C1689.49 169.044 1680.2 133.021 1661.62 101.158L1660.75 101.662ZM1688.49 209.202H1687.49C1687.49 239.265 1682.04 267.434 1671.15 293.719L1672.07 294.102L1673 294.485C1683.99 267.943 1689.49 239.513 1689.49 209.202H1688.49ZM1672.07 294.102L1671.15 293.726C1660.63 319.647 1646.17 341.795 1627.79 360.183L1628.49 360.89L1629.2 361.597C1647.79 343.006 1662.39 320.629 1673 294.478L1672.07 294.102ZM1628.49 360.89L1627.79 360.176C1609.4 378.196 1587.81 392.467 1563.01 402.985L1563.4 403.906L1563.79 404.827C1588.81 394.215 1610.61 379.808 1629.19 361.604L1628.49 360.89ZM1563.4 403.906L1563.02 402.98C1538.24 413.117 1511.96 418.188 1484.16 418.188V419.188V420.188C1512.21 420.188 1538.75 415.071 1563.78 404.832L1563.4 403.906ZM1484.16 419.188V418.188C1456.36 418.188 1430.08 413.117 1405.3 402.98L1404.92 403.906L1404.54 404.832C1429.57 415.071 1456.11 420.188 1484.16 420.188V419.188ZM1404.92 403.906L1405.31 402.985C1380.52 392.467 1358.93 378.196 1340.53 360.176L1339.83 360.89L1339.13 361.604C1357.72 379.808 1379.52 394.215 1404.53 404.827L1404.92 403.906ZM1339.83 360.89L1340.54 360.183C1322.15 341.792 1307.5 319.641 1296.61 293.715L1295.68 294.102L1294.76 294.489C1305.75 320.635 1320.54 343.009 1339.13 361.597L1339.83 360.89ZM1295.68 294.102L1296.61 293.731C1286.1 267.442 1280.84 239.269 1280.84 209.202H1279.84H1278.84C1278.84 239.508 1284.14 267.935 1294.76 294.473L1295.68 294.102Z" fill="white" mask="url(#path-1-outside-1_643_16079)"/>
</svg>
