<svg width="1673" height="130" viewBox="0 0 1673 130" fill="none" xmlns="http://www.w3.org/2000/svg">
<g clip-path="url(#clip0_769_23161)">
<path d="M1591 0.200195C1590.2 0.200195 1589.4 0.200195 1588.6 0.200195C1584.6 5.8002 1580.2 11.0002 1575.3 16.1002C1550.2 41.2002 1519.5 53.7002 1483.2 53.7002C1446.9 53.7002 1416.2 41.2002 1391.1 16.1002C1388 12.9002 1385 9.60019 1382.3 6.2002C1381.5 6.3002 1380.7 6.30018 1379.9 6.40018C1382.9 10.2002 1386.2 13.9002 1389.7 17.5002C1415.2 43.0002 1446.4 55.7002 1483.2 55.7002C1520.1 55.7002 1551.3 43.0002 1576.7 17.5002C1582 12.0002 1586.8 6.2002 1591 0.200195Z" fill="white"/>
<path d="M841.6 26C840.7 26 839.9 26.1 839 26.1L919.2 117H826.8L749.7 30.7C748.8 30.7 748 30.8 747.1 30.8L825.5 118.6L825.8 118.9H923.6L922.1 117.2L841.6 26Z" fill="white"/>
<path d="M665.7 36.0004V117H594.1V41.6004C593.4 41.7004 592.8 41.7004 592.1 41.8004V119H667.7V35.9004C667.1 35.9004 666.4 36.0004 665.7 36.0004Z" fill="white"/>
<path d="M532 47.3006V117.001H460.4V55.1006C459.7 55.2006 459.1 55.3006 458.4 55.3006V119.001H534V47.1006C533.3 47.1006 532.6 47.2006 532 47.3006Z" fill="white"/>
<path d="M1038.8 33.4998V117H967.2V28.0998C966.5 27.9998 965.9 27.8998 965.2 27.7998V119H1040.8V33.4998C1040.2 33.4998 1039.5 33.4998 1038.8 33.4998Z" fill="white"/>
<path d="M1217.3 28.9004C1216.5 29.0004 1215.7 29.1004 1214.9 29.2004L1292.3 116.9H1199.9L1128.8 37.3004C1127.9 37.3004 1127.1 37.4004 1126.2 37.4004L1198.8 118.6L1199.1 118.9H1296.9L1295.4 117.2L1217.3 28.9004Z" fill="white"/>
<path d="M1670.4 2.10059C1670.3 2.30059 1670.2 2.50059 1670.2 2.70059C1659.7 28.6006 1645.2 50.8006 1626.8 69.2006C1608.4 87.2006 1586.8 101.501 1562 112.001C1537.2 122.101 1510.9 127.201 1483.1 127.201C1455.3 127.201 1429 122.101 1404.2 112.001C1379.4 101.501 1357.8 87.2006 1339.4 69.2006C1324.2 54.0006 1311.5 36.2006 1301.4 15.8006C1300.7 15.9006 1300 16.0006 1299.3 16.1006C1309.5 36.9006 1322.4 55.1006 1337.9 70.6006C1356.5 88.8006 1378.3 103.201 1403.3 113.801C1428.3 124.001 1454.9 129.201 1482.9 129.201C1510.9 129.201 1537.5 124.101 1562.5 113.801C1587.5 103.201 1609.3 88.8006 1627.9 70.6006C1646.5 52.0006 1661.1 29.6006 1671.7 3.50058C1671.9 3.10058 1672 2.70059 1672.2 2.20059C1671.8 2.20059 1671.1 2.20059 1670.4 2.10059Z" fill="white"/>
<path d="M414.4 117.6L392.3 62.5C391.6 62.6 390.9 62.6 390.2 62.7L412 117H329.8L310.8 66.8C310.1 66.8 309.4 66.9 308.7 66.9L328.2 118.4L328.4 119H414.9L414.4 117.6Z" fill="white"/>
<path d="M107.7 57.6L85.0999 117H2.8999L26.4999 57.5C25.7999 57.6 24.9999 57.7 24.2999 57.7L0.499902 117.6L-0.100098 119H86.3999L86.5999 118.4L109.7 58C109.1 57.8 108.4 57.7 107.7 57.6Z" fill="white"/>
</g>
<defs>
<clipPath id="clip0_769_23161">
<rect width="1673" height="130" fill="white"/>
</clipPath>
</defs>
</svg>
