<svg width="1612" height="224" viewBox="0 0 1612 224" fill="none" xmlns="http://www.w3.org/2000/svg">
<g clip-path="url(#clip0_769_23158)">
<path d="M890.3 161.9V13.7998H961.9V163.6C962.6 163.6 963.2 163.6 963.9 163.7V11.7998H888.3V161.8C888.9 161.8 889.6 161.9 890.3 161.9Z" fill="white"/>
<path d="M616.5 165.7L749.8 13.7998H842.2L711.4 162.9C712.3 162.9 713.2 162.9 714.1 162.8L845.2 13.4998L846.7 11.7998H749L748.7 12.0998L613.8 165.8C614.7 165.7 615.6 165.7 616.5 165.7Z" fill="white"/>
<path d="M1202.3 182.6C1203 182.7 1203.6 182.7 1204.3 182.8C1207.5 153.4 1216.2 126.5 1230.5 102.1C1248.9 70.2 1273.5 45.6 1304.3 28.3C1335.1 11 1369.1 2.4 1406.3 2.4C1443.5 2.4 1477.5 11 1508.3 28.3C1539.1 45.6 1563.7 70.1 1582.1 102.1C1600.5 133.6 1609.7 169.3 1609.7 209.1C1609.7 214 1609.5 218.9 1609.2 223.7C1609.5 223.7 1609.8 223.7 1610.1 223.8C1610.5 223.8 1610.8 223.9 1611.2 223.9C1611.5 219 1611.7 214.1 1611.7 209.1C1611.7 168.9 1602.4 132.9 1583.8 101.1C1565.2 68.9 1540.4 44 1509.3 26.6C1478 9.2 1443.7 0.5 1406.2 0.5C1368.7 0.5 1334.4 9.2 1303.3 26.7C1272.2 44.1 1247.4 69 1228.8 101.2C1214.3 125.8 1205.5 153 1202.3 182.6Z" fill="white"/>
<path d="M1499.7 112.3C1474.2 86.7996 1443 74.0996 1406.2 74.0996C1369.3 74.0996 1338.1 86.7996 1312.7 112.3C1291.2 133.5 1278.8 159.7 1275.4 191.1C1276.1 191.2 1276.7 191.3 1277.4 191.3C1280.7 160.3 1293 134.5 1314.1 113.7C1339.2 88.5996 1369.9 76.0996 1406.2 76.0996C1442.5 76.0996 1473.2 88.5996 1498.3 113.7C1523.4 138.4 1535.9 170.2 1535.9 209.2C1535.9 212.2 1535.8 215.2 1535.7 218.1C1536.4 218.2 1537 218.2 1537.7 218.3C1537.8 215.3 1537.9 212.3 1537.9 209.3C1537.9 169.7 1525.2 137.4 1499.7 112.3Z" fill="white"/>
<path d="M990.4 164.8L1122.9 13.8002H1215.3L1078 170.3C1078.8 170.4 1079.7 170.4 1080.5 170.5L1218.3 13.4002L1219.7 11.7002H1122L1121.7 12.0002L987.9 164.5C988.7 164.7 989.6 164.7 990.4 164.8Z" fill="white"/>
<path d="M172.7 196L131.9 88.2998L131 85.7998L130.1 88.2998L85.5997 204.8C86.2997 204.7 87.0997 204.6 87.7997 204.6L131 91.4998L170.6 196.2C171.3 196.1 172 196 172.7 196Z" fill="white"/>
<path d="M517.2 170.1V13.7998H588.8V166.7C589.5 166.7 590.1 166.6 590.8 166.6V11.7998H515.2V170.2C515.8 170.1 516.5 170.1 517.2 170.1Z" fill="white"/>
<path d="M383.4 178.3V13.7998H455V173.6C455.7 173.6 456.3 173.5 457 173.5V11.7998H381.4V178.4C382.1 178.4 382.7 178.3 383.4 178.3Z" fill="white"/>
<path d="M2.89971 214L82.3997 13.7998H177.3L247.4 189.1C248.1 189 248.8 189 249.5 188.9L178.9 12.3998L178.6 11.7998H80.9997L80.7997 12.3998L0.699707 214.3C1.39971 214.2 2.19971 214.1 2.89971 214Z" fill="white"/>
</g>
<defs>
<clipPath id="clip0_769_23158">
<rect width="1612" height="224" fill="white"/>
</clipPath>
</defs>
</svg>
