<svg version="1.1" id="Слой_1" xmlns="http://www.w3.org/2000/svg" xmlns:xlink="http://www.w3.org/1999/xlink" x="0px" y="0px"
	 width="1690px" height="421px" viewBox="0 0 1690 421" style="enable-background:new 0 0 1690 421;" xml:space="preserve">
<style type="text/css">
	.st0{fill:#FFFFFF;filter:url(#Adobe_OpacityMaskFilter);}
	
		.st1{mask:url(#path-1-outside-1_643_16079_00000036217687532407495460000007219948209424738693_);fill:#FFFFFF;stroke:#000000;stroke-miterlimit:10;}
</style>
<defs>
	<filter id="Adobe_OpacityMaskFilter" filterUnits="userSpaceOnUse" x="0.2" y="0" width="1689.8" height="420.7">
		<feColorMatrix  type="matrix" values="1 0 0 0 0  0 1 0 0 0  0 0 1 0 0  0 0 0 1 0"/>
	</filter>
</defs>
<mask maskUnits="userSpaceOnUse" x="0.2" y="0" width="1689.8" height="420.7" id="path-1-outside-1_643_16079_00000036217687532407495460000007219948209424738693_">
	<rect y="0" class="st0" width="1690" height="421"/>
	<path d="M98.1,248.8h221.9v69.1H98.1V248.8z M86.7,409H2.4L159.8,12.8H256L414.5,409h-84.3L209,88.6L86.7,409z M534,409h-73.6V12.8
		H534V409z M594.2,409V12.8h73.6v161.9h17.5L827.3,12.8h95.1L748.1,211.5L922.4,409h-95.1L685.3,250h-17.5v159H594.2z M967.3,409
		V12.8h73.6v161.9h17.6l142.1-161.9h95.1l-174.3,198.7L1295.5,409h-95.1l-142.1-159h-17.6v159H967.3z M1353.4,209.2
		c0,40,12.6,72.8,37.9,98.5c25.3,25.3,56.2,37.9,92.8,37.9s67.5-12.6,92.8-37.9c25.3-25.7,37.9-58.5,37.9-98.5
		c0-39.2-12.6-71.3-37.9-96.2c-25.3-25.3-56.2-37.9-92.8-37.9s-67.5,12.6-92.8,37.9C1366.1,137.9,1353.4,170,1353.4,209.2z
		 M1279.8,209.2c0-40,9.2-75.8,27.7-107.5c18.5-32.1,43.2-56.8,74.2-74.1c30.9-17.4,65.1-26,102.4-26c37.4,0,71.5,8.7,102.4,26
		c30.9,17.4,55.7,42.1,74.1,74.1c18.5,31.7,27.7,67.5,27.7,107.5c0,30.2-5.5,58.5-16.4,84.9c-10.6,26-25.1,48.3-43.6,66.8
		c-18.5,18.1-40.2,32.5-65.1,43c-24.9,10.2-51.3,15.3-79.2,15.3c-27.9,0-54.3-5.1-79.2-15.3c-24.9-10.6-46.6-24.9-65.1-43
		c-18.5-18.5-33.2-40.8-44.1-66.8C1285.1,267.7,1279.8,239.4,1279.8,209.2z"/>
</mask>
<path class="st1" d="M98.1,248.8v-1h-1v1H98.1z M319.9,248.8h1v-1h-1V248.8z M319.9,317.9v1h1v-1H319.9z M98.1,317.9h-1v1h1V317.9z
	 M86.7,409v1h0.7l0.2-0.6L86.7,409z M2.4,409l-0.9-0.4L0.9,410h1.5V409z M159.8,12.8v-1h-0.7l-0.2,0.6L159.8,12.8z M256,12.8
	l0.9-0.4l-0.3-0.6H256V12.8z M414.5,409v1h1.5l-0.5-1.4L414.5,409z M330.1,409l-0.9,0.4l0.2,0.6h0.7V409z M209,88.6l0.9-0.4
	l-0.9-2.5l-0.9,2.5L209,88.6z M98.1,248.8v1h221.9v-1v-1H98.1V248.8z M319.9,248.8h-1v69.1h1h1v-69.1H319.9z M319.9,317.9v-1H98.1v1
	v1h221.9V317.9z M98.1,317.9h1v-69.1h-1h-1v69.1H98.1z M86.7,409v-1H2.4v1v1h84.3V409z M2.4,409l0.9,0.4L160.7,13.2l-0.9-0.4
	l-0.9-0.4L1.5,408.6L2.4,409z M159.8,12.8v1H256v-1v-1h-96.2V12.8z M256,12.8l-0.9,0.4l158.5,396.2l0.9-0.4l0.9-0.4L256.9,12.4
	L256,12.8z M414.5,409v-1h-84.3v1v1h84.3V409z M330.1,409l0.9-0.4L209.9,88.3l-0.9,0.4l-0.9,0.4l121.1,320.4L330.1,409z M209,88.6
	l-0.9-0.4L85.8,408.6l0.9,0.4l0.9,0.4L209.9,89L209,88.6z M534,409v1h1v-1H534z M460.4,409h-1v1h1V409z M460.4,12.8v-1h-1v1H460.4z
	 M534,12.8h1v-1h-1V12.8z M534,409v-1h-73.6v1v1H534V409z M460.4,409h1V12.8h-1h-1V409H460.4z M460.4,12.8v1H534v-1v-1h-73.6V12.8z
	 M534,12.8h-1V409h1h1V12.8H534z M594.2,409h-1v1h1V409z M594.2,12.8v-1h-1v1H594.2z M667.7,12.8h1v-1h-1V12.8z M667.7,174.7h-1v1h1
	V174.7z M685.3,174.7v1h0.5l0.3-0.3L685.3,174.7z M827.3,12.8v-1h-0.5l-0.3,0.3L827.3,12.8z M922.4,12.8l0.8,0.7l1.5-1.7h-2.2V12.8z
	 M748.1,211.5l-0.8-0.7l-0.6,0.7l0.6,0.7L748.1,211.5z M922.4,409v1h2.2l-1.5-1.7L922.4,409z M827.3,409l-0.7,0.7l0.3,0.3h0.4V409z
	 M685.3,250l0.7-0.7l-0.3-0.3h-0.4V250z M667.7,250v-1h-1v1H667.7z M667.7,409v1h1v-1H667.7z M594.2,409h1V12.8h-1h-1V409H594.2z
	 M594.2,12.8v1h73.6v-1v-1h-73.6V12.8z M667.7,12.8h-1v161.9h1h1V12.8H667.7z M667.7,174.7v1h17.5v-1v-1h-17.5V174.7z M685.3,174.7
	l0.8,0.7L828.1,13.5l-0.8-0.7l-0.8-0.7L684.5,174L685.3,174.7z M827.3,12.8v1h95.1v-1v-1h-95.1V12.8z M922.4,12.8l-0.8-0.7
	L747.4,210.8l0.8,0.7l0.8,0.7L923.2,13.5L922.4,12.8z M748.1,211.5l-0.8,0.7l174.3,197.5l0.8-0.7l0.8-0.7L748.9,210.8L748.1,211.5z
	 M922.4,409v-1h-95.1v1v1h95.1V409z M827.3,409l0.7-0.7L686,249.3l-0.7,0.7l-0.7,0.7l142.1,159L827.3,409z M685.3,250v-1h-17.5v1v1
	h17.5V250z M667.7,250h-1v159h1h1V250H667.7z M667.7,409v-1h-73.6v1v1h73.6V409z M967.3,409h-1v1h1V409z M967.3,12.8v-1h-1v1H967.3z
	 M1040.8,12.8h1v-1h-1V12.8z M1040.8,174.7h-1v1h1V174.7z M1058.4,174.7v1h0.4l0.3-0.3L1058.4,174.7z M1200.4,12.8v-1h-0.5l-0.3,0.3
	L1200.4,12.8z M1295.5,12.8l0.8,0.7l1.4-1.7h-2.2V12.8z M1121.2,211.5l-0.8-0.7l-0.6,0.7l0.6,0.7L1121.2,211.5z M1295.5,409v1h2.2
	l-1.5-1.7L1295.5,409z M1200.4,409l-0.8,0.7l0.3,0.3h0.4V409z M1058.4,250l0.8-0.7l-0.3-0.3h-0.4V250z M1040.8,250v-1h-1v1H1040.8z
	 M1040.8,409v1h1v-1H1040.8z M967.3,409h1V12.8h-1h-1V409H967.3z M967.3,12.8v1h73.6v-1v-1h-73.6V12.8z M1040.8,12.8h-1v161.9h1h1
	V12.8H1040.8z M1040.8,174.7v1h17.6v-1v-1h-17.6V174.7z M1058.4,174.7l0.8,0.7l142.1-161.9l-0.8-0.7l-0.8-0.7L1057.6,174
	L1058.4,174.7z M1200.4,12.8v1h95.1v-1v-1h-95.1V12.8z M1295.5,12.8l-0.8-0.7l-174.3,198.7l0.8,0.7l0.8,0.7l174.3-198.7L1295.5,12.8
	z M1121.2,211.5l-0.8,0.7l174.3,197.5l0.8-0.7l0.8-0.7L1122,210.8L1121.2,211.5z M1295.5,409v-1h-95.1v1v1h95.1V409z M1200.4,409
	l0.7-0.7l-142.1-159l-0.8,0.7l-0.8,0.7l142.1,159L1200.4,409z M1058.4,250v-1h-17.6v1v1h17.6V250z M1040.8,250h-1v159h1h1V250
	H1040.8z M1040.8,409v-1h-73.6v1v1h73.6V409z M1391.3,307.7l-0.7,0.7v0L1391.3,307.7z M1577,307.7l0.7,0.7l0,0L1577,307.7z
	 M1577,113l-0.7,0.7v0L1577,113z M1391.3,113l0.7,0.7l0,0L1391.3,113z M1307.6,101.7l0.9,0.5l0,0L1307.6,101.7z M1586.6,27.5
	l0.5-0.9L1586.6,27.5z M1660.8,101.7l-0.9,0.5v0L1660.8,101.7z M1672.1,294.1l-0.9-0.4v0L1672.1,294.1z M1628.5,360.9l0.7,0.7l0,0
	L1628.5,360.9z M1563.4,403.9l0.4,0.9l0,0L1563.4,403.9z M1404.9,403.9l-0.4,0.9l0,0L1404.9,403.9z M1339.8,360.9l-0.7,0.7v0
	L1339.8,360.9z M1295.7,294.1l-0.9,0.4v0v0L1295.7,294.1z M1353.4,209.2h-1c0,40.2,12.7,73.3,38.2,99.2l0.7-0.7l0.7-0.7
	c-25.1-25.5-37.6-58-37.6-97.8H1353.4z M1391.3,307.7l-0.7,0.7c25.5,25.5,56.7,38.2,93.5,38.2v-1v-1c-36.3,0-67-12.5-92.1-37.6
	L1391.3,307.7z M1484.2,345.6v1c36.9,0,68.1-12.7,93.5-38.2l-0.7-0.7l-0.7-0.7c-25.1,25.1-55.8,37.6-92.1,37.6V345.6z M1577,307.7
	l0.7,0.7c25.5-25.9,38.2-59,38.2-99.2h-1h-1c0,39.8-12.6,72.3-37.6,97.8L1577,307.7z M1614.9,209.2h1c0-39.5-12.7-71.8-38.2-96.9
	l-0.7,0.7l-0.7,0.7c25.1,24.7,37.6,56.5,37.6,95.5H1614.9z M1577,113l0.7-0.7c-25.5-25.5-56.7-38.2-93.5-38.2v1v1
	c36.3,0,67,12.5,92.1,37.6L1577,113z M1484.2,75.1v-1c-36.9,0-68.1,12.7-93.5,38.2l0.7,0.7l0.7,0.7c25.1-25.1,55.8-37.6,92.1-37.6
	V75.1z M1391.3,113l-0.7-0.7c-25.5,25.1-38.2,57.5-38.2,96.9h1h1c0-39,12.5-70.8,37.6-95.5L1391.3,113z M1279.8,209.2h1
	c0-39.8,9.2-75.5,27.6-107l-0.9-0.5l-0.9-0.5c-18.6,31.9-27.9,67.9-27.9,108H1279.8z M1307.6,101.7l0.9,0.5
	c18.4-31.9,43-56.5,73.8-73.8l-0.5-0.9l-0.5-0.9c-31.1,17.4-55.9,42.3-74.5,74.5L1307.6,101.7z M1381.7,27.5l0.5,0.9
	c30.8-17.3,64.8-25.9,102-25.9v-1v-1c-37.5,0-71.8,8.7-102.9,26.2L1381.7,27.5z M1484.2,1.5v1c37.2,0,71.2,8.6,102,25.9l0.5-0.9
	l0.5-0.9C1556,9.2,1521.7,0.5,1484.2,0.5V1.5z M1586.6,27.5l-0.5,0.9c30.8,17.3,55.4,41.8,73.8,73.8l0.9-0.5l0.9-0.5
	c-18.6-32.2-43.4-57.1-74.5-74.5L1586.6,27.5z M1660.8,101.7l-0.9,0.5c18.4,31.5,27.6,67.2,27.6,107h1h1c0-40.2-9.3-76.2-27.9-108
	L1660.8,101.7z M1688.5,209.2h-1c0,30.1-5.4,58.2-16.3,84.5l0.9,0.4l0.9,0.4c11-26.5,16.5-55,16.5-85.3H1688.5z M1672.1,294.1
	l-0.9-0.4c-10.5,25.9-25,48.1-43.4,66.5l0.7,0.7l0.7,0.7c18.6-18.6,33.2-41,43.8-67.1L1672.1,294.1z M1628.5,360.9l-0.7-0.7
	c-18.4,18-40,32.3-64.8,42.8l0.4,0.9l0.4,0.9c25-10.6,46.8-25,65.4-43.2L1628.5,360.9z M1563.4,403.9l-0.4-0.9
	c-24.8,10.1-51.1,15.2-78.9,15.2v1v1c28,0,54.6-5.1,79.6-15.4L1563.4,403.9z M1484.2,419.2v-1c-27.8,0-54.1-5.1-78.9-15.2l-0.4,0.9
	l-0.4,0.9c25,10.2,51.6,15.4,79.6,15.4V419.2z M1404.9,403.9l0.4-0.9c-24.8-10.5-46.4-24.8-64.8-42.8l-0.7,0.7l-0.7,0.7
	c18.6,18.2,40.4,32.6,65.4,43.2L1404.9,403.9z M1339.8,360.9l0.7-0.7c-18.4-18.4-33-40.5-43.9-66.5l-0.9,0.4l-0.9,0.4
	c11,26.1,25.8,48.5,44.4,67.1L1339.8,360.9z M1295.7,294.1l0.9-0.4c-10.5-26.3-15.8-54.5-15.8-84.5h-1h-1c0,30.3,5.3,58.7,15.9,85.3
	L1295.7,294.1z"/>
</svg>
